<svg width="57" height="72" viewBox="0 0 57 72" fill="none" xmlns="http://www.w3.org/2000/svg">
<g clip-path="url(#clip0_735_2730)">
<path d="M26.179 34.7395L25.4785 70.8161C25.4785 70.8161 25.8333 71.9611 27.0278 71.9986C28.3408 72.0398 28.6039 70.7953 28.6039 70.7953L27.4319 34.7188L26.179 34.7395Z" fill="#E73902"/>
<path d="M27.5723 27.9053C24.378 24.7572 20.8518 24.4886 17.2304 25.0476C17.2304 25.0476 14.5213 33.5116 14.7659 38.5553C15.1088 45.6261 21.6605 56.2734 21.6605 56.2734L27.5723 27.9053Z" fill="#8CC540"/>
<path d="M27.4668 28.4121C26.7207 28.638 26.0389 29.0645 25.3283 29.3817C21.7038 30.9999 18.3621 33.8783 16.0274 37.0789C15.5219 37.7719 15.1575 38.4695 14.816 39.2284C15.512 46.2814 21.6609 56.2737 21.6609 56.2737L27.4668 28.4121Z" fill="#597E27"/>
<path d="M28.2578 28.5596C31.4059 25.3653 31.6744 21.8391 31.1155 18.2177C31.1155 18.2177 22.6515 15.5086 17.6078 15.7532C10.537 16.0961 -0.110344 22.6478 -0.110344 22.6478L28.2578 28.5596Z" fill="#14A5C0"/>
<path d="M27.75 28.4541C27.5241 27.708 27.0977 27.0262 26.7804 26.3156C25.1622 22.6911 22.2838 19.3494 19.0832 17.0147C18.3902 16.5092 17.6926 16.1448 16.9337 15.8033C9.88074 16.4993 -0.111595 22.6482 -0.111595 22.6482L27.75 28.4541Z" fill="#0F7F94"/>
<path d="M27.7461 28.5586C24.598 31.7529 24.3295 35.279 24.8884 38.9005C24.8884 38.9005 33.3524 41.6095 38.3961 41.3649C45.4669 41.022 56.1143 34.4703 56.1143 34.4703L27.7461 28.5586Z" fill="#FD5723"/>
<path d="M28.2539 28.6641C28.4798 29.4101 28.9063 30.0919 29.2235 30.8026C30.8417 34.4271 33.7201 37.7688 36.9207 40.1034C37.6137 40.609 38.3113 40.9733 39.0702 41.3149C46.1232 40.6189 56.1155 34.47 56.1155 34.47L28.2539 28.6641Z" fill="#E73902"/>
<path d="M28.4661 28.6198C31.8086 31.61 35.3436 31.7082 38.9339 30.9751C38.9339 30.9751 41.2313 22.3902 40.7436 17.3643C40.0599 10.3182 33.0021 -0.000572943 33.0021 -0.000572943L28.4661 28.6198Z" fill="#FBB517"/>
<path d="M28.5469 28.1084C29.2812 27.8467 29.9416 27.3879 30.6361 27.0367C34.1783 25.2456 37.3772 22.2093 39.5547 18.8997C40.0262 18.1831 40.3565 17.4687 40.661 16.6942C39.6254 9.68307 33.0016 -0.000907911 33.0016 -0.000907911L28.5469 28.1084Z" fill="#E28A04"/>
<path d="M27.7037 29.9475C28.5692 29.9475 29.2707 29.2459 29.2707 28.3805C29.2707 27.5151 28.5692 26.8135 27.7037 26.8135C26.8383 26.8135 26.1367 27.5151 26.1367 28.3805C26.1367 29.2459 26.8383 29.9475 27.7037 29.9475Z" fill="#FBB517"/>
</g>
<defs>
<clipPath id="clip0_735_2730">
<rect width="56.2255" height="72" fill="white"/>
</clipPath>
</defs>
</svg>
