<svg width="228" height="53" viewBox="0 0 228 53" fill="none" xmlns="http://www.w3.org/2000/svg">
<mask id="path-1-outside-1_1119_7030" maskUnits="userSpaceOnUse" x="0" y="0" width="228" height="53" fill="black">
<rect fill="white" width="228" height="53"/>
<path d="M9.43066 48.2458C9.39671 47.1732 9.37973 46.0838 9.37973 44.9777C9.37973 43.905 9.37973 42.8324 9.37973 41.7598C9.37973 36.8324 9.48158 32.0559 9.68529 27.4302C9.889 22.771 10.1267 18.3296 10.3983 14.1061C9.04022 14.4413 7.90284 14.7598 6.98616 15.0614L5 7.01676C6.66362 6.51397 8.41211 6.07821 10.2455 5.7095C12.1128 5.30726 13.9292 4.98883 15.6947 4.75419C17.4941 4.48603 19.1408 4.30168 20.6346 4.20112C22.1624 4.06704 23.4186 4 24.4032 4C25.4557 4 26.7459 4.0838 28.2737 4.2514C29.8354 4.41899 31.4312 4.77095 33.0608 5.30726C34.7244 5.81006 36.2692 6.58101 37.6952 7.62011C39.1211 8.65922 40.2755 10.067 41.1582 11.8436C42.0749 13.5866 42.5333 15.7821 42.5333 18.4302C42.5333 21.1788 41.9221 23.4749 40.6999 25.3184C39.4776 27.1285 37.8649 28.5866 35.8618 29.6927C33.8587 30.7654 31.6518 31.5363 29.2413 32.0056C26.8307 32.4749 24.4541 32.7095 22.1115 32.7095C20.6176 32.7095 19.1917 32.6425 17.8336 32.5084C17.7997 34.1173 17.7827 35.7095 17.7827 37.2849C17.7827 39.4302 17.7997 41.4246 17.8336 43.2682C17.8676 45.0782 17.9355 46.6704 18.0373 48.0447L9.43066 48.2458ZM24.1486 12.2458C23.2659 12.2458 22.3492 12.2793 21.3985 12.3464C20.4818 12.4134 19.5651 12.4972 18.6485 12.5978C18.4787 14.3743 18.3429 16.3017 18.241 18.3799C18.1392 20.4581 18.0543 22.5866 17.9864 24.7654C19.2426 24.8659 20.5497 24.9162 21.9078 24.9162C30.0561 24.9162 34.1303 22.5363 34.1303 17.7765C34.1303 15.8994 33.3155 14.5084 31.6858 13.6034C30.0561 12.6983 27.5437 12.2458 24.1486 12.2458Z"/>
<path d="M61.3389 49C58.6228 49 56.2462 48.5642 54.2091 47.6927C52.206 46.8212 50.5423 45.6313 49.2182 44.1229C47.8941 42.581 46.9095 40.8212 46.2645 38.8436C45.6194 36.8659 45.2969 34.7877 45.2969 32.6089C45.2969 30.3966 45.6873 28.352 46.4682 26.4749C47.283 24.5642 48.3864 22.905 49.7784 21.4972C51.2044 20.0894 52.868 19 54.7693 18.229C56.6706 17.4246 58.7416 17.0223 60.9824 17.0223C63.325 17.0223 65.4979 17.4246 67.5011 18.229C69.5042 19.0335 71.2527 20.1564 72.7466 21.5978C74.2404 23.0391 75.3948 24.7318 76.2096 26.676C77.0584 28.6201 77.4828 30.7318 77.4828 33.0112C77.4828 38.0726 76.0738 42.0112 73.2558 44.8268C70.4379 47.6089 66.4655 49 61.3389 49ZM61.288 40.8547C63.7664 40.8547 65.6507 40.1676 66.9409 38.7933C68.265 37.419 68.927 35.4413 68.927 32.8603C68.927 30.5475 68.214 28.6872 66.7881 27.2793C65.3621 25.8715 63.4948 25.1676 61.1861 25.1676C59.7941 25.1676 58.5209 25.5363 57.3666 26.2737C56.2122 26.9777 55.2786 27.933 54.5656 29.1397C53.8866 30.3128 53.547 31.6201 53.547 33.0615C53.547 34.3352 53.8017 35.5754 54.3109 36.7821C54.8542 37.9888 55.703 38.9777 56.8573 39.7486C58.0117 40.486 59.4885 40.8547 61.288 40.8547Z"/>
<path d="M80.9144 48.4972C80.8125 45.5475 80.7276 42.8156 80.6597 40.3017C80.6258 37.7877 80.6088 35.3073 80.6088 32.8603C80.6088 30.4134 80.6258 27.9665 80.6597 25.5196C80.7276 23.0391 80.8295 20.3911 80.9653 17.5754H89.572C89.4362 19.0838 89.3174 20.6089 89.2155 22.1508C90.3698 20.7095 91.7449 19.5196 93.3406 18.581C94.9363 17.6089 96.8206 17.1229 98.9935 17.1229C101.132 17.1229 102.881 17.4749 104.239 18.1788C105.631 18.8827 106.717 19.8547 107.498 21.095C108.313 22.3352 108.89 23.7598 109.23 25.3687C109.603 26.9441 109.841 28.6536 109.943 30.4972C110.045 32.3073 110.096 34.1341 110.096 35.9777C110.096 37.9888 110.062 39.9162 109.994 41.7598C109.926 43.6034 109.858 45.1452 109.79 46.3855C109.722 47.6257 109.671 48.3631 109.637 48.5978H101.082C101.149 47.2235 101.217 45.7654 101.285 44.2235C101.353 42.648 101.421 41.1061 101.489 39.5978C101.557 38.0559 101.591 36.6648 101.591 35.4246C101.591 28.2849 100.419 24.7151 98.0768 24.7151C96.1416 24.7151 94.3761 25.5531 92.7804 27.2291C91.2186 28.8715 89.9115 30.9497 88.859 33.4637C88.859 33.7989 88.859 34.1341 88.859 34.4693C88.859 36.0782 88.859 37.7542 88.859 39.4972C88.893 41.2067 88.9269 42.8492 88.9609 44.4246C89.0288 45.9665 89.0797 47.3073 89.1136 48.4469L80.9144 48.4972Z"/>
<path d="M129.382 48.8492C127.345 48.8492 125.732 48.4134 124.544 47.5419C123.356 46.7039 122.49 45.5307 121.947 44.0223C121.404 42.514 121.047 40.7877 120.877 38.8436C120.742 36.8994 120.674 34.8548 120.674 32.7095C120.674 30.4972 120.759 28.2011 120.928 25.8212C118.654 26.1229 116.464 26.5084 114.359 26.9777L112.78 19.0838C115.598 18.3464 118.603 17.8101 121.794 17.4749C122.032 15.7654 122.286 13.9721 122.558 12.095C122.83 10.1844 123.135 8.17318 123.475 6.06145L132.234 6.81564C131.827 8.55866 131.47 10.3017 131.165 12.0447C130.859 13.7542 130.588 15.4134 130.35 17.0223C132.251 17.0223 134.034 17.0726 135.697 17.1732C137.395 17.2402 138.957 17.3743 140.383 17.5754L139.364 25.4693C138.176 25.3352 136.936 25.2514 135.646 25.2179C134.39 25.1508 133.117 25.1173 131.827 25.1173C131.046 25.1173 130.265 25.1341 129.484 25.1676C129.28 27.6145 129.145 29.7095 129.077 31.4525C129.043 33.1955 129.026 34.4358 129.026 35.1732C129.026 37.0168 129.128 38.3408 129.331 39.1453C129.569 39.9497 129.942 40.352 130.452 40.352C131.029 40.352 131.674 40.1676 132.387 39.7989C133.1 39.3967 133.796 38.8603 134.475 38.1899C135.188 37.5196 135.782 36.7989 136.257 36.0279L140.179 44.1229C136.818 47.2737 133.219 48.8492 129.382 48.8492Z"/>
<path d="M158.406 48.8994C155.147 48.8994 152.278 48.2626 149.8 46.9888C147.355 45.7486 145.437 44.0056 144.045 41.7598C142.687 39.514 142.008 36.9162 142.008 33.9665C142.008 32.1899 142.313 30.3296 142.924 28.3855C143.536 26.4078 144.52 24.5642 145.878 22.8547C147.236 21.1453 149.019 19.7542 151.226 18.6816C153.466 17.6089 156.183 17.0726 159.374 17.0726C161.683 17.0726 163.618 17.324 165.18 17.8268C166.775 18.3296 168.066 18.9832 169.05 19.7877C170.069 20.5922 170.833 21.4469 171.342 22.352C171.885 23.257 172.242 24.1285 172.411 24.9665C172.615 25.771 172.717 26.4413 172.717 26.9777C172.717 30.229 171.325 32.743 168.541 34.5196C165.791 36.2626 161.886 37.1341 156.828 37.1341C155.673 37.1341 154.57 37.0838 153.517 36.9832C152.499 36.8827 151.548 36.7654 150.665 36.6313C151.31 38.3073 152.38 39.5475 153.874 40.352C155.368 41.1229 156.912 41.5084 158.508 41.5084C160.817 41.5084 162.854 41.1061 164.619 40.3017C166.385 39.4637 168.049 38.1899 169.61 36.4804L174.143 42.9162C173.056 43.7877 171.834 44.6927 170.476 45.6313C169.152 46.5698 167.522 47.3408 165.587 47.9441C163.652 48.581 161.258 48.8994 158.406 48.8994ZM159.527 24.6145C157.524 24.6145 155.758 25.1173 154.23 26.1229C152.702 27.1285 151.582 28.4525 150.869 30.095C151.718 30.229 152.55 30.3464 153.365 30.4469C154.213 30.514 155.045 30.5475 155.86 30.5475C156.607 30.5475 157.456 30.4804 158.406 30.3464C159.391 30.2123 160.342 30.0112 161.258 29.743C162.209 29.4749 162.99 29.1397 163.601 28.7374C164.212 28.3017 164.518 27.7989 164.518 27.2291C164.518 26.9609 164.382 26.6257 164.11 26.2235C163.839 25.8212 163.346 25.4525 162.633 25.1173C161.92 24.7821 160.885 24.6145 159.527 24.6145Z"/>
<path d="M189.904 48.8492C187.357 48.8492 185.048 48.1955 182.977 46.8883C180.906 45.6145 179.26 43.8883 178.038 41.7095C176.849 39.4972 176.255 37.0335 176.255 34.3184C176.255 31.771 176.73 29.4749 177.681 27.4302C178.632 25.352 179.922 23.5754 181.551 22.1006C183.215 20.6257 185.099 19.5028 187.204 18.7318C189.309 17.9274 191.516 17.5251 193.825 17.5251C195.76 17.5251 197.661 17.7933 199.529 18.3296C199.665 17.6257 199.783 16.9218 199.885 16.2179L208.594 17.676C208.356 18.3128 208.118 19.2682 207.881 20.5419C207.643 21.8156 207.439 23.2402 207.27 24.8156C207.134 26.3911 207.015 27.9665 206.913 29.5419C206.811 31.1173 206.76 32.5419 206.76 33.8156C206.76 34.8547 206.828 35.8771 206.964 36.8827C207.134 37.8547 207.473 38.6592 207.983 39.2961C208.492 39.8994 209.273 40.2011 210.325 40.2011H211.038L209.765 48.9497C207.524 48.9497 205.674 48.5642 204.214 47.7933C202.754 47.0559 201.583 46.0503 200.7 44.7765C199.24 46.3855 197.577 47.4581 195.709 47.9944C193.842 48.5642 191.907 48.8492 189.904 48.8492ZM184.607 35.324C184.777 36.933 185.439 38.2235 186.593 39.1955C187.782 40.1341 189.275 40.6034 191.075 40.6034C192.806 40.6034 194.249 40.1508 195.404 39.2458C196.558 38.3073 197.509 37.0335 198.256 35.4246C198.222 34.8883 198.205 34.3352 198.205 33.7654C198.205 32.5922 198.239 31.3855 198.306 30.1453C198.374 28.905 198.459 27.6816 198.561 26.4749C197.135 25.9385 195.641 25.6704 194.08 25.6704C192.246 25.6704 190.6 26.0391 189.14 26.7765C187.714 27.4804 186.593 28.4693 185.778 29.743C184.964 31.0168 184.556 32.4916 184.556 34.1676C184.556 34.3687 184.556 34.5698 184.556 34.771C184.556 34.9721 184.573 35.1564 184.607 35.324Z"/>
<path d="M218.143 48.9497C216.853 48.9497 215.784 48.6648 214.935 48.095C214.086 47.5251 213.458 46.7877 213.051 45.8827C212.643 44.9777 212.44 44.0391 212.44 43.067C212.44 41.2235 213.034 39.8156 214.222 38.8436C215.41 37.838 216.836 37.3352 218.5 37.3352C220.197 37.3352 221.539 37.838 222.523 38.8436C223.508 39.8492 224 41.1899 224 42.8659C224 45.0112 223.406 46.5531 222.218 47.4916C221.063 48.4637 219.705 48.9497 218.143 48.9497Z"/>
</mask>
<path d="M9.43066 48.2458C9.39671 47.1732 9.37973 46.0838 9.37973 44.9777C9.37973 43.905 9.37973 42.8324 9.37973 41.7598C9.37973 36.8324 9.48158 32.0559 9.68529 27.4302C9.889 22.771 10.1267 18.3296 10.3983 14.1061C9.04022 14.4413 7.90284 14.7598 6.98616 15.0614L5 7.01676C6.66362 6.51397 8.41211 6.07821 10.2455 5.7095C12.1128 5.30726 13.9292 4.98883 15.6947 4.75419C17.4941 4.48603 19.1408 4.30168 20.6346 4.20112C22.1624 4.06704 23.4186 4 24.4032 4C25.4557 4 26.7459 4.0838 28.2737 4.2514C29.8354 4.41899 31.4312 4.77095 33.0608 5.30726C34.7244 5.81006 36.2692 6.58101 37.6952 7.62011C39.1211 8.65922 40.2755 10.067 41.1582 11.8436C42.0749 13.5866 42.5333 15.7821 42.5333 18.4302C42.5333 21.1788 41.9221 23.4749 40.6999 25.3184C39.4776 27.1285 37.8649 28.5866 35.8618 29.6927C33.8587 30.7654 31.6518 31.5363 29.2413 32.0056C26.8307 32.4749 24.4541 32.7095 22.1115 32.7095C20.6176 32.7095 19.1917 32.6425 17.8336 32.5084C17.7997 34.1173 17.7827 35.7095 17.7827 37.2849C17.7827 39.4302 17.7997 41.4246 17.8336 43.2682C17.8676 45.0782 17.9355 46.6704 18.0373 48.0447L9.43066 48.2458ZM24.1486 12.2458C23.2659 12.2458 22.3492 12.2793 21.3985 12.3464C20.4818 12.4134 19.5651 12.4972 18.6485 12.5978C18.4787 14.3743 18.3429 16.3017 18.241 18.3799C18.1392 20.4581 18.0543 22.5866 17.9864 24.7654C19.2426 24.8659 20.5497 24.9162 21.9078 24.9162C30.0561 24.9162 34.1303 22.5363 34.1303 17.7765C34.1303 15.8994 33.3155 14.5084 31.6858 13.6034C30.0561 12.6983 27.5437 12.2458 24.1486 12.2458Z" fill="#144EC0"/>
<path d="M61.3389 49C58.6228 49 56.2462 48.5642 54.2091 47.6927C52.206 46.8212 50.5423 45.6313 49.2182 44.1229C47.8941 42.581 46.9095 40.8212 46.2645 38.8436C45.6194 36.8659 45.2969 34.7877 45.2969 32.6089C45.2969 30.3966 45.6873 28.352 46.4682 26.4749C47.283 24.5642 48.3864 22.905 49.7784 21.4972C51.2044 20.0894 52.868 19 54.7693 18.229C56.6706 17.4246 58.7416 17.0223 60.9824 17.0223C63.325 17.0223 65.4979 17.4246 67.5011 18.229C69.5042 19.0335 71.2527 20.1564 72.7466 21.5978C74.2404 23.0391 75.3948 24.7318 76.2096 26.676C77.0584 28.6201 77.4828 30.7318 77.4828 33.0112C77.4828 38.0726 76.0738 42.0112 73.2558 44.8268C70.4379 47.6089 66.4655 49 61.3389 49ZM61.288 40.8547C63.7664 40.8547 65.6507 40.1676 66.9409 38.7933C68.265 37.419 68.927 35.4413 68.927 32.8603C68.927 30.5475 68.214 28.6872 66.7881 27.2793C65.3621 25.8715 63.4948 25.1676 61.1861 25.1676C59.7941 25.1676 58.5209 25.5363 57.3666 26.2737C56.2122 26.9777 55.2786 27.933 54.5656 29.1397C53.8866 30.3128 53.547 31.6201 53.547 33.0615C53.547 34.3352 53.8017 35.5754 54.3109 36.7821C54.8542 37.9888 55.703 38.9777 56.8573 39.7486C58.0117 40.486 59.4885 40.8547 61.288 40.8547Z" fill="#144EC0"/>
<path d="M80.9144 48.4972C80.8125 45.5475 80.7276 42.8156 80.6597 40.3017C80.6258 37.7877 80.6088 35.3073 80.6088 32.8603C80.6088 30.4134 80.6258 27.9665 80.6597 25.5196C80.7276 23.0391 80.8295 20.3911 80.9653 17.5754H89.572C89.4362 19.0838 89.3174 20.6089 89.2155 22.1508C90.3698 20.7095 91.7449 19.5196 93.3406 18.581C94.9363 17.6089 96.8206 17.1229 98.9935 17.1229C101.132 17.1229 102.881 17.4749 104.239 18.1788C105.631 18.8827 106.717 19.8547 107.498 21.095C108.313 22.3352 108.89 23.7598 109.23 25.3687C109.603 26.9441 109.841 28.6536 109.943 30.4972C110.045 32.3073 110.096 34.1341 110.096 35.9777C110.096 37.9888 110.062 39.9162 109.994 41.7598C109.926 43.6034 109.858 45.1452 109.79 46.3855C109.722 47.6257 109.671 48.3631 109.637 48.5978H101.082C101.149 47.2235 101.217 45.7654 101.285 44.2235C101.353 42.648 101.421 41.1061 101.489 39.5978C101.557 38.0559 101.591 36.6648 101.591 35.4246C101.591 28.2849 100.419 24.7151 98.0768 24.7151C96.1416 24.7151 94.3761 25.5531 92.7804 27.2291C91.2186 28.8715 89.9115 30.9497 88.859 33.4637C88.859 33.7989 88.859 34.1341 88.859 34.4693C88.859 36.0782 88.859 37.7542 88.859 39.4972C88.893 41.2067 88.9269 42.8492 88.9609 44.4246C89.0288 45.9665 89.0797 47.3073 89.1136 48.4469L80.9144 48.4972Z" fill="#144EC0"/>
<path d="M129.382 48.8492C127.345 48.8492 125.732 48.4134 124.544 47.5419C123.356 46.7039 122.49 45.5307 121.947 44.0223C121.404 42.514 121.047 40.7877 120.877 38.8436C120.742 36.8994 120.674 34.8548 120.674 32.7095C120.674 30.4972 120.759 28.2011 120.928 25.8212C118.654 26.1229 116.464 26.5084 114.359 26.9777L112.78 19.0838C115.598 18.3464 118.603 17.8101 121.794 17.4749C122.032 15.7654 122.286 13.9721 122.558 12.095C122.83 10.1844 123.135 8.17318 123.475 6.06145L132.234 6.81564C131.827 8.55866 131.47 10.3017 131.165 12.0447C130.859 13.7542 130.588 15.4134 130.35 17.0223C132.251 17.0223 134.034 17.0726 135.697 17.1732C137.395 17.2402 138.957 17.3743 140.383 17.5754L139.364 25.4693C138.176 25.3352 136.936 25.2514 135.646 25.2179C134.39 25.1508 133.117 25.1173 131.827 25.1173C131.046 25.1173 130.265 25.1341 129.484 25.1676C129.28 27.6145 129.145 29.7095 129.077 31.4525C129.043 33.1955 129.026 34.4358 129.026 35.1732C129.026 37.0168 129.128 38.3408 129.331 39.1453C129.569 39.9497 129.942 40.352 130.452 40.352C131.029 40.352 131.674 40.1676 132.387 39.7989C133.1 39.3967 133.796 38.8603 134.475 38.1899C135.188 37.5196 135.782 36.7989 136.257 36.0279L140.179 44.1229C136.818 47.2737 133.219 48.8492 129.382 48.8492Z" fill="#FD5723"/>
<path d="M158.406 48.8994C155.147 48.8994 152.278 48.2626 149.8 46.9888C147.355 45.7486 145.437 44.0056 144.045 41.7598C142.687 39.514 142.008 36.9162 142.008 33.9665C142.008 32.1899 142.313 30.3296 142.924 28.3855C143.536 26.4078 144.52 24.5642 145.878 22.8547C147.236 21.1453 149.019 19.7542 151.226 18.6816C153.466 17.6089 156.183 17.0726 159.374 17.0726C161.683 17.0726 163.618 17.324 165.18 17.8268C166.775 18.3296 168.066 18.9832 169.05 19.7877C170.069 20.5922 170.833 21.4469 171.342 22.352C171.885 23.257 172.242 24.1285 172.411 24.9665C172.615 25.771 172.717 26.4413 172.717 26.9777C172.717 30.229 171.325 32.743 168.541 34.5196C165.791 36.2626 161.886 37.1341 156.828 37.1341C155.673 37.1341 154.57 37.0838 153.517 36.9832C152.499 36.8827 151.548 36.7654 150.665 36.6313C151.31 38.3073 152.38 39.5475 153.874 40.352C155.368 41.1229 156.912 41.5084 158.508 41.5084C160.817 41.5084 162.854 41.1061 164.619 40.3017C166.385 39.4637 168.049 38.1899 169.61 36.4804L174.143 42.9162C173.056 43.7877 171.834 44.6927 170.476 45.6313C169.152 46.5698 167.522 47.3408 165.587 47.9441C163.652 48.581 161.258 48.8994 158.406 48.8994ZM159.527 24.6145C157.524 24.6145 155.758 25.1173 154.23 26.1229C152.702 27.1285 151.582 28.4525 150.869 30.095C151.718 30.229 152.55 30.3464 153.365 30.4469C154.213 30.514 155.045 30.5475 155.86 30.5475C156.607 30.5475 157.456 30.4804 158.406 30.3464C159.391 30.2123 160.342 30.0112 161.258 29.743C162.209 29.4749 162.99 29.1397 163.601 28.7374C164.212 28.3017 164.518 27.7989 164.518 27.2291C164.518 26.9609 164.382 26.6257 164.11 26.2235C163.839 25.8212 163.346 25.4525 162.633 25.1173C161.92 24.7821 160.885 24.6145 159.527 24.6145Z" fill="#65A115"/>
<path d="M189.904 48.8492C187.357 48.8492 185.048 48.1955 182.977 46.8883C180.906 45.6145 179.26 43.8883 178.038 41.7095C176.849 39.4972 176.255 37.0335 176.255 34.3184C176.255 31.771 176.73 29.4749 177.681 27.4302C178.632 25.352 179.922 23.5754 181.551 22.1006C183.215 20.6257 185.099 19.5028 187.204 18.7318C189.309 17.9274 191.516 17.5251 193.825 17.5251C195.76 17.5251 197.661 17.7933 199.529 18.3296C199.665 17.6257 199.783 16.9218 199.885 16.2179L208.594 17.676C208.356 18.3128 208.118 19.2682 207.881 20.5419C207.643 21.8156 207.439 23.2402 207.27 24.8156C207.134 26.3911 207.015 27.9665 206.913 29.5419C206.811 31.1173 206.76 32.5419 206.76 33.8156C206.76 34.8547 206.828 35.8771 206.964 36.8827C207.134 37.8547 207.473 38.6592 207.983 39.2961C208.492 39.8994 209.273 40.2011 210.325 40.2011H211.038L209.765 48.9497C207.524 48.9497 205.674 48.5642 204.214 47.7933C202.754 47.0559 201.583 46.0503 200.7 44.7765C199.24 46.3855 197.577 47.4581 195.709 47.9944C193.842 48.5642 191.907 48.8492 189.904 48.8492ZM184.607 35.324C184.777 36.933 185.439 38.2235 186.593 39.1955C187.782 40.1341 189.275 40.6034 191.075 40.6034C192.806 40.6034 194.249 40.1508 195.404 39.2458C196.558 38.3073 197.509 37.0335 198.256 35.4246C198.222 34.8883 198.205 34.3352 198.205 33.7654C198.205 32.5922 198.239 31.3855 198.306 30.1453C198.374 28.905 198.459 27.6816 198.561 26.4749C197.135 25.9385 195.641 25.6704 194.08 25.6704C192.246 25.6704 190.6 26.0391 189.14 26.7765C187.714 27.4804 186.593 28.4693 185.778 29.743C184.964 31.0168 184.556 32.4916 184.556 34.1676C184.556 34.3687 184.556 34.5698 184.556 34.771C184.556 34.9721 184.573 35.1564 184.607 35.324Z" fill="#FECE25"/>
<path d="M218.143 48.9497C216.853 48.9497 215.784 48.6648 214.935 48.095C214.086 47.5251 213.458 46.7877 213.051 45.8827C212.643 44.9777 212.44 44.0391 212.44 43.067C212.44 41.2235 213.034 39.8156 214.222 38.8436C215.41 37.838 216.836 37.3352 218.5 37.3352C220.197 37.3352 221.539 37.838 222.523 38.8436C223.508 39.8492 224 41.1899 224 42.8659C224 45.0112 223.406 46.5531 222.218 47.4916C221.063 48.4637 219.705 48.9497 218.143 48.9497Z" fill="#14A5C0"/>
<path d="M9.43066 48.2458C9.39671 47.1732 9.37973 46.0838 9.37973 44.9777C9.37973 43.905 9.37973 42.8324 9.37973 41.7598C9.37973 36.8324 9.48158 32.0559 9.68529 27.4302C9.889 22.771 10.1267 18.3296 10.3983 14.1061C9.04022 14.4413 7.90284 14.7598 6.98616 15.0614L5 7.01676C6.66362 6.51397 8.41211 6.07821 10.2455 5.7095C12.1128 5.30726 13.9292 4.98883 15.6947 4.75419C17.4941 4.48603 19.1408 4.30168 20.6346 4.20112C22.1624 4.06704 23.4186 4 24.4032 4C25.4557 4 26.7459 4.0838 28.2737 4.2514C29.8354 4.41899 31.4312 4.77095 33.0608 5.30726C34.7244 5.81006 36.2692 6.58101 37.6952 7.62011C39.1211 8.65922 40.2755 10.067 41.1582 11.8436C42.0749 13.5866 42.5333 15.7821 42.5333 18.4302C42.5333 21.1788 41.9221 23.4749 40.6999 25.3184C39.4776 27.1285 37.8649 28.5866 35.8618 29.6927C33.8587 30.7654 31.6518 31.5363 29.2413 32.0056C26.8307 32.4749 24.4541 32.7095 22.1115 32.7095C20.6176 32.7095 19.1917 32.6425 17.8336 32.5084C17.7997 34.1173 17.7827 35.7095 17.7827 37.2849C17.7827 39.4302 17.7997 41.4246 17.8336 43.2682C17.8676 45.0782 17.9355 46.6704 18.0373 48.0447L9.43066 48.2458ZM24.1486 12.2458C23.2659 12.2458 22.3492 12.2793 21.3985 12.3464C20.4818 12.4134 19.5651 12.4972 18.6485 12.5978C18.4787 14.3743 18.3429 16.3017 18.241 18.3799C18.1392 20.4581 18.0543 22.5866 17.9864 24.7654C19.2426 24.8659 20.5497 24.9162 21.9078 24.9162C30.0561 24.9162 34.1303 22.5363 34.1303 17.7765C34.1303 15.8994 33.3155 14.5084 31.6858 13.6034C30.0561 12.6983 27.5437 12.2458 24.1486 12.2458Z" stroke="white" stroke-width="8" mask="url(#path-1-outside-1_1119_7030)"/>
<path d="M61.3389 49C58.6228 49 56.2462 48.5642 54.2091 47.6927C52.206 46.8212 50.5423 45.6313 49.2182 44.1229C47.8941 42.581 46.9095 40.8212 46.2645 38.8436C45.6194 36.8659 45.2969 34.7877 45.2969 32.6089C45.2969 30.3966 45.6873 28.352 46.4682 26.4749C47.283 24.5642 48.3864 22.905 49.7784 21.4972C51.2044 20.0894 52.868 19 54.7693 18.229C56.6706 17.4246 58.7416 17.0223 60.9824 17.0223C63.325 17.0223 65.4979 17.4246 67.5011 18.229C69.5042 19.0335 71.2527 20.1564 72.7466 21.5978C74.2404 23.0391 75.3948 24.7318 76.2096 26.676C77.0584 28.6201 77.4828 30.7318 77.4828 33.0112C77.4828 38.0726 76.0738 42.0112 73.2558 44.8268C70.4379 47.6089 66.4655 49 61.3389 49ZM61.288 40.8547C63.7664 40.8547 65.6507 40.1676 66.9409 38.7933C68.265 37.419 68.927 35.4413 68.927 32.8603C68.927 30.5475 68.214 28.6872 66.7881 27.2793C65.3621 25.8715 63.4948 25.1676 61.1861 25.1676C59.7941 25.1676 58.5209 25.5363 57.3666 26.2737C56.2122 26.9777 55.2786 27.933 54.5656 29.1397C53.8866 30.3128 53.547 31.6201 53.547 33.0615C53.547 34.3352 53.8017 35.5754 54.3109 36.7821C54.8542 37.9888 55.703 38.9777 56.8573 39.7486C58.0117 40.486 59.4885 40.8547 61.288 40.8547Z" stroke="white" stroke-width="8" mask="url(#path-1-outside-1_1119_7030)"/>
<path d="M80.9144 48.4972C80.8125 45.5475 80.7276 42.8156 80.6597 40.3017C80.6258 37.7877 80.6088 35.3073 80.6088 32.8603C80.6088 30.4134 80.6258 27.9665 80.6597 25.5196C80.7276 23.0391 80.8295 20.3911 80.9653 17.5754H89.572C89.4362 19.0838 89.3174 20.6089 89.2155 22.1508C90.3698 20.7095 91.7449 19.5196 93.3406 18.581C94.9363 17.6089 96.8206 17.1229 98.9935 17.1229C101.132 17.1229 102.881 17.4749 104.239 18.1788C105.631 18.8827 106.717 19.8547 107.498 21.095C108.313 22.3352 108.89 23.7598 109.23 25.3687C109.603 26.9441 109.841 28.6536 109.943 30.4972C110.045 32.3073 110.096 34.1341 110.096 35.9777C110.096 37.9888 110.062 39.9162 109.994 41.7598C109.926 43.6034 109.858 45.1452 109.79 46.3855C109.722 47.6257 109.671 48.3631 109.637 48.5978H101.082C101.149 47.2235 101.217 45.7654 101.285 44.2235C101.353 42.648 101.421 41.1061 101.489 39.5978C101.557 38.0559 101.591 36.6648 101.591 35.4246C101.591 28.2849 100.419 24.7151 98.0768 24.7151C96.1416 24.7151 94.3761 25.5531 92.7804 27.2291C91.2186 28.8715 89.9115 30.9497 88.859 33.4637C88.859 33.7989 88.859 34.1341 88.859 34.4693C88.859 36.0782 88.859 37.7542 88.859 39.4972C88.893 41.2067 88.9269 42.8492 88.9609 44.4246C89.0288 45.9665 89.0797 47.3073 89.1136 48.4469L80.9144 48.4972Z" stroke="white" stroke-width="8" mask="url(#path-1-outside-1_1119_7030)"/>
<path d="M129.382 48.8492C127.345 48.8492 125.732 48.4134 124.544 47.5419C123.356 46.7039 122.49 45.5307 121.947 44.0223C121.404 42.514 121.047 40.7877 120.877 38.8436C120.742 36.8994 120.674 34.8548 120.674 32.7095C120.674 30.4972 120.759 28.2011 120.928 25.8212C118.654 26.1229 116.464 26.5084 114.359 26.9777L112.78 19.0838C115.598 18.3464 118.603 17.8101 121.794 17.4749C122.032 15.7654 122.286 13.9721 122.558 12.095C122.83 10.1844 123.135 8.17318 123.475 6.06145L132.234 6.81564C131.827 8.55866 131.47 10.3017 131.165 12.0447C130.859 13.7542 130.588 15.4134 130.35 17.0223C132.251 17.0223 134.034 17.0726 135.697 17.1732C137.395 17.2402 138.957 17.3743 140.383 17.5754L139.364 25.4693C138.176 25.3352 136.936 25.2514 135.646 25.2179C134.39 25.1508 133.117 25.1173 131.827 25.1173C131.046 25.1173 130.265 25.1341 129.484 25.1676C129.28 27.6145 129.145 29.7095 129.077 31.4525C129.043 33.1955 129.026 34.4358 129.026 35.1732C129.026 37.0168 129.128 38.3408 129.331 39.1453C129.569 39.9497 129.942 40.352 130.452 40.352C131.029 40.352 131.674 40.1676 132.387 39.7989C133.1 39.3967 133.796 38.8603 134.475 38.1899C135.188 37.5196 135.782 36.7989 136.257 36.0279L140.179 44.1229C136.818 47.2737 133.219 48.8492 129.382 48.8492Z" stroke="white" stroke-width="8" mask="url(#path-1-outside-1_1119_7030)"/>
<path d="M158.406 48.8994C155.147 48.8994 152.278 48.2626 149.8 46.9888C147.355 45.7486 145.437 44.0056 144.045 41.7598C142.687 39.514 142.008 36.9162 142.008 33.9665C142.008 32.1899 142.313 30.3296 142.924 28.3855C143.536 26.4078 144.52 24.5642 145.878 22.8547C147.236 21.1453 149.019 19.7542 151.226 18.6816C153.466 17.6089 156.183 17.0726 159.374 17.0726C161.683 17.0726 163.618 17.324 165.18 17.8268C166.775 18.3296 168.066 18.9832 169.05 19.7877C170.069 20.5922 170.833 21.4469 171.342 22.352C171.885 23.257 172.242 24.1285 172.411 24.9665C172.615 25.771 172.717 26.4413 172.717 26.9777C172.717 30.229 171.325 32.743 168.541 34.5196C165.791 36.2626 161.886 37.1341 156.828 37.1341C155.673 37.1341 154.57 37.0838 153.517 36.9832C152.499 36.8827 151.548 36.7654 150.665 36.6313C151.31 38.3073 152.38 39.5475 153.874 40.352C155.368 41.1229 156.912 41.5084 158.508 41.5084C160.817 41.5084 162.854 41.1061 164.619 40.3017C166.385 39.4637 168.049 38.1899 169.61 36.4804L174.143 42.9162C173.056 43.7877 171.834 44.6927 170.476 45.6313C169.152 46.5698 167.522 47.3408 165.587 47.9441C163.652 48.581 161.258 48.8994 158.406 48.8994ZM159.527 24.6145C157.524 24.6145 155.758 25.1173 154.23 26.1229C152.702 27.1285 151.582 28.4525 150.869 30.095C151.718 30.229 152.55 30.3464 153.365 30.4469C154.213 30.514 155.045 30.5475 155.86 30.5475C156.607 30.5475 157.456 30.4804 158.406 30.3464C159.391 30.2123 160.342 30.0112 161.258 29.743C162.209 29.4749 162.99 29.1397 163.601 28.7374C164.212 28.3017 164.518 27.7989 164.518 27.2291C164.518 26.9609 164.382 26.6257 164.11 26.2235C163.839 25.8212 163.346 25.4525 162.633 25.1173C161.92 24.7821 160.885 24.6145 159.527 24.6145Z" stroke="white" stroke-width="8" mask="url(#path-1-outside-1_1119_7030)"/>
<path d="M189.904 48.8492C187.357 48.8492 185.048 48.1955 182.977 46.8883C180.906 45.6145 179.26 43.8883 178.038 41.7095C176.849 39.4972 176.255 37.0335 176.255 34.3184C176.255 31.771 176.73 29.4749 177.681 27.4302C178.632 25.352 179.922 23.5754 181.551 22.1006C183.215 20.6257 185.099 19.5028 187.204 18.7318C189.309 17.9274 191.516 17.5251 193.825 17.5251C195.76 17.5251 197.661 17.7933 199.529 18.3296C199.665 17.6257 199.783 16.9218 199.885 16.2179L208.594 17.676C208.356 18.3128 208.118 19.2682 207.881 20.5419C207.643 21.8156 207.439 23.2402 207.27 24.8156C207.134 26.3911 207.015 27.9665 206.913 29.5419C206.811 31.1173 206.76 32.5419 206.76 33.8156C206.76 34.8547 206.828 35.8771 206.964 36.8827C207.134 37.8547 207.473 38.6592 207.983 39.2961C208.492 39.8994 209.273 40.2011 210.325 40.2011H211.038L209.765 48.9497C207.524 48.9497 205.674 48.5642 204.214 47.7933C202.754 47.0559 201.583 46.0503 200.7 44.7765C199.24 46.3855 197.577 47.4581 195.709 47.9944C193.842 48.5642 191.907 48.8492 189.904 48.8492ZM184.607 35.324C184.777 36.933 185.439 38.2235 186.593 39.1955C187.782 40.1341 189.275 40.6034 191.075 40.6034C192.806 40.6034 194.249 40.1508 195.404 39.2458C196.558 38.3073 197.509 37.0335 198.256 35.4246C198.222 34.8883 198.205 34.3352 198.205 33.7654C198.205 32.5922 198.239 31.3855 198.306 30.1453C198.374 28.905 198.459 27.6816 198.561 26.4749C197.135 25.9385 195.641 25.6704 194.08 25.6704C192.246 25.6704 190.6 26.0391 189.14 26.7765C187.714 27.4804 186.593 28.4693 185.778 29.743C184.964 31.0168 184.556 32.4916 184.556 34.1676C184.556 34.3687 184.556 34.5698 184.556 34.771C184.556 34.9721 184.573 35.1564 184.607 35.324Z" stroke="white" stroke-width="8" mask="url(#path-1-outside-1_1119_7030)"/>
<path d="M218.143 48.9497C216.853 48.9497 215.784 48.6648 214.935 48.095C214.086 47.5251 213.458 46.7877 213.051 45.8827C212.643 44.9777 212.44 44.0391 212.44 43.067C212.44 41.2235 213.034 39.8156 214.222 38.8436C215.41 37.838 216.836 37.3352 218.5 37.3352C220.197 37.3352 221.539 37.838 222.523 38.8436C223.508 39.8492 224 41.1899 224 42.8659C224 45.0112 223.406 46.5531 222.218 47.4916C221.063 48.4637 219.705 48.9497 218.143 48.9497Z" stroke="white" stroke-width="8" mask="url(#path-1-outside-1_1119_7030)"/>
</svg>
