<svg width="13" height="16" viewBox="0 0 13 16" fill="none" xmlns="http://www.w3.org/2000/svg">
<path d="M1.23438 3.73447L7.14995 0.123998C7.14995 0.123998 7.31914 -0.0691042 7.77012 0.026643C8.14914 0.10711 8.23579 0.345716 8.23579 0.345716L11.9504 10.2095C11.9504 10.2095 12.1244 10.5482 12.0054 10.9164C11.8793 11.3068 11.6262 11.3998 11.6262 11.3998L5.1864 15.1961L1.23438 3.73447Z" fill="#1296AE"/>
<path d="M1.11523 4.12068L6.93408 0.569235C6.93408 0.569235 7.10051 0.379292 7.54411 0.473473C7.91694 0.552626 8.00217 0.787331 8.00217 0.787331L11.656 10.4898C11.656 10.4898 11.8272 10.823 11.7102 11.1852C11.5861 11.5692 11.3371 11.6607 11.3371 11.6607L5.00264 15.3949L1.11523 4.12068Z" fill="#FFB380"/>
<path d="M1.06055 4.25056L6.87939 0.699119C6.87939 0.699119 7.04582 0.509175 7.48942 0.603355C7.86225 0.682509 7.94748 0.917213 7.94748 0.917213L11.6013 10.6197C11.6013 10.6197 11.7726 10.9529 11.6555 11.3151C11.5314 11.6991 11.2824 11.7906 11.2824 11.7906L4.94795 15.5248L1.06055 4.25056Z" fill="#FFCCAA"/>
<path d="M1.00195 4.41462L6.8208 0.863182C6.8208 0.863182 6.98722 0.673237 7.43083 0.767418C7.80365 0.846571 7.88889 1.08128 7.88889 1.08128L11.5427 10.7838C11.5427 10.7838 11.714 11.1169 11.5969 11.4791C11.4728 11.8632 11.2238 11.9546 11.2238 11.9546L4.88936 15.6888L1.00195 4.41462Z" fill="#FFE6D5"/>
<path d="M0.78125 4.72615L6.6001 1.17471C6.6001 1.17471 6.76652 0.984761 7.21013 1.07894C7.58295 1.15809 7.66819 1.3928 7.66819 1.3928L11.322 11.0953C11.322 11.0953 11.4933 11.4284 11.3762 11.7907C11.2521 12.1747 11.0031 12.2661 11.0031 12.2661L4.66866 16.0004L0.78125 4.72615Z" fill="#14A5C0"/>
<path d="M3.11133 5.51908L6.22479 3.69629L7.14278 5.70338L4.02764 7.49106L3.11133 5.51908Z" fill="#FFE6D5"/>
<path d="M3.82015 6.14287L6.33346 4.74835L6.37526 4.8237L3.86196 6.21821L3.82015 6.14287ZM3.66354 5.82962L6.17685 4.4351L6.21865 4.51045L3.70535 5.90496L3.66354 5.82962Z" fill="#916F6F"/>
<path d="M4.4786 13.8796C2.79717 14.2885 2.08331 15.4536 4.23724 14.7052M3.80067 11.9541C2.11924 12.363 1.40538 13.5281 3.55931 12.7797M3.10372 9.92316C1.42228 10.3321 0.708428 11.4972 2.86236 10.7488M2.38345 7.85376C0.70202 8.2627 -0.0118362 9.42776 2.1421 8.67938M1.75854 6.03711C0.0771062 6.44605 -0.63675 7.6111 1.51718 6.86272" stroke="#916F6F" stroke-width="0.243965"/>
</svg>
