<svg width="66" height="89" viewBox="0 0 66 89" fill="none" xmlns="http://www.w3.org/2000/svg">
<path d="M23.6917 17.7226C26.7603 17.4178 29.0024 14.6783 28.6996 11.6038C28.3968 8.52927 25.6638 6.28395 22.5952 6.58874C19.5266 6.89354 17.2845 9.63304 17.5873 12.7076C17.8901 15.7821 20.6232 18.0274 23.6917 17.7226Z" fill="#FD5723"/>
<path d="M14.5111 23.1501C8.50433 14.3319 10.5564 10.5385 10.3736 7.15867C10.2464 4.8067 12.6223 20.956 23.415 20.1571C39.9229 18.9352 34.754 -0.524501 35.3534 1.00781C43.6336 22.1756 28.9208 19.5402 26.2367 33.9589C25.6585 37.065 26.7517 44.0102 27.5086 50.9131C28.1433 56.7008 25.5153 65.3643 25.5153 65.3643C25.5153 65.3643 24.4469 41.0959 12.2497 40.7503C8.24735 40.6369 5.2479 48.3797 5.2479 48.3797C5.2479 48.3797 4.32461 41.5754 7.42972 37.6357C8.92845 35.7341 13.2698 33.3231 13.2698 33.3231C13.0208 28.2155 13.6775 25.9495 14.5111 23.1501Z" fill="#FD5723"/>
<path d="M43.7569 41.9712C41.0817 41.2518 39.4929 38.4967 40.2082 35.8174C40.9236 33.1382 43.6722 31.5494 46.3475 32.2687C49.0227 32.9881 50.6115 35.7433 49.8961 38.4225C49.1808 41.1017 46.4321 42.6905 43.7569 41.9712Z" fill="#FECE25"/>
<path d="M51.1007 48.127C57.707 41.1944 56.4397 37.5333 57.0932 34.5658C57.548 32.5007 53.0939 46.4598 43.644 44.1715C29.1902 40.6714 36.6012 24.1887 35.8471 25.4584C25.4301 42.9987 38.8538 42.8186 39.1362 55.9855C39.197 58.8219 37.2182 64.8148 35.5435 70.8192C34.1394 75.8537 35.209 83.9138 35.209 83.9138C35.209 83.9138 39.6848 62.5705 50.5459 64.0505C54.1098 64.5361 55.6424 71.8349 55.6424 71.8349C55.6424 71.8349 57.4502 65.9421 55.2709 61.9971C54.219 60.0929 50.7217 57.3212 50.7217 57.3212C51.685 52.8327 51.4325 50.7291 51.1007 48.127Z" fill="#FECE25"/>
</svg>
