<svg xmlns="http://www.w3.org/2000/svg" width="14" height="16" viewBox="0 0 14 16" fill="none">
  <path d="M3.85742 5.76822C3.58128 5.76822 3.35742 5.99207 3.35742 6.26822C3.35742 6.54436 3.58128 6.76822 3.85742 6.76822H6.68735C6.96349 6.76822 7.18735 6.54436 7.18735 6.26822C7.18735 5.99207 6.96349 5.76822 6.68735 5.76822H3.85742Z" fill="#FBFDFF"/>
  <path d="M3.32617 8.75115C3.32617 8.47501 3.55003 8.25115 3.82617 8.25115H10.0084C10.2846 8.25115 10.5084 8.47501 10.5084 8.75115C10.5084 9.0273 10.2846 9.25115 10.0084 9.25115H3.82617C3.55003 9.25115 3.32617 9.0273 3.32617 8.75115Z" fill="#FBFDFF"/>
  <path d="M3.80078 10.7788C3.52464 10.7788 3.30078 11.0027 3.30078 11.2788C3.30078 11.555 3.52464 11.7788 3.80078 11.7788H9.99523C10.2714 11.7788 10.4952 11.555 10.4952 11.2788C10.4952 11.0027 10.2714 10.7788 9.99523 10.7788H3.80078Z" fill="#FBFDFF"/>
  <path fill-rule="evenodd" clip-rule="evenodd" d="M0.839844 1.10468C0.839844 0.503957 1.31853 0.000976562 1.93155 0.000976562H8.93718C9.0616 0.000976562 9.18155 0.0473641 9.27359 0.131076L13.1982 3.70039C13.3024 3.79514 13.3618 3.92945 13.3618 4.07029V14.8961C13.3618 15.4968 12.8831 15.9998 12.2701 15.9998H1.93155C1.31855 15.9998 0.839844 15.4968 0.839844 14.8961V1.10468ZM1.93155 1.00098C1.88965 1.00098 1.83984 1.03722 1.83984 1.10468V14.8961C1.83984 14.9635 1.88963 14.9998 1.93155 14.9998H12.2701C12.312 14.9998 12.3618 14.9636 12.3618 14.8961V5.35051H8.93164C8.6555 5.35051 8.43164 5.12665 8.43164 4.85051V1.00098H1.93155ZM12.3618 4.29141V4.35051H9.43164V1.62653L12.3618 4.29141Z" fill="#FBFDFF"/>
</svg>