<svg width="24" height="24" viewBox="0 0 24 24" fill="none" xmlns="http://www.w3.org/2000/svg">
<rect width="24" height="24" rx="12" fill="#FBFDFF"/>
<path d="M16.3117 11.8523L17.1359 13.7015L13.9949 11.8348L16.3117 11.8523Z" fill="#B5B5B5"/>
<path fill-rule="evenodd" clip-rule="evenodd" d="M13.2967 11.6401C13.2088 11.9556 13.3432 12.2909 13.6247 12.4582L16.7657 14.3249C17.0372 14.4863 17.382 14.4533 17.6181 14.2434C17.8541 14.0335 17.9271 13.6949 17.7985 13.4064L16.9743 11.5571C16.8586 11.2974 16.6017 11.1293 16.3174 11.1272L14.0007 11.1097C13.6732 11.1073 13.3847 11.3246 13.2967 11.6401Z" fill="#65A115"/>
<path d="M11.2874 7.40262H17.3139C17.6703 7.40262 17.9592 7.69153 17.9592 8.04793V11.6462C17.9592 12.0026 17.6703 12.2915 17.3139 12.2915H11.2874C10.931 12.2915 10.6421 12.0026 10.6421 11.6462V8.04793C10.6421 7.69153 10.931 7.40262 11.2874 7.40262Z" fill="#8CC640"/>
<path fill-rule="evenodd" clip-rule="evenodd" d="M17.314 7.80532C17.448 7.80532 17.5566 7.91396 17.5566 8.04797V11.6463C17.5566 11.7803 17.448 11.8889 17.314 11.8889H11.2874C11.1534 11.8889 11.0448 11.7803 11.0448 11.6463V8.04797C11.0448 7.91396 11.1534 7.80532 11.2874 7.80532H17.314ZM18.3619 8.04797C18.3619 7.46919 17.8927 7 17.314 7H11.2874C10.7086 7 10.2394 7.46919 10.2394 8.04797V11.6463C10.2394 12.225 10.7086 12.6942 11.2874 12.6942H17.314C17.8927 12.6942 18.3619 12.225 18.3619 11.6463V8.04797Z" fill="#65A115"/>
<path fill-rule="evenodd" clip-rule="evenodd" d="M16.0513 9.78501C16.0513 9.73647 16.0119 9.69711 15.9634 9.69711H14.2083C14.1597 9.69711 14.1204 9.73647 14.1204 9.78501V9.91432C14.1204 9.96286 14.1597 10.0022 14.2083 10.0022H15.9634C16.0119 10.0022 16.0513 9.96286 16.0513 9.91432V9.78501Z" fill="#65A115"/>
<path fill-rule="evenodd" clip-rule="evenodd" d="M16.0325 9.0314C16.0325 8.98377 15.9939 8.94516 15.9463 8.94516H14.2989C14.2513 8.94516 14.2127 8.98377 14.2127 9.0314V9.16403C14.2127 9.21166 14.2513 9.25027 14.2989 9.25027H15.9463C15.9939 9.25027 16.0325 9.21166 16.0325 9.16403V9.0314Z" fill="#65A115"/>
<path fill-rule="evenodd" clip-rule="evenodd" d="M13.8472 9.02777C13.8472 8.98579 13.8132 8.95176 13.7712 8.95176H12.6623C12.6203 8.95176 12.5863 8.98579 12.5863 9.02777V9.18085C12.5863 9.22283 12.6203 9.25686 12.6623 9.25686H13.7712C13.8132 9.25686 13.8472 9.22283 13.8472 9.18085V9.02777ZM13.6952 9.10379V9.10483H12.7383V9.10379H13.6952Z" fill="#65A115"/>
<path fill-rule="evenodd" clip-rule="evenodd" d="M16.0314 10.5299C16.0314 10.4844 15.9945 10.4475 15.949 10.4475H14.5253C14.4797 10.4475 14.4428 10.4844 14.4428 10.5299V10.6702C14.4428 10.7157 14.4797 10.7526 14.5253 10.7526H15.949C15.9945 10.7526 16.0314 10.7157 16.0314 10.6702V10.5299Z" fill="#65A115"/>
<path d="M16.3117 11.8523L17.1671 13.6797L13.9949 11.8348L16.3117 11.8523Z" fill="#8CC640"/>
<path d="M7.68805 14.4256L6.86387 16.2749L10.0048 14.4082L7.68805 14.4256Z" fill="#B5B5B5"/>
<path fill-rule="evenodd" clip-rule="evenodd" d="M10.703 14.2135C10.791 14.529 10.6566 14.8643 10.375 15.0316L7.23406 16.8983C6.96251 17.0597 6.61774 17.0267 6.3817 16.8168C6.14566 16.6069 6.07268 16.2683 6.20126 15.9798L7.02545 14.1305C7.14118 13.8708 7.39801 13.7027 7.68231 13.7006L9.99908 13.6831C10.3266 13.6807 10.6151 13.898 10.703 14.2135Z" fill="#FF8616"/>
<path d="M12.7129 9.97611H6.6864C6.33001 9.97611 6.04109 10.265 6.04109 10.6214V14.2197C6.04109 14.5761 6.33001 14.865 6.6864 14.865H12.7129C13.0693 14.865 13.3583 14.5761 13.3583 14.2197V10.6214C13.3583 10.265 13.0693 9.97611 12.7129 9.97611Z" fill="#FBB516"/>
<path fill-rule="evenodd" clip-rule="evenodd" d="M6.68657 10.3785C6.55252 10.3785 6.44385 10.4872 6.44385 10.6213V14.2195C6.44385 14.3536 6.55252 14.4623 6.68657 14.4623H12.7131C12.8472 14.4623 12.9558 14.3536 12.9558 14.2195V10.6213C12.9558 10.4872 12.8472 10.3785 12.7131 10.3785H6.68657ZM5.63867 10.6213C5.63867 10.0425 6.10784 9.57336 6.68657 9.57336H12.7131C13.2919 9.57336 13.761 10.0425 13.761 10.6213V14.2195C13.761 14.7983 13.2919 15.2674 12.7131 15.2674H6.68657C6.10784 15.2674 5.63867 14.7983 5.63867 14.2195V10.6213Z" fill="#FF8616"/>
<path fill-rule="evenodd" clip-rule="evenodd" d="M7.94904 12.3711C7.94904 12.3156 7.99407 12.2705 8.04962 12.2705H10.9089C10.9644 12.2705 11.0095 12.3156 11.0095 12.3711V12.4751C11.0095 12.5306 10.9644 12.5756 10.9089 12.5756H8.04962C7.99407 12.5756 7.94904 12.5306 7.94904 12.4751V12.3711Z" fill="#FF8616"/>
<path fill-rule="evenodd" clip-rule="evenodd" d="M7.96807 11.6048C7.96807 11.5572 8.00668 11.5186 8.05431 11.5186H9.7017C9.74933 11.5186 9.78794 11.5572 9.78794 11.6048V11.7374C9.78794 11.7851 9.74933 11.8237 9.7017 11.8237H8.05431C8.00668 11.8237 7.96807 11.7851 7.96807 11.7374V11.6048Z" fill="#FF8616"/>
<path fill-rule="evenodd" clip-rule="evenodd" d="M10.1534 11.6012C10.1534 11.5592 10.1874 11.5252 10.2294 11.5252H11.3383C11.3803 11.5252 11.4143 11.5592 11.4143 11.6012V11.7543C11.4143 11.7962 11.3803 11.8303 11.3383 11.8303H10.2294C10.1874 11.8303 10.1534 11.7962 10.1534 11.7543V11.6012ZM10.3054 11.6772V11.6783H11.2623V11.6772H10.3054Z" fill="#FF8616"/>
<path fill-rule="evenodd" clip-rule="evenodd" d="M7.96889 13.1155C7.96889 13.0633 8.01122 13.021 8.06344 13.021H10.3281C10.3803 13.021 10.4227 13.0633 10.4227 13.1155V13.2315C10.4227 13.2837 10.3803 13.3261 10.3281 13.3261H8.06344C8.01122 13.3261 7.96889 13.2837 7.96889 13.2315V13.1155Z" fill="#FF8616"/>
<path d="M7.68805 14.4256L6.8326 16.2531L10.0048 14.4082L7.68805 14.4256Z" fill="#FBB516"/>
</svg>
