<svg width="93" height="72" viewBox="0 0 93 72" fill="none" xmlns="http://www.w3.org/2000/svg">
<path d="M77.57 35.0237L83.4902 48.3074L60.9283 34.8984L77.57 35.0237Z" fill="#B5B5B5"/>
<path fill-rule="evenodd" clip-rule="evenodd" d="M55.9129 33.4994C55.2812 35.7655 56.2468 38.1739 58.2692 39.3758L80.8311 52.7847C82.7817 53.944 85.2583 53.7071 86.9537 52.1992C88.6492 50.6913 89.1735 48.2593 88.2498 46.1867L82.3296 32.9031C81.4983 31.0377 79.6534 29.8303 77.6112 29.8149L60.9695 29.6896C58.617 29.6719 56.5447 31.2333 55.9129 33.4994Z" fill="#65A115"/>
<path d="M41.4735 3.06152H84.7631C87.3231 3.06152 89.3984 5.13683 89.3984 7.69687V33.5439C89.3984 36.1039 87.3231 38.1793 84.7631 38.1793H41.4735C38.9134 38.1793 36.8381 36.1039 36.8381 33.5439V7.69687C36.8381 5.13683 38.9134 3.06152 41.4735 3.06152Z" fill="#8CC640"/>
<path fill-rule="evenodd" clip-rule="evenodd" d="M84.7632 5.95371C85.7259 5.95371 86.5062 6.73408 86.5062 7.69668V33.5437C86.5062 34.5063 85.7259 35.2867 84.7632 35.2867H41.4737C40.511 35.2867 39.7307 34.5063 39.7307 33.5437V7.69668C39.7307 6.73407 40.511 5.95371 41.4737 5.95371H84.7632ZM92.291 7.69668C92.291 3.53919 88.9207 0.168945 84.7632 0.168945H41.4737C37.3162 0.168945 33.9459 3.53921 33.9459 7.69668V33.5437C33.9459 37.7012 37.3162 41.0714 41.4737 41.0714H84.7632C88.9207 41.0714 92.291 37.7012 92.291 33.5437V7.69668Z" fill="#65A115"/>
<path fill-rule="evenodd" clip-rule="evenodd" d="M75.6934 20.1743C75.6934 19.8256 75.4107 19.543 75.062 19.543H62.4548C62.1061 19.543 61.8235 19.8256 61.8235 20.1743V21.1032C61.8235 21.4519 62.1061 21.7346 62.4548 21.7346H75.062C75.4107 21.7346 75.6934 21.4519 75.6934 21.1032V20.1743Z" fill="#65A115"/>
<path fill-rule="evenodd" clip-rule="evenodd" d="M75.5586 14.7611C75.5586 14.4189 75.2812 14.1416 74.9391 14.1416H63.1057C62.7635 14.1416 62.4862 14.4189 62.4862 14.7611V15.7137C62.4862 16.0558 62.7635 16.3332 63.1057 16.3332H74.9391C75.2812 16.3332 75.5586 16.0558 75.5586 15.7137V14.7611Z" fill="#65A115"/>
<path fill-rule="evenodd" clip-rule="evenodd" d="M59.8613 14.7345C59.8613 14.4329 59.6169 14.1885 59.3153 14.1885H51.3498C51.0483 14.1885 50.8038 14.4329 50.8038 14.7345V15.8341C50.8038 16.1356 51.0483 16.3801 51.3498 16.3801H59.3153C59.6169 16.3801 59.8613 16.1356 59.8613 15.8341V14.7345ZM58.7693 15.2805V15.288H51.8958V15.2805H58.7693Z" fill="#65A115"/>
<path fill-rule="evenodd" clip-rule="evenodd" d="M75.5508 25.5248C75.5508 25.1977 75.2857 24.9326 74.9586 24.9326H64.7317C64.4047 24.9326 64.1396 25.1977 64.1396 25.5248V26.532C64.1396 26.8591 64.4047 27.1242 64.7317 27.1242H74.9586C75.2857 27.1242 75.5508 26.8591 75.5508 26.532V25.5248Z" fill="#65A115"/>
<path d="M77.5708 35.0237L83.7148 48.1507L60.9291 34.8984L77.5708 35.0237Z" fill="#8CC640"/>
<path d="M15.6312 53.5081L9.71094 66.7917L32.2729 53.3828L15.6312 53.5081Z" fill="#B5B5B5"/>
<path fill-rule="evenodd" clip-rule="evenodd" d="M37.2883 51.9848C37.92 54.2509 36.9543 56.6592 34.932 57.8611L12.3701 71.2701C10.4195 72.4293 7.94292 72.1925 6.24742 70.6845C4.55193 69.1766 4.02767 66.7446 4.95134 64.6721L10.8716 51.3885C11.7029 49.5231 13.5477 48.3156 15.5899 48.3003L32.2317 48.175C34.5841 48.1572 36.6565 49.7186 37.2883 51.9848Z" fill="#FF8616"/>
<path d="M51.7258 21.5459H8.43616C5.87612 21.5459 3.80078 23.6212 3.80078 26.1812V52.0283C3.80078 54.5883 5.87612 56.6636 8.43616 56.6636H51.7258C54.2858 56.6636 56.3611 54.5883 56.3611 52.0283V26.1812C56.3611 23.6212 54.2858 21.5459 51.7258 21.5459Z" fill="#FBB516"/>
<path fill-rule="evenodd" clip-rule="evenodd" d="M8.43739 24.438C7.47444 24.438 6.69386 25.2186 6.69386 26.1815V52.0285C6.69386 52.9914 7.47444 53.772 8.43739 53.772H51.727C52.6899 53.772 53.4705 52.9914 53.4705 52.0285V26.1815C53.4705 25.2186 52.6899 24.438 51.727 24.438H8.43739ZM0.910156 26.1815C0.910156 22.0243 4.28024 18.6543 8.43739 18.6543H51.727C55.8841 18.6543 59.2542 22.0243 59.2542 26.1815V52.0285C59.2542 56.1857 55.8841 59.5557 51.727 59.5557H8.43739C4.28024 59.5557 0.910156 56.1857 0.910156 52.0285V26.1815Z" fill="#FF8616"/>
<path fill-rule="evenodd" clip-rule="evenodd" d="M17.5059 38.7498C17.5059 38.3508 17.8293 38.0273 18.2283 38.0273H38.7668C39.1658 38.0273 39.4893 38.3508 39.4893 38.7498V39.4964C39.4893 39.8955 39.1658 40.2189 38.7668 40.2189H18.2283C17.8293 40.2189 17.5059 39.8955 17.5059 39.4964V38.7498Z" fill="#FF8616"/>
<path fill-rule="evenodd" clip-rule="evenodd" d="M17.6426 33.2454C17.6426 32.9033 17.9199 32.626 18.262 32.626H30.0955C30.4376 32.626 30.715 32.9033 30.715 33.2454V34.1981C30.715 34.5402 30.4376 34.8176 30.0955 34.8176H18.262C17.9199 34.8176 17.6426 34.5402 17.6426 34.1981V33.2454Z" fill="#FF8616"/>
<path fill-rule="evenodd" clip-rule="evenodd" d="M33.3398 33.2198C33.3398 32.9183 33.5843 32.6738 33.8859 32.6738H41.8514C42.1529 32.6738 42.3974 32.9183 42.3974 33.2198V34.3194C42.3974 34.621 42.1529 34.8654 41.8514 34.8654H33.8859C33.5843 34.8654 33.3398 34.621 33.3398 34.3194V33.2198ZM34.4319 33.7659V33.7734H41.3053V33.7659H34.4319Z" fill="#FF8616"/>
<path fill-rule="evenodd" clip-rule="evenodd" d="M17.6484 44.0972C17.6484 43.7221 17.9525 43.418 18.3277 43.418H34.5951C34.9702 43.418 35.2743 43.7221 35.2743 44.0972V44.9303C35.2743 45.3055 34.9702 45.6096 34.5951 45.6096H18.3277C17.9525 45.6096 17.6484 45.3055 17.6484 44.9303V44.0972Z" fill="#FF8616"/>
<path d="M15.6303 53.5081L9.48633 66.6351L32.2721 53.3828L15.6303 53.5081Z" fill="#FBB516"/>
</svg>
