<svg xmlns="http://www.w3.org/2000/svg" width="72" height="72" viewBox="0 0 72 72" fill="none">
  <path d="M6.39873 0C2.85223 0 -0.00195312 2.8845 -0.00195312 6.46869V26.8504C-0.00195312 30.4345 2.85223 33.319 6.39873 33.319H26.5658C30.1123 33.319 32.9664 30.4345 32.9664 26.8504V6.46869C32.9664 2.8845 30.1123 0 26.5658 0H6.39873ZM16.4881 5.45738C16.7722 5.4587 17.0549 5.49765 17.3289 5.5732C17.6025 5.64794 17.8653 5.75854 18.1105 5.90212C18.355 6.04568 18.5799 6.22083 18.7795 6.42319C18.98 6.62681 19.1532 6.8561 19.2947 7.10523C19.4368 7.35301 19.5463 7.6185 19.6203 7.89496C19.6938 8.17024 19.7315 8.454 19.7325 8.73912V13.3767H24.3214C24.6035 13.3786 24.8841 13.4175 25.1563 13.4925C25.4319 13.5668 25.6966 13.6773 25.9437 13.8214C26.1882 13.9649 26.4131 14.1402 26.6127 14.3425C26.8128 14.5444 26.986 14.7716 27.1279 15.0187C27.27 15.2665 27.3795 15.532 27.4536 15.8085C27.5276 16.0856 27.5653 16.3714 27.5658 16.6585C27.5667 16.7601 27.5628 16.8617 27.5544 16.963C27.5452 17.0632 27.5314 17.1629 27.5131 17.2618C27.4941 17.3624 27.4703 17.4622 27.442 17.5606C27.4166 17.6576 27.3868 17.7534 27.3527 17.8477C27.3156 17.9434 27.2742 18.0373 27.2284 18.1291C27.185 18.2188 27.1376 18.3066 27.0863 18.392C27.033 18.4784 26.9756 18.5622 26.9146 18.6433C26.855 18.7241 26.7917 18.8021 26.725 18.8771C26.6573 18.9522 26.5862 19.0241 26.5119 19.0925C26.438 19.1617 26.361 19.2275 26.2811 19.2894C26.2009 19.3512 26.1179 19.4092 26.0324 19.4631C25.9479 19.5169 25.8609 19.5668 25.7718 19.6125C25.681 19.6566 25.5881 19.6964 25.4935 19.7318C25.4004 19.771 25.3055 19.8057 25.2092 19.836C25.1136 19.8636 25.0169 19.8868 24.9192 19.9055C24.8212 19.9255 24.7224 19.9409 24.6231 19.9518C24.5229 19.9642 24.4221 19.9719 24.3212 19.9749H19.7324V24.6125C19.7313 24.8976 19.6935 25.1814 19.62 25.4567C19.5465 25.7351 19.437 26.0026 19.2944 26.2522C19.1525 26.4993 18.9793 26.7267 18.7793 26.9285C18.5796 27.1309 18.3547 27.3061 18.1103 27.4496C17.865 27.5932 17.6023 27.7037 17.3288 27.7784C17.0547 27.854 16.7719 27.8929 16.4879 27.8943C16.2023 27.8973 15.9177 27.8622 15.6412 27.79C15.3676 27.7153 15.1049 27.6048 14.8597 27.4612C14.611 27.3185 14.382 27.1433 14.1787 26.9401C13.9786 26.7383 13.8054 26.5109 13.6635 26.2638C13.5189 26.0145 13.4074 25.747 13.332 25.4683C13.258 25.1911 13.2202 24.9054 13.2196 24.6184V19.9808H8.63084C8.34677 19.9794 8.06411 19.9405 7.79006 19.8649C7.51442 19.7907 7.2497 19.6801 7.00261 19.536C6.75775 19.3907 6.53276 19.2136 6.33343 19.0092C6.13255 18.8038 5.95934 18.5725 5.81828 18.3213C5.67615 18.0735 5.56668 17.8081 5.49265 17.5316C5.42009 17.2523 5.38426 16.9646 5.38609 16.6759C5.38663 16.3888 5.42433 16.103 5.49833 15.8259C5.57236 15.5494 5.68183 15.2839 5.82396 15.0361C5.96586 14.7891 6.13904 14.5617 6.33911 14.3598C6.5406 14.1571 6.76757 13.9819 7.01414 13.8388C7.25937 13.6952 7.52207 13.5847 7.79565 13.5099C8.06778 13.4349 8.34842 13.396 8.63049 13.3941H13.2194V8.75652C13.2199 8.46946 13.2576 8.18368 13.3316 7.90653C13.407 7.62777 13.5185 7.36035 13.6632 7.11106C13.8051 6.86397 13.9783 6.63659 14.1783 6.43476C14.3817 6.23156 14.6106 6.05637 14.8593 5.91369C15.1045 5.77012 15.3672 5.65951 15.6408 5.58477C15.9173 5.51261 16.2021 5.47763 16.4876 5.48061L16.4881 5.45738Z" fill="#8CC640"/>
  <path d="M45.43 0C41.8835 0 39.0293 2.8845 39.0293 6.46869V26.8504C39.0293 30.4345 41.8835 33.319 45.43 33.319H65.597C69.1435 33.319 71.9977 30.4345 71.9977 26.8504V6.46869C71.9977 2.8845 69.1435 0 65.597 0H45.43ZM48.1359 13.3803H62.8793C63.1224 13.38 63.3647 13.4071 63.6017 13.4614C63.839 13.5169 64.0694 13.5993 64.2885 13.7069C64.5075 13.8129 64.714 13.9434 64.9042 14.096C65.0944 14.2474 65.2671 14.4199 65.4194 14.6101C65.5723 14.802 65.7034 15.0105 65.8102 15.2319C65.9166 15.4532 65.998 15.686 66.053 15.9256C66.1074 16.1653 66.1351 16.4103 66.1355 16.6563C66.1366 16.7381 66.1346 16.82 66.1296 16.9018C66.1227 16.9839 66.1127 17.0659 66.0998 17.1473C66.087 17.2277 66.0714 17.3077 66.0528 17.387C66.0359 17.4676 66.016 17.5475 65.9932 17.6267C65.9686 17.7057 65.9412 17.7837 65.9108 17.8606C65.8819 17.9374 65.8501 18.0131 65.8156 18.0876C65.7809 18.1607 65.7434 18.2326 65.7033 18.303C65.6625 18.3744 65.6191 18.4443 65.5731 18.5125C65.5262 18.5804 65.4769 18.6464 65.4251 18.7105C65.3742 18.7762 65.3208 18.84 65.2652 18.9016C65.2101 18.9616 65.1528 19.0196 65.0934 19.0753C65.0341 19.1293 64.973 19.181 64.9099 19.2304C64.8467 19.2827 64.7815 19.3325 64.7145 19.3798C64.6471 19.4264 64.578 19.4705 64.5073 19.5119C64.4377 19.5532 64.3666 19.5917 64.2942 19.6276C64.2203 19.6613 64.1453 19.6923 64.0691 19.7203C63.9932 19.7502 63.9161 19.7772 63.8382 19.8013C63.7601 19.8275 63.6812 19.8507 63.6014 19.8708C63.523 19.8892 63.444 19.9047 63.3646 19.9171C63.2841 19.9318 63.2031 19.9434 63.1218 19.9519C63.041 19.9569 62.9599 19.9589 62.879 19.9579H48.1355C47.8925 19.9582 47.6502 19.9311 47.4132 19.8769C47.1759 19.8213 46.9456 19.7389 46.7265 19.6313C46.5092 19.5231 46.3047 19.3907 46.1166 19.2365C45.9261 19.0829 45.7533 18.908 45.6014 18.7154C45.4506 18.5232 45.3214 18.3147 45.2165 18.0936C45.1121 17.8717 45.0327 17.6385 44.9797 17.3987C44.9253 17.1594 44.8976 16.9148 44.8972 16.6692C44.8975 16.4233 44.9252 16.1782 44.9797 15.9385C45.0351 15.7008 45.1165 15.4702 45.2224 15.2507C45.3274 15.0296 45.4565 14.821 45.6073 14.6289C45.7596 14.4386 45.9324 14.2662 46.1225 14.1147C46.3109 13.9625 46.5155 13.832 46.7324 13.7256C46.9515 13.618 47.1819 13.5358 47.4192 13.4802C47.6544 13.4264 47.8946 13.3992 48.1356 13.3991L48.1359 13.3803Z" fill="#FD5723"/>
  <path d="M6.39873 38.6807C2.85223 38.6807 -0.00195312 41.5652 -0.00195312 45.1495V65.5312C-0.00195312 69.1154 2.85223 71.9999 6.39873 71.9999H26.5658C30.1123 71.9999 32.9664 69.1154 32.9664 65.5312V45.1495C32.9664 41.5652 30.1123 38.6807 26.5658 38.6807H6.39873ZM10.573 46.4719C10.815 46.4443 11.0593 46.4443 11.3013 46.4719C11.5413 46.4989 11.7776 46.5529 12.0058 46.6329C12.236 46.7134 12.4564 46.8199 12.663 46.9502C12.8687 47.08 13.0594 47.2327 13.2315 47.4053L16.4762 50.6845L19.7151 47.4053C19.889 47.2323 20.0816 47.0796 20.2894 46.9502C20.496 46.8199 20.7165 46.7134 20.9467 46.6329C21.1768 46.5525 21.4151 46.4985 21.6571 46.4719C21.8991 46.4443 22.1434 46.4443 22.3854 46.4719C22.6277 46.5008 22.8661 46.5571 23.0959 46.6399C23.3263 46.7222 23.5468 46.8306 23.7531 46.9629C23.9591 47.0946 24.1498 47.2491 24.3216 47.4238C24.3813 47.4851 24.4386 47.5489 24.4934 47.6149C24.5493 47.6806 24.6026 47.7486 24.6532 47.8187C24.7032 47.8867 24.7506 47.9565 24.7952 48.0282C24.8396 48.1022 24.8811 48.1779 24.9196 48.2552C24.9581 48.3317 24.9937 48.4098 25.0262 48.4891C25.0567 48.5679 25.0842 48.6479 25.1086 48.7288C25.1356 48.8116 25.1593 48.8955 25.1797 48.9802C25.1986 49.0633 25.2142 49.1471 25.2266 49.2314C25.2418 49.3166 25.2537 49.4024 25.2622 49.4885C25.2675 49.5741 25.2694 49.6598 25.2681 49.7455C25.2694 49.8313 25.2675 49.917 25.2622 50.0026C25.2536 50.0868 25.2417 50.1706 25.2266 50.2539C25.2143 50.3402 25.1987 50.4259 25.1797 50.511C25.1592 50.5937 25.1354 50.6756 25.1086 50.7565C25.0842 50.8374 25.0567 50.9174 25.0262 50.9962C24.9937 51.0755 24.9581 51.1536 24.9196 51.2301C24.8811 51.3074 24.8396 51.3831 24.7952 51.4571C24.7507 51.5307 24.7033 51.6026 24.6532 51.6725C24.6026 51.7425 24.5493 51.8105 24.4934 51.8763C24.4385 51.9402 24.3812 52.002 24.3216 52.0615L21.0768 55.3408L24.3216 58.62C24.3813 58.6814 24.4386 58.7451 24.4934 58.8111C24.5492 58.875 24.6025 58.941 24.6532 59.0091C24.7033 59.0789 24.7507 59.1508 24.7952 59.2245C24.8396 59.2984 24.8811 59.3741 24.9196 59.4514C24.9581 59.528 24.9937 59.606 25.0262 59.6854C25.0567 59.7642 25.0842 59.8441 25.1086 59.925C25.1356 60.0078 25.1593 60.0916 25.1797 60.1763C25.1986 60.2594 25.2142 60.3432 25.2266 60.4276C25.2417 60.5108 25.2536 60.5947 25.2622 60.6789C25.2675 60.7645 25.2694 60.8502 25.2681 60.9359C25.2694 61.0216 25.2675 61.1074 25.2622 61.193C25.2537 61.2791 25.2418 61.3649 25.2266 61.4501C25.2142 61.5344 25.1986 61.6182 25.1797 61.7014C25.1593 61.786 25.1356 61.8699 25.1086 61.9527C25.0842 62.0336 25.0567 62.1136 25.0262 62.1924C24.9937 62.2717 24.9581 62.3497 24.9196 62.4262C24.8811 62.5035 24.8396 62.5792 24.7952 62.6532C24.7506 62.7249 24.7032 62.7949 24.6532 62.8629C24.6026 62.9329 24.5493 63.0009 24.4934 63.0667C24.4386 63.1326 24.3813 63.1963 24.3216 63.2577C24.1498 63.4323 23.9591 63.587 23.7531 63.7186C23.5468 63.8509 23.3263 63.9593 23.0959 64.0417C22.8661 64.1244 22.6277 64.1808 22.3854 64.2096C22.1434 64.2372 21.8991 64.2372 21.6571 64.2096C21.4151 64.183 21.1768 64.129 20.9467 64.0486C20.7165 63.9681 20.496 63.8616 20.2894 63.7313C20.0816 63.6019 19.889 63.4492 19.7151 63.2762L16.4762 59.997L13.2315 63.2762C13.0594 63.4489 12.8687 63.6015 12.663 63.7313C12.4564 63.8616 12.236 63.9681 12.0058 64.0486C11.7776 64.1286 11.5413 64.1826 11.3013 64.2096C11.0593 64.2372 10.815 64.2372 10.573 64.2096C10.3309 64.183 10.0927 64.129 9.86254 64.0486C9.63446 63.9677 9.41594 63.8612 9.2112 63.7313C9.00553 63.6015 8.81491 63.4489 8.64281 63.2762C8.46795 63.103 8.31297 62.9103 8.1809 62.7019C8.05198 62.4929 7.94671 62.2699 7.86707 62.0372C7.78534 61.8049 7.72978 61.5641 7.70133 61.3193C7.67206 61.0748 7.67005 60.8277 7.69539 60.5828C7.7219 60.3382 7.77557 60.0973 7.85527 59.8648C7.93451 59.63 8.03979 59.4051 8.1691 59.1943C8.2993 58.9862 8.4522 58.7936 8.62498 58.62L11.8697 55.3408L8.62498 52.0615C8.4522 51.8879 8.2993 51.6953 8.1691 51.4872C8.04018 51.2782 7.93491 51.0552 7.85527 50.8225C7.77515 50.5881 7.72148 50.3453 7.69539 50.0987C7.67005 49.8538 7.67206 49.6068 7.70133 49.3623C7.72978 49.1174 7.78534 48.8765 7.86707 48.6443C7.94671 48.4115 8.05198 48.1886 8.1809 47.9796C8.31297 47.7712 8.46795 47.5786 8.64281 47.4053C8.81491 47.2327 9.00553 47.08 9.2112 46.9502C9.41594 46.8203 9.63446 46.7138 9.86254 46.6329C10.0927 46.5525 10.3309 46.4985 10.573 46.4719Z" fill="#FF8616"/>
  <path d="M45.43 38.6807C41.8835 38.6807 39.0293 41.5652 39.0293 45.1495V65.5312C39.0293 69.1154 41.8835 71.9999 45.43 71.9999H65.597C69.1435 71.9999 71.9977 69.1154 71.9977 65.5312V45.1495C71.9977 41.5652 69.1435 38.6807 65.597 38.6807H45.43ZM55.5135 44.2578C55.6104 44.2574 55.7071 44.2613 55.8036 44.2694C55.899 44.2807 55.9938 44.2962 56.0879 44.3158C56.1834 44.3309 56.2782 44.3502 56.3721 44.3737C56.4661 44.4004 56.5589 44.4313 56.6503 44.4663C56.7407 44.501 56.8297 44.5396 56.9168 44.5821C57.0035 44.6224 57.0884 44.6665 57.1713 44.7142C57.2544 44.7623 57.3355 44.814 57.4142 44.8693C57.4937 44.9257 57.5707 44.9856 57.645 45.0488C57.7189 45.1113 57.79 45.1769 57.8582 45.2456C57.9263 45.3145 57.9915 45.3864 58.0535 45.461C58.1161 45.5363 58.1753 45.6143 58.2311 45.6949C58.2859 45.7744 58.3373 45.8564 58.3851 45.9404C58.4342 46.0241 58.4796 46.1099 58.5213 46.1975C58.5608 46.2877 58.5964 46.3796 58.6279 46.4731C58.6616 46.5636 58.6914 46.6556 58.7173 46.7487C58.7432 46.8434 58.765 46.9393 58.7826 47.0359C58.7985 47.1311 58.8103 47.2268 58.8181 47.323C58.8261 47.4205 58.8299 47.5182 58.8295 47.616C58.8299 47.7138 58.8261 47.8115 58.8181 47.909C58.8103 48.0052 58.7985 48.101 58.7826 48.1962C58.765 48.2928 58.7432 48.3887 58.7173 48.4834C58.6916 48.5785 58.6617 48.6724 58.6279 48.7648C58.5962 48.8558 58.5606 48.9454 58.5213 49.0334C58.4796 49.121 58.4342 49.2068 58.3851 49.2904C58.3373 49.3745 58.2859 49.4564 58.2311 49.536C58.1753 49.6165 58.1161 49.6946 58.0535 49.7699C57.9915 49.8445 57.9263 49.9164 57.8582 49.9853C57.79 50.054 57.7189 50.1197 57.645 50.1821C57.5707 50.2453 57.4937 50.3052 57.4142 50.3616C57.3355 50.4168 57.2544 50.4686 57.1713 50.5168C57.0885 50.5664 57.0036 50.6124 56.9168 50.6546C56.8297 50.6971 56.7407 50.7357 56.6503 50.7703C56.5588 50.8014 56.466 50.8285 56.3721 50.8514C56.2784 50.8788 56.1836 50.902 56.0879 50.9209C55.9937 50.9366 55.8988 50.9482 55.8036 50.9556C55.7071 50.9637 55.6104 50.9676 55.5135 50.9672C55.2236 50.9667 54.9349 50.9278 54.6549 50.8514C54.3752 50.7756 54.1065 50.6631 53.8557 50.5168C53.6047 50.3703 53.3738 50.1912 53.1688 49.9841C52.9639 49.7767 52.7867 49.5432 52.6419 49.2893C52.4969 49.0357 52.3854 48.7639 52.3103 48.481C52.2356 48.1981 52.1979 47.9065 52.1981 47.6137C52.1979 47.3209 52.2356 47.0293 52.3103 46.7464C52.3854 46.4635 52.4969 46.1917 52.6419 45.9381C52.7868 45.6846 52.964 45.4515 53.1688 45.2445C53.3738 45.0374 53.6047 44.8582 53.8557 44.7118C54.1065 44.5654 54.3752 44.4529 54.6549 44.3771C54.9349 44.3007 55.2236 44.2583 55.5135 44.2578ZM47.8754 52.097H63.1576C63.447 52.0936 63.7356 52.1287 64.0161 52.2012C64.2958 52.277 64.5646 52.3895 64.8154 52.5359C65.0661 52.6805 65.2969 52.8576 65.5022 53.0627C65.7092 53.2692 65.8884 53.5025 66.0352 53.7564C66.1797 54.0082 66.2912 54.2779 66.3667 54.5588C66.4415 54.8417 66.4792 55.1333 66.479 55.4261C66.4794 55.5239 66.4756 55.6217 66.4675 55.7191C66.4599 55.8172 66.4481 55.915 66.432 56.0121C66.4162 56.1067 66.3962 56.2006 66.3724 56.2934C66.3467 56.3885 66.3169 56.4824 66.2831 56.5748C66.2497 56.6683 66.2122 56.7603 66.1707 56.8505C66.131 56.938 66.0875 57.0238 66.0405 57.1076C65.9908 57.1917 65.9375 57.2736 65.8807 57.353C65.8268 57.4334 65.7695 57.5115 65.7089 57.5869C65.6469 57.6616 65.5817 57.7334 65.5135 57.8023C65.4434 57.8716 65.3704 57.9376 65.2945 58.0003C65.2221 58.0634 65.147 58.1233 65.0695 58.1798C64.989 58.2376 64.9061 58.2917 64.8208 58.342C64.7379 58.3896 64.6529 58.4337 64.5662 58.4739C64.4772 58.5166 64.3863 58.5553 64.2939 58.5898C64.2043 58.6207 64.1134 58.6477 64.0215 58.6708C63.9278 58.6982 63.8329 58.7214 63.7372 58.7403C63.6411 58.7562 63.5442 58.7678 63.4471 58.775C63.3506 58.7832 63.2539 58.787 63.157 58.7866H47.8748C47.5828 58.7867 47.2922 58.7477 47.0103 58.6708C46.7308 58.5969 46.4621 58.4863 46.211 58.342C45.9575 58.1942 45.7246 58.0131 45.5182 57.8035C45.3133 57.5965 45.1361 57.3634 44.9912 57.1099C44.8457 56.8544 44.7343 56.5808 44.6597 56.2958C44.5849 56.0129 44.5472 55.7213 44.5474 55.4284C44.5491 55.1353 44.5889 54.8438 44.6658 54.5611C44.7413 54.2802 44.8528 54.0105 44.9974 53.7587C45.1441 53.5048 45.3232 53.2716 45.5302 53.0651C45.7355 52.86 45.9663 52.6828 46.217 52.5382C46.4678 52.3918 46.7366 52.2793 47.0163 52.2035C47.2968 52.131 47.5859 52.0936 47.8754 52.097ZM55.5135 59.7206C55.6104 59.7202 55.7071 59.7241 55.8036 59.7323C55.8988 59.7397 55.9937 59.7513 56.0879 59.767C56.1836 59.7859 56.2784 59.8091 56.3721 59.8364C56.466 59.8593 56.5588 59.8864 56.6503 59.9175C56.7407 59.9522 56.8297 59.9908 56.9168 60.0333C57.0036 60.0754 57.0885 60.1214 57.1713 60.1711C57.2544 60.2192 57.3355 60.2711 57.4142 60.3263C57.4937 60.3827 57.5707 60.4425 57.645 60.5058C57.7189 60.5686 57.79 60.6346 57.8582 60.7037C57.9263 60.7726 57.9915 60.8445 58.0535 60.9191C58.1161 60.9941 58.1753 61.0717 58.2311 61.1519C58.2859 61.2315 58.3373 61.3134 58.3851 61.3974C58.4342 61.4811 58.4796 61.5668 58.5213 61.6544C58.5607 61.7428 58.5962 61.8328 58.6279 61.9242C58.6617 62.0167 58.6916 62.1106 58.7173 62.2056C58.7432 62.3003 58.765 62.3962 58.7826 62.4929C58.7985 62.588 58.8103 62.6839 58.8181 62.7801C58.8261 62.8775 58.8299 62.9752 58.8295 63.073C58.8299 63.1708 58.8261 63.2685 58.8181 63.366C58.8103 63.4622 58.7985 63.5579 58.7826 63.6531C58.765 63.7498 58.7432 63.8456 58.7173 63.9403C58.6914 64.0335 58.6616 64.1255 58.6279 64.216C58.5964 64.3094 58.5608 64.4013 58.5213 64.4915C58.4796 64.5792 58.4342 64.665 58.3851 64.7486C58.3373 64.8327 58.2859 64.9146 58.2311 64.9941C58.1753 65.0747 58.1161 65.1527 58.0535 65.228C57.9915 65.3026 57.9263 65.3745 57.8582 65.4434C57.79 65.5125 57.7189 65.5786 57.645 65.6415C57.5707 65.7047 57.4937 65.7645 57.4142 65.8209C57.3355 65.8761 57.2544 65.928 57.1713 65.9761C57.0884 66.0238 57.0035 66.0678 56.9168 66.1081C56.8297 66.1506 56.7407 66.1892 56.6503 66.2238C56.5589 66.2588 56.4661 66.2898 56.3721 66.3165C56.2782 66.34 56.1834 66.3593 56.0879 66.3744C55.9938 66.394 55.899 66.4095 55.8036 66.4208C55.7071 66.4289 55.6104 66.4328 55.5135 66.4323C55.2236 66.4318 54.9349 66.3929 54.6549 66.3165C54.3752 66.2407 54.1065 66.1282 53.8557 65.9819C53.6047 65.8354 53.3738 65.6563 53.1688 65.4492C52.964 65.2422 52.7868 65.0091 52.6419 64.7556C52.4969 64.502 52.3854 64.2302 52.3103 63.9473C52.2356 63.6644 52.1979 63.3727 52.1981 63.0799C52.1979 62.7871 52.2356 62.4955 52.3103 62.2126C52.3854 61.9297 52.4969 61.658 52.6419 61.4043C52.7868 61.1509 52.964 60.9177 53.1688 60.7107C53.3738 60.5036 53.6047 60.3245 53.8557 60.1781C54.1065 60.0317 54.3752 59.9192 54.6549 59.8434C54.9349 59.767 55.2236 59.7211 55.5135 59.7206Z" fill="#14A5C0"/>
</svg>