<svg xmlns="http://www.w3.org/2000/svg" width="39" height="72" viewBox="0 0 39 72" fill="none">
  <path d="M18.5298 24.1538C18.2545 24.1485 17.9752 24.1574 17.6896 24.1824C10.1302 25.673 7.61673 33.9669 4.50975 40.0312C3.36625 42.1599 2.05622 44.3584 0.177734 44.9569C4.00027 44.5726 7.12266 40.394 11.7768 35.3927C11.7768 35.3927 10.3535 43.1655 10.6945 47.2832C11.3792 55.5492 17.3877 71.5001 17.3877 71.5001C17.3877 71.5001 18.6973 51.528 21.6172 51.7431C25.6083 52.0371 24.9438 71.0657 24.9438 71.0657C24.9438 71.0657 29.559 56.4139 30.8537 48.8251C31.3828 45.7244 31.5757 39.3253 31.5757 39.3253C33.7648 40.4509 35.957 41.4958 38.1777 41.8446C32.5443 39.6142 28.676 25.3503 18.5298 24.1538Z" fill="#14A5C0"/>
  <path d="M10.9008 0.5C10.9008 0.5 12.9808 4.61754 14.8823 4.60438C24.1328 4.54034 27.6398 7.29824 27.8852 14.6685C28.0042 18.2454 23.5558 21.8679 19.9895 21.9146C16.6466 21.9584 13.2955 19.5418 12.695 16.3562C12.0867 13.129 12.695 11.7267 12.695 11.7267C12.695 11.7267 11.7592 10.9792 11.3604 10.4947C10.0585 8.91318 10.4914 7.35859 10.4914 7.35859C11.7396 8.02861 11.8688 8.1244 13.1407 8.57406C13.1407 8.57406 11.0922 7.01693 10.4834 5.43362C9.81432 4.11576 10.4424 1.92676 10.9008 0.5Z" fill="#14A5C0"/>
</svg>