<?xml version="1.0" encoding="UTF-8" standalone="no"?>
<!-- Created with Inkscape (http://www.inkscape.org/) -->

<svg
   width="5.1914024mm"
   height="4.9671469mm"
   viewBox="0 0 5.1914024 4.9671469"
   version="1.1"
   id="svg1"
   xml:space="preserve"
   sodipodi:docname="icon (novos).svg.2023_08_23_13_02_53.0.svg"
   inkscape:version="1.3 (0e150ed6c4, 2023-07-21)"
   inkscape:export-filename="OneDrive\Ãrea de Trabalho\11111.svg"
   inkscape:export-xdpi="86.004395"
   inkscape:export-ydpi="86.004395"
   xmlns:inkscape="http://www.inkscape.org/namespaces/inkscape"
   xmlns:sodipodi="http://sodipodi.sourceforge.net/DTD/sodipodi-0.dtd"
   xmlns="http://www.w3.org/2000/svg"
   xmlns:svg="http://www.w3.org/2000/svg"><sodipodi:namedview
     id="namedview1"
     pagecolor="#ffffff"
     bordercolor="#000000"
     borderopacity="0.25"
     inkscape:showpageshadow="2"
     inkscape:pageopacity="0.0"
     inkscape:pagecheckerboard="0"
     inkscape:deskcolor="#d1d1d1"
     inkscape:document-units="pt"
     inkscape:zoom="1.0717735"
     inkscape:cx="278.97686"
     inkscape:cy="244.45464"
     inkscape:window-width="1280"
     inkscape:window-height="720"
     inkscape:window-x="0"
     inkscape:window-y="768"
     inkscape:window-maximized="1"
     inkscape:current-layer="layer15"
     showgrid="false"
     showguides="false"
     inkscape:lockguides="false"><inkscape:grid
       id="grid2"
       units="pt"
       originx="-113.47528"
       originy="-87.360619"
       spacingx="0.35277777"
       spacingy="0.35277779"
       empcolor="#0099e5"
       empopacity="0.30196078"
       color="#0099e5"
       opacity="0.14901961"
       empspacing="5"
       dotted="false"
       gridanglex="30"
       gridanglez="30"
       visible="false" /></sodipodi:namedview><defs
     id="defs1" /><g
     inkscape:label="Camada 1"
     inkscape:groupmode="layer"
     id="layer1"
     style="display:none"
     sodipodi:insensitive="true"
     transform="translate(-30.023667,-23.114164)"><path
       id="path80"
       style="opacity:0.17;fill:#fd5723;stroke-width:0.600001;stroke-linecap:round;stroke-linejoin:round"
       inkscape:label="rect1"
       d="m 56.000692,126.59487 h 5.870512 c 0.719135,0 1.298077,0.57894 1.298077,1.29808 v 5.87051 c 0,0.71914 -0.578942,1.29808 -1.298077,1.29808 h -5.870512 c -0.719135,0 -1.298077,-0.57894 -1.298077,-1.29808 v -5.87051 c 0,-0.71914 0.578942,-1.29808 1.298077,-1.29808 z m 0,-10.51753 h 5.870512 c 0.719135,0 1.298077,0.57894 1.298077,1.29808 v 5.87051 c 0,0.71913 -0.578942,1.29808 -1.298077,1.29808 h -5.870512 c -0.719135,0 -1.298077,-0.57895 -1.298077,-1.29808 v -5.87051 c 0,-0.71914 0.578942,-1.29808 1.298077,-1.29808 z m 0,-10.72837 h 5.870512 c 0.719135,0 1.298077,0.57895 1.298077,1.29808 v 5.87051 c 0,0.71914 -0.578942,1.29808 -1.298077,1.29808 h -5.870512 c -0.719135,0 -1.298077,-0.57894 -1.298077,-1.29808 v -5.87051 c 0,-0.71913 0.578942,-1.29808 1.298077,-1.29808 z m 0,-10.517526 h 5.870512 c 0.719135,0 1.298077,0.578942 1.298077,1.298077 v 5.870509 c 0,0.71914 -0.578942,1.29808 -1.298077,1.29808 h -5.870512 c -0.719135,0 -1.298077,-0.57894 -1.298077,-1.29808 v -5.870509 c 0,-0.719135 0.578942,-1.298077 1.298077,-1.298077 z m 0,-10.314903 h 5.870512 c 0.719135,0 1.298077,0.578943 1.298077,1.298077 v 5.870513 c 0,0.719134 -0.578942,1.298077 -1.298077,1.298077 h -5.870512 c -0.719135,0 -1.298077,-0.578943 -1.298077,-1.298077 v -5.870513 c 0,-0.719134 0.578942,-1.298077 1.298077,-1.298077 z m 0,-10.517531 h 5.870512 c 0.719135,0 1.298077,0.578942 1.298077,1.298077 v 5.870512 c 0,0.719135 -0.578942,1.298077 -1.298077,1.298077 h -5.870512 c -0.719135,0 -1.298077,-0.578942 -1.298077,-1.298077 v -5.870512 c 0,-0.719135 0.578942,-1.298077 1.298077,-1.298077 z m 0,-10.499308 h 5.870512 c 0.719135,0 1.298077,0.578943 1.298077,1.298077 v 5.870513 c 0,0.719134 -0.578942,1.298077 -1.298077,1.298077 h -5.870512 c -0.719135,0 -1.298077,-0.578943 -1.298077,-1.298077 v -5.870513 c 0,-0.719134 0.578942,-1.298077 1.298077,-1.298077 z m 0,-10.517531 h 5.870512 c 0.719135,0 1.298077,0.578942 1.298077,1.298077 v 5.870512 c 0,0.719135 -0.578942,1.298077 -1.298077,1.298077 h -5.870512 c -0.719135,0 -1.298077,-0.578942 -1.298077,-1.298077 v -5.870512 c 0,-0.719135 0.578942,-1.298077 1.298077,-1.298077 z m 0,-10.728366 h 5.870512 c 0.719135,0 1.298077,0.578943 1.298077,1.298077 v 5.870513 c 0,0.719134 -0.578942,1.298077 -1.298077,1.298077 h -5.870512 c -0.719135,0 -1.298077,-0.578943 -1.298077,-1.298077 v -5.870513 c 0,-0.719134 0.578942,-1.298077 1.298077,-1.298077 z m 0,-10.517531 h 5.870512 c 0.719135,0 1.298077,0.578942 1.298077,1.298077 v 5.870512 c 0,0.719135 -0.578942,1.298077 -1.298077,1.298077 h -5.870512 c -0.719135,0 -1.298077,-0.578942 -1.298077,-1.298077 v -5.870512 c 0,-0.719135 0.578942,-1.298077 1.298077,-1.298077 z m 0,-10.314903 h 5.870512 c 0.719135,0 1.298077,0.578943 1.298077,1.298077 v 5.870513 c 0,0.719134 -0.578942,1.298077 -1.298077,1.298077 h -5.870512 c -0.719135,0 -1.298077,-0.578943 -1.298077,-1.298077 v -5.870513 c 0,-0.719134 0.578942,-1.298077 1.298077,-1.298077 z m 0,-10.517531 h 5.870512 c 0.719135,0 1.298077,0.578942 1.298077,1.298077 v 5.870512 c 0,0.719135 -0.578942,1.298077 -1.298077,1.298077 h -5.870512 c -0.719135,0 -1.298077,-0.578942 -1.298077,-1.298077 v -5.870512 c 0,-0.719135 0.578942,-1.298077 1.298077,-1.298077 z M 43.852397,126.59487 h 5.870512 c 0.719135,0 1.298077,0.57894 1.298077,1.29808 v 5.87051 c 0,0.71914 -0.578942,1.29808 -1.298077,1.29808 h -5.870512 c -0.719135,0 -1.298077,-0.57894 -1.298077,-1.29808 v -5.87051 c 0,-0.71914 0.578942,-1.29808 1.298077,-1.29808 z m 0,-10.51753 h 5.870512 c 0.719135,0 1.298077,0.57894 1.298077,1.29808 v 5.87051 c 0,0.71913 -0.578942,1.29808 -1.298077,1.29808 h -5.870512 c -0.719135,0 -1.298077,-0.57895 -1.298077,-1.29808 v -5.87051 c 0,-0.71914 0.578942,-1.29808 1.298077,-1.29808 z m 0,-10.72837 h 5.870512 c 0.719135,0 1.298077,0.57895 1.298077,1.29808 v 5.87051 c 0,0.71914 -0.578942,1.29808 -1.298077,1.29808 h -5.870512 c -0.719135,0 -1.298077,-0.57894 -1.298077,-1.29808 v -5.87051 c 0,-0.71913 0.578942,-1.29808 1.298077,-1.29808 z m 0,-10.517526 h 5.870512 c 0.719135,0 1.298077,0.578942 1.298077,1.298077 v 5.870509 c 0,0.71914 -0.578942,1.29808 -1.298077,1.29808 h -5.870512 c -0.719135,0 -1.298077,-0.57894 -1.298077,-1.29808 v -5.870509 c 0,-0.719135 0.578942,-1.298077 1.298077,-1.298077 z m 0,-10.314903 h 5.870512 c 0.719135,0 1.298077,0.578943 1.298077,1.298077 v 5.870513 c 0,0.719134 -0.578942,1.298077 -1.298077,1.298077 h -5.870512 c -0.719135,0 -1.298077,-0.578943 -1.298077,-1.298077 v -5.870513 c 0,-0.719134 0.578942,-1.298077 1.298077,-1.298077 z m 0,-10.517531 h 5.870512 c 0.719135,0 1.298077,0.578942 1.298077,1.298077 v 5.870512 c 0,0.719135 -0.578942,1.298077 -1.298077,1.298077 h -5.870512 c -0.719135,0 -1.298077,-0.578942 -1.298077,-1.298077 v -5.870512 c 0,-0.719135 0.578942,-1.298077 1.298077,-1.298077 z m 0,-10.499308 h 5.870512 c 0.719135,0 1.298077,0.578943 1.298077,1.298077 v 5.870513 c 0,0.719134 -0.578942,1.298077 -1.298077,1.298077 h -5.870512 c -0.719135,0 -1.298077,-0.578943 -1.298077,-1.298077 v -5.870513 c 0,-0.719134 0.578942,-1.298077 1.298077,-1.298077 z m 0,-10.517531 h 5.870512 c 0.719135,0 1.298077,0.578942 1.298077,1.298077 v 5.870512 c 0,0.719135 -0.578942,1.298077 -1.298077,1.298077 h -5.870512 c -0.719135,0 -1.298077,-0.578942 -1.298077,-1.298077 v -5.870512 c 0,-0.719135 0.578942,-1.298077 1.298077,-1.298077 z m 0,-10.728366 h 5.870512 c 0.719135,0 1.298077,0.578943 1.298077,1.298077 v 5.870513 c 0,0.719134 -0.578942,1.298077 -1.298077,1.298077 h -5.870512 c -0.719135,0 -1.298077,-0.578943 -1.298077,-1.298077 v -5.870513 c 0,-0.719134 0.578942,-1.298077 1.298077,-1.298077 z m 0,-10.517531 h 5.870512 c 0.719135,0 1.298077,0.578942 1.298077,1.298077 v 5.870512 c 0,0.719135 -0.578942,1.298077 -1.298077,1.298077 h -5.870512 c -0.719135,0 -1.298077,-0.578942 -1.298077,-1.298077 v -5.870512 c 0,-0.719135 0.578942,-1.298077 1.298077,-1.298077 z m 0,-10.314903 h 5.870512 c 0.719135,0 1.298077,0.578943 1.298077,1.298077 v 5.870513 c 0,0.719134 -0.578942,1.298077 -1.298077,1.298077 h -5.870512 c -0.719135,0 -1.298077,-0.578943 -1.298077,-1.298077 v -5.870513 c 0,-0.719134 0.578942,-1.298077 1.298077,-1.298077 z m 0,-10.517531 h 5.870512 c 0.719135,0 1.298077,0.578942 1.298077,1.298077 v 5.870512 c 0,0.719135 -0.578942,1.298077 -1.298077,1.298077 h -5.870512 c -0.719135,0 -1.298077,-0.578942 -1.298077,-1.298077 v -5.870512 c 0,-0.719135 0.578942,-1.298077 1.298077,-1.298077 z M 29.578324,126.59487 h 5.870512 c 0.719135,0 1.298077,0.57894 1.298077,1.29808 v 5.87051 c 0,0.71914 -0.578942,1.29808 -1.298077,1.29808 h -5.870512 c -0.719135,0 -1.298077,-0.57894 -1.298077,-1.29808 v -5.87051 c 0,-0.71914 0.578942,-1.29808 1.298077,-1.29808 z m 0,-10.51753 h 5.870512 c 0.719135,0 1.298077,0.57894 1.298077,1.29808 v 5.87051 c 0,0.71913 -0.578942,1.29808 -1.298077,1.29808 h -5.870512 c -0.719135,0 -1.298077,-0.57895 -1.298077,-1.29808 v -5.87051 c 0,-0.71914 0.578942,-1.29808 1.298077,-1.29808 z m 0,-10.72837 h 5.870512 c 0.719135,0 1.298077,0.57895 1.298077,1.29808 v 5.87051 c 0,0.71914 -0.578942,1.29808 -1.298077,1.29808 h -5.870512 c -0.719135,0 -1.298077,-0.57894 -1.298077,-1.29808 v -5.87051 c 0,-0.71913 0.578942,-1.29808 1.298077,-1.29808 z m 0,-10.517526 h 5.870512 c 0.719135,0 1.298077,0.578942 1.298077,1.298077 v 5.870509 c 0,0.71914 -0.578942,1.29808 -1.298077,1.29808 h -5.870512 c -0.719135,0 -1.298077,-0.57894 -1.298077,-1.29808 v -5.870509 c 0,-0.719135 0.578942,-1.298077 1.298077,-1.298077 z m 0,-10.314903 h 5.870512 c 0.719135,0 1.298077,0.578943 1.298077,1.298077 v 5.870513 c 0,0.719134 -0.578942,1.298077 -1.298077,1.298077 h -5.870512 c -0.719135,0 -1.298077,-0.578943 -1.298077,-1.298077 v -5.870513 c 0,-0.719134 0.578942,-1.298077 1.298077,-1.298077 z m 0,-10.517531 h 5.870512 c 0.719135,0 1.298077,0.578942 1.298077,1.298077 v 5.870512 c 0,0.719135 -0.578942,1.298077 -1.298077,1.298077 h -5.870512 c -0.719135,0 -1.298077,-0.578942 -1.298077,-1.298077 v -5.870512 c 0,-0.719135 0.578942,-1.298077 1.298077,-1.298077 z m 0,-10.499308 h 5.870512 c 0.719135,0 1.298077,0.578943 1.298077,1.298077 v 5.870513 c 0,0.719134 -0.578942,1.298077 -1.298077,1.298077 h -5.870512 c -0.719135,0 -1.298077,-0.578943 -1.298077,-1.298077 v -5.870513 c 0,-0.719134 0.578942,-1.298077 1.298077,-1.298077 z m 0,-10.517531 h 5.870512 c 0.719135,0 1.298077,0.578942 1.298077,1.298077 v 5.870512 c 0,0.719135 -0.578942,1.298077 -1.298077,1.298077 h -5.870512 c -0.719135,0 -1.298077,-0.578942 -1.298077,-1.298077 v -5.870512 c 0,-0.719135 0.578942,-1.298077 1.298077,-1.298077 z m 0,-10.728366 h 5.870512 c 0.719135,0 1.298077,0.578943 1.298077,1.298077 v 5.870513 c 0,0.719134 -0.578942,1.298077 -1.298077,1.298077 h -5.870512 c -0.719135,0 -1.298077,-0.578943 -1.298077,-1.298077 v -5.870513 c 0,-0.719134 0.578942,-1.298077 1.298077,-1.298077 z m 0,-10.517531 h 5.870512 c 0.719135,0 1.298077,0.578942 1.298077,1.298077 v 5.870512 c 0,0.719135 -0.578942,1.298077 -1.298077,1.298077 h -5.870512 c -0.719135,0 -1.298077,-0.578942 -1.298077,-1.298077 v -5.870512 c 0,-0.719135 0.578942,-1.298077 1.298077,-1.298077 z m 0,-10.314903 h 5.870512 c 0.719135,0 1.298077,0.578943 1.298077,1.298077 v 5.870513 c 0,0.719134 -0.578942,1.298077 -1.298077,1.298077 h -5.870512 c -0.719135,0 -1.298077,-0.578943 -1.298077,-1.298077 v -5.870513 c 0,-0.719134 0.578942,-1.298077 1.298077,-1.298077 z m 0,-10.517531 h 5.870512 c 0.719135,0 1.298077,0.578942 1.298077,1.298077 v 5.870512 c 0,0.719135 -0.578942,1.298077 -1.298077,1.298077 h -5.870512 c -0.719135,0 -1.298077,-0.578942 -1.298077,-1.298077 v -5.870512 c 0,-0.719135 0.578942,-1.298077 1.298077,-1.298077 z M 16.355766,126.59487 h 5.870512 c 0.719135,0 1.298077,0.57894 1.298077,1.29808 v 5.87051 c 0,0.71914 -0.578942,1.29808 -1.298077,1.29808 h -5.870512 c -0.719135,0 -1.298077,-0.57894 -1.298077,-1.29808 v -5.87051 c 0,-0.71914 0.578942,-1.29808 1.298077,-1.29808 z m 0,-10.51753 h 5.870512 c 0.719135,0 1.298077,0.57894 1.298077,1.29808 v 5.87051 c 0,0.71913 -0.578942,1.29808 -1.298077,1.29808 h -5.870512 c -0.719135,0 -1.298077,-0.57895 -1.298077,-1.29808 v -5.87051 c 0,-0.71914 0.578942,-1.29808 1.298077,-1.29808 z m 0,-10.72837 h 5.870512 c 0.719135,0 1.298077,0.57895 1.298077,1.29808 v 5.87051 c 0,0.71914 -0.578942,1.29808 -1.298077,1.29808 h -5.870512 c -0.719135,0 -1.298077,-0.57894 -1.298077,-1.29808 v -5.87051 c 0,-0.71913 0.578942,-1.29808 1.298077,-1.29808 z m 0,-10.517526 h 5.870512 c 0.719135,0 1.298077,0.578942 1.298077,1.298077 v 5.870509 c 0,0.71914 -0.578942,1.29808 -1.298077,1.29808 h -5.870512 c -0.719135,0 -1.298077,-0.57894 -1.298077,-1.29808 v -5.870509 c 0,-0.719135 0.578942,-1.298077 1.298077,-1.298077 z m 0,-10.314903 h 5.870512 c 0.719135,0 1.298077,0.578943 1.298077,1.298077 v 5.870513 c 0,0.719134 -0.578942,1.298077 -1.298077,1.298077 h -5.870512 c -0.719135,0 -1.298077,-0.578943 -1.298077,-1.298077 v -5.870513 c 0,-0.719134 0.578942,-1.298077 1.298077,-1.298077 z m 0,-10.517531 h 5.870512 c 0.719135,0 1.298077,0.578942 1.298077,1.298077 v 5.870512 c 0,0.719135 -0.578942,1.298077 -1.298077,1.298077 h -5.870512 c -0.719135,0 -1.298077,-0.578942 -1.298077,-1.298077 v -5.870512 c 0,-0.719135 0.578942,-1.298077 1.298077,-1.298077 z m 0,-10.499308 h 5.870512 c 0.719135,0 1.298077,0.578943 1.298077,1.298077 v 5.870513 c 0,0.719134 -0.578942,1.298077 -1.298077,1.298077 h -5.870512 c -0.719135,0 -1.298077,-0.578943 -1.298077,-1.298077 v -5.870513 c 0,-0.719134 0.578942,-1.298077 1.298077,-1.298077 z m 0,-10.517531 h 5.870512 c 0.719135,0 1.298077,0.578942 1.298077,1.298077 v 5.870512 c 0,0.719135 -0.578942,1.298077 -1.298077,1.298077 h -5.870512 c -0.719135,0 -1.298077,-0.578942 -1.298077,-1.298077 v -5.870512 c 0,-0.719135 0.578942,-1.298077 1.298077,-1.298077 z m 0,-10.728366 h 5.870512 c 0.719135,0 1.298077,0.578943 1.298077,1.298077 v 5.870513 c 0,0.719134 -0.578942,1.298077 -1.298077,1.298077 h -5.870512 c -0.719135,0 -1.298077,-0.578943 -1.298077,-1.298077 v -5.870513 c 0,-0.719134 0.578942,-1.298077 1.298077,-1.298077 z m 0,-10.517531 h 5.870512 c 0.719135,0 1.298077,0.578942 1.298077,1.298077 v 5.870512 c 0,0.719135 -0.578942,1.298077 -1.298077,1.298077 h -5.870512 c -0.719135,0 -1.298077,-0.578942 -1.298077,-1.298077 v -5.870512 c 0,-0.719135 0.578942,-1.298077 1.298077,-1.298077 z m 0,-10.314903 h 5.870512 c 0.719135,0 1.298077,0.578943 1.298077,1.298077 v 5.870513 c 0,0.719134 -0.578942,1.298077 -1.298077,1.298077 h -5.870512 c -0.719135,0 -1.298077,-0.578943 -1.298077,-1.298077 v -5.870513 c 0,-0.719134 0.578942,-1.298077 1.298077,-1.298077 z m 0,-10.517531 h 5.870512 c 0.719135,0 1.298077,0.578942 1.298077,1.298077 v 5.870512 c 0,0.719135 -0.578942,1.298077 -1.298077,1.298077 h -5.870512 c -0.719135,0 -1.298077,-0.578942 -1.298077,-1.298077 v -5.870512 c 0,-0.719135 0.578942,-1.298077 1.298077,-1.298077 z" /></g><g
     inkscape:groupmode="layer"
     id="layer17"
     inkscape:label="estrelinhas"
     style="display:inline"
     sodipodi:insensitive="true"
     transform="translate(-30.023667,-23.114164)"><g
       id="g53"
       inkscape:label="meia estrela"><path
         style="fill:#000000;fill-opacity:1;stroke:none;stroke-width:0.470958;stroke-linecap:round;stroke-linejoin:round;stroke-dasharray:none;stroke-opacity:1;paint-order:markers stroke fill"
         d="m 32.626376,23.263386 v 3.908205 l -1.387575,0.626359 0.105923,-1.549581 -1.016849,-1.184207 1.514681,-0.371899 z"
         id="path52" /><path
         sodipodi:type="star"
         style="fill:none;fill-opacity:1;stroke:#000000;stroke-width:0.470958;stroke-linecap:round;stroke-linejoin:round;stroke-dasharray:none;stroke-opacity:1;paint-order:markers stroke fill"
         id="path51"
         inkscape:flatsided="false"
         sodipodi:sides="5"
         sodipodi:cx="30.871828"
         sodipodi:cy="13.055364"
         sodipodi:r1="2.4817336"
         sodipodi:r2="1.3437588"
         sodipodi:arg1="1.005022"
         sodipodi:arg2="1.6333405"
         inkscape:rounded="0"
         inkscape:randomized="0"
         d="m 32.20221,15.150378 -1.414371,-0.753883 -1.497377,0.571532 0.27992,-1.57811 -1.006274,-1.247477 1.587372,-0.221442 0.875465,-1.342515 0.701129,1.44125 1.547342,0.417757 -1.15405,1.112185 z"
         inkscape:transform-center-x="-0.0029719289"
         inkscape:transform-center-y="-0.29332979"
         transform="rotate(-3.8498211,221.81679,-6.6080315)"
         inkscape:label="meio" /></g></g></svg>
