<svg width="13" height="12" viewBox="0 0 13 12" fill="none" xmlns="http://www.w3.org/2000/svg">
<path id="Union" fill-rule="evenodd" clip-rule="evenodd" d="M4.13579 3.52084L6.02298 0.115828C6.10615 -0.0342416 6.32001 -0.0395691 6.41055 0.106173L8.35057 3.2289C8.38191 3.27934 8.43193 3.31533 8.48971 3.32902L12.3369 4.2403C12.5051 4.28015 12.5673 4.48705 12.4489 4.61302L9.83063 7.39859C9.78609 7.44598 9.76426 7.51032 9.77076 7.57503L10.1858 11.7057C10.2032 11.8791 10.0252 12.0055 9.8672 11.9319L6.36921 10.3026C6.30941 10.2748 6.24039 10.2746 6.18044 10.3021L2.53004 11.9792C2.36899 12.0532 2.18965 11.9204 2.21342 11.7448L2.72615 7.95549C2.73468 7.89247 2.71611 7.82879 2.67506 7.78022L0.0533343 4.67868C-0.0584469 4.54645 0.0149579 4.34279 0.185401 4.31228L3.97879 3.63315C4.04535 3.62123 4.10301 3.57998 4.13579 3.52084ZM6.37065 9.53703C6.47856 9.54775 6.58508 9.57653 6.6856 9.62335L9.34806 10.8635L9.02517 7.64994C8.997 7.36956 9.09163 7.09071 9.28462 6.88538L11.2819 4.76048L8.31699 4.05818C8.0666 3.99887 7.84985 3.8429 7.71407 3.62433L6.33371 1.40247C6.3338 1.40495 6.33384 1.40745 6.33385 1.40998L6.37065 9.53703Z" fill="#616167"/>
</svg>
