<svg width="12" height="13" viewBox="0 0 12 13" fill="none" xmlns="http://www.w3.org/2000/svg">
<path d="M9.45998 6.07707C9.50197 5.97571 9.52358 5.86707 9.52358 5.75736C9.52358 5.64765 9.50197 5.53901 9.45998 5.43765C9.418 5.33629 9.35646 5.2442 9.27888 5.16662C9.2013 5.08904 9.1092 5.02751 9.00784 4.98552C8.90648 4.94354 8.79784 4.92192 8.68813 4.92192C8.57841 4.92192 8.46977 4.94354 8.36841 4.98552C8.26705 5.02751 8.17495 5.08904 8.09737 5.16662C8.01979 5.2442 7.95826 5.33629 7.91627 5.43765C7.87428 5.53901 7.85267 5.64765 7.85267 5.75736C7.85267 5.86707 7.87428 5.97571 7.91627 6.07707C7.95826 6.17843 8.01979 6.27052 8.09737 6.3481C8.17495 6.42568 8.26705 6.48721 8.36841 6.5292C8.46977 6.57118 8.57841 6.5928 8.68813 6.5928C8.79784 6.5928 8.90648 6.57118 9.00784 6.5292C9.1092 6.48721 9.2013 6.42568 9.27888 6.3481C9.35646 6.27052 9.418 6.17843 9.45998 6.07707Z" fill="#3C3C3F"/>
<path d="M6.8224 6.3481C6.97907 6.19143 7.0671 5.97893 7.0671 5.75736C7.0671 5.53579 6.97907 5.32329 6.8224 5.16662C6.66572 5.00994 6.45322 4.92192 6.23164 4.92192C6.12193 4.92192 6.01329 4.94354 5.91193 4.98552C5.81057 5.02751 5.71846 5.08904 5.64089 5.16662C5.56331 5.2442 5.50177 5.33629 5.45978 5.43765C5.4178 5.53901 5.39618 5.64765 5.39618 5.75736C5.39618 5.86707 5.4178 5.97571 5.45978 6.07707C5.50177 6.17843 5.56331 6.27052 5.64089 6.3481C5.71846 6.42568 5.81057 6.48721 5.91193 6.5292C6.01329 6.57118 6.12193 6.5928 6.23164 6.5928C6.45322 6.5928 6.66572 6.50478 6.8224 6.3481Z" fill="#3C3C3F"/>
<path d="M4.52831 6.07707C4.57029 5.97571 4.5919 5.86707 4.5919 5.75736C4.5919 5.64765 4.57029 5.53901 4.52831 5.43765C4.48632 5.33629 4.42478 5.2442 4.3472 5.16662C4.26963 5.08904 4.17753 5.02751 4.07616 4.98552C3.9748 4.94354 3.86616 4.92192 3.75645 4.92192C3.53487 4.92192 3.32237 5.00994 3.16569 5.16662C3.00902 5.32329 2.921 5.53579 2.921 5.75736C2.921 5.97893 3.00902 6.19143 3.16569 6.3481C3.32237 6.50478 3.53487 6.5928 3.75645 6.5928C3.86616 6.5928 3.9748 6.57118 4.07616 6.5292C4.17753 6.48721 4.26963 6.42568 4.3472 6.3481C4.42478 6.27052 4.48632 6.17843 4.52831 6.07707Z" fill="#3C3C3F"/>
<path fill-rule="evenodd" clip-rule="evenodd" d="M6.2729 0C2.20302 0 0.0073977 2.53849 1.84678e-05 5.17743C-0.00363437 6.48373 0.534595 7.78691 1.61769 8.75984C2.63609 9.67465 4.11597 10.2806 6.03846 10.3502V11.6278C6.03846 11.7445 6.09279 11.8545 6.18544 11.9255C6.27808 11.9965 6.39849 12.0202 6.51116 11.9898C10.337 10.9575 12.1069 7.99137 11.9908 5.24447C11.933 3.87644 11.406 2.5632 10.4322 1.59008C9.45491 0.613432 8.04813 0 6.2729 0ZM6.41346 9.60695C4.45692 9.60695 3.0405 9.02976 2.11888 8.20189C1.1967 7.37351 0.746952 6.27496 0.750015 5.17952C0.756068 3.01498 2.55265 0.75 6.2729 0.75C7.86641 0.75 9.07705 1.29613 9.90207 2.12059C10.7306 2.94858 11.1909 4.07799 11.2415 5.27613C11.3376 7.55124 9.9516 10.0764 6.78846 11.124V9.98195C6.78846 9.77484 6.62057 9.60695 6.41346 9.60695Z" fill="#3C3C3F"/>
</svg>
