<svg width="18" height="18" viewBox="0 0 18 18" fill="none" xmlns="http://www.w3.org/2000/svg">
<rect width="18" height="18" fill="#F1F1F1"/>
<g id="MacBook Air - Carteira" clip-path="url(#clip0_30_1264)">
<rect width="1280" height="832" transform="translate(-348 -353)" fill="#FBFBFB"/>
<g id="Frame 2608796">
<g id="Frame 2608718">
<g id="Frame 2608792">
<g id="Frame 2608788">
<g id="Frame 2608780">
<g id="Icon/cifr&#195;&#163;o">
<path id="Vector" d="M9.18289 11.772V13.3391M9.16696 6.228V4.66092M11.7512 6.26145H7.63788C7.63788 6.26145 6.28467 6.25107 6.28467 7.66604C6.28467 9.0515 7.62 8.89612 7.62 8.89612H10.398C10.398 8.89612 11.6632 8.92037 11.6796 10.2823C11.6949 11.5534 10.3622 11.7787 10.3622 11.7787H6.2488M17 8.99999C17 13.4183 13.4183 17 8.99999 17C4.58172 17 1 13.4183 1 8.99999C1 4.58171 4.58172 1 8.99999 1C13.4183 1 17 4.58171 17 8.99999Z" stroke="#3C3C3F" stroke-linecap="round" stroke-linejoin="round"/>
</g>
</g>
</g>
</g>
</g>
</g>
</g>
<defs>
<clipPath id="clip0_30_1264">
<rect width="1280" height="832" fill="white" transform="translate(-348 -353)"/>
</clipPath>
</defs>
</svg>
