<svg width="95" height="24" viewBox="0 0 95 24" fill="none" xmlns="http://www.w3.org/2000/svg">
<rect width="95" height="24" rx="6" fill="#FBFDFF"/>
<rect width="51" height="24" rx="6" fill="#65A115"/>
<path d="M5.00352 16V8.832H8.05504C8.46464 8.832 8.84011 8.9344 9.18144 9.1392C9.5296 9.33717 9.80608 9.61024 10.0109 9.9584C10.2157 10.2997 10.3181 10.6854 10.3181 11.1155C10.3181 11.5046 10.2157 11.8665 10.0109 12.201C9.80608 12.5355 9.53301 12.8051 9.19168 13.0099C8.85035 13.2079 8.47147 13.3069 8.05504 13.3069H6.10944V16H5.00352ZM9.26336 16L7.44064 12.7642L8.57728 12.5082L10.6048 16.0102L9.26336 16ZM6.10944 12.2419H8.15744C8.35541 12.2419 8.53291 12.1941 8.68992 12.0986C8.84693 11.9962 8.96981 11.8596 9.05856 11.689C9.14731 11.5115 9.19168 11.3169 9.19168 11.1053C9.19168 10.8663 9.13365 10.6581 9.0176 10.4806C8.90837 10.2963 8.75136 10.153 8.54656 10.0506C8.34859 9.94816 8.12331 9.89696 7.87072 9.89696H6.10944V12.2419ZM14.3354 16.1024C13.7483 16.1024 13.2294 15.9863 12.7789 15.7542C12.3351 15.5221 11.9529 15.174 11.632 14.7098L12.3898 13.8394C12.7243 14.3172 13.0451 14.6483 13.3523 14.8326C13.6595 15.017 14.0247 15.1091 14.448 15.1091C14.7074 15.1091 14.9429 15.0682 15.1546 14.9862C15.3662 14.9043 15.5334 14.7917 15.6563 14.6483C15.7792 14.505 15.8406 14.3411 15.8406 14.1568C15.8406 14.0339 15.8202 13.9179 15.7792 13.8086C15.7382 13.6994 15.6734 13.6004 15.5846 13.5117C15.5027 13.4229 15.3935 13.341 15.257 13.2659C15.1273 13.1908 14.9737 13.126 14.7962 13.0714C14.6187 13.0099 14.4139 12.9587 14.1818 12.9178C13.6902 12.8222 13.2806 12.6788 12.953 12.4877C12.6321 12.2965 12.3898 12.0542 12.2259 11.7606C12.0689 11.4671 11.9904 11.1258 11.9904 10.7366C11.9904 10.4499 12.0518 10.1837 12.1747 9.93792C12.3044 9.69216 12.4785 9.48053 12.697 9.30304C12.9222 9.11872 13.1851 8.97877 13.4854 8.8832C13.7858 8.7808 14.1101 8.7296 14.4582 8.7296C15.0112 8.7296 15.4925 8.83883 15.9021 9.05728C16.3185 9.26891 16.6462 9.57952 16.8851 9.98912L16.1069 10.7571C15.9021 10.4226 15.6563 10.1666 15.3696 9.98912C15.0897 9.81163 14.7757 9.72288 14.4275 9.72288C14.1613 9.72288 13.9292 9.76384 13.7312 9.84576C13.5332 9.92768 13.3762 10.0437 13.2602 10.1939C13.1509 10.3373 13.0963 10.5079 13.0963 10.7059C13.0963 10.8493 13.1236 10.9824 13.1782 11.1053C13.2329 11.2213 13.3148 11.3271 13.424 11.4227C13.5401 11.5115 13.6937 11.5934 13.8848 11.6685C14.0759 11.7367 14.3046 11.7982 14.5709 11.8528C14.9463 11.9347 15.2809 12.0405 15.5744 12.1702C15.8679 12.2931 16.1171 12.4399 16.3219 12.6106C16.5267 12.7812 16.6803 12.9724 16.7827 13.184C16.8919 13.3956 16.9466 13.6243 16.9466 13.8701C16.9466 14.3275 16.8407 14.7234 16.6291 15.0579C16.4175 15.3924 16.1171 15.6518 15.728 15.8362C15.3389 16.0137 14.8747 16.1024 14.3354 16.1024ZM13.721 16.9318V12.2829L14.7142 12.6208V16.9318H13.721ZM15.1238 12.6208L14.1306 12.2829V7.99232H15.1238V12.6208ZM22.6021 15.4982V9.68192L22.981 9.96864L21.5678 10.7162L21.2709 9.7536L23.1858 8.7296H23.7182V15.4982H22.6021ZM21.4654 16V14.935H24.8856V16H21.4654ZM29.1045 16V10.2246L29.3605 10.2861L27.0053 13.1635L26.9643 13.0406H31.4187V14.0544H26.2782L25.8072 13.1328L29.3195 8.832H30.1694V16H29.1045ZM32.7511 17.833L32.362 17.3619C32.6009 17.2254 32.7955 17.0684 32.9457 16.8909C33.0959 16.7134 33.171 16.5598 33.171 16.4301C33.171 16.3618 33.1539 16.2935 33.1198 16.2253C33.0856 16.1638 33.0139 16.0751 32.9047 15.959C32.7682 15.8293 32.6794 15.7201 32.6385 15.6314C32.5975 15.5426 32.577 15.447 32.577 15.3446C32.577 15.1808 32.6351 15.0511 32.7511 14.9555C32.8672 14.8531 33.0174 14.8019 33.2017 14.8019C33.3723 14.8019 33.5259 14.8531 33.6625 14.9555C33.8058 15.0511 33.9151 15.1876 33.9902 15.3651C34.0721 15.5358 34.113 15.7338 34.113 15.959C34.113 16.1638 34.0789 16.3618 34.0106 16.553C33.9424 16.7441 33.8468 16.9216 33.7239 17.0854C33.601 17.2493 33.4577 17.3961 33.2938 17.5258C33.13 17.6555 32.9491 17.7579 32.7511 17.833ZM37.5394 16.0307C37.0956 16.0307 36.6894 15.9386 36.3208 15.7542C35.959 15.5631 35.6689 15.3105 35.4504 14.9965C35.2319 14.6825 35.1227 14.3343 35.1227 13.952C35.1227 13.7404 35.15 13.5424 35.2046 13.3581C35.2661 13.1669 35.3548 12.9929 35.4709 12.8358C35.5938 12.6788 35.7405 12.5355 35.9112 12.4058C36.0819 12.2761 36.2798 12.16 36.5051 12.0576L36.4437 12.2726C36.2662 12.2044 36.1058 12.1225 35.9624 12.0269C35.8259 11.9245 35.7064 11.8084 35.604 11.6787C35.5016 11.549 35.4231 11.4091 35.3685 11.2589C35.3207 11.1087 35.2968 10.9517 35.2968 10.7878C35.2968 10.426 35.3958 10.0983 35.5938 9.8048C35.7986 9.51125 36.0682 9.27573 36.4027 9.09824C36.7441 8.92075 37.1229 8.832 37.5394 8.832C37.9558 8.832 38.3313 8.92075 38.6658 9.09824C39.0071 9.27573 39.2767 9.51125 39.4747 9.8048C39.6795 10.0983 39.7819 10.426 39.7819 10.7878C39.7819 10.9517 39.7546 11.1087 39.7 11.2589C39.6522 11.4091 39.5805 11.5456 39.485 11.6685C39.3894 11.7914 39.2665 11.904 39.1163 12.0064C38.973 12.1088 38.8091 12.1975 38.6248 12.2726L38.5941 12.0986C38.7989 12.1805 38.9832 12.2863 39.147 12.416C39.3177 12.5457 39.4645 12.6925 39.5874 12.8563C39.7102 13.0202 39.8024 13.1942 39.8638 13.3786C39.9321 13.5629 39.9662 13.754 39.9662 13.952C39.9662 14.3411 39.857 14.6927 39.6386 15.0067C39.4201 15.3207 39.1266 15.5699 38.7579 15.7542C38.3961 15.9386 37.9899 16.0307 37.5394 16.0307ZM37.5394 15.0067C37.7919 15.0067 38.0172 14.9589 38.2152 14.8634C38.42 14.7678 38.5804 14.6381 38.6965 14.4742C38.8125 14.3104 38.8706 14.1227 38.8706 13.911C38.8706 13.6858 38.8125 13.4878 38.6965 13.3171C38.5804 13.1396 38.42 12.9997 38.2152 12.8973C38.0172 12.7949 37.7919 12.7437 37.5394 12.7437C37.2868 12.7437 37.0615 12.7949 36.8635 12.8973C36.6655 12.9997 36.5085 13.1396 36.3925 13.3171C36.2764 13.4878 36.2184 13.6858 36.2184 13.911C36.2184 14.1158 36.2764 14.3002 36.3925 14.464C36.5085 14.6278 36.6655 14.761 36.8635 14.8634C37.0615 14.9589 37.2868 15.0067 37.5394 15.0067ZM37.5394 11.7606C37.7578 11.7606 37.9524 11.7197 38.123 11.6378C38.3005 11.5558 38.4371 11.4466 38.5326 11.3101C38.635 11.1667 38.6862 11.0029 38.6862 10.8186C38.6862 10.6342 38.635 10.4704 38.5326 10.327C38.4371 10.1837 38.3005 10.071 38.123 9.98912C37.9524 9.90037 37.7578 9.856 37.5394 9.856C37.3209 9.856 37.1229 9.90037 36.9454 9.98912C36.7748 10.071 36.6382 10.1837 36.5358 10.327C36.4403 10.4704 36.3925 10.6342 36.3925 10.8186C36.3925 11.0029 36.4403 11.1667 36.5358 11.3101C36.6382 11.4466 36.7748 11.5558 36.9454 11.6378C37.1229 11.7197 37.3209 11.7606 37.5394 11.7606ZM43.6127 16.1024C43.0666 16.1024 42.5955 15.9522 42.1996 15.6518C41.8105 15.3515 41.5101 14.9282 41.2985 14.3821C41.0869 13.8291 40.981 13.1738 40.981 12.416C40.981 11.6582 41.0869 11.0063 41.2985 10.4602C41.5101 9.9072 41.8105 9.48053 42.1996 9.18016C42.5955 8.87979 43.0666 8.7296 43.6127 8.7296C44.1589 8.7296 44.6299 8.87979 45.0258 9.18016C45.4218 9.48053 45.7256 9.9072 45.9372 10.4602C46.1488 11.0063 46.2546 11.6582 46.2546 12.416C46.2546 13.1738 46.1488 13.8291 45.9372 14.3821C45.7256 14.9282 45.4218 15.3515 45.0258 15.6518C44.6299 15.9522 44.1589 16.1024 43.6127 16.1024ZM43.6127 15.0989C44.1111 15.0989 44.4968 14.8668 44.7698 14.4026C45.0429 13.9315 45.1794 13.2693 45.1794 12.416C45.1794 11.5627 45.0429 10.9039 44.7698 10.4397C44.4968 9.96864 44.1111 9.73312 43.6127 9.73312C43.1144 9.73312 42.7287 9.96864 42.4556 10.4397C42.1825 10.9039 42.046 11.5627 42.046 12.416C42.046 13.2693 42.1825 13.9315 42.4556 14.4026C42.7287 14.8668 43.1144 15.0989 43.6127 15.0989Z" fill="#FBFDFF"/>
<path fill-rule="evenodd" clip-rule="evenodd" d="M61.1358 9.52084L63.023 6.11583C63.1062 5.96576 63.32 5.96043 63.4106 6.10617L65.3506 9.2289C65.3819 9.27934 65.4319 9.31533 65.4897 9.32902L69.3369 10.2403C69.5051 10.2802 69.5673 10.487 69.4489 10.613L66.8306 13.3986C66.7861 13.446 66.7643 13.5103 66.7708 13.575L67.1858 17.7057C67.2032 17.8791 67.0252 18.0055 66.8672 17.9319L63.3692 16.3026C63.3094 16.2748 63.2404 16.2746 63.1804 16.3021L59.53 17.9792C59.369 18.0532 59.1897 17.9204 59.2134 17.7448L59.7262 13.9555C59.7347 13.8925 59.7161 13.8288 59.6751 13.7802L57.0533 10.6787C56.9416 10.5464 57.015 10.3428 57.1854 10.3123L60.9788 9.63315C61.0454 9.62123 61.103 9.57998 61.1358 9.52084ZM63.3707 15.537C63.4786 15.5478 63.5851 15.5765 63.6856 15.6233L66.3481 16.8635L66.0252 13.6499C65.997 13.3696 66.0916 13.0907 66.2846 12.8854L68.2819 10.7605L65.317 10.0582C65.0666 9.99887 64.8499 9.8429 64.7141 9.62433L63.3337 7.40247C63.3338 7.40495 63.3338 7.40745 63.3339 7.40998L63.3707 15.537Z" fill="#616167"/>
<path d="M77.1142 16V10.2246L77.3702 10.2861L75.015 13.1635L74.9741 13.0406H79.4285V14.0544H74.288L73.817 13.1328L77.3293 8.832H78.1792V16H77.1142ZM80.7609 17.833L80.3718 17.3619C80.6107 17.2254 80.8053 17.0684 80.9554 16.8909C81.1056 16.7134 81.1807 16.5598 81.1807 16.4301C81.1807 16.3618 81.1637 16.2935 81.1295 16.2253C81.0954 16.1638 81.0237 16.0751 80.9145 15.959C80.778 15.8293 80.6892 15.7201 80.6482 15.6314C80.6073 15.5426 80.5868 15.447 80.5868 15.3446C80.5868 15.1808 80.6448 15.0511 80.7609 14.9555C80.8769 14.8531 81.0271 14.8019 81.2114 14.8019C81.3821 14.8019 81.5357 14.8531 81.6722 14.9555C81.8156 15.0511 81.9248 15.1876 81.9999 15.3651C82.0818 15.5358 82.1228 15.7338 82.1228 15.959C82.1228 16.1638 82.0887 16.3618 82.0204 16.553C81.9521 16.7441 81.8566 16.9216 81.7337 17.0854C81.6108 17.2493 81.4674 17.3961 81.3036 17.5258C81.1398 17.6555 80.9589 17.7579 80.7609 17.833ZM83.5421 16L83.2042 15.1603L85.3955 12.6925C85.5116 12.5696 85.631 12.4297 85.7539 12.2726C85.8836 12.1088 86.0065 11.9415 86.1226 11.7709C86.2386 11.6002 86.3308 11.433 86.399 11.2691C86.4741 11.0985 86.5117 10.938 86.5117 10.7878C86.5117 10.5694 86.4673 10.3851 86.3786 10.2349C86.2966 10.0779 86.1738 9.9584 86.0099 9.87648C85.8529 9.79456 85.6618 9.7536 85.4365 9.7536C85.2385 9.7536 85.044 9.81163 84.8528 9.92768C84.6617 10.0437 84.4876 10.2076 84.3306 10.4192C84.1736 10.6308 84.0507 10.8766 83.9619 11.1565L83.112 10.624C83.2281 10.2281 83.4021 9.89013 83.6342 9.61024C83.8732 9.32352 84.1565 9.10507 84.4842 8.95488C84.8187 8.80469 85.1805 8.7296 85.5696 8.7296C85.9724 8.7296 86.3308 8.81493 86.6448 8.9856C86.9588 9.14944 87.2046 9.38155 87.3821 9.68192C87.5596 9.97547 87.6483 10.3168 87.6483 10.7059C87.6483 10.8629 87.6313 11.0234 87.5971 11.1872C87.563 11.351 87.5084 11.5217 87.4333 11.6992C87.3582 11.8699 87.2626 12.0508 87.1466 12.2419C87.0305 12.4262 86.8906 12.6208 86.7267 12.8256C86.5697 13.0304 86.3888 13.2454 86.184 13.4707L84.5558 15.2422L84.351 14.935H87.8736V16H83.5421Z" fill="#616167"/>
</svg>
