<svg width="20" height="16" viewBox="0 0 20 16" fill="none" xmlns="http://www.w3.org/2000/svg">
<path fill-rule="evenodd" clip-rule="evenodd" d="M0 0.470588C0 0.21069 0.21069 0 0.470588 0C1.14008 0 1.70294 0.310463 2.15884 0.760212C2.60989 1.20516 2.97905 1.80677 3.28316 2.45681C3.89189 3.758 4.28955 5.36279 4.53436 6.61989C4.82319 8.10303 4.88099 9.59405 4.88099 11.0608V11.907H15.3281C15.4196 9.39892 16.4592 6.2657 18.3326 4.20246H5.72367C5.46377 4.20246 5.25308 3.99177 5.25308 3.73187C5.25308 3.47198 5.46377 3.26129 5.72367 3.26129H19.2941C19.554 3.26129 19.7647 3.47198 19.7647 3.73187V3.90698C19.7647 4.0362 19.7116 4.15975 19.6177 4.24862L19.409 4.44636C19.4088 4.44651 19.4092 4.4462 19.409 4.44636C17.3949 6.36028 16.2624 9.72435 16.2627 12.2655V12.3776C16.2627 12.6375 16.052 12.8482 15.7921 12.8482H4.4104C4.1505 12.8482 3.93981 12.6375 3.93981 12.3776V11.0608C3.93981 9.61383 3.88204 8.19394 3.61054 6.7998C3.37031 5.56624 2.99008 4.0514 2.43066 2.85563C2.15069 2.25718 1.83821 1.76598 1.49787 1.43023C1.1624 1.09929 0.824134 0.941176 0.470588 0.941176C0.21069 0.941176 0 0.730487 0 0.470588ZM4.4104 13.658C4.6703 13.658 4.88099 13.8687 4.88099 14.1286C4.88099 14.3371 4.98382 14.5649 5.21723 14.7517C5.45337 14.9406 5.79203 15.0588 6.16142 15.0588C6.53081 15.0588 6.86947 14.9406 7.10561 14.7517C7.33902 14.5649 7.44186 14.3371 7.44186 14.1286C7.44186 13.8687 7.65255 13.658 7.91245 13.658C8.17235 13.658 8.38304 13.8687 8.38304 14.1286C8.38304 14.6631 8.11691 15.1479 7.69356 15.4866C7.27293 15.8231 6.72083 16 6.16142 16C5.60201 16 5.04991 15.8231 4.62929 15.4866C4.20594 15.1479 3.93981 14.6631 3.93981 14.1286C3.93981 13.8687 4.1505 13.658 4.4104 13.658ZM10.539 13.658C10.7989 13.658 11.0096 13.8687 11.0096 14.1286C11.0096 14.3371 11.1124 14.5649 11.3458 14.7517C11.582 14.9406 11.9206 15.0588 12.29 15.0588C12.6594 15.0588 12.9981 14.9406 13.2342 14.7517C13.4676 14.5649 13.5705 14.3371 13.5705 14.1286C13.5705 13.8687 13.7811 13.658 14.041 13.658C14.3009 13.658 14.5116 13.8687 14.5116 14.1286C14.5116 14.6631 14.2455 15.1479 13.8222 15.4866C13.4015 15.8231 12.8494 16 12.29 16C11.7306 16 11.1785 15.8231 10.7579 15.4866C10.3345 15.1479 10.0684 14.6631 10.0684 14.1286C10.0684 13.8687 10.2791 13.658 10.539 13.658Z" fill="#144EC0"/>
</svg>
