<svg width="12" height="12" viewBox="0 0 12 12" fill="none" xmlns="http://www.w3.org/2000/svg">
<path id="Union" fill-rule="evenodd" clip-rule="evenodd" d="M6.48911 0.318198C6.39722 0.123352 6.20761 0 6 0C5.79239 0 5.60278 0.123352 5.51089 0.318198L3.95223 3.6231L0.466581 4.15633C0.261185 4.18776 0.0906329 4.33847 0.0266089 4.54514C-0.0374152 4.7518 0.0161881 4.97859 0.164889 5.13018L2.68663 7.70087L2.0915 11.3326C2.0564 11.5468 2.14053 11.7633 2.30852 11.891C2.47651 12.0187 2.69921 12.0355 2.88298 11.9344L6 10.2188L9.11702 11.9344C9.30079 12.0355 9.52349 12.0187 9.69148 11.891C9.85947 11.7633 9.9436 11.5468 9.9085 11.3326L9.31337 7.70087L11.8351 5.13018C11.9838 4.97859 12.0374 4.7518 11.9734 4.54514C11.9094 4.33847 11.7388 4.18776 11.5334 4.15633L8.04777 3.6231L6.48911 0.318198ZM6 1.86066L6 9.00004L5.99576 9.00287C6.08438 9.00215 6.17313 9.02401 6.25388 9.06846L8.64644 10.3853L8.18966 7.59793C8.1593 7.41266 8.21803 7.22362 8.34669 7.09247L10.2827 5.1189L7.60656 4.70951C7.4291 4.68236 7.27572 4.56563 7.19634 4.39731L6 1.86066Z" fill="#FECE25"/>
</svg>
