<svg width="75" height="73" viewBox="0 0 75 73" fill="none" xmlns="http://www.w3.org/2000/svg">
<g clip-path="url(#clip0_1017_3059)">
<path d="M20.8601 30.9695C20.3303 30.2494 21.5206 28.4737 21.5206 28.4737L38.2902 5.09274C38.2902 5.09274 39.3954 3.32323 40.4933 3.44394C41.8173 3.58909 42.4706 5.5829 42.4706 5.5829L52.1723 31.849C52.1723 31.849 52.9858 33.6445 51.8266 34.52C51.0448 35.1105 49.1786 35.0039 49.1786 35.0039L22.9208 32.071C22.9208 32.071 21.5778 31.944 20.8601 30.9695Z" fill="#FECE25"/>
<path fill-rule="evenodd" clip-rule="evenodd" d="M40.1425 7.51292L23.6688 30.4814L49.2913 33.3433C49.3223 33.3442 49.365 33.345 49.4169 33.3453C49.4931 33.3456 49.5837 33.3445 49.6823 33.3407L40.1425 7.51292ZM54.4157 31.7567C54.4262 31.7821 54.438 31.8111 54.4506 31.8433C54.4878 31.9377 54.5339 32.0629 54.5817 32.2124C54.6745 32.5029 54.7872 32.9276 54.8393 33.4247C54.9359 34.3472 54.8588 36.127 53.2543 37.339C52.6844 37.7694 52.0619 37.9779 51.6268 38.0895C51.162 38.2087 50.7072 38.2671 50.3414 38.2976C49.968 38.3288 49.6347 38.3352 49.3964 38.3342C49.2756 38.3337 49.1751 38.3313 49.101 38.3288C49.0639 38.3276 49.0331 38.3263 49.0095 38.3252L48.9795 38.3238L48.9686 38.3232L48.9643 38.323L48.9623 38.3229L48.9614 38.3228C48.961 38.3228 48.9606 38.3228 49.1029 35.8323L48.9606 38.3228C48.9156 38.3202 48.8707 38.3164 48.826 38.3114L22.5407 35.3754C22.5118 35.372 22.4773 35.3677 22.4376 35.3621C22.3585 35.3509 22.2577 35.3347 22.1398 35.3113C21.9069 35.2653 21.5916 35.1884 21.237 35.0604C20.5631 34.8172 19.5392 34.3137 18.7758 33.2772L18.7751 33.2762C18.0793 32.3305 18.119 31.2967 18.1931 30.7618C18.2742 30.1763 18.4693 29.652 18.627 29.2881C18.7938 28.9032 18.9763 28.5679 19.1105 28.3371C19.1793 28.2187 19.2396 28.1207 19.2849 28.0489C19.3076 28.0129 19.3267 27.9831 19.3416 27.9603L19.3606 27.9313L19.3676 27.9208L19.3704 27.9166L19.3722 27.9139C19.3725 27.9135 19.3728 27.9131 21.4448 29.302L19.3728 27.9131C19.3874 27.8912 19.4025 27.8696 19.4178 27.8482L36.1523 4.51617C36.1644 4.49774 36.1782 4.47683 36.1938 4.45366C36.2434 4.37989 36.3114 4.2817 36.3956 4.16734C36.5603 3.94376 36.8049 3.63373 37.1118 3.31661C37.4082 3.01038 37.8314 2.62544 38.3631 2.31855C38.8865 2.01648 39.7015 1.68427 40.6894 1.79266M54.4157 31.7567L44.7449 5.57438L44.7424 5.56704C44.7318 5.53659 44.7181 5.49832 44.7013 5.45328C44.6678 5.36355 44.6212 5.24491 44.5611 5.10617C44.4436 4.83473 44.2616 4.45658 44.0071 4.05678C43.591 3.40311 42.5422 1.99614 40.6894 1.79266" fill="#8CC640"/>
<path d="M19.7001 70.2235C28.9363 70.2235 36.4237 62.7361 36.4237 53.4999C36.4237 44.2638 28.9363 36.7764 19.7001 36.7764C10.464 36.7764 2.97656 44.2638 2.97656 53.4999C2.97656 62.7361 10.464 70.2235 19.7001 70.2235Z" fill="#FBB516"/>
<path fill-rule="evenodd" clip-rule="evenodd" d="M19.6992 39.5529C11.9964 39.5529 5.75208 45.7972 5.75208 53.5C5.75208 61.2028 11.9964 67.4471 19.6992 67.4471C27.402 67.4471 33.6464 61.2028 33.6464 53.5C33.6464 45.7972 27.402 39.5529 19.6992 39.5529ZM0.199219 53.5C0.199219 42.7304 8.92966 34 19.6992 34C30.4688 34 39.1992 42.7304 39.1992 53.5C39.1992 64.2696 30.4688 73 19.6992 73C8.92966 73 0.199219 64.2696 0.199219 53.5Z" fill="#65A115"/>
<path d="M68.1714 40.7715H45.227C43.4286 40.7715 41.9707 42.2294 41.9707 44.0278V66.9721C41.9707 68.7705 43.4286 70.2284 45.227 70.2284H68.1714C69.9698 70.2284 71.4276 68.7705 71.4276 66.9721V44.0278C71.4276 42.2294 69.9698 40.7715 68.1714 40.7715Z" fill="#65A115"/>
<path fill-rule="evenodd" clip-rule="evenodd" d="M45.227 43.5431C44.9593 43.5431 44.7423 43.7601 44.7423 44.0278V66.9722C44.7423 67.2399 44.9593 67.4569 45.227 67.4569H68.1714C68.4391 67.4569 68.6562 67.2399 68.6562 66.9722V44.0278C68.6562 43.7601 68.4391 43.5431 68.1714 43.5431H45.227ZM39.1992 44.0278C39.1992 40.6987 41.898 38 45.227 38H68.1714C71.5005 38 74.1992 40.6987 74.1992 44.0278V66.9722C74.1992 70.3013 71.5005 73 68.1714 73H45.227C41.898 73 39.1992 70.3013 39.1992 66.9722V44.0278Z" fill="#FBB516"/>
</g>
<defs>
<clipPath id="clip0_1017_3059">
<rect width="74" height="73" fill="white" transform="translate(0.199219)"/>
</clipPath>
</defs>
</svg>
