<svg width="20" height="18" viewBox="0 0 20 18" fill="none" xmlns="http://www.w3.org/2000/svg">
<path id="Vector" d="M15.7548 4.06138C10.9981 4.06138 6.10139 4.05877 1.67197 4.05877M16.252 10.2843C16.252 11.2924 15.4348 12.1096 14.4267 12.1096C13.4186 12.1096 12.6013 11.2924 12.6013 10.2843C12.6013 9.27613 13.4186 8.4589 14.4267 8.4589C15.4348 8.4589 16.252 9.27613 16.252 10.2843ZM0.664693 4.04874V13.6499C0.664693 13.6499 0.467249 15.4107 1.20339 16.2829C1.92529 17.1382 3.96625 16.9902 3.96625 16.9902H16.4099C16.4099 16.9902 17.8793 17.067 18.7079 16.162C19.5453 15.2474 19.3384 13.3772 19.3384 13.3772V8.12951C19.3384 8.12951 19.569 5.65034 18.461 4.65727C17.6061 3.92022 16.967 4.04346 15.9155 4.04346C15.9155 4.04346 16.1218 2.64178 15.3853 1.7232C14.8034 0.997424 14.0515 1.00331 14.0515 1.00331H3.05571C3.05571 1.00331 2.04272 0.904958 1.29199 1.78003C0.662314 2.51401 0.660479 4.07462 0.660479 4.07462L0.664693 4.04874Z" stroke="#3C3C3F" stroke-linecap="round" stroke-linejoin="round"/>
</svg>
