<svg width="24" height="24" viewBox="0 0 24 24" fill="none" xmlns="http://www.w3.org/2000/svg">
<rect width="24" height="24" rx="12" fill="#FBFDFF"/>
<g clip-path="url(#clip0_929_20075)">
<path d="M7.32446 9.85144C5.58706 9.8486 4.43711 14.0145 4.43711 14.0145L5.49847 13.0583C5.49847 13.0583 5.37854 14.2337 5.45091 14.675C5.59817 15.573 6.47883 17.0086 6.47883 17.0086C6.47883 17.0086 6.66377 14.6537 7.14534 14.5794C7.46492 14.5301 8.18441 16.9434 8.18441 16.9434C8.18441 16.9434 8.39582 15.3376 8.39736 14.447C8.39852 13.7306 8.25984 12.3023 8.25984 12.3023C8.77299 12.8858 9.16644 13.1618 9.50848 13.2232C8.50259 12.77 8.75552 10.07 7.32446 9.85144Z" fill="#FD5723"/>
<path d="M7.04408 7.27053C6.64729 7.28735 6.40338 7.55721 6.16759 7.80647C5.91774 8.07058 5.60438 8.88715 5.35052 8.93885C4.68067 9.07527 4.34961 8.39427 4.34961 8.39427C4.34961 8.39427 4.83707 9.65106 5.50465 9.68801C5.82885 9.70596 6.40157 9.11173 6.40157 9.11173C6.40157 9.11173 6.65052 9.69801 7.22235 9.6592C7.82272 9.61845 8.03014 8.9619 8.03014 8.9619C8.03014 8.9619 8.60506 9.48945 8.99205 9.44021C9.41554 9.38632 9.7757 8.3741 9.7757 8.3741C9.7757 8.3741 9.01978 8.88973 8.81935 8.72851C8.37405 8.37031 8.28864 7.95198 7.91872 7.61629C7.70974 7.42666 7.42591 7.25434 7.04408 7.27053Z" fill="#FD5723"/>
<path d="M12.3274 10.4213C12.2891 10.4206 12.2502 10.4218 12.2105 10.4253C11.1587 10.6327 10.809 11.7866 10.3768 12.6303C10.2177 12.9265 10.0354 13.2324 9.77405 13.3156C10.3059 13.2622 10.7403 12.6808 11.3878 11.985C11.3878 11.985 11.1898 13.0664 11.2373 13.6393C11.3325 14.7894 12.1685 17.0086 12.1685 17.0086C12.1685 17.0086 12.3507 14.2299 12.7569 14.2598C13.3122 14.3007 13.2198 16.9482 13.2198 16.9482C13.2198 16.9482 13.8619 14.9097 14.042 13.8538C14.1156 13.4224 14.1425 12.5321 14.1425 12.5321C14.447 12.6887 14.752 12.8341 15.061 12.8826C14.2772 12.5723 13.739 10.5878 12.3274 10.4213Z" fill="#14A5C0"/>
<path d="M11.2659 7.13037C11.2659 7.13037 11.5553 7.70325 11.8199 7.70142C13.1069 7.69251 13.5949 8.07622 13.629 9.10164C13.6456 9.5993 13.0266 10.1033 12.5305 10.1098C12.0654 10.1159 11.5991 9.77966 11.5156 9.33645C11.4309 8.88745 11.5156 8.69235 11.5156 8.69235C11.5156 8.69235 11.3854 8.58834 11.3299 8.52094C11.1488 8.3009 11.209 8.08461 11.209 8.08461C11.3827 8.17783 11.4006 8.19116 11.5776 8.25372C11.5776 8.25372 11.2926 8.03708 11.2079 7.81679C11.1148 7.63343 11.2022 7.32888 11.2659 7.13037Z" fill="#14A5C0"/>
<path d="M17.314 10.388C16.1357 10.4463 15.8297 12.461 15.0609 12.8543C15.3858 12.826 15.7162 12.6675 16.0559 12.2859C16.0559 12.2859 15.7659 13.3414 15.7801 13.8803C15.8075 14.9129 16.4696 16.9047 16.4696 16.9047C16.4696 16.9047 16.3322 14.1902 17.2766 14.24C18.233 14.2904 17.7936 17.0087 17.7936 17.0087C17.7936 17.0087 18.6804 15.2571 18.7989 14.305C18.8346 14.0177 18.7997 13.6111 18.748 13.234C18.8194 13.1836 19.7333 12.5281 19.6463 12.0691C19.4702 11.1395 18.2779 10.3402 17.314 10.388Z" fill="#FECE25"/>
<path d="M15.8427 6.99127C15.8427 6.99127 16.1408 7.56742 16.4133 7.56557C17.7392 7.55661 18.2418 7.94251 18.277 8.97379C18.2941 9.47429 17.6565 9.98116 17.1453 9.9877C16.6662 9.99382 16.1859 9.65568 16.0998 9.20993C16.0127 8.75837 16.0998 8.56216 16.0998 8.56216C16.0998 8.56216 15.9657 8.45756 15.9086 8.38977C15.722 8.16848 15.784 7.95096 15.784 7.95096C15.9629 8.04471 15.9814 8.05811 16.1637 8.12103C16.1637 8.12103 15.8701 7.90315 15.7829 7.68161C15.687 7.4972 15.777 7.19091 15.8427 6.99127Z" fill="#FECE25"/>
</g>
<defs>
<clipPath id="clip0_929_20075">
<rect width="15.3025" height="10.0174" fill="white" transform="translate(4.34961 6.99127)"/>
</clipPath>
</defs>
</svg>
