<svg width="24" height="24" viewBox="0 0 24 24" fill="none" xmlns="http://www.w3.org/2000/svg">
<rect width="24" height="24" rx="12" fill="#FBFDFF"/>
<path d="M10.5668 7.23895C11.1584 7.18019 11.5907 6.65204 11.5323 6.05931C11.4739 5.46657 10.947 5.0337 10.3555 5.09246C9.76387 5.15122 9.33161 5.67936 9.38999 6.2721C9.44836 6.86484 9.97526 7.29771 10.5668 7.23895Z" fill="#FD5723"/>
<path d="M8.79692 8.28535C7.63889 6.5853 8.0345 5.85398 7.99926 5.20238C7.97474 4.74894 8.43278 7.86236 10.5135 7.70834C13.696 7.47276 12.6995 3.72115 12.8151 4.01656C14.4114 8.09747 11.575 7.5894 11.0575 10.3692C10.946 10.968 11.1568 12.307 11.3027 13.6377C11.4251 14.7535 10.9184 16.4238 10.9184 16.4238C10.9184 16.4238 10.7124 11.7451 8.36095 11.6785C7.58934 11.6566 7.01108 13.1494 7.01108 13.1494C7.01108 13.1494 6.83308 11.8376 7.43171 11.078C7.72065 10.7114 8.55762 10.2466 8.55762 10.2466C8.50962 9.2619 8.63621 8.82504 8.79692 8.28535Z" fill="#FD5723"/>
<path d="M14.4368 11.914C13.9211 11.7753 13.6148 11.2442 13.7527 10.7276C13.8906 10.2111 14.4205 9.90479 14.9362 10.0435C15.452 10.1822 15.7583 10.7133 15.6204 11.2299C15.4825 11.7464 14.9526 12.0527 14.4368 11.914Z" fill="#FECE25"/>
<path d="M15.8526 13.1008C17.1262 11.7643 16.8819 11.0585 17.0079 10.4864C17.0956 10.0883 16.2369 12.7794 14.415 12.3382C11.6285 11.6635 13.0573 8.48578 12.9119 8.73057C10.9036 12.1121 13.4915 12.0774 13.546 14.6159C13.5577 15.1627 13.1762 16.318 12.8534 17.4756C12.5827 18.4462 12.7889 20.0001 12.7889 20.0001C12.7889 20.0001 13.6518 15.8854 15.7457 16.1707C16.4327 16.2643 16.7282 17.6715 16.7282 17.6715C16.7282 17.6715 17.0767 16.5354 16.6566 15.7748C16.4538 15.4077 15.7795 14.8734 15.7795 14.8734C15.9653 14.008 15.9166 13.6025 15.8526 13.1008Z" fill="#FECE25"/>
</svg>
