<svg width="24" height="24" viewBox="0 0 24 24" fill="none" xmlns="http://www.w3.org/2000/svg">
<rect width="24" height="24" rx="12" fill="#FBFDFF"/>
<g clip-path="url(#clip0_1220_14)">
<path d="M9.2463 10.9191C9.15703 10.7977 9.35757 10.4986 9.35757 10.4986L12.1828 6.55955C12.1828 6.55955 12.369 6.26143 12.5539 6.28177C12.777 6.30623 12.8871 6.64213 12.8871 6.64213L14.5215 11.0672C14.5215 11.0672 14.6586 11.3697 14.4633 11.5172C14.3316 11.6167 14.0172 11.5988 14.0172 11.5988L9.59347 11.1046C9.59347 11.1046 9.36721 11.0832 9.2463 10.9191Z" fill="#FECE25"/>
<path fill-rule="evenodd" clip-rule="evenodd" d="M12.495 6.96724L9.7196 10.8368L14.0363 11.319C14.0415 11.3191 14.0487 11.3192 14.0574 11.3193C14.0703 11.3193 14.0856 11.3191 14.1022 11.3185L12.495 6.96724ZM14.8996 11.0516C14.9014 11.0559 14.9034 11.0608 14.9055 11.0662C14.9118 11.0821 14.9195 11.1032 14.9276 11.1284C14.9432 11.1774 14.9622 11.2489 14.971 11.3327C14.9873 11.4881 14.9743 11.7879 14.7039 11.9921C14.6079 12.0646 14.5031 12.0998 14.4298 12.1186C14.3514 12.1386 14.2748 12.1485 14.2132 12.1536C14.1503 12.1589 14.0941 12.1599 14.054 12.1598C14.0336 12.1597 14.0167 12.1593 14.0042 12.1589C13.998 12.1587 13.9928 12.1585 13.9888 12.1583L13.9838 12.158L13.9819 12.1579C13.9819 12.1579 13.9806 12.1578 14.0045 11.7383L13.9806 12.1578C13.973 12.1574 13.9654 12.1568 13.9579 12.1559L9.52955 11.6613C9.52468 11.6607 9.51886 11.66 9.51218 11.6591C9.49885 11.6572 9.48187 11.6544 9.462 11.6505C9.42277 11.6427 9.36965 11.6298 9.30991 11.6082C9.19637 11.5673 9.02388 11.4824 8.89527 11.3078C8.77804 11.1485 8.78462 10.9742 8.7971 10.884C8.81076 10.7854 8.84364 10.6971 8.8702 10.6358C8.8983 10.5709 8.92905 10.5144 8.95166 10.4755C8.96325 10.4556 8.97341 10.4391 8.98103 10.427C8.98486 10.4209 8.98809 10.4159 8.99059 10.4121L8.9938 10.4072L8.99497 10.4054L8.99575 10.4042C8.99575 10.4042 8.99584 10.4041 9.34492 10.6381L8.99575 10.4042C8.99822 10.4006 9.00084 10.3968 9.00342 10.3932L11.8227 6.46237C11.8248 6.45927 11.8271 6.45574 11.8297 6.45184C11.8381 6.43941 11.8495 6.42287 11.8637 6.4036C11.8915 6.36594 11.9327 6.3137 11.9844 6.26028C12.0343 6.20869 12.1056 6.14383 12.1952 6.09213C12.2834 6.04124 12.4207 5.98527 12.5871 6.00353M14.8996 11.0516L13.2703 6.64065L13.2699 6.63941C13.2681 6.63428 13.2658 6.62784 13.263 6.62025C13.2574 6.60513 13.2495 6.58514 13.2394 6.56177C13.2196 6.51604 13.1889 6.45233 13.146 6.38498C13.0759 6.27485 12.8993 6.03782 12.5871 6.00353" fill="#8CC640"/>
<path d="M9.05099 17.5323C10.607 17.5323 11.8685 16.2709 11.8685 14.7149C11.8685 13.1588 10.607 11.8974 9.05099 11.8974C7.49495 11.8974 6.23353 13.1588 6.23353 14.7149C6.23353 16.2709 7.49495 17.5323 9.05099 17.5323Z" fill="#FBB516"/>
<path fill-rule="evenodd" clip-rule="evenodd" d="M9.05084 12.3651C7.75313 12.3651 6.70113 13.4171 6.70113 14.7148C6.70113 16.0125 7.75313 17.0645 9.05084 17.0645C10.3485 17.0645 11.4005 16.0125 11.4005 14.7148C11.4005 13.4171 10.3485 12.3651 9.05084 12.3651ZM5.76562 14.7148C5.76562 12.9004 7.23646 11.4296 9.05084 11.4296C10.8652 11.4296 12.3361 12.9004 12.3361 14.7148C12.3361 16.5292 10.8652 18 9.05084 18C7.23646 18 5.76562 16.5292 5.76562 14.7148Z" fill="#65A115"/>
<path d="M17.2179 12.5703H13.3524C13.0494 12.5703 12.8038 12.8159 12.8038 13.1189V16.9844C12.8038 17.2874 13.0494 17.533 13.3524 17.533H17.2179C17.5209 17.533 17.7665 17.2874 17.7665 16.9844V13.1189C17.7665 12.8159 17.5209 12.5703 17.2179 12.5703Z" fill="#65A115"/>
<path fill-rule="evenodd" clip-rule="evenodd" d="M13.3524 13.0372C13.3073 13.0372 13.2707 13.0738 13.2707 13.1189V16.9844C13.2707 17.0295 13.3073 17.0661 13.3524 17.0661H17.2179C17.263 17.0661 17.2996 17.0295 17.2996 16.9844V13.1189C17.2996 13.0738 17.263 13.0372 17.2179 13.0372H13.3524ZM12.3369 13.1189C12.3369 12.5581 12.7916 12.1034 13.3524 12.1034H17.2179C17.7788 12.1034 18.2334 12.5581 18.2334 13.1189V16.9844C18.2334 17.5453 17.7788 17.9999 17.2179 17.9999H13.3524C12.7916 17.9999 12.3369 17.5453 12.3369 16.9844V13.1189Z" fill="#FBB516"/>
</g>
<defs>
<clipPath id="clip0_1220_14">
<rect width="12.4678" height="12" fill="white" transform="translate(5.76562 6)"/>
</clipPath>
</defs>
</svg>
