<svg width="24" height="24" viewBox="0 0 24 24" fill="none" xmlns="http://www.w3.org/2000/svg">
<rect width="24" height="24" rx="12" fill="#FBFDFF"/>
<g clip-path="url(#clip0_1220_2402)">
<path d="M7.81086 6.87207C7.31829 6.87207 6.92188 7.27269 6.92188 7.7705V10.6013C6.92188 11.0991 7.31829 11.4997 7.81086 11.4997H10.6118C11.1044 11.4997 11.5008 11.0991 11.5008 10.6013V7.7705C11.5008 7.27269 11.1044 6.87207 10.6118 6.87207H7.81086ZM9.21217 7.63004C9.25162 7.63022 9.29088 7.63563 9.32894 7.64613C9.36694 7.65651 9.40344 7.67187 9.4375 7.69181C9.47145 7.71175 9.50269 7.73607 9.53041 7.76418C9.55826 7.79246 9.58231 7.82431 9.60196 7.85891C9.6217 7.89332 9.63691 7.93019 9.64719 7.96859C9.6574 8.00683 9.66263 8.04624 9.66278 8.08584V8.72995H10.3001C10.3393 8.7302 10.3783 8.73561 10.4161 8.74603C10.4544 8.75635 10.4911 8.7717 10.5254 8.79171C10.5594 8.81164 10.5906 8.83598 10.6184 8.86409C10.6461 8.89212 10.6702 8.92369 10.6899 8.95801C10.7096 8.99242 10.7249 9.02929 10.7351 9.06769C10.7454 9.10618 10.7507 9.14588 10.7507 9.18575C10.7508 9.19986 10.7503 9.21397 10.7491 9.22804C10.7479 9.24195 10.7459 9.2558 10.7434 9.26954C10.7408 9.28352 10.7375 9.29737 10.7335 9.31104C10.73 9.32452 10.7259 9.33782 10.7211 9.35092C10.716 9.36421 10.7102 9.37725 10.7039 9.39C10.6978 9.40247 10.6913 9.41466 10.6841 9.42652C10.6767 9.43852 10.6688 9.45016 10.6603 9.46141C10.652 9.47264 10.6432 9.48348 10.634 9.49389C10.6246 9.50432 10.6147 9.5143 10.6044 9.52381C10.5941 9.53342 10.5834 9.54255 10.5723 9.55116C10.5612 9.55974 10.5496 9.56779 10.5378 9.57528C10.526 9.58276 10.5139 9.58968 10.5016 9.59603C10.4889 9.60216 10.476 9.60768 10.4629 9.6126C10.45 9.61804 10.4368 9.62286 10.4234 9.62706C10.4101 9.6309 10.3967 9.63413 10.3831 9.63672C10.3695 9.6395 10.3558 9.64165 10.342 9.64315C10.3281 9.64488 10.3141 9.64595 10.3001 9.64636H9.66275V10.2905C9.66261 10.3301 9.65736 10.3695 9.64715 10.4077C9.63694 10.4464 9.62173 10.4835 9.60193 10.5182C9.58222 10.5525 9.55816 10.5841 9.53038 10.6121C9.50265 10.6403 9.47142 10.6646 9.43746 10.6845C9.4034 10.7045 9.36691 10.7198 9.32892 10.7302C9.29085 10.7407 9.25158 10.7461 9.21213 10.7463C9.17247 10.7467 9.13293 10.7418 9.09453 10.7318C9.05653 10.7214 9.02005 10.7061 8.98599 10.6861C8.95145 10.6663 8.91965 10.642 8.89141 10.6138C8.86362 10.5857 8.83957 10.5541 8.81986 10.5198C8.79977 10.4852 8.78428 10.448 8.77381 10.4093C8.76353 10.3708 8.75828 10.3312 8.7582 10.2913V9.64717H8.12087C8.08142 9.64699 8.04216 9.64158 8.0041 9.63109C7.96582 9.62078 7.92905 9.60541 7.89473 9.58541C7.86072 9.56522 7.82947 9.54063 7.80179 9.51224C7.77389 9.48371 7.74983 9.45158 7.73024 9.4167C7.7105 9.38228 7.6953 9.34541 7.68501 9.30701C7.67494 9.26822 7.66996 9.22827 7.67021 9.18816C7.67029 9.14829 7.67553 9.1086 7.6858 9.07011C7.69609 9.03171 7.71129 8.99484 7.73103 8.96042C7.75074 8.92611 7.77479 8.89453 7.80258 8.86649C7.83056 8.83833 7.86209 8.814 7.89633 8.79412C7.93039 8.77418 7.96688 8.75883 8.00488 8.74845C8.04267 8.73803 8.08165 8.73262 8.12082 8.73237H8.75817V8.08825C8.75824 8.04838 8.76348 8.00869 8.77376 7.9702C8.78424 7.93148 8.79972 7.89434 8.81981 7.85972C8.83952 7.8254 8.86357 7.79382 8.89136 7.76579C8.9196 7.73756 8.9514 7.71323 8.98594 7.69342C9.02 7.67348 9.05648 7.65811 9.09448 7.64773C9.13288 7.63771 9.17243 7.63285 9.21209 7.63327L9.21217 7.63004Z" fill="#8CC640"/>
<path d="M13.389 6.87207C12.8964 6.87207 12.5 7.27269 12.5 7.7705V10.6013C12.5 11.0991 12.8964 11.4997 13.389 11.4997H16.19C16.6825 11.4997 17.0789 11.0991 17.0789 10.6013V7.7705C17.0789 7.27269 16.6825 6.87207 16.19 6.87207H13.389ZM13.7648 8.73045H15.8125C15.8463 8.7304 15.8799 8.73417 15.9128 8.7417C15.9458 8.74942 15.9778 8.76086 16.0082 8.7758C16.0386 8.79053 16.0673 8.80866 16.0937 8.82984C16.1201 8.85088 16.1441 8.87484 16.1653 8.90126C16.1865 8.9279 16.2047 8.95686 16.2196 8.98761C16.2343 9.01835 16.2457 9.05068 16.2533 9.08396C16.2609 9.11725 16.2647 9.15128 16.2648 9.18544C16.2649 9.19681 16.2646 9.20819 16.2639 9.21954C16.263 9.23095 16.2616 9.24233 16.2598 9.25364C16.258 9.26481 16.2558 9.27592 16.2533 9.28693C16.2509 9.29813 16.2482 9.30923 16.245 9.32022C16.2416 9.33119 16.2378 9.34203 16.2335 9.35271C16.2295 9.36338 16.2251 9.37389 16.2203 9.38423C16.2155 9.39439 16.2103 9.40437 16.2047 9.41415C16.1991 9.42408 16.193 9.43378 16.1866 9.44325C16.1801 9.45268 16.1733 9.46185 16.1661 9.47075C16.159 9.47988 16.1516 9.48873 16.1439 9.49729C16.1362 9.50563 16.1283 9.51368 16.12 9.52142C16.1118 9.52891 16.1033 9.5361 16.0945 9.54296C16.0857 9.55022 16.0767 9.55714 16.0674 9.56371C16.058 9.57019 16.0484 9.57631 16.0386 9.58206C16.0289 9.58779 16.0191 9.59314 16.009 9.59813C15.9988 9.60281 15.9883 9.60711 15.9778 9.611C15.9672 9.61516 15.9565 9.61891 15.9457 9.62225C15.9348 9.62589 15.9239 9.62912 15.9128 9.63191C15.9019 9.63447 15.8909 9.63661 15.8799 9.63834C15.8687 9.64038 15.8575 9.64198 15.8462 9.64316C15.835 9.64387 15.8237 9.64414 15.8125 9.644H13.7648C13.731 9.64404 13.6974 9.64027 13.6644 9.63274C13.6315 9.62503 13.5995 9.61359 13.5691 9.59865C13.5389 9.58361 13.5105 9.56522 13.4843 9.54381C13.4579 9.52247 13.4339 9.49818 13.4128 9.47143C13.3918 9.44474 13.3739 9.41578 13.3593 9.38507C13.3448 9.35424 13.3338 9.32187 13.3264 9.28856C13.3189 9.25532 13.315 9.22134 13.315 9.18724C13.315 9.15309 13.3189 9.11904 13.3264 9.08575C13.3341 9.05274 13.3454 9.02071 13.3602 8.99023C13.3747 8.95951 13.3927 8.93054 13.4136 8.90386C13.4348 8.87744 13.4588 8.85348 13.4852 8.83244C13.5113 8.81131 13.5397 8.79319 13.5699 8.7784C13.6003 8.76346 13.6323 8.75204 13.6653 8.74432C13.6979 8.73685 13.7313 8.73307 13.7648 8.73305L13.7648 8.73045Z" fill="#FD5723"/>
<path d="M7.81086 12.5C7.31829 12.5 6.92188 12.9006 6.92188 13.3985V16.2292C6.92188 16.727 7.31829 17.1277 7.81086 17.1277H10.6118C11.1044 17.1277 11.5008 16.727 11.5008 16.2292V13.3985C11.5008 12.9006 11.1044 12.5 10.6118 12.5H7.81086ZM8.39062 13.5821C8.42423 13.5783 8.45816 13.5783 8.49176 13.5821C8.5251 13.5859 8.55793 13.5934 8.58962 13.6045C8.62159 13.6157 8.6522 13.6305 8.6809 13.6485C8.70947 13.6666 8.73595 13.6878 8.75986 13.7118L9.2105 14.1672L9.66035 13.7118C9.68451 13.6877 9.71126 13.6665 9.74012 13.6485C9.76882 13.6305 9.79944 13.6157 9.83141 13.6045C9.86337 13.5933 9.89646 13.5858 9.93008 13.5821C9.96369 13.5783 9.99762 13.5783 10.0312 13.5821C10.0649 13.5861 10.098 13.594 10.1299 13.6054C10.1619 13.6169 10.1925 13.6319 10.2212 13.6503C10.2498 13.6686 10.2763 13.6901 10.3001 13.7143C10.3084 13.7228 10.3164 13.7317 10.324 13.7409C10.3318 13.75 10.3392 13.7594 10.3462 13.7692C10.3531 13.7786 10.3597 13.7883 10.3659 13.7983C10.3721 13.8085 10.3779 13.8191 10.3832 13.8298C10.3886 13.8404 10.3935 13.8513 10.398 13.8623C10.4022 13.8732 10.4061 13.8843 10.4095 13.8956C10.4132 13.9071 10.4165 13.9187 10.4193 13.9305C10.4219 13.942 10.4241 13.9537 10.4258 13.9654C10.428 13.9772 10.4296 13.9891 10.4308 14.0011C10.4315 14.013 10.4318 14.0249 10.4316 14.0368C10.4318 14.0487 10.4315 14.0606 10.4308 14.0725C10.4296 14.0842 10.4279 14.0958 10.4258 14.1074C10.4241 14.1194 10.422 14.1313 10.4193 14.1431C10.4165 14.1546 10.4132 14.166 10.4095 14.1772C10.4061 14.1884 10.4022 14.1995 10.398 14.2105C10.3935 14.2215 10.3886 14.2323 10.3832 14.243C10.3779 14.2537 10.3721 14.2642 10.3659 14.2745C10.3597 14.2847 10.3532 14.2947 10.3462 14.3044C10.3392 14.3141 10.3318 14.3236 10.324 14.3327C10.3164 14.3416 10.3084 14.3502 10.3001 14.3585L9.84949 14.8139L10.3001 15.2693C10.3084 15.2779 10.3164 15.2867 10.324 15.2959C10.3318 15.3048 10.3392 15.3139 10.3462 15.3234C10.3532 15.3331 10.3597 15.3431 10.3659 15.3533C10.3721 15.3636 10.3779 15.3741 10.3832 15.3848C10.3886 15.3955 10.3935 15.4063 10.398 15.4173C10.4022 15.4283 10.4061 15.4394 10.4095 15.4506C10.4132 15.4621 10.4165 15.4737 10.4193 15.4855C10.4219 15.497 10.4241 15.5087 10.4258 15.5204C10.4279 15.532 10.4296 15.5436 10.4308 15.5553C10.4315 15.5672 10.4318 15.5791 10.4316 15.591C10.4318 15.6029 10.4315 15.6148 10.4308 15.6267C10.4296 15.6387 10.428 15.6506 10.4258 15.6624C10.4241 15.6741 10.4219 15.6858 10.4193 15.6973C10.4165 15.7091 10.4132 15.7207 10.4095 15.7322C10.4061 15.7435 10.4022 15.7546 10.398 15.7655C10.3935 15.7765 10.3886 15.7874 10.3832 15.798C10.3779 15.8087 10.3721 15.8192 10.3659 15.8295C10.3597 15.8395 10.3531 15.8492 10.3462 15.8586C10.3392 15.8684 10.3318 15.8778 10.324 15.8869C10.3164 15.8961 10.3084 15.9049 10.3001 15.9135C10.2763 15.9377 10.2498 15.9592 10.2212 15.9775C10.1925 15.9959 10.1619 16.0109 10.1299 16.0224C10.098 16.0339 10.0649 16.0417 10.0312 16.0457C9.99762 16.0495 9.96369 16.0495 9.93008 16.0457C9.89646 16.042 9.86337 16.0345 9.83141 16.0233C9.79944 16.0121 9.76882 15.9974 9.74012 15.9793C9.71126 15.9613 9.68451 15.9401 9.66035 15.916L9.2105 15.4606L8.75986 15.916C8.73595 15.94 8.70947 15.9612 8.6809 15.9793C8.6522 15.9974 8.62159 16.0121 8.58962 16.0233C8.55793 16.0344 8.5251 16.0419 8.49176 16.0457C8.45816 16.0495 8.42423 16.0495 8.39062 16.0457C8.357 16.042 8.32391 16.0345 8.29194 16.0233C8.26027 16.0121 8.22992 15.9973 8.20148 15.9793C8.17291 15.9612 8.14644 15.94 8.12254 15.916C8.09825 15.892 8.07672 15.8652 8.05838 15.8363C8.04048 15.8073 8.02586 15.7763 8.0148 15.744C8.00344 15.7117 7.99573 15.6783 7.99178 15.6442C7.98771 15.6103 7.98743 15.576 7.99095 15.542C7.99463 15.508 8.00209 15.4745 8.01316 15.4422C8.02416 15.4096 8.03878 15.3784 8.05674 15.3491C8.07483 15.3202 8.09606 15.2935 8.12006 15.2693L8.57072 14.8139L8.12006 14.3585C8.09606 14.3343 8.07483 14.3076 8.05674 14.2787C8.03884 14.2497 8.02422 14.2187 8.01316 14.1864C8.00203 14.1538 7.99457 14.1201 7.99095 14.0858C7.98743 14.0518 7.98771 14.0175 7.99178 13.9836C7.99573 13.9495 8.00344 13.9161 8.0148 13.8838C8.02586 13.8515 8.04048 13.8205 8.05838 13.7915C8.07672 13.7626 8.09825 13.7358 8.12254 13.7118C8.14644 13.6878 8.17291 13.6666 8.20148 13.6485C8.22992 13.6305 8.26027 13.6157 8.29194 13.6045C8.32391 13.5933 8.357 13.5858 8.39062 13.5821Z" fill="#FF8616"/>
<path d="M13.389 12.5C12.8964 12.5 12.5 12.9006 12.5 13.3985V16.2292C12.5 16.727 12.8964 17.1277 13.389 17.1277H16.19C16.6825 17.1277 17.0789 16.727 17.0789 16.2292V13.3985C17.0789 12.9006 16.6825 12.5 16.19 12.5H13.389ZM14.7895 13.2746C14.8029 13.2745 14.8164 13.2751 14.8298 13.2762C14.843 13.2778 14.8562 13.2799 14.8692 13.2827C14.8825 13.2848 14.8957 13.2874 14.9087 13.2907C14.9218 13.2944 14.9347 13.2987 14.9474 13.3036C14.9599 13.3084 14.9723 13.3137 14.9844 13.3196C14.9964 13.3252 15.0082 13.3314 15.0197 13.338C15.0313 13.3447 15.0425 13.3519 15.0535 13.3595C15.0645 13.3674 15.0752 13.3757 15.0855 13.3845C15.0958 13.3931 15.1056 13.4023 15.1151 13.4118C15.1246 13.4214 15.1336 13.4314 15.1423 13.4417C15.1509 13.4522 15.1592 13.463 15.1669 13.4742C15.1745 13.4852 15.1817 13.4966 15.1883 13.5083C15.1951 13.5199 15.2014 13.5318 15.2072 13.544C15.2127 13.5565 15.2176 13.5693 15.222 13.5823C15.2267 13.5948 15.2309 13.6076 15.2344 13.6206C15.238 13.6337 15.2411 13.647 15.2435 13.6605C15.2457 13.6737 15.2474 13.687 15.2484 13.7003C15.2496 13.7139 15.2501 13.7274 15.25 13.741C15.2501 13.7546 15.2496 13.7682 15.2484 13.7817C15.2474 13.7951 15.2457 13.8084 15.2435 13.8216C15.2411 13.835 15.238 13.8483 15.2344 13.8615C15.2309 13.8747 15.2267 13.8877 15.222 13.9006C15.2176 13.9132 15.2127 13.9257 15.2072 13.9379C15.2014 13.95 15.1951 13.962 15.1883 13.9736C15.1817 13.9853 15.1745 13.9966 15.1669 14.0077C15.1592 14.0189 15.1509 14.0297 15.1423 14.0402C15.1336 14.0505 15.1246 14.0605 15.1151 14.0701C15.1056 14.0796 15.0958 14.0888 15.0855 14.0974C15.0752 14.1062 15.0645 14.1145 15.0535 14.1223C15.0425 14.13 15.0313 14.1372 15.0197 14.1439C15.0082 14.1508 14.9964 14.1572 14.9844 14.163C14.9723 14.169 14.9599 14.1743 14.9474 14.1791C14.9346 14.1834 14.9218 14.1872 14.9087 14.1904C14.8957 14.1942 14.8825 14.1974 14.8692 14.2C14.8562 14.2022 14.843 14.2038 14.8298 14.2049C14.8164 14.206 14.8029 14.2065 14.7895 14.2065C14.7492 14.2064 14.7091 14.201 14.6702 14.1904C14.6314 14.1799 14.5941 14.1642 14.5592 14.1439C14.5244 14.1236 14.4923 14.0987 14.4638 14.0699C14.4354 14.0411 14.4108 14.0087 14.3906 13.9734C14.3705 13.9382 14.355 13.9005 14.3446 13.8612C14.3342 13.8219 14.329 13.7814 14.329 13.7407C14.329 13.7 14.3342 13.6595 14.3446 13.6202C14.355 13.5809 14.3705 13.5432 14.3906 13.508C14.4108 13.4728 14.4354 13.4404 14.4638 13.4116C14.4923 13.3829 14.5244 13.358 14.5592 13.3377C14.5941 13.3173 14.6314 13.3017 14.6702 13.2912C14.7091 13.2806 14.7492 13.2747 14.7895 13.2746ZM13.7286 14.3634H15.8511C15.8913 14.3629 15.9314 14.3678 15.9704 14.3779C16.0092 14.3884 16.0466 14.404 16.0814 14.4243C16.1162 14.4444 16.1483 14.469 16.1768 14.4975C16.2055 14.5262 16.2304 14.5586 16.2508 14.5939C16.2709 14.6288 16.2864 14.6663 16.2969 14.7053C16.3073 14.7446 16.3125 14.7851 16.3125 14.8258C16.3125 14.8393 16.312 14.8529 16.3109 14.8664C16.3098 14.8801 16.3082 14.8937 16.3059 14.9071C16.3037 14.9203 16.301 14.9333 16.2977 14.9462C16.2941 14.9594 16.29 14.9725 16.2852 14.9853C16.2806 14.9983 16.2754 15.0111 16.2696 15.0236C16.2641 15.0357 16.2581 15.0477 16.2516 15.0593C16.2447 15.071 16.2372 15.0823 16.2294 15.0934C16.2219 15.1046 16.2139 15.1154 16.2055 15.1259C16.1969 15.1362 16.1878 15.1462 16.1784 15.1558C16.1686 15.1654 16.1585 15.1746 16.1479 15.1833C16.1379 15.192 16.1275 15.2004 16.1167 15.2082C16.1055 15.2162 16.094 15.2238 16.0822 15.2307C16.0706 15.2374 16.0588 15.2435 16.0468 15.2491C16.0344 15.255 16.0218 15.2604 16.009 15.2652C15.9965 15.2695 15.9839 15.2732 15.9711 15.2764C15.9581 15.2802 15.945 15.2834 15.9317 15.2861C15.9183 15.2883 15.9049 15.2899 15.8914 15.2909C15.878 15.292 15.8645 15.2926 15.8511 15.2925H13.7285C13.688 15.2925 13.6476 15.2871 13.6085 15.2764C13.5697 15.2661 13.5323 15.2508 13.4975 15.2307C13.4623 15.2102 13.4299 15.1851 13.4012 15.1559C13.3728 15.1272 13.3482 15.0948 13.328 15.0596C13.3078 15.0241 13.2924 14.9861 13.282 14.9466C13.2716 14.9073 13.2664 14.8668 13.2664 14.8261C13.2666 14.7854 13.2722 14.7449 13.2828 14.7056C13.2933 14.6666 13.3088 14.6291 13.3289 14.5942C13.3493 14.5589 13.3742 14.5265 13.4029 14.4978C13.4314 14.4693 13.4635 14.4447 13.4983 14.4247C13.5331 14.4043 13.5705 14.3887 13.6093 14.3782C13.6483 14.3681 13.6884 14.3629 13.7286 14.3634ZM14.7895 15.4222C14.8029 15.4222 14.8164 15.4227 14.8298 15.4238C14.843 15.4249 14.8562 15.4265 14.8692 15.4287C14.8825 15.4313 14.8957 15.4345 14.9087 15.4383C14.9218 15.4415 14.9346 15.4452 14.9474 15.4496C14.9599 15.4544 14.9723 15.4597 14.9844 15.4656C14.9964 15.4715 15.0082 15.4779 15.0197 15.4848C15.0313 15.4915 15.0425 15.4987 15.0535 15.5063C15.0645 15.5142 15.0752 15.5225 15.0855 15.5313C15.0958 15.54 15.1057 15.5492 15.1151 15.5588C15.1246 15.5683 15.1336 15.5783 15.1423 15.5887C15.1509 15.5991 15.1592 15.6099 15.1669 15.621C15.1745 15.6321 15.1817 15.6434 15.1883 15.6551C15.1951 15.6667 15.2014 15.6786 15.2072 15.6908C15.2127 15.7031 15.2176 15.7156 15.222 15.7283C15.2267 15.7411 15.2309 15.7542 15.2344 15.7674C15.238 15.7805 15.2411 15.7938 15.2435 15.8072C15.2457 15.8205 15.2474 15.8338 15.2484 15.8471C15.2496 15.8607 15.2501 15.8742 15.25 15.8878C15.2501 15.9014 15.2496 15.915 15.2484 15.9285C15.2474 15.9419 15.2457 15.9552 15.2435 15.9684C15.2411 15.9818 15.238 15.9951 15.2344 16.0083C15.2309 16.0212 15.2267 16.034 15.222 16.0466C15.2176 16.0595 15.2127 16.0723 15.2072 16.0848C15.2014 16.097 15.1951 16.1089 15.1883 16.1205C15.1817 16.1322 15.1745 16.1436 15.1669 16.1546C15.1592 16.1658 15.1509 16.1767 15.1423 16.1871C15.1336 16.1975 15.1246 16.2075 15.1151 16.217C15.1057 16.2266 15.0958 16.2358 15.0855 16.2446C15.0752 16.2533 15.0645 16.2616 15.0535 16.2695C15.0425 16.2771 15.0313 16.2843 15.0197 16.291C15.0082 16.2977 14.9964 16.3038 14.9844 16.3094C14.9723 16.3153 14.9599 16.3206 14.9474 16.3254C14.9347 16.3303 14.9218 16.3346 14.9087 16.3383C14.8957 16.3416 14.8825 16.3443 14.8692 16.3463C14.8562 16.3491 14.843 16.3512 14.8298 16.3528C14.8164 16.3539 14.8029 16.3545 14.7895 16.3544C14.7492 16.3543 14.7091 16.3489 14.6702 16.3383C14.6314 16.3278 14.5941 16.3122 14.5592 16.2918C14.5244 16.2715 14.4923 16.2466 14.4638 16.2179C14.4354 16.1891 14.4108 16.1567 14.3906 16.1215C14.3705 16.0863 14.355 16.0485 14.3446 16.0093C14.3342 15.97 14.329 15.9295 14.329 15.8888C14.329 15.8481 14.3342 15.8076 14.3446 15.7683C14.355 15.729 14.3705 15.6913 14.3906 15.6561C14.4108 15.6209 14.4354 15.5885 14.4638 15.5597C14.4923 15.531 14.5244 15.5061 14.5592 15.4858C14.5941 15.4654 14.6314 15.4498 14.6702 15.4393C14.7091 15.4287 14.7492 15.4223 14.7895 15.4222Z" fill="#14A5C0"/>
</g>
<defs>
<clipPath id="clip0_1220_2402">
<rect width="15.3025" height="10.2553" fill="white" transform="translate(4.34961 6.87207)"/>
</clipPath>
</defs>
</svg>
