<svg width="17" height="18" viewBox="0 0 17 18" fill="none" xmlns="http://www.w3.org/2000/svg">
<path id="Vector" d="M3.32352 4.76476H2.38234C1.88312 4.76476 1.40433 4.96308 1.05133 5.31609C0.698318 5.6691 0.5 6.14788 0.5 6.64711V15.1177C0.5 15.6169 0.698318 16.0957 1.05133 16.4487C1.40433 16.8017 1.88312 17 2.38234 17H10.8529C11.3521 17 11.8309 16.8017 12.1839 16.4487C12.5369 16.0957 12.7352 15.6169 12.7352 15.1177V14.1765M11.794 2.88244L14.6175 5.70596M15.921 4.3742C16.2917 4.00353 16.5 3.50078 16.5 2.97656C16.5 2.45235 16.2917 1.9496 15.921 1.57892C15.5504 1.20824 15.0476 1 14.5234 1C13.9992 1 13.4964 1.20824 13.1258 1.57892L5.20579 9.47065V12.2942H8.0293L15.921 4.3742Z" stroke="#3C3C3F" stroke-linecap="round" stroke-linejoin="round"/>
</svg>
