<svg width="160" height="206" viewBox="0 0 160 206" fill="none" xmlns="http://www.w3.org/2000/svg">
<g filter="url(#filter0_d_562_3820)">
<g clip-path="url(#clip0_562_3820)">
<path d="M2 8.89654C2 5.08768 5.08769 2 8.89655 2H149.103C152.912 2 156 5.08769 156 8.89655V195.103C156 198.912 152.912 202 149.103 202H8.89654C5.08768 202 2 198.912 2 195.103V8.89654Z" fill="#FBFDFF"/>
<path d="M2 2H69.7931C117.404 2 156 40.5961 156 88.2069V202H88.2069C40.5961 202 2 163.404 2 115.793V2Z" fill="#144EC0"/>
<path d="M70.6296 47.4496C73.2749 47.1868 75.2077 44.8252 74.9467 42.1747C74.6857 39.5243 72.3296 37.5886 69.6843 37.8514C67.039 38.1141 65.1061 40.4758 65.3672 43.1262C65.6282 45.7767 67.9843 47.7123 70.6296 47.4496Z" fill="#FD5723"/>
<path d="M62.7166 52.1287C57.5384 44.5268 59.3074 41.2566 59.1498 38.343C59.0401 36.3154 61.0883 50.2373 70.3924 49.5486C84.6233 48.4951 80.1673 31.7196 80.6841 33.0405C87.8222 51.2886 75.1387 49.0167 72.8249 61.4467C72.3264 64.1243 73.2688 70.1116 73.9214 76.0623C74.4685 81.0517 72.203 88.5202 72.203 88.5202C72.203 88.5202 71.2819 67.5992 60.7671 67.3013C57.3168 67.2035 54.7311 73.8784 54.7311 73.8784C54.7311 73.8784 53.9351 68.0126 56.612 64.6163C57.904 62.977 61.6465 60.8985 61.6465 60.8985C61.4319 56.4954 61.998 54.542 62.7166 52.1287Z" fill="#FD5723"/>
<path d="M87.9288 68.3541C85.6226 67.7339 84.253 65.3588 84.8696 63.0491C85.4863 60.7394 87.8558 59.3698 90.1621 59.9899C92.4683 60.6101 93.838 62.9852 93.2213 65.2949C92.6046 67.6046 90.2351 68.9742 87.9288 68.3541Z" fill="#FECE25"/>
<path d="M94.2584 73.6612C99.9535 67.6849 98.861 64.5287 99.4244 61.9705C99.8164 60.1903 95.9767 72.224 87.8302 70.2513C75.37 67.234 81.7588 53.0248 81.1088 54.1194C72.1286 69.2403 83.7007 69.0851 83.9442 80.4359C83.9966 82.881 82.2907 88.0473 80.8471 93.2235C79.6366 97.5636 80.5587 104.512 80.5587 104.512C80.5587 104.512 84.4171 86.1125 93.7801 87.3884C96.8525 87.8071 98.1737 94.0991 98.1737 94.0991C98.1737 94.0991 99.7321 89.0191 97.8534 85.6182C96.9466 83.9767 93.9317 81.5873 93.9317 81.5873C94.7622 77.7179 94.5445 75.9044 94.2584 73.6612Z" fill="#FECE25"/>
<path d="M31.5514 121.372C30.8525 121.372 30.2134 121.252 29.6341 121.013C29.0548 120.774 28.5537 120.434 28.1307 119.993C27.7077 119.542 27.3767 119.013 27.1376 118.406C26.9077 117.79 26.7928 117.119 26.7928 116.393C26.7928 115.694 26.9169 115.045 27.1652 114.448C27.4134 113.85 27.7583 113.326 28.1996 112.875C28.641 112.425 29.156 112.075 29.7445 111.827C30.333 111.579 30.9721 111.455 31.6617 111.455C32.1307 111.455 32.5859 111.524 33.0272 111.661C33.4686 111.799 33.8732 111.993 34.241 112.241C34.6088 112.48 34.9169 112.76 35.1652 113.082L34.0203 114.337C33.7813 114.089 33.533 113.882 33.2755 113.717C33.0272 113.542 32.7652 113.413 32.4893 113.33C32.2226 113.238 31.9468 113.193 31.6617 113.193C31.2387 113.193 30.8387 113.271 30.4617 113.427C30.0939 113.583 29.7721 113.804 29.4962 114.089C29.2295 114.374 29.018 114.714 28.8617 115.11C28.7054 115.496 28.6272 115.928 28.6272 116.406C28.6272 116.894 28.7008 117.335 28.8479 117.73C29.0042 118.126 29.2203 118.466 29.4962 118.751C29.7813 119.036 30.1169 119.257 30.5031 119.413C30.8985 119.56 31.3307 119.634 31.7996 119.634C32.1031 119.634 32.3973 119.593 32.6824 119.51C32.9675 119.427 33.2295 119.312 33.4686 119.165C33.7169 119.009 33.9422 118.829 34.1445 118.627L35.0272 120.048C34.8065 120.296 34.5123 120.521 34.1445 120.724C33.7767 120.926 33.3629 121.087 32.9031 121.206C32.4525 121.317 32.0019 121.372 31.5514 121.372ZM39.9044 121.372C39.178 121.372 38.5297 121.211 37.9596 120.889C37.3894 120.558 36.9389 120.107 36.6078 119.537C36.2768 118.967 36.1113 118.319 36.1113 117.593C36.1113 116.866 36.2768 116.218 36.6078 115.648C36.9389 115.078 37.3894 114.632 37.9596 114.31C38.5297 113.979 39.178 113.813 39.9044 113.813C40.6216 113.813 41.2653 113.979 41.8354 114.31C42.4055 114.632 42.8515 115.078 43.1734 115.648C43.5044 116.218 43.6699 116.866 43.6699 117.593C43.6699 118.319 43.5044 118.967 43.1734 119.537C42.8515 120.107 42.4055 120.558 41.8354 120.889C41.2653 121.211 40.6216 121.372 39.9044 121.372ZM39.9044 119.868C40.2998 119.868 40.6492 119.767 40.9527 119.565C41.2653 119.363 41.509 119.091 41.6837 118.751C41.8676 118.411 41.955 118.025 41.9458 117.593C41.955 117.151 41.8676 116.76 41.6837 116.42C41.509 116.08 41.2653 115.813 40.9527 115.62C40.6492 115.418 40.2998 115.317 39.9044 115.317C39.509 115.317 39.1504 115.418 38.8285 115.62C38.5159 115.813 38.2722 116.084 38.0975 116.434C37.9228 116.774 37.8354 117.16 37.8354 117.593C37.8354 118.025 37.9228 118.411 38.0975 118.751C38.2722 119.091 38.5159 119.363 38.8285 119.565C39.1504 119.767 39.509 119.868 39.9044 119.868ZM45.1875 121.234V113.965H46.8564L46.884 116.282L46.6495 115.758C46.7507 115.39 46.9254 115.059 47.1737 114.765C47.422 114.471 47.707 114.241 48.0288 114.075C48.3599 113.901 48.7047 113.813 49.0633 113.813C49.2197 113.813 49.3668 113.827 49.5047 113.855C49.6518 113.882 49.7714 113.914 49.8633 113.951L49.4082 115.813C49.307 115.758 49.1829 115.712 49.0357 115.675C48.8886 115.638 48.7415 115.62 48.5944 115.62C48.3645 115.62 48.1438 115.666 47.9323 115.758C47.73 115.841 47.5507 115.96 47.3944 116.117C47.238 116.273 47.1139 116.457 47.022 116.668C46.9392 116.871 46.8978 117.101 46.8978 117.358V121.234H45.1875ZM50.993 124.268V113.965H52.6619L52.6895 115.62L52.3999 115.496C52.455 115.211 52.6114 114.944 52.8688 114.696C53.1263 114.438 53.4389 114.232 53.8068 114.075C54.1838 113.919 54.5746 113.841 54.9792 113.841C55.6229 113.841 56.193 114.002 56.6895 114.324C57.1953 114.645 57.5907 115.087 57.8757 115.648C58.17 116.209 58.3171 116.857 58.3171 117.593C58.3171 118.319 58.17 118.967 57.8757 119.537C57.5907 120.098 57.1953 120.544 56.6895 120.875C56.193 121.197 55.632 121.358 55.0068 121.358C54.5838 121.358 54.1746 121.275 53.7792 121.11C53.393 120.944 53.0619 120.728 52.7861 120.461C52.5194 120.195 52.3539 119.914 52.2895 119.62L52.7033 119.427V124.268H50.993ZM54.6619 119.855C55.0481 119.855 55.393 119.758 55.6964 119.565C55.9999 119.372 56.2343 119.105 56.3999 118.765C56.5746 118.425 56.6619 118.034 56.6619 117.593C56.6619 117.151 56.5792 116.765 56.4137 116.434C56.2481 116.094 56.0137 115.827 55.7102 115.634C55.4068 115.441 55.0573 115.344 54.6619 115.344C54.2573 115.344 53.9033 115.441 53.5999 115.634C53.3056 115.818 53.0711 116.08 52.8964 116.42C52.7217 116.76 52.6343 117.151 52.6343 117.593C52.6343 118.034 52.7217 118.425 52.8964 118.765C53.0711 119.105 53.3056 119.372 53.5999 119.565C53.9033 119.758 54.2573 119.855 54.6619 119.855ZM63.1533 121.372C62.4269 121.372 61.7786 121.211 61.2085 120.889C60.6384 120.558 60.1878 120.107 59.8568 119.537C59.5257 118.967 59.3602 118.319 59.3602 117.593C59.3602 116.866 59.5257 116.218 59.8568 115.648C60.1878 115.078 60.6384 114.632 61.2085 114.31C61.7786 113.979 62.4269 113.813 63.1533 113.813C63.8706 113.813 64.5142 113.979 65.0843 114.31C65.6545 114.632 66.1004 115.078 66.4223 115.648C66.7533 116.218 66.9188 116.866 66.9188 117.593C66.9188 118.319 66.7533 118.967 66.4223 119.537C66.1004 120.107 65.6545 120.558 65.0843 120.889C64.5142 121.211 63.8706 121.372 63.1533 121.372ZM63.1533 119.868C63.5487 119.868 63.8981 119.767 64.2016 119.565C64.5142 119.363 64.7579 119.091 64.9326 118.751C65.1165 118.411 65.2039 118.025 65.1947 117.593C65.2039 117.151 65.1165 116.76 64.9326 116.42C64.7579 116.08 64.5142 115.813 64.2016 115.62C63.8981 115.418 63.5487 115.317 63.1533 115.317C62.7579 115.317 62.3993 115.418 62.0775 115.62C61.7648 115.813 61.5211 116.084 61.3464 116.434C61.1717 116.774 61.0843 117.16 61.0843 117.593C61.0843 118.025 61.1717 118.411 61.3464 118.751C61.5211 119.091 61.7648 119.363 62.0775 119.565C62.3993 119.767 62.7579 119.868 63.1533 119.868ZM68.6433 123.799L68.0778 123.124C68.418 122.94 68.6893 122.724 68.8916 122.475C69.1031 122.236 69.2088 122.029 69.2088 121.855C69.2088 121.763 69.1858 121.671 69.1398 121.579C69.1031 121.496 69.0065 121.381 68.8502 121.234C68.6571 121.059 68.5284 120.907 68.464 120.779C68.3996 120.65 68.3674 120.507 68.3674 120.351C68.3674 120.112 68.4548 119.919 68.6295 119.772C68.8042 119.625 69.0295 119.551 69.3054 119.551C69.5536 119.551 69.7743 119.62 69.9674 119.758C70.1697 119.896 70.3261 120.089 70.4364 120.337C70.5467 120.576 70.6019 120.857 70.6019 121.179C70.6019 121.464 70.5513 121.74 70.4502 122.006C70.3582 122.282 70.2203 122.535 70.0364 122.765C69.8617 122.995 69.6548 123.197 69.4157 123.372C69.1858 123.556 68.9284 123.698 68.6433 123.799ZM79.5448 124.406C79.0023 124.406 78.4597 124.324 77.9172 124.158C77.3839 123.993 76.9517 123.776 76.6207 123.51L77.2276 122.255C77.4207 122.393 77.6368 122.512 77.8758 122.613C78.1149 122.714 78.3678 122.793 78.6345 122.848C78.9103 122.903 79.1816 122.93 79.4482 122.93C79.9356 122.93 80.3402 122.852 80.662 122.696C80.9931 122.549 81.2414 122.319 81.4069 122.006C81.5724 121.703 81.6551 121.321 81.6551 120.861V119.524L81.9034 119.62C81.8482 119.905 81.6965 120.176 81.4482 120.434C81.2 120.691 80.8873 120.903 80.5103 121.068C80.1333 121.225 79.7471 121.303 79.3517 121.303C78.662 121.303 78.0505 121.142 77.5172 120.82C76.9931 120.498 76.5747 120.061 76.262 119.51C75.9586 118.949 75.8069 118.305 75.8069 117.579C75.8069 116.852 75.9586 116.209 76.262 115.648C76.5655 115.078 76.9793 114.632 77.5034 114.31C78.0368 113.979 78.6345 113.813 79.2965 113.813C79.5724 113.813 79.8391 113.845 80.0965 113.91C80.354 113.974 80.5885 114.066 80.8 114.186C81.0207 114.305 81.2184 114.438 81.3931 114.586C81.5678 114.733 81.7103 114.889 81.8207 115.055C81.931 115.22 82 115.381 82.0276 115.537L81.6689 115.648L81.6965 113.965H83.3655V120.737C83.3655 121.326 83.2781 121.845 83.1034 122.296C82.9287 122.747 82.6758 123.128 82.3448 123.441C82.0138 123.763 81.6138 124.002 81.1448 124.158C80.6758 124.324 80.1425 124.406 79.5448 124.406ZM79.6138 119.855C80.0276 119.855 80.3908 119.758 80.7034 119.565C81.0253 119.372 81.2735 119.105 81.4482 118.765C81.623 118.425 81.7103 118.034 81.7103 117.593C81.7103 117.142 81.6184 116.747 81.4345 116.406C81.2597 116.057 81.0161 115.786 80.7034 115.593C80.3908 115.399 80.0276 115.303 79.6138 115.303C79.2 115.303 78.8368 115.404 78.5241 115.606C78.2115 115.799 77.9632 116.071 77.7793 116.42C77.6046 116.76 77.5172 117.151 77.5172 117.593C77.5172 118.025 77.6046 118.415 77.7793 118.765C77.9632 119.105 78.2115 119.372 78.5241 119.565C78.8368 119.758 79.2 119.855 79.6138 119.855ZM88.7345 121.372C87.9712 121.372 87.2954 121.211 86.7069 120.889C86.1276 120.567 85.6724 120.13 85.3414 119.579C85.0195 119.018 84.8586 118.379 84.8586 117.661C84.8586 117.091 84.9505 116.572 85.1345 116.103C85.3184 115.634 85.5712 115.229 85.8931 114.889C86.2241 114.54 86.6149 114.273 87.0655 114.089C87.5253 113.896 88.0264 113.799 88.5689 113.799C89.0471 113.799 89.4931 113.891 89.9069 114.075C90.3207 114.259 90.6793 114.512 90.9827 114.834C91.2862 115.147 91.5161 115.524 91.6724 115.965C91.8379 116.397 91.9161 116.871 91.9069 117.386L91.8931 117.979H86.0034L85.6862 116.82H90.4724L90.2517 117.055V116.751C90.2241 116.466 90.1322 116.218 89.9758 116.006C89.8195 115.786 89.6172 115.615 89.3689 115.496C89.1299 115.367 88.8632 115.303 88.5689 115.303C88.1184 115.303 87.7368 115.39 87.4241 115.565C87.1207 115.74 86.8908 115.993 86.7345 116.324C86.5781 116.645 86.5 117.05 86.5 117.537C86.5 118.006 86.5965 118.415 86.7896 118.765C86.9919 119.114 87.2724 119.386 87.631 119.579C87.9988 119.763 88.4264 119.855 88.9138 119.855C89.254 119.855 89.5666 119.799 89.8517 119.689C90.1368 119.579 90.4448 119.381 90.7758 119.096L91.6172 120.268C91.3689 120.498 91.0839 120.696 90.762 120.861C90.4494 121.018 90.1184 121.142 89.7689 121.234C89.4195 121.326 89.0747 121.372 88.7345 121.372ZM95.837 121.372C95.1934 121.372 94.6141 121.266 94.0991 121.055C93.5934 120.834 93.1796 120.521 92.8577 120.117L93.9612 119.165C94.237 119.478 94.5451 119.703 94.8853 119.841C95.2255 119.979 95.5842 120.048 95.9612 120.048C96.1175 120.048 96.2554 120.029 96.375 119.993C96.5037 119.956 96.6141 119.901 96.706 119.827C96.798 119.753 96.8669 119.671 96.9129 119.579C96.9681 119.478 96.9957 119.367 96.9957 119.248C96.9957 119.027 96.9129 118.852 96.7474 118.724C96.6554 118.659 96.5083 118.59 96.306 118.517C96.1129 118.443 95.86 118.37 95.5474 118.296C95.0508 118.167 94.637 118.02 94.306 117.855C93.975 117.68 93.7175 117.487 93.5336 117.275C93.3773 117.101 93.2577 116.903 93.175 116.682C93.1014 116.461 93.0646 116.222 93.0646 115.965C93.0646 115.643 93.1336 115.353 93.2715 115.096C93.4187 114.829 93.6164 114.599 93.8646 114.406C94.1129 114.213 94.4026 114.066 94.7336 113.965C95.0646 113.864 95.4095 113.813 95.7681 113.813C96.1359 113.813 96.4899 113.859 96.8301 113.951C97.1796 114.043 97.5014 114.176 97.7957 114.351C98.0991 114.517 98.3566 114.719 98.5681 114.958L97.6301 115.993C97.4554 115.827 97.2623 115.68 97.0508 115.551C96.8485 115.422 96.6416 115.321 96.4301 115.248C96.2187 115.165 96.0209 115.124 95.837 115.124C95.6623 115.124 95.506 115.142 95.3681 115.179C95.2301 115.206 95.1152 115.252 95.0232 115.317C94.9313 115.381 94.8577 115.464 94.8026 115.565C94.7566 115.657 94.7336 115.767 94.7336 115.896C94.7428 116.006 94.7704 116.112 94.8164 116.213C94.8715 116.305 94.9451 116.383 95.037 116.448C95.1382 116.512 95.2899 116.586 95.4922 116.668C95.6945 116.751 95.9566 116.829 96.2784 116.903C96.729 117.022 97.106 117.156 97.4095 117.303C97.7129 117.45 97.952 117.62 98.1267 117.813C98.3014 117.979 98.4255 118.172 98.4991 118.393C98.5727 118.613 98.6095 118.857 98.6095 119.124C98.6095 119.556 98.4853 119.942 98.237 120.282C97.998 120.622 97.6669 120.889 97.2439 121.082C96.8301 121.275 96.3612 121.372 95.837 121.372ZM100.89 121.234V112.117H102.587V121.234H100.89ZM99.4557 115.537V113.965H104.173V115.537H99.4557ZM108.722 121.372C107.995 121.372 107.347 121.211 106.777 120.889C106.207 120.558 105.756 120.107 105.425 119.537C105.094 118.967 104.929 118.319 104.929 117.593C104.929 116.866 105.094 116.218 105.425 115.648C105.756 115.078 106.207 114.632 106.777 114.31C107.347 113.979 107.995 113.813 108.722 113.813C109.439 113.813 110.083 113.979 110.653 114.31C111.223 114.632 111.669 115.078 111.991 115.648C112.322 116.218 112.487 116.866 112.487 117.593C112.487 118.319 112.322 118.967 111.991 119.537C111.669 120.107 111.223 120.558 110.653 120.889C110.083 121.211 109.439 121.372 108.722 121.372ZM108.722 119.868C109.117 119.868 109.467 119.767 109.77 119.565C110.083 119.363 110.326 119.091 110.501 118.751C110.685 118.411 110.772 118.025 110.763 117.593C110.772 117.151 110.685 116.76 110.501 116.42C110.326 116.08 110.083 115.813 109.77 115.62C109.467 115.418 109.117 115.317 108.722 115.317C108.326 115.317 107.968 115.418 107.646 115.62C107.333 115.813 107.09 116.084 106.915 116.434C106.74 116.774 106.653 117.16 106.653 117.593C106.653 118.025 106.74 118.411 106.915 118.751C107.09 119.091 107.333 119.363 107.646 119.565C107.968 119.767 108.326 119.868 108.722 119.868ZM116.432 121.372C115.789 121.372 115.209 121.266 114.694 121.055C114.189 120.834 113.775 120.521 113.453 120.117L114.557 119.165C114.832 119.478 115.14 119.703 115.481 119.841C115.821 119.979 116.18 120.048 116.557 120.048C116.713 120.048 116.851 120.029 116.97 119.993C117.099 119.956 117.209 119.901 117.301 119.827C117.393 119.753 117.462 119.671 117.508 119.579C117.563 119.478 117.591 119.367 117.591 119.248C117.591 119.027 117.508 118.852 117.343 118.724C117.251 118.659 117.104 118.59 116.901 118.517C116.708 118.443 116.455 118.37 116.143 118.296C115.646 118.167 115.232 118.02 114.901 117.855C114.57 117.68 114.313 117.487 114.129 117.275C113.973 117.101 113.853 116.903 113.77 116.682C113.697 116.461 113.66 116.222 113.66 115.965C113.66 115.643 113.729 115.353 113.867 115.096C114.014 114.829 114.212 114.599 114.46 114.406C114.708 114.213 114.998 114.066 115.329 113.965C115.66 113.864 116.005 113.813 116.363 113.813C116.731 113.813 117.085 113.859 117.426 113.951C117.775 114.043 118.097 114.176 118.391 114.351C118.694 114.517 118.952 114.719 119.163 114.958L118.226 115.993C118.051 115.827 117.858 115.68 117.646 115.551C117.444 115.422 117.237 115.321 117.026 115.248C116.814 115.165 116.616 115.124 116.432 115.124C116.258 115.124 116.101 115.142 115.963 115.179C115.826 115.206 115.711 115.252 115.619 115.317C115.527 115.381 115.453 115.464 115.398 115.565C115.352 115.657 115.329 115.767 115.329 115.896C115.338 116.006 115.366 116.112 115.412 116.213C115.467 116.305 115.54 116.383 115.632 116.448C115.734 116.512 115.885 116.586 116.088 116.668C116.29 116.751 116.552 116.829 116.874 116.903C117.324 117.022 117.701 117.156 118.005 117.303C118.308 117.45 118.547 117.62 118.722 117.813C118.897 117.979 119.021 118.172 119.094 118.393C119.168 118.613 119.205 118.857 119.205 119.124C119.205 119.556 119.081 119.942 118.832 120.282C118.593 120.622 118.262 120.889 117.839 121.082C117.426 121.275 116.957 121.372 116.432 121.372ZM128.161 121.372C127.397 121.372 126.722 121.211 126.133 120.889C125.554 120.567 125.099 120.13 124.768 119.579C124.446 119.018 124.285 118.379 124.285 117.661C124.285 117.091 124.377 116.572 124.561 116.103C124.745 115.634 124.997 115.229 125.319 114.889C125.65 114.54 126.041 114.273 126.492 114.089C126.951 113.896 127.453 113.799 127.995 113.799C128.473 113.799 128.919 113.891 129.333 114.075C129.747 114.259 130.105 114.512 130.409 114.834C130.712 115.147 130.942 115.524 131.099 115.965C131.264 116.397 131.342 116.871 131.333 117.386L131.319 117.979H125.43L125.112 116.82H129.899L129.678 117.055V116.751C129.65 116.466 129.558 116.218 129.402 116.006C129.246 115.786 129.043 115.615 128.795 115.496C128.556 115.367 128.289 115.303 127.995 115.303C127.545 115.303 127.163 115.39 126.85 115.565C126.547 115.74 126.317 115.993 126.161 116.324C126.004 116.645 125.926 117.05 125.926 117.537C125.926 118.006 126.023 118.415 126.216 118.765C126.418 119.114 126.699 119.386 127.057 119.579C127.425 119.763 127.853 119.855 128.34 119.855C128.68 119.855 128.993 119.799 129.278 119.689C129.563 119.579 129.871 119.381 130.202 119.096L131.043 120.268C130.795 120.498 130.51 120.696 130.188 120.861C129.876 121.018 129.545 121.142 129.195 121.234C128.846 121.326 128.501 121.372 128.161 121.372ZM41.6173 142.234V134.965H43.2863L43.3139 136.427L43.038 136.537C43.1208 136.298 43.2449 136.078 43.4104 135.875C43.5759 135.664 43.7736 135.484 44.0035 135.337C44.2334 135.181 44.4771 135.061 44.7346 134.979C44.992 134.887 45.2541 134.841 45.5208 134.841C45.9162 134.841 46.2656 134.905 46.569 135.034C46.8817 135.153 47.1392 135.347 47.3415 135.613C47.553 135.88 47.7093 136.22 47.8104 136.634L47.5484 136.579L47.6587 136.358C47.7598 136.137 47.9024 135.94 48.0863 135.765C48.2702 135.581 48.4771 135.42 48.707 135.282C48.9369 135.135 49.1759 135.025 49.4242 134.951C49.6817 134.878 49.9346 134.841 50.1828 134.841C50.7346 134.841 51.1943 134.951 51.5621 135.172C51.93 135.393 52.2058 135.728 52.3897 136.179C52.5736 136.629 52.6656 137.186 52.6656 137.848V142.234H50.9553V137.958C50.9553 137.59 50.9047 137.287 50.8035 137.048C50.7116 136.809 50.5644 136.634 50.3621 136.524C50.169 136.404 49.9254 136.344 49.6311 136.344C49.4012 136.344 49.1805 136.386 48.969 136.468C48.7667 136.542 48.592 136.652 48.4449 136.799C48.2978 136.937 48.1828 137.098 48.1001 137.282C48.0173 137.466 47.9759 137.668 47.9759 137.889V142.234H46.2656V137.944C46.2656 137.595 46.215 137.305 46.1139 137.075C46.0127 136.836 45.8656 136.657 45.6725 136.537C45.4794 136.409 45.2449 136.344 44.969 136.344C44.7392 136.344 44.5231 136.386 44.3208 136.468C44.1185 136.542 43.9438 136.648 43.7966 136.786C43.6495 136.924 43.5346 137.084 43.4518 137.268C43.369 137.452 43.3277 137.655 43.3277 137.875V142.234H41.6173ZM57.8731 142.372C57.1467 142.372 56.4984 142.211 55.9283 141.889C55.3582 141.558 54.9076 141.107 54.5766 140.537C54.2456 139.967 54.08 139.319 54.08 138.593C54.08 137.866 54.2456 137.218 54.5766 136.648C54.9076 136.078 55.3582 135.632 55.9283 135.31C56.4984 134.979 57.1467 134.813 57.8731 134.813C58.5904 134.813 59.2341 134.979 59.8042 135.31C60.3743 135.632 60.8203 136.078 61.1421 136.648C61.4731 137.218 61.6387 137.866 61.6387 138.593C61.6387 139.319 61.4731 139.967 61.1421 140.537C60.8203 141.107 60.3743 141.558 59.8042 141.889C59.2341 142.211 58.5904 142.372 57.8731 142.372ZM57.8731 140.868C58.2685 140.868 58.618 140.767 58.9214 140.565C59.2341 140.363 59.4777 140.091 59.6524 139.751C59.8364 139.411 59.9237 139.025 59.9145 138.593C59.9237 138.151 59.8364 137.76 59.6524 137.42C59.4777 137.08 59.2341 136.813 58.9214 136.62C58.618 136.418 58.2685 136.317 57.8731 136.317C57.4777 136.317 57.1191 136.418 56.7973 136.62C56.4846 136.813 56.241 137.084 56.0662 137.434C55.8915 137.774 55.8042 138.16 55.8042 138.593C55.8042 139.025 55.8915 139.411 56.0662 139.751C56.241 140.091 56.4846 140.363 56.7973 140.565C57.1191 140.767 57.4777 140.868 57.8731 140.868ZM65.2852 142.234L62.2231 134.965H64.0714L66.1404 140.399L65.7818 140.496L67.9611 134.965H69.768L66.5542 142.234H65.2852ZM71.2022 142.234V134.965H72.8988V142.234H71.2022ZM72.0298 133.42C71.6896 133.42 71.4229 133.337 71.2298 133.172C71.0459 132.997 70.954 132.753 70.954 132.441C70.954 132.147 71.0505 131.907 71.2436 131.724C71.4367 131.54 71.6988 131.448 72.0298 131.448C72.3792 131.448 72.6459 131.535 72.8298 131.71C73.0229 131.875 73.1195 132.119 73.1195 132.441C73.1195 132.726 73.0229 132.96 72.8298 133.144C72.6367 133.328 72.3701 133.42 72.0298 133.42ZM75.0225 142.234V134.965H76.6915L76.719 136.427L76.4432 136.537C76.5259 136.298 76.6501 136.078 76.8156 135.875C76.9811 135.664 77.1788 135.484 77.4087 135.337C77.6386 135.181 77.8823 135.061 78.1397 134.979C78.3972 134.887 78.6593 134.841 78.9259 134.841C79.3213 134.841 79.6708 134.905 79.9742 135.034C80.2869 135.153 80.5443 135.347 80.7466 135.613C80.9581 135.88 81.1144 136.22 81.2156 136.634L80.9535 136.579L81.0639 136.358C81.165 136.137 81.3076 135.94 81.4915 135.765C81.6754 135.581 81.8823 135.42 82.1121 135.282C82.342 135.135 82.5811 135.025 82.8294 134.951C83.0869 134.878 83.3397 134.841 83.588 134.841C84.1397 134.841 84.5995 134.951 84.9673 135.172C85.3351 135.393 85.611 135.728 85.7949 136.179C85.9788 136.629 86.0708 137.186 86.0708 137.848V142.234H84.3604V137.958C84.3604 137.59 84.3099 137.287 84.2087 137.048C84.1167 136.809 83.9696 136.634 83.7673 136.524C83.5742 136.404 83.3305 136.344 83.0363 136.344C82.8064 136.344 82.5857 136.386 82.3742 136.468C82.1719 136.542 81.9972 136.652 81.8501 136.799C81.703 136.937 81.588 137.098 81.5053 137.282C81.4225 137.466 81.3811 137.668 81.3811 137.889V142.234H79.6708V137.944C79.6708 137.595 79.6202 137.305 79.519 137.075C79.4179 136.836 79.2708 136.657 79.0777 136.537C78.8846 136.409 78.6501 136.344 78.3742 136.344C78.1443 136.344 77.9282 136.386 77.7259 136.468C77.5236 136.542 77.3489 136.648 77.2018 136.786C77.0547 136.924 76.9397 137.084 76.857 137.268C76.7742 137.452 76.7328 137.655 76.7328 137.875V142.234H75.0225ZM91.3611 142.372C90.5979 142.372 89.922 142.211 89.3335 141.889C88.7542 141.567 88.299 141.13 87.968 140.579C87.6461 140.018 87.4852 139.379 87.4852 138.661C87.4852 138.091 87.5772 137.572 87.7611 137.103C87.945 136.634 88.1979 136.229 88.5197 135.889C88.8507 135.54 89.2415 135.273 89.6921 135.089C90.1519 134.896 90.653 134.799 91.1956 134.799C91.6737 134.799 92.1197 134.891 92.5335 135.075C92.9473 135.259 93.3059 135.512 93.6094 135.834C93.9128 136.147 94.1427 136.524 94.299 136.965C94.4645 137.397 94.5427 137.871 94.5335 138.386L94.5197 138.979H88.63L88.3128 137.82H93.099L92.8783 138.055V137.751C92.8507 137.466 92.7588 137.218 92.6025 137.006C92.4461 136.786 92.2438 136.615 91.9956 136.496C91.7565 136.367 91.4898 136.303 91.1956 136.303C90.745 136.303 90.3634 136.39 90.0507 136.565C89.7473 136.74 89.5174 136.993 89.3611 137.324C89.2048 137.645 89.1266 138.05 89.1266 138.537C89.1266 139.006 89.2231 139.415 89.4162 139.765C89.6185 140.114 89.899 140.386 90.2576 140.579C90.6254 140.763 91.053 140.855 91.5404 140.855C91.8806 140.855 92.1933 140.799 92.4783 140.689C92.7634 140.579 93.0714 140.381 93.4025 140.096L94.2438 141.268C93.9956 141.498 93.7105 141.696 93.3887 141.861C93.076 142.018 92.745 142.142 92.3956 142.234C92.0461 142.326 91.7013 142.372 91.3611 142.372ZM96.0361 142.234V134.965H97.6912L97.7188 136.455L97.4016 136.62C97.4935 136.289 97.6729 135.99 97.9395 135.724C98.2062 135.448 98.5234 135.227 98.8912 135.061C99.2591 134.896 99.6361 134.813 100.022 134.813C100.574 134.813 101.034 134.924 101.402 135.144C101.779 135.365 102.059 135.696 102.243 136.137C102.436 136.579 102.533 137.13 102.533 137.793V142.234H100.836V137.917C100.836 137.549 100.785 137.245 100.684 137.006C100.583 136.758 100.427 136.579 100.215 136.468C100.004 136.349 99.7464 136.294 99.443 136.303C99.1947 136.303 98.9648 136.344 98.7533 136.427C98.551 136.501 98.3717 136.611 98.2154 136.758C98.0683 136.896 97.9487 137.057 97.8568 137.241C97.774 137.425 97.7326 137.627 97.7326 137.848V142.234H96.8912C96.7257 142.234 96.5694 142.234 96.4223 142.234C96.2843 142.234 96.1556 142.234 96.0361 142.234ZM105.227 142.234V133.117H106.924V142.234H105.227ZM103.793 136.537V134.965H108.51V136.537H103.793ZM113.059 142.372C112.333 142.372 111.684 142.211 111.114 141.889C110.544 141.558 110.094 141.107 109.762 140.537C109.431 139.967 109.266 139.319 109.266 138.593C109.266 137.866 109.431 137.218 109.762 136.648C110.094 136.078 110.544 135.632 111.114 135.31C111.684 134.979 112.333 134.813 113.059 134.813C113.776 134.813 114.42 134.979 114.99 135.31C115.56 135.632 116.006 136.078 116.328 136.648C116.659 137.218 116.825 137.866 116.825 138.593C116.825 139.319 116.659 139.967 116.328 140.537C116.006 141.107 115.56 141.558 114.99 141.889C114.42 142.211 113.776 142.372 113.059 142.372ZM113.059 140.868C113.454 140.868 113.804 140.767 114.107 140.565C114.42 140.363 114.664 140.091 114.838 139.751C115.022 139.411 115.11 139.025 115.1 138.593C115.11 138.151 115.022 137.76 114.838 137.42C114.664 137.08 114.42 136.813 114.107 136.62C113.804 136.418 113.454 136.317 113.059 136.317C112.664 136.317 112.305 136.418 111.983 136.62C111.671 136.813 111.427 137.084 111.252 137.434C111.077 137.774 110.99 138.16 110.99 138.593C110.99 139.025 111.077 139.411 111.252 139.751C111.427 140.091 111.671 140.363 111.983 140.565C112.305 140.767 112.664 140.868 113.059 140.868Z" fill="#FBFDFF"/>
<path d="M65.9822 182.835C65.7442 182.835 65.5512 183.028 65.5512 183.266C65.5512 183.504 65.7442 183.697 65.9822 183.697H68.4218C68.6599 183.697 68.8528 183.504 68.8528 183.266C68.8528 183.028 68.6599 182.835 68.4218 182.835H65.9822Z" fill="#FBFDFF"/>
<path d="M65.5242 185.406C65.5242 185.168 65.7172 184.975 65.9553 184.975H71.2848C71.5229 184.975 71.7159 185.168 71.7159 185.406C71.7159 185.644 71.5229 185.837 71.2848 185.837H65.9553C65.7172 185.837 65.5242 185.644 65.5242 185.406Z" fill="#FBFDFF"/>
<path d="M65.9334 187.154C65.6953 187.154 65.5024 187.347 65.5024 187.585C65.5024 187.823 65.6953 188.016 65.9334 188.016H71.2734C71.5115 188.016 71.7045 187.823 71.7045 187.585C71.7045 187.347 71.5115 187.154 71.2734 187.154H65.9334Z" fill="#FBFDFF"/>
<path fill-rule="evenodd" clip-rule="evenodd" d="M63.3809 178.814C63.3809 178.296 63.7935 177.863 64.322 177.863H70.3613C70.4686 177.863 70.572 177.903 70.6513 177.975L74.0346 181.052C74.1244 181.134 74.1756 181.249 74.1756 181.371V190.703C74.1756 191.221 73.763 191.655 73.2345 191.655H64.322C63.7935 191.655 63.3809 191.221 63.3809 190.703V178.814ZM64.322 178.725C64.2859 178.725 64.2429 178.756 64.2429 178.814V190.703C64.2429 190.762 64.2858 190.793 64.322 190.793H73.2345C73.2706 190.793 73.3136 190.762 73.3136 190.703V182.474H70.3565C70.1185 182.474 69.9255 182.281 69.9255 182.043V178.725H64.322ZM73.3136 181.561V181.612H70.7876V179.264L73.3136 181.561Z" fill="#FBFDFF"/>
<path d="M83.5664 190.397C82.8124 190.397 82.1687 190.199 81.6354 189.804C81.1112 189.408 80.7066 188.843 80.4216 188.107C80.1457 187.362 80.0078 186.47 80.0078 185.431C80.0078 184.392 80.1457 183.505 80.4216 182.769C80.7066 182.024 81.1112 181.454 81.6354 181.059C82.1687 180.663 82.8124 180.466 83.5664 180.466C84.3112 180.466 84.9503 180.663 85.4836 181.059C86.017 181.454 86.4216 182.024 86.6974 182.769C86.9825 183.505 87.125 184.392 87.125 185.431C87.125 186.47 86.9825 187.362 86.6974 188.107C86.4216 188.843 86.017 189.408 85.4836 189.804C84.9503 190.199 84.3112 190.397 83.5664 190.397ZM83.5664 189.39C84.3572 189.39 84.9641 189.045 85.3871 188.355C85.8193 187.666 86.0354 186.691 86.0354 185.431C86.0354 184.171 85.8193 183.197 85.3871 182.507C84.9641 181.817 84.3572 181.473 83.5664 181.473C82.7664 181.473 82.1503 181.817 81.7181 182.507C81.2951 183.197 81.0836 184.171 81.0836 185.431C81.0836 186.691 81.2951 187.666 81.7181 188.355C82.1503 189.045 82.7664 189.39 83.5664 189.39ZM89.074 190.259L88.743 189.459L91.9982 185.804C92.1545 185.629 92.3154 185.431 92.4809 185.211C92.6557 184.99 92.8166 184.76 92.9637 184.521C93.12 184.273 93.2442 184.029 93.3361 183.79C93.4281 183.551 93.474 183.316 93.474 183.086C93.474 182.746 93.4005 182.461 93.2534 182.231C93.1062 181.992 92.8947 181.808 92.6189 181.679C92.3522 181.551 92.0396 181.486 91.6809 181.486C91.3683 181.486 91.0603 181.56 90.7568 181.707C90.4534 181.854 90.1775 182.079 89.9292 182.383C89.6809 182.686 89.4878 183.073 89.3499 183.542L88.4947 183.031C88.6603 182.47 88.9039 182.001 89.2258 181.624C89.5476 181.238 89.9292 180.948 90.3706 180.755C90.812 180.562 91.2855 180.466 91.7913 180.466C92.3246 180.466 92.8028 180.576 93.2258 180.797C93.6488 181.008 93.9844 181.312 94.2327 181.707C94.4809 182.093 94.6051 182.539 94.6051 183.045C94.6051 183.266 94.5775 183.486 94.5223 183.707C94.4763 183.928 94.4028 184.148 94.3016 184.369C94.2005 184.59 94.0763 184.815 93.9292 185.045C93.7913 185.275 93.6258 185.509 93.4327 185.748C93.2488 185.988 93.0419 186.236 92.812 186.493L90.0396 189.583L89.874 189.224H94.9085V190.259H89.074Z" fill="#FBFDFF"/>
</g>
</g>
<defs>
<filter id="filter0_d_562_3820" x="0.275862" y="0.275862" width="159.172" height="205.172" filterUnits="userSpaceOnUse" color-interpolation-filters="sRGB">
<feFlood flood-opacity="0" result="BackgroundImageFix"/>
<feColorMatrix in="SourceAlpha" type="matrix" values="0 0 0 0 0 0 0 0 0 0 0 0 0 0 0 0 0 0 127 0" result="hardAlpha"/>
<feOffset dx="0.862069" dy="0.862069"/>
<feGaussianBlur stdDeviation="1.2931"/>
<feComposite in2="hardAlpha" operator="out"/>
<feColorMatrix type="matrix" values="0 0 0 0 0 0 0 0 0 0 0 0 0 0 0 0 0 0 0.15 0"/>
<feBlend mode="normal" in2="BackgroundImageFix" result="effect1_dropShadow_562_3820"/>
<feBlend mode="normal" in="SourceGraphic" in2="effect1_dropShadow_562_3820" result="shape"/>
</filter>
<clipPath id="clip0_562_3820">
<path d="M2 8.89654C2 5.08768 5.08769 2 8.89655 2H149.103C152.912 2 156 5.08769 156 8.89655V195.103C156 198.912 152.912 202 149.103 202H8.89654C5.08768 202 2 198.912 2 195.103V8.89654Z" fill="white"/>
</clipPath>
</defs>
</svg>
