<svg width="72" height="60" viewBox="0 0 72 60" fill="none" xmlns="http://www.w3.org/2000/svg">
<g clip-path="url(#clip0_1310_7335)">
<path d="M132.626 66.1981C132.626 66.1981 131.016 61.8663 129.994 59.7987C128.591 56.9606 125.788 54.1383 125.207 51.5948C124.996 50.6683 125.856 49.7069 125.856 49.7069C125.856 49.7069 122.831 44.5528 122.819 41.6973C122.806 38.6193 121.914 33.7276 126.019 33.0353C129.085 32.5182 130.38 37.5978 132.076 40.0732C134.889 44.1781 138.868 47.5912 139.053 52.9968C139.276 59.4857 132.626 66.1981 132.626 66.1981ZM144.839 50.4643C144.839 50.4643 150.349 40.7596 153.79 36.8327C155.931 34.3895 155.779 30.1098 157.54 27.8375C158.629 26.4325 160.148 24.3791 161.398 25.1168C164.486 26.9388 164.989 34.9271 164.697 38.9288C164.259 44.9411 155.089 48.2753 153.421 48.9929C146.139 52.1368 144.839 50.4643 144.839 50.4643ZM130.953 80.7444C130.953 80.7444 137 69.3977 142.018 67.0318C147.251 64.5648 151.223 66.0798 153.095 65.5997C153.823 64.5249 154.003 60.0924 158.184 57.2875C162.513 54.3833 166.525 54.9499 168.077 58.0819C169.743 61.4419 168.933 63.8084 164.934 68.3969C159.614 74.5009 150.683 77.8889 146.004 78.3747C143.161 78.67 139.339 78.0813 137.036 78.3235C135.262 78.5101 130.953 80.7444 130.953 80.7444ZM118.054 92.7595C118.054 92.7595 104.349 88.1788 99.926 75.2876C99.1028 72.8881 100.376 69.3292 100.844 66.8069C101.585 62.8112 99.226 57.224 103.164 55.7348C107.313 54.1659 111.726 60.6354 113.617 64.6474C115.532 68.7096 114.135 72.8483 115.708 77.0545C116.515 79.2117 117.996 79.5667 118.385 82.9046C118.928 87.5597 118.054 92.7595 118.054 92.7595ZM118.099 119.313C116.314 113.45 121.248 104.931 125.213 99.957C128.483 95.8546 133.843 96.055 137.935 92.7719C140.535 90.6859 141.828 85.332 145.125 85.8224C149.02 86.4016 150.915 92.2113 150.862 96.1485C150.798 100.907 147.725 106.072 143.595 108.438C138.147 111.558 135.278 108.588 128.527 113.66C122.963 117.84 119.451 123.789 119.451 123.789C119.451 123.789 118.548 120.786 118.099 119.313ZM114.938 127.912C114.938 127.912 100.079 126.948 94.6427 124.692C89.1015 122.393 86.3535 116.4 82.0476 113.463C78.4032 110.978 73.6996 110.692 71.1352 107.103C68.4337 103.322 66.4135 96.7045 69.7584 93.4786C73.2944 90.0686 79.4336 91.629 84.3423 95.7166C88.114 98.8574 88.2123 106.783 92.5776 109.027C95.3838 110.469 102.834 106.88 108.079 110.322C115.055 114.899 114.938 127.912 114.938 127.912Z" fill="#552200"/>
<path d="M33.046 33.9575C33.046 33.9575 11.1285 31.1872 4.22294 37.572C1.65527 39.946 -1.7666 44.1251 1.13756 48.1355C4.16682 52.3185 9.55238 49.1633 9.55238 49.1633C9.55238 49.1633 5.71404 54.7316 11.3204 58.5943C14.4516 60.7518 17.9976 59.9713 19.4166 59.2301C26.4786 55.5417 30.6545 47.9586 33.6509 42.2382C35.9213 37.9037 33.046 33.9575 33.046 33.9575ZM39.5432 28.6524C39.5432 28.6524 48.1027 8.28614 57.0849 5.49815C60.4247 4.46149 65.7549 3.58765 67.7758 8.10786C69.8839 12.8228 64.4586 15.9092 64.4586 15.9092C64.4586 15.9092 71.2 15.3693 71.7421 22.1559C72.0449 25.9464 69.5959 28.627 68.2446 29.4854C61.5192 33.757 52.8642 33.5819 46.4121 33.3166C41.523 33.1156 39.5432 28.6524 39.5432 28.6524Z" fill="#AC9393"/>
<path d="M33.4942 32.1107C33.4942 32.1107 31.1549 38.6441 31.9438 41.8278C33.0126 46.1412 36.5553 49.6192 39.9485 52.4887C43.7079 55.668 49.1966 58.2774 53.1453 55.8203C56.0337 54.023 55.762 47.7861 55.0203 43.7989C54.1042 38.8746 51.7254 33.4995 47.5204 30.7781C44.5794 28.8748 37.0639 29.7231 37.0639 29.7231L33.4942 32.1107Z" fill="#FBB517"/>
<path d="M23.4167 15.6949C23.4167 15.6949 20.5234 13.1074 17.8968 12.4557C14.4968 11.6122 12.8113 12.3702 11.8032 13.6532C11.3757 14.1972 11.0094 15.4258 11.6119 15.8421C12.961 16.7741 15.5993 15.6728 17.6099 16.009C19.333 16.2971 21.5808 17.0288 22.6263 17.5108C23.4384 17.8852 23.4167 15.6949 23.4167 15.6949ZM31.6019 13.2882L30.7668 6.7313C30.7668 6.7313 31.0341 0.386977 32.9595 0.0173869C34.0045 -0.183203 34.887 1.39653 35.0247 2.45168C35.186 3.68759 33.6991 5.34024 33.4185 6.55462C32.9484 8.58859 33.9563 10.8484 32.9722 12.6894C32.6933 13.2113 31.6019 13.2882 31.6019 13.2882ZM24.7317 28.2515C22.6861 24.87 22.4189 19.4424 26.8771 16.591C31.6129 13.562 35.611 17.1065 37.8204 20.2557C40.1118 23.5219 42.1669 28.9472 37.5319 32.2215C31.2625 36.6505 27.0439 32.0737 24.7317 28.2515Z" fill="#241C1C"/>
<path d="M35.0043 47.6761C35.0043 47.6761 41.0602 47.4099 44.8366 44.643C49.4608 41.2549 52.6452 36.7375 52.6452 36.7375C52.6452 36.7375 53.6821 38.5665 54.3389 40.7735C55.0108 43.0308 55.2616 45.0039 55.2616 45.0039C55.2616 45.0039 53.0874 47.773 49.3077 49.9179C44.4958 52.6486 40.3948 52.8469 40.3948 52.8469C40.3948 52.8469 38.6262 51.4977 37.7912 50.6916C36.8191 49.7532 35.0043 47.6761 35.0043 47.6761ZM45.3733 29.938C45.3733 29.938 43.4442 33.1355 39.8296 35.663C35.9929 38.3457 31.9284 38.1885 31.9284 38.1885C31.9284 38.1885 31.6126 40.4525 31.9188 41.852C32.1185 42.767 33.1978 45.0331 33.1978 45.0331C33.1978 45.0331 39.9399 44.1685 44.7518 41.4378C48.5315 39.2928 51.566 34.8586 51.566 34.8586C51.566 34.8586 50.6933 33.524 49.3644 32.1934C47.4778 30.3044 45.3733 29.938 45.3733 29.938ZM55.4926 47.7806C55.4926 47.7806 52.5694 50.9492 50.7191 51.9846C48.27 53.355 42.6716 54.4586 42.6716 54.4586C42.6716 54.4586 44.2024 55.4821 45.7013 56.0234C46.5331 56.3237 47.6787 56.6964 48.4046 56.7564C50.3333 56.916 50.89 56.9235 52.8961 56.0021C53.8479 55.5649 54.5985 54.2776 54.9921 53.1542C55.7281 51.0535 55.4926 47.7806 55.4926 47.7806Z" fill="#241C1C"/>
</g>
<defs>
<clipPath id="clip0_1310_7335">
<rect width="71.7405" height="60" fill="white" transform="translate(0.0292969)"/>
</clipPath>
</defs>
</svg>
