<svg width="225" height="219" viewBox="0 0 225 219" fill="none" xmlns="http://www.w3.org/2000/svg">
<g clip-path="url(#clip0_558_6860)">
<path d="M28.981 84.427L19.5302 73.04C19.5302 73.04 19.1431 72.392 19.2673 71.7908C19.3958 71.1683 20.0504 70.7718 20.0504 70.7718L37.9118 61.7578C37.9118 61.7578 38.5181 61.3442 39.0189 61.6102C39.4279 61.8276 39.6173 62.376 39.6173 62.376L41.8744 79.0902L79.2251 101.627C79.2251 101.627 80.7312 100.336 81.3277 100.834C82.1453 101.517 80.9973 103.116 80.9973 103.116L79.4822 167.882L84.8379 178.488C84.8379 178.488 84.7029 180.064 84.0024 180.403C83.3783 180.704 81.8514 180.335 81.8514 180.335L74.8685 169.023L19.0337 136.08C19.0337 136.08 17.8588 135.771 17.838 134.862C17.8231 134.213 19.4681 133.576 19.4681 133.576L28.981 84.427Z" fill="#FD5723"/>
<path d="M18.1699 135.956C42.7942 132.28 65.0292 123.286 81.6893 101.884C83.2159 123.004 82.4075 145.226 79.6084 168.388C79.6084 168.388 79.5962 170.374 78.5675 170.909C77.7798 171.319 75.2518 170.762 75.2518 170.762C44.1668 160.196 31.8277 149.755 18.1699 135.956Z" fill="#14A5C0"/>
<path d="M18.8555 133.735L28.6066 84.4272L41.6746 78.5103L80.0556 101.056C59.6899 121.168 39.1292 131.645 18.8555 133.735Z" fill="#FBB517"/>
</g>
<g clip-path="url(#clip1_558_6860)">
<path d="M189.144 156.969C189.144 156.969 191.379 167.486 192.916 172.535C195.057 179.571 200.63 187.328 199.976 194.653C199.624 198.597 196.288 200.381 194.625 203.351C193.936 204.583 192.051 208.535 190.426 209.646C187.464 211.671 180.671 211.134 180.671 211.134L112.388 204.496C112.388 204.496 104.922 205.199 102.614 203.895C99.9189 202.372 97.0252 198.899 97.0773 196.255C97.2651 186.718 96.5048 177.643 98.0063 170.074C99.4679 162.707 104.762 152.431 107.343 147.458C108.404 145.413 108.82 144.637 108.82 144.637L128.293 148.157L179.445 159.001L189.144 156.969Z" fill="#D23402"/>
<path d="M163.481 125.453C163.481 125.453 174.953 130.098 179.442 134.724C189.108 144.687 189.754 159.589 189.754 159.589C189.754 159.589 181.967 162.155 180.408 166.685C178.109 173.364 179.419 179.467 179.516 185.483C179.657 194.271 181.894 210.892 181.894 210.892C158.131 228.224 107.014 209.436 110.619 202.794L119.65 178.015C119.65 178.015 123.338 158.167 119.296 150.948C116.588 146.108 108.554 145.315 108.554 145.315C108.554 145.315 112.89 132.897 114.187 129.459C115.962 124.754 128.215 123.908 128.215 123.908L145.068 134.295L163.481 125.453Z" fill="#FD5723"/>
<path d="M165.357 125.682L159.858 122.936C159.858 122.936 153.289 130.273 148.356 130.432C141.619 130.65 130.612 120.732 130.612 120.732L125.149 122.793C125.149 122.793 138.725 136.533 147.483 136.584C153.805 136.621 165.357 125.682 165.357 125.682Z" fill="#D23402"/>
<path d="M141.167 24.0437C125.015 23.2101 103.252 34.3809 102.086 50.0912C100.233 75.0591 107.052 121.344 107.052 121.344C107.052 121.344 114.789 123.448 119.168 122.288C126.667 120.301 136.545 123.942 136.545 123.942L134.773 120.976L186.252 119.618C186.252 119.618 180.407 109.831 179.432 104.853C176.405 89.4029 179.314 59.1959 179.314 59.1959C179.314 59.1959 181.982 55.0563 181.285 49.9865C180.717 45.8465 179.656 42.4837 177.064 39.7869C165.576 27.8341 158.832 24.9554 141.167 24.0437Z" fill="#784421"/>
<path d="M121.638 91.4694C121.638 91.4694 121.65 101.81 123.116 106.692C126.402 117.631 131.499 122.008 131.499 122.008C131.499 122.008 156.274 124.118 168.44 123.459C174.669 123.122 186.65 120.025 186.65 120.025C186.65 120.025 179.053 106.505 178.551 99.8287C177.243 82.4253 179.251 59.4041 179.251 59.4041C179.251 59.4041 179.314 53.6428 167.322 50.3072C146.572 44.5355 121.638 91.4694 121.638 91.4694Z" fill="#552200"/>
<path d="M160.697 107.878C158.465 110.615 157.048 116.099 157.05 118.556C157.052 122.024 159.973 124.629 159.973 124.629C159.973 124.629 151.271 132.337 146.01 131.671C137.649 130.611 130.754 121.212 130.754 121.212C130.754 121.212 133.911 122.633 136.584 113.973C137.617 110.627 136.194 102.253 136.194 102.253C131.241 95.493 165.993 101.383 160.697 107.878Z" fill="#FFB380"/>
<path d="M160.08 108.273L139.806 104.348L157.335 116.335L160.08 108.273Z" fill="#2B1100"/>
<path d="M168.514 50.392C168.514 50.392 176.255 62.9696 179.5 69.9021C182.885 77.133 186.666 86.7113 183.844 94.5685C181.682 100.587 175.162 104.793 169.256 107.027C159.584 110.686 148.184 109.275 138.415 105.884C130.85 103.258 121.619 91.5026 121.619 91.5026C121.619 91.5026 112.149 90.4586 109.82 83.1292C108.559 79.1598 108.366 78.4756 109.041 75.2251C111.118 65.2295 123.398 70.8852 123.448 74.2206C123.448 74.2206 116.916 70.4569 139.84 57.1135C148.103 52.3037 152.439 41.561 152.439 41.561C152.439 41.561 156.344 44.8773 159.477 46.6395C163.473 48.8873 168.514 50.392 168.514 50.392Z" fill="#FFB380"/>
<path d="M158.063 71.3364C158.149 70.4047 156.542 69.7243 155.611 69.8188C154.642 69.9172 152.177 70.5333 152.467 71.4628C152.746 72.3543 154.152 71.7488 155.502 71.6895C156.7 71.637 157.987 72.1614 158.063 71.3364Z" fill="#E05000" stroke="#FD5723" stroke-width="1.17482" stroke-linejoin="round"/>
<path d="M128.895 71.8468C128.895 75.0094 130.151 78.0425 132.387 80.2788C134.624 82.5151 137.657 83.7714 140.819 83.7714C142.385 83.7714 143.936 83.463 145.383 82.8637C146.83 82.2644 148.144 81.3861 149.251 80.2788C150.359 79.1715 151.237 77.8569 151.836 76.4101C152.436 74.9634 152.744 73.4127 152.744 71.8468C152.744 70.2808 152.436 68.7301 151.836 67.2834C151.237 65.8366 150.359 64.522 149.251 63.4147C148.144 62.3074 146.83 61.4291 145.383 60.8298C143.936 60.2305 142.385 59.9221 140.819 59.9221C137.657 59.9221 134.624 61.1784 132.387 63.4147C130.151 65.651 128.895 68.6841 128.895 71.8468ZM158.067 69.3085C158.067 72.4711 159.323 75.5042 161.559 77.7405C163.796 79.9768 166.829 81.2331 169.991 81.2331C173.154 81.2331 176.187 79.9768 178.423 77.7405C180.66 75.5042 181.916 72.4711 181.916 69.3085C181.916 67.7425 181.608 66.1919 181.008 64.7451C180.409 63.2983 179.531 61.9838 178.423 60.8764C177.316 59.7691 176.001 58.8908 174.555 58.2915C173.108 57.6922 171.557 57.3838 169.991 57.3838C166.829 57.3838 163.796 58.6401 161.559 60.8765C159.323 63.1128 158.067 66.1458 158.067 69.3085Z" stroke="#FD5723" stroke-width="2.29851" stroke-linejoin="round"/>
<path d="M168.902 85.3646C166.673 85.5359 161.191 87.5062 155.042 88.1968C148.912 88.8853 142.115 88.2936 140.1 88.7257C138.536 89.061 139.541 91.3695 140.924 93.0477C143.152 95.7531 147.646 98.3012 154.278 98.5823C161.148 98.8734 165.052 96.7317 167.609 94.1802C171.109 90.6861 171.491 85.1657 168.902 85.3646Z" fill="#552200"/>
<path d="M166.801 86.3867C166.801 86.3867 166.684 88.462 164.135 90.2615C160.268 92.9911 151.349 93.1074 147.761 92.0354C145.653 91.4057 145.699 89.6164 145.699 89.6164C145.699 89.6164 151.076 89.8484 157.046 89.0906C160.8 88.6141 166.801 86.3867 166.801 86.3867Z" fill="white"/>
<path d="M161.484 97.2026C161.484 97.2026 156.943 94.6565 154.202 94.7154C149.539 94.8155 147.6 96.6815 147.6 96.6815C147.6 96.6815 150.173 97.8291 154.109 97.9458C158.715 98.0823 161.484 97.2026 161.484 97.2026Z" fill="#D40000"/>
<path d="M155.465 73.2202L161.826 77.488C161.826 77.488 162.127 77.6306 162.127 78.1722C162.127 78.682 161.927 78.8176 161.927 78.8176L158.618 81.3612C158.618 81.3612 158.05 81.3845 157.865 81.1362C157.668 80.8715 157.755 80.2914 157.755 80.2914L160.655 78.1484L154.703 74.0854C154.703 74.0854 154.365 73.3898 154.614 73.1242C154.836 72.8872 155.465 73.2202 155.465 73.2202Z" fill="#552200"/>
<path d="M162.762 65.9163C164.282 65.6001 165.758 67.6586 166.089 69.1755C166.423 70.7103 165.941 73.2723 164.399 73.5747C162.816 73.8854 161.381 71.6333 161.085 70.0473C160.813 68.5864 161.307 66.2189 162.762 65.9163ZM142.578 67.9099C144.098 67.5937 145.575 69.6522 145.905 71.1691C146.24 72.7039 145.757 75.2659 144.216 75.5683C142.633 75.879 141.197 73.6269 140.902 72.0409C140.629 70.58 141.123 68.2125 142.578 67.9099Z" fill="#552200"/>
<path d="M145.823 57.273C145.402 56.508 142.77 55.2426 140.58 55.638C138.449 56.0226 135.356 57.5831 135.805 59.7009C135.954 60.402 138.209 58.9622 138.884 58.7201C141.283 57.8596 141.454 57.9672 143.381 57.9457C146.345 57.9125 146.996 59.408 146.38 58.2865L145.823 57.273ZM159.16 56.901C159.368 56.0532 161.583 54.1494 163.801 53.9643C165.959 53.7843 169.35 54.4912 169.464 56.6533C169.502 57.3691 166.951 56.5622 166.236 56.503C163.697 56.2925 163.56 56.4408 161.693 56.9187C158.821 57.654 158.579 59.2673 158.884 58.0244L159.16 56.901Z" fill="#552200"/>
<path d="M158.064 45.6032C157.149 45.0824 156.839 43.7981 157.259 42.8334C157.988 41.164 162.738 39.8271 162.738 39.8271C162.738 39.8271 162.125 42.688 161.291 43.8989C160.434 45.1425 159.376 46.3504 158.064 45.6032Z" stroke="#FBB516" stroke-width="2.15873" stroke-linejoin="round"/>
<path d="M166.638 42.917L162.864 48.0106L163.813 48.5631L166.727 43.044L166.638 42.917Z" stroke="#FD5723" stroke-width="2.15873" stroke-linejoin="round"/>
<path d="M116.416 78.9807C118.069 78.4579 118.323 77.3672 118.553 75.9478M119.055 82.6146C118.301 80.2782 116.191 78.5435 114.075 77.4356C113.743 77.2618 113.109 77.0649 113.109 76.892" stroke="#552200" stroke-width="0.964175" stroke-linecap="round" stroke-linejoin="round"/>
<path d="M189.783 159.819C187.556 160.236 185.851 161.086 184.051 162.291C181.679 163.879 179.86 166.357 179.283 169.168C179.035 170.378 178.85 171.763 178.963 173.041M108.539 145.077C112.473 146.522 116.987 147.575 118.694 150.827C119.231 151.851 120.007 153.51 120.304 154.626C120.54 155.516 121.091 158.321 121.039 159.667" stroke="#832102" stroke-width="0.964175" stroke-linejoin="round"/>
</g>
<defs>
<clipPath id="clip0_558_6860">
<rect width="67" height="119" fill="white" transform="translate(18.0469 61.521)"/>
</clipPath>
<clipPath id="clip1_558_6860">
<rect width="102.982" height="194.042" fill="white" transform="matrix(-1 0 0 1 200.029 24)"/>
</clipPath>
</defs>
</svg>
