<svg width="159" height="317" viewBox="0 0 159 317" fill="none" xmlns="http://www.w3.org/2000/svg">
<g clip-path="url(#clip0_558_5412)">
<path d="M130.303 276.588L152.585 263.931L157.181 300.163L135.133 305.262L130.303 276.588Z" fill="#A05A2C"/>
<path d="M4.12849 274.549L1.16797 303.463L25.0469 308.982L27.0725 282.107L4.12849 274.549Z" fill="#A05A2C"/>
<path d="M56.2102 196.866C56.2102 196.866 39.5973 199.084 31.6691 203.524C26.0716 206.659 20.2354 209.991 16.2043 214.982C10.8104 221.66 5.41397 243.896 5.41397 243.896L1.16797 275.149L25.7481 288.106L24.7353 309.162C24.7353 309.162 52.2725 316.952 77.0897 316.3C104.972 315.568 135.988 305.323 135.988 305.323L133.34 283.907L156.634 262.372C156.634 262.372 150.326 233.412 144.714 219.061C142.353 213.024 141.301 205.881 136.651 201.365C133.285 198.096 128.29 196.769 123.679 195.906C118.099 194.861 104.124 195.786 104.124 195.786L56.2102 196.866Z" fill="#8CC640"/>
<path d="M87.7641 233.249L111.76 197.497L102.528 188.259L60.8467 189.099L50.6797 198.517L65.1317 232.23L78.1424 217.293L87.7641 233.249Z" fill="#47651F"/>
<path d="M58.5712 172.391C58.5712 172.391 63.0381 181.176 63.1257 184.691C63.2645 190.263 58.5039 196.922 58.5039 196.922L78.1351 216.615L101.154 192.568C101.154 192.568 96.8876 186.18 95.6349 182.722C94.1204 178.541 95.9715 169.213 95.9715 169.213L58.5712 172.391Z" fill="#A05A2C"/>
<path d="M55.1733 175.065C47.387 173.505 93.5833 169.814 89.5447 170.297L62.42 189.023C62.42 189.023 65.9716 177.227 55.1733 175.065Z" fill="#241C1C"/>
<path d="M37.8044 62.474C37.8044 62.474 32.1814 80.4416 27.7302 90.4406C21.3151 104.851 6.75391 119.65 9.46052 141.762C11.2988 156.78 26.1581 168.052 40.3365 173.334C56.4951 179.354 76.6054 180.029 92.5861 172.747C121.406 159.613 123.489 145.2 123.489 145.2C123.489 145.2 140.4 144.605 146.197 139.497C155.204 131.562 160.478 117.561 154.583 105.199C150.26 96.1337 135.007 94.0883 135.007 94.0883L124.769 95.9331L109.385 58.4487L37.8044 62.474Z" fill="#A05A2C"/>
<path d="M52.0729 93.8279C48.6779 93.1925 45.9671 98.3625 45.4213 101.773C44.8714 105.21 45.8412 111.009 49.2909 111.471C52.6097 111.915 54.8042 106.754 55.3355 103.448C55.8728 100.105 55.4011 94.4508 52.0729 93.8279ZM82.0794 96.1808C78.6844 95.5454 75.9736 100.715 75.4278 104.126C74.8779 107.563 75.8477 113.362 79.2974 113.824C82.6162 114.268 84.8106 109.107 85.3419 105.801C85.8792 102.458 85.4076 96.8037 82.0794 96.1808Z" fill="#241C1C"/>
<path d="M54.9908 83.685C55.2158 79.6864 50.8781 76.1736 47.4061 76.2417C44.2824 76.3031 40.5084 78.2982 40.485 81.8923C40.465 84.9525 40.9097 86.9458 43.5038 87.4739C45.2549 87.8303 48.8864 86.6051 50.7481 86.1534C52.281 85.7813 54.8595 86.0177 54.9908 83.685ZM75.958 82.5104C76.5153 78.5344 82.1928 75.8366 86.1503 76.5126C89.7109 77.1206 93.6213 79.7468 92.9157 83.2893C92.3149 86.3056 91.4002 88.19 88.3254 88.2551C86.2498 88.2988 82.3455 86.4558 80.3081 85.6846C78.6305 85.0495 75.6329 84.8302 75.958 82.5104Z" fill="#241C1C"/>
<path d="M63.85 104.883L47.9672 116.47C47.9672 116.47 46.8084 117.491 46.8164 118.262C46.8241 118.987 47.9293 120.15 47.9293 120.15L60.7013 128.641C60.7013 128.641 63.9108 128.404 64.2294 127.667C64.5191 126.998 62.2061 125.525 62.2061 125.525C62.2061 125.525 53.9722 120.877 53.076 119.644C52.67 119.086 52.3427 118.159 52.7472 117.599C53.4592 116.615 63.4074 110.005 63.4074 110.005C63.4074 110.005 64.8689 108.894 64.9881 107.843C65.0975 106.88 63.85 104.883 63.85 104.883Z" fill="#241C1C"/>
<path d="M48.808 154.384C48.808 154.384 45.6788 151.277 45.7351 149.068C45.8025 146.425 48.6844 143.715 50.806 142.875C57.6929 140.149 63.1287 138.466 68.75 136.001C74.3745 133.534 80.4327 130.223 84.4432 127.647C86.5494 126.294 89.5946 124.906 91.8661 126.225C93.8787 127.394 95.3816 133.508 95.3816 133.508C95.3816 133.508 97.4988 143.679 95.2638 148.147C91.967 154.737 88.5009 156.958 81.2059 160.791C64.907 169.353 48.808 154.384 48.808 154.384Z" fill="#241C1C"/>
<path d="M48.9457 146.848C49.281 149.199 54.5504 149.976 56.9251 150.022C61.8132 150.115 66.1388 149.286 70.7087 147.549C76.612 145.304 81.7651 142.731 87.9699 138.435C89.2018 137.582 92.2662 134.605 92.5729 133.138C92.9443 131.362 92.4671 128.673 91.0428 127.549C89.9061 126.652 87.0088 127.627 87.0088 127.627C87.0088 127.627 78.684 133.017 74.2368 135.183C68.1223 138.161 60.699 141.201 56.0525 142.953C53.4687 143.927 48.5559 144.114 48.9457 146.848Z" fill="white"/>
<path d="M62.8052 160.907C62.7665 160.934 65.0627 153.856 72.4917 150.547C85.2408 144.87 90.7771 152.612 90.7771 152.612C90.7771 152.612 90.3886 155.688 78.7133 160.849C70.3425 164.549 62.8052 160.907 62.8052 160.907Z" fill="#800000"/>
<path d="M58.8518 63.9001L94.1386 70.4829C94.1386 70.4829 106.76 72.4635 111.591 78.8687C116.508 85.3862 116.492 91.1119 116.492 91.1119L116.574 121.51C116.574 121.51 129.912 104.505 131.222 98.7848C131.992 95.427 138.873 94.9275 138.873 94.9275C138.873 94.9275 147.446 69.9844 145.98 60.3361C143.198 42.0282 138.718 41.9463 133.591 36.9398C124.632 28.19 116.683 43.5645 116.683 43.5645C116.683 43.5645 105.265 36.3902 101.544 29.6861C98.1512 23.5715 96.7378 22.1516 93.1312 10.3569C90.9062 3.08024 80.8663 14.4464 77.4754 21.2584C73.7928 28.6563 73.9086 38.3654 73.9086 38.3654C73.9086 38.3654 66.9774 31.9435 63.0448 25.4932C58.584 18.1765 55.8701 4.24124 50.2207 1.55182C43.1853 -1.79737 36.1281 8.62449 33.6663 16.0173C29.4493 28.681 38.6762 40.8811 38.6762 40.8811C38.6762 40.8811 31.2292 34.4911 18.8001 26.2479C8.36217 19.3253 10.8392 51.1808 17.0576 56.9399C35.6917 74.1975 41.5582 68.2621 50.6019 64.6129L58.8518 63.9001Z" fill="#241C1C"/>
<path d="M134.518 122.537C133.159 120.76 133.156 116.547 133.891 114.843M128.555 129.77C131.495 124.698 137.02 119.933 142.55 118.868" stroke="#241C1C" stroke-width="2.24674" stroke-linecap="round"/>
<path d="M77.0714 238.035C79.5777 238.035 81.6095 236.003 81.6095 233.497C81.6095 230.99 79.5777 228.958 77.0714 228.958C74.565 228.958 72.5332 230.99 72.5332 233.497C72.5332 236.003 74.565 238.035 77.0714 238.035Z" fill="#47651F"/>
<path d="M133.496 283.427L158.427 261.892L154.843 252.594L132.094 273.709L133.496 283.427ZM0 275.869L2.10353 263.271L26.9953 278.148L26.333 289.546L0 275.869Z" fill="#47651F"/>
</g>
<defs>
<clipPath id="clip0_558_5412">
<rect width="158.427" height="315.432" fill="white" transform="translate(0 0.906738)"/>
</clipPath>
</defs>
</svg>
