<svg width="25" height="24" viewBox="0 0 25 24" fill="none" xmlns="http://www.w3.org/2000/svg">
<rect x="0.644531" width="24" height="24.0002" rx="8" fill="url(#paint0_radial_558_6584)"/>
<rect x="0.644531" width="24" height="24.0002" rx="4" fill="url(#paint1_radial_558_6584)"/>
<path d="M12.6452 3C10.2009 3 9.89416 3.01069 8.93415 3.05438C7.97601 3.09825 7.32201 3.24994 6.74975 3.47251C6.15781 3.70238 5.65568 4.00989 5.15542 4.51033C4.65479 5.01058 4.34729 5.51271 4.11666 6.10447C3.89353 6.67691 3.74166 7.33111 3.69853 8.28887C3.65578 9.24888 3.64453 9.55582 3.64453 12.0001C3.64453 14.4444 3.65541 14.7502 3.69891 15.7102C3.74297 16.6683 3.89466 17.3223 4.11704 17.8946C4.3471 18.4865 4.6546 18.9887 5.15505 19.4889C5.65511 19.9896 6.15724 20.2978 6.74881 20.5277C7.32144 20.7502 7.97564 20.9019 8.93359 20.9458C9.8936 20.9895 10.2002 21.0002 12.6442 21.0002C15.0887 21.0002 15.3945 20.9895 16.3545 20.9458C17.3127 20.9019 17.9674 20.7502 18.5401 20.5277C19.1318 20.2978 19.6332 19.9896 20.1333 19.4889C20.6339 18.9887 20.9414 18.4865 21.172 17.8948C21.3933 17.3223 21.5452 16.6681 21.5902 15.7104C21.6333 14.7504 21.6445 14.4444 21.6445 12.0001C21.6445 9.55582 21.6333 9.24907 21.5902 8.28906C21.5452 7.33092 21.3933 6.67691 21.172 6.10466C20.9414 5.51271 20.6339 5.01058 20.1333 4.51033C19.6326 4.0097 19.132 3.70219 18.5395 3.47251C17.9657 3.24994 17.3114 3.09825 16.3532 3.05438C15.3932 3.01069 15.0876 3 12.6426 3H12.6452ZM11.8378 4.62189C12.0774 4.62152 12.3448 4.62189 12.6452 4.62189C15.0482 4.62189 15.333 4.63052 16.282 4.67364C17.1595 4.71377 17.6357 4.86039 17.953 4.98358C18.373 5.14671 18.6724 5.34171 18.9873 5.65672C19.3023 5.97172 19.4973 6.27172 19.6608 6.69173C19.7839 7.0086 19.9308 7.48486 19.9707 8.36237C20.0138 9.31113 20.0232 9.59613 20.0232 11.998C20.0232 14.3999 20.0138 14.6849 19.9707 15.6337C19.9306 16.5112 19.7839 16.9875 19.6608 17.3043C19.4976 17.7243 19.3023 18.0234 18.9873 18.3382C18.6723 18.6532 18.3732 18.8482 17.953 19.0114C17.6361 19.1351 17.1595 19.2814 16.282 19.3215C15.3332 19.3646 15.0482 19.374 12.6452 19.374C10.242 19.374 9.95716 19.3646 9.0084 19.3215C8.13089 19.281 7.65464 19.1344 7.33719 19.0112C6.91719 18.848 6.61719 18.653 6.30218 18.338C5.98718 18.023 5.79218 17.7238 5.62868 17.3036C5.50549 16.9867 5.35867 16.5105 5.31874 15.6329C5.27561 14.6842 5.26699 14.3992 5.26699 11.9958C5.26699 9.59238 5.27561 9.30888 5.31874 8.36012C5.35886 7.48261 5.50549 7.00635 5.62868 6.6891C5.7918 6.2691 5.98718 5.96909 6.30218 5.65409C6.61719 5.33909 6.91719 5.14408 7.33719 4.98058C7.65445 4.85683 8.13089 4.71058 9.0084 4.67027C9.83866 4.63277 10.1604 4.62152 11.8378 4.61964V4.62189ZM17.4494 6.11628C17.2357 6.11628 17.0269 6.17963 16.8493 6.29832C16.6717 6.41701 16.5333 6.58571 16.4515 6.78308C16.3698 6.98045 16.3484 7.19762 16.3901 7.40713C16.4318 7.61664 16.5347 7.80908 16.6858 7.96011C16.8369 8.11114 17.0294 8.21397 17.2389 8.2556C17.4484 8.29723 17.6656 8.27579 17.8629 8.19399C18.0603 8.11219 18.2289 7.9737 18.3475 7.79604C18.4662 7.61839 18.5294 7.40954 18.5294 7.19592C18.5294 6.59966 18.0456 6.11591 17.4494 6.11591V6.11628ZM12.6452 7.37817C10.0927 7.37817 8.02326 9.44763 8.02326 12.0001C8.02326 14.5526 10.0927 16.6211 12.6452 16.6211C15.1977 16.6211 17.2665 14.5526 17.2665 12.0001C17.2665 9.44763 15.1977 7.37817 12.6452 7.37817ZM12.6452 9.00006C14.302 9.00006 15.6452 10.3431 15.6452 12.0001C15.6452 13.6569 14.302 15.0001 12.6452 15.0001C10.9882 15.0001 9.64516 13.6569 9.64516 12.0001C9.64516 10.3431 10.9882 9.00006 12.6452 9.00006Z" fill="#FBFBFB"/>
<defs>
<radialGradient id="paint0_radial_558_6584" cx="0" cy="0" r="1" gradientUnits="userSpaceOnUse" gradientTransform="translate(-3.3756 1.72893) rotate(78.6807) scale(10.6324 43.827)">
<stop stop-color="#5437C8"/>
<stop offset="0.128" stop-color="#3771C8"/>
<stop offset="1" stop-color="#6600FF" stop-opacity="0"/>
</radialGradient>
<radialGradient id="paint1_radial_558_6584" cx="0" cy="0" r="1" gradientUnits="userSpaceOnUse" gradientTransform="translate(7.01956 25.8487) rotate(-90) scale(23.786 22.1226)">
<stop stop-color="#FFDD55"/>
<stop offset="0.1" stop-color="#FFDD55"/>
<stop offset="0.5" stop-color="#FF543E"/>
<stop offset="1" stop-color="#C837AB"/>
</radialGradient>
</defs>
</svg>
