<svg width="417" height="328" viewBox="0 0 417 328" fill="none" xmlns="http://www.w3.org/2000/svg">
<rect x="0.5" width="440" height="456" rx="220" fill="white"/>
<g clip-path="url(#clip0_606_5391)">
<path d="M148.1 318.113L166.243 307.801L169.986 337.321L152.033 341.476L148.1 318.113Z" fill="#A05A2C"/>
<path d="M45.3618 316.452L42.9512 340.009L62.3947 344.506L64.0441 322.61L45.3618 316.452Z" fill="#A05A2C"/>
<path d="M87.7697 253.158C87.7697 253.158 74.2425 254.966 67.7869 258.583C63.2291 261.137 58.477 263.852 55.1946 267.918C50.8025 273.359 46.4085 291.476 46.4085 291.476L42.9512 316.94L62.9657 327.497L62.141 344.652C62.141 344.652 84.5634 350.999 104.771 350.468C127.475 349.872 152.73 341.524 152.73 341.524L150.573 324.076L169.541 306.53C169.541 306.53 164.404 282.934 159.835 271.242C157.912 266.323 157.055 260.503 153.269 256.824C150.529 254.161 146.461 253.079 142.707 252.376C138.163 251.525 126.784 252.278 126.784 252.278L87.7697 253.158Z" fill="#8CC640"/>
<path d="M113.462 282.802L133.001 253.673L125.483 246.146L91.5442 246.83L83.2656 254.504L95.0333 281.971L105.627 269.801L113.462 282.802Z" fill="#47651F"/>
<path d="M89.6915 233.218C89.6915 233.218 93.3287 240.376 93.4 243.239C93.513 247.779 89.6367 253.204 89.6367 253.204L105.622 269.25L124.365 249.658C124.365 249.658 120.891 244.452 119.871 241.635C118.638 238.229 120.145 230.628 120.145 230.628L89.6915 233.218Z" fill="#A05A2C"/>
<path d="M86.9247 235.396C80.5846 234.126 118.2 231.118 114.912 231.511L92.8254 246.768C92.8254 246.768 95.7173 237.158 86.9247 235.396Z" fill="#241C1C"/>
<path d="M72.7828 143.662C72.7828 143.662 68.2042 158.302 64.5798 166.448C59.3563 178.189 47.4997 190.247 49.7036 208.262C51.2005 220.499 63.2997 229.683 74.8446 233.986C88.0018 238.891 104.377 239.441 117.389 233.508C140.856 222.807 142.552 211.063 142.552 211.063C142.552 211.063 156.322 210.579 161.042 206.417C168.376 199.952 172.671 188.545 167.871 178.473C164.351 171.087 151.93 169.42 151.93 169.42L143.594 170.923L131.068 140.383L72.7828 143.662Z" fill="#A05A2C"/>
<path d="M84.4005 169.208C81.6361 168.69 79.4288 172.903 78.9844 175.681C78.5366 178.482 79.3263 183.207 82.1353 183.583C84.8376 183.945 86.6245 179.74 87.0571 177.046C87.4946 174.322 87.1106 169.716 84.4005 169.208ZM108.834 171.125C106.069 170.607 103.862 174.82 103.417 177.599C102.97 180.399 103.759 185.124 106.568 185.5C109.271 185.862 111.057 181.657 111.49 178.963C111.928 176.239 111.544 171.633 108.834 171.125Z" fill="#241C1C"/>
<path d="M86.7768 160.944C86.96 157.686 83.428 154.824 80.6009 154.88C78.0574 154.93 74.9844 156.555 74.9654 159.484C74.9491 161.977 75.3112 163.601 77.4234 164.031C78.8493 164.322 81.8062 163.323 83.3221 162.955C84.5703 162.652 86.6699 162.845 86.7768 160.944ZM103.849 159.987C104.303 156.748 108.926 154.55 112.149 155.1C115.048 155.596 118.232 157.736 117.657 160.622C117.168 163.079 116.423 164.615 113.92 164.668C112.23 164.703 109.051 163.202 107.392 162.573C106.026 162.056 103.585 161.877 103.849 159.987Z" fill="#241C1C"/>
<path d="M93.9908 178.215L81.0581 187.656C81.0581 187.656 80.1146 188.488 80.1211 189.115C80.1273 189.707 81.0272 190.654 81.0272 190.654L91.4269 197.572C91.4269 197.572 94.0403 197.379 94.2997 196.779C94.5356 196.233 92.6522 195.033 92.6522 195.033C92.6522 195.033 85.9477 191.246 85.218 190.242C84.8874 189.787 84.6209 189.032 84.9503 188.576C85.53 187.774 93.6304 182.388 93.6304 182.388C93.6304 182.388 94.8204 181.483 94.9175 180.627C95.0066 179.842 93.9908 178.215 93.9908 178.215Z" fill="#241C1C"/>
<path d="M81.741 218.546C81.741 218.546 79.1931 216.015 79.2389 214.215C79.2937 212.061 81.6404 209.854 83.3679 209.169C88.9756 206.948 93.4017 205.577 97.9789 203.569C102.559 201.559 107.492 198.861 110.757 196.762C112.472 195.66 114.952 194.529 116.801 195.604C118.44 196.556 119.664 201.538 119.664 201.538C119.664 201.538 121.388 209.824 119.568 213.464C116.884 218.834 114.061 220.644 108.121 223.766C94.8498 230.742 81.741 218.546 81.741 218.546Z" fill="#241C1C"/>
<path d="M81.8557 212.406C82.1287 214.322 86.4194 214.955 88.3529 214.992C92.3331 215.068 95.8553 214.393 99.5764 212.977C104.383 211.149 108.579 209.052 113.631 205.552C114.634 204.857 117.13 202.431 117.379 201.236C117.682 199.789 117.293 197.598 116.134 196.683C115.208 195.952 112.849 196.746 112.849 196.746C112.849 196.746 106.07 201.138 102.449 202.902C97.4704 205.328 91.4259 207.805 87.6425 209.233C85.5386 210.026 81.5383 210.179 81.8557 212.406Z" fill="white"/>
<path d="M93.141 223.861C93.1096 223.883 94.9792 218.116 101.028 215.42C111.409 210.794 115.917 217.102 115.917 217.102C115.917 217.102 115.601 219.609 106.094 223.813C99.2783 226.828 93.141 223.861 93.141 223.861Z" fill="#800000"/>
<path d="M89.9199 144.824L118.652 150.188C118.652 150.188 128.929 151.801 132.864 157.02C136.867 162.33 136.854 166.995 136.854 166.995L136.921 191.762C136.921 191.762 147.781 177.908 148.848 173.247C149.475 170.511 155.078 170.104 155.078 170.104C155.078 170.104 162.058 149.781 160.865 141.92C158.599 127.004 154.951 126.937 150.777 122.858C143.482 115.729 137.009 128.256 137.009 128.256C137.009 128.256 127.712 122.41 124.683 116.948C121.92 111.966 120.769 110.809 117.832 101.2C116.02 95.2709 107.845 104.532 105.084 110.082C102.086 116.109 102.18 124.02 102.18 124.02C102.18 124.02 96.5363 118.787 93.3342 113.532C89.7019 107.571 87.4921 96.2168 82.892 94.0256C77.1634 91.2968 71.4171 99.7881 69.4126 105.811C65.9788 116.129 73.4919 126.069 73.4919 126.069C73.4919 126.069 67.4281 120.863 57.3076 114.147C48.8085 108.507 50.8254 134.461 55.8887 139.153C71.0617 153.214 75.8386 148.378 83.2024 145.405L89.9199 144.824Z" fill="#241C1C"/>
<path d="M151.531 192.599C150.425 191.151 150.423 187.719 151.021 186.331M146.676 198.492C149.07 194.36 153.569 190.477 158.071 189.61" stroke="#241C1C" stroke-width="2.24674" stroke-linecap="round"/>
<path d="M104.756 286.702C106.797 286.702 108.451 285.046 108.451 283.004C108.451 280.962 106.797 279.307 104.756 279.307C102.715 279.307 101.061 280.962 101.061 283.004C101.061 285.046 102.715 286.702 104.756 286.702Z" fill="#47651F"/>
<path d="M150.7 323.685L171 306.139L168.082 298.563L149.558 315.767L150.7 323.685ZM42 317.527L43.7128 307.263L63.9811 319.384L63.4418 328.67L42 317.527Z" fill="#47651F"/>
</g>
<g clip-path="url(#clip1_606_5391)">
<path d="M187.636 301.449L183.756 343.496L206.825 351.303L214.507 300.392L187.636 301.449Z" fill="#FFB380"/>
<path d="M327.849 285.184L333.343 343.495L300.067 352.441L293.531 292.869L327.849 285.184Z" fill="#FFB380"/>
<path d="M235.518 221.748L259.161 241.47L283.897 220.61C283.897 220.61 298.558 222.386 303.243 227.685C317.109 243.37 332.978 284.858 332.978 284.858L295.666 294.17L298.973 339.307L209.064 334.509L212.136 305.353C212.136 305.353 201.523 307.156 196.67 306.329C191.429 305.436 183 300.067 183 300.067C183 300.067 191.466 268.01 195.993 256.475C198.159 250.956 202.362 243.682 206.721 239.681C210.329 236.369 235.518 221.748 235.518 221.748Z" fill="#FBB516"/>
<path d="M224.194 281.606L292.022 279.979C292.022 279.979 289.076 306.349 290.85 320.968C291.528 326.55 301.083 339.429 301.083 339.429L303.103 352.091C303.103 352.091 273.391 358.771 252.724 358.492C229.304 358.175 206.592 351.547 206.592 351.547L208.493 330.768L213.336 330.565C213.336 330.565 220.338 324.916 221.381 321.171C225.781 305.38 224.194 281.606 224.194 281.606Z" fill="#512000"/>
<path d="M287.57 220.813L301.657 224.067L294.6 256.842L287.232 287.543C285.019 296.761 269.525 295.812 271.505 287.583L287.57 220.813ZM213.883 233.826L228.073 224.026L232.656 255.622C232.656 255.622 238.009 277.385 243.566 290.877C245.785 296.264 232.876 298.046 231.094 294.089C225.921 282.607 219.507 255.703 219.507 255.703L213.883 233.826Z" fill="#321400"/>
<path d="M240.04 287.554C240.04 288.745 239.574 289.887 238.744 290.729C237.914 291.57 236.788 292.043 235.614 292.043C235.033 292.043 234.457 291.927 233.92 291.702C233.383 291.476 232.895 291.145 232.484 290.729C232.073 290.312 231.747 289.817 231.524 289.272C231.302 288.728 231.187 288.144 231.188 287.554C231.187 286.965 231.302 286.381 231.524 285.836C231.747 285.292 232.073 284.797 232.484 284.38C232.895 283.963 233.383 283.633 233.92 283.407C234.457 283.181 235.033 283.065 235.614 283.065C236.788 283.065 237.914 283.538 238.744 284.38C239.574 285.222 240.04 286.364 240.04 287.554ZM284.861 285.81C284.861 286.399 284.747 286.983 284.524 287.528C284.302 288.072 283.976 288.567 283.565 288.984C283.154 289.401 282.666 289.732 282.129 289.957C281.592 290.183 281.016 290.299 280.435 290.299C279.854 290.299 279.278 290.183 278.741 289.957C278.204 289.732 277.716 289.401 277.305 288.984C276.894 288.567 276.568 288.072 276.345 287.528C276.123 286.983 276.008 286.399 276.008 285.81C276.008 285.22 276.123 284.637 276.345 284.092C276.568 283.547 276.894 283.052 277.305 282.636C277.716 282.219 278.204 281.888 278.741 281.663C279.278 281.437 279.854 281.321 280.435 281.321C281.016 281.321 281.592 281.437 282.129 281.663C282.666 281.888 283.154 282.219 283.565 282.636C283.976 283.052 284.302 283.547 284.524 284.092C284.747 284.637 284.861 285.22 284.861 285.81Z" fill="#FD5723"/>
<path d="M235.648 199.125C235.648 199.125 239.708 204.981 240.1 209.175C240.308 211.407 241.796 215.899 240.97 217.978C239.797 220.933 234.85 225.157 234.85 225.157C234.85 225.157 243.695 241.914 258.801 241.29C281.383 240.357 285.026 223.192 285.026 223.192C285.026 223.192 280.125 221.771 278.349 219.943C275.782 217.3 275.116 211.974 274.575 208.306C273.782 202.937 277.042 192.513 277.042 192.513L235.648 199.125Z" fill="#FFB380"/>
<path d="M234.826 199.314C226.484 194.182 269.906 197.84 269.906 197.84L241.334 217.884C241.334 217.884 240.7 202.927 234.826 199.314Z" fill="#803300"/>
<path d="M211.939 151.085C209.074 150.867 205.7 154.068 205.576 156.979C205.448 159.971 208.671 162.504 211.624 162.457C214.349 162.414 216.879 160.082 216.922 157.319C216.964 154.644 214.569 151.284 211.939 151.085Z" fill="#FFE6D5" stroke="#FFE6D5" stroke-width="1.8968" stroke-linecap="round"/>
<path d="M281.751 183.193C281.751 183.193 280.668 201.319 292.441 210.095C305.577 219.886 322.844 210.261 322.844 210.261C322.844 210.261 319.311 224.375 331.404 235.388C340.532 243.701 356.444 237.385 356.444 237.385C356.444 237.385 340.053 249.321 344.048 262.179C349.003 278.125 366.824 270.905 372.746 263.843C378.707 256.736 370.864 250.864 370.864 250.864C370.864 250.864 389.476 262.748 397.857 239.937C400.941 231.541 397.238 224.521 393.238 221.397C385.591 215.427 372.427 218.693 372.427 218.693C372.427 218.693 401.032 195.793 376.795 176.26C360.241 162.918 339.999 187.686 339.999 187.686C339.999 187.686 343.127 176.725 332.114 168.605C322.254 161.335 297.201 164.057 297.201 164.057L281.751 183.193Z" fill="#FF6600"/>
<path d="M221.727 109.199C221.727 109.199 219.906 123.649 216.247 136.835C213.281 147.524 204.108 161.817 207.83 179.27C212.258 200.025 229.136 202.934 242.324 205.085C256.082 207.331 269.646 201.542 279.187 196.401C289.177 191.017 298.409 174.374 298.409 174.374C298.409 174.374 314.773 169.492 318.59 162.577C324.974 151.013 322.415 143.002 317.304 136.822C311.256 129.51 301.96 135.99 301.96 135.99L295.78 104.096L248.98 91.9216L221.727 109.199Z" fill="#FFB380"/>
<path d="M247.642 95.1122C247.565 95.0825 256.784 108.044 271.265 118.746C279.316 124.697 292.489 128.294 292.489 128.294L294.104 150.091C294.104 150.091 298.099 139.578 301.578 136.508C306.071 132.543 313.482 134.166 313.482 134.166C313.482 134.166 318.676 128.094 318.465 118.782C318.27 110.214 320.284 94.275 291.695 82.1702C264.014 70.4497 250.156 84.4841 250.156 84.4841C250.156 84.4841 240.86 80.2964 225.541 91.5815C216.58 98.1834 213.818 105.098 214.122 113.234C214.44 121.745 219.105 125.123 219.105 125.123L221.204 114.063C221.204 114.063 225.191 115.352 236.407 106.533C242.019 102.121 247.642 95.1122 247.642 95.1122Z" fill="#FF6600"/>
<path d="M239.975 124.72C237.575 124.514 236.555 128.575 236.25 130.997C235.896 133.807 235.861 138.756 238.628 139.147C241.262 139.52 242.644 134.997 242.9 132.312C243.157 129.607 242.644 124.95 239.975 124.72ZM265.631 124.669C263.232 124.462 262.212 128.523 261.907 130.945C261.553 133.756 261.518 138.704 264.285 139.095C266.919 139.468 268.301 134.945 268.556 132.26C268.814 129.556 268.301 124.898 265.631 124.669Z" fill="#803300"/>
<path d="M244.536 140.951C244.536 140.951 237.428 144.985 234.805 148.039C234.323 148.6 234.229 148.939 234.176 149.675C234.135 150.246 234.622 151.137 234.82 151.431C236.629 154.132 240.95 158.008 240.95 158.008C240.95 158.008 242.634 158.292 243.092 157.729C243.395 157.358 243.003 156.288 243.003 156.288C243.003 156.288 238.53 152.944 237.691 150.432C237.585 150.116 237.612 149.721 237.781 149.433C239.517 146.47 246.262 143.693 246.262 143.693C246.262 143.693 247.136 141.938 246.664 141.277C246.243 140.688 244.536 140.951 244.536 140.951Z" fill="#803300"/>
<path d="M243.269 120.708C243.269 120.708 242.697 117.427 241.209 116.011C239.366 114.257 236.239 112.842 234.256 113.166C230.781 113.735 229.079 115.688 228.686 116.429C226.774 120.038 226.795 122.718 226.795 122.718C226.795 122.718 229.546 118.69 233.989 118.104C236.577 117.763 238.518 117.714 239.616 118.406L243.269 120.708ZM259.722 119.188C259.722 119.188 259.777 115.818 261.698 114.112C263.657 112.374 267.564 110.758 269.683 111.083C273.397 111.652 274.663 113.364 275.082 114.105C277.126 117.713 275.347 119.435 274.825 120.237C274.38 120.921 273.236 117.017 268.488 116.431C265.722 116.09 261.804 117.715 259.722 119.188Z" fill="#803300"/>
<path d="M252.754 163.058C258.003 161.298 260.317 160.127 268.178 156.264C271.736 154.516 277.742 150.452 278.868 151.148C280.282 152.022 280.38 155.912 280.38 155.912C280.38 155.912 279.553 179.874 265.632 184.102C255.51 187.176 249.843 186.187 244.825 185.389C235.914 183.972 232.736 179.314 231.918 177.909C230.398 175.298 229.09 170.042 230.419 168.671C231.887 167.158 237.558 167.312 241.082 166.434C245.011 165.455 247.041 164.973 252.754 163.058Z" fill="#552200"/>
<path d="M233.338 168.94C233.338 168.94 235.487 172.756 239.505 172.586C246.584 172.285 254.981 170.838 260.473 168.236C264.146 166.497 270.794 162.571 272.94 159.951C275.153 157.251 274.864 153.634 274.864 153.634C274.864 153.634 265.489 159.069 260.725 161.09C255.175 163.446 252.046 164.353 245.858 166.434C242.038 167.719 233.338 168.94 233.338 168.94Z" fill="white"/>
<path d="M252.635 185.117C252.635 185.117 254.052 177.345 260.844 173.145C268.984 168.111 276.853 170.266 276.853 170.266C276.853 170.266 274.258 177.3 268.311 181.596C262.286 185.948 252.635 185.117 252.635 185.117Z" fill="#AA0000"/>
<path d="M304.781 155.595C304.193 153.994 304.265 152.324 304.622 150.675C304.686 150.379 304.77 150.086 304.877 149.803C304.877 149.803 305.075 149.441 304.957 149.579M301.439 159.966C301.569 159.685 304.933 153.706 310.269 151.305C310.819 151.058 311.519 150.576 312.128 150.531" stroke="#803300" stroke-width="1.8968" stroke-linecap="round"/>
<path d="M308.405 161.099C305.541 160.881 302.167 164.083 302.043 166.993C301.915 169.985 305.138 172.518 308.091 172.471C310.816 172.428 313.346 170.096 313.389 167.333C313.431 164.658 311.036 161.298 308.405 161.099Z" fill="#FFE6D5" stroke="#FFE6D5" stroke-width="1.8968" stroke-linecap="round"/>
</g>
<defs>
<clipPath id="clip0_606_5391">
<rect width="137" height="249" fill="white" transform="translate(42 93.5)"/>
</clipPath>
<clipPath id="clip1_606_5391">
<rect width="220" height="281" fill="white" transform="translate(179 77.5)"/>
</clipPath>
</defs>
</svg>
