<svg width="68" height="120" viewBox="0 0 68 120" fill="none" xmlns="http://www.w3.org/2000/svg">
<g clip-path="url(#clip0_562_3002)">
<path d="M10.981 23.427L1.53018 12.04C1.53018 12.04 1.1431 11.392 1.26725 10.7908C1.3958 10.1683 2.05038 9.77184 2.05038 9.77184L19.9118 0.757843C19.9118 0.757843 20.5181 0.34416 21.0189 0.610241C21.4279 0.827596 21.6173 1.37597 21.6173 1.37597L23.8744 18.0902L61.2251 40.6266C61.2251 40.6266 62.7312 39.3356 63.3277 39.8339C64.1453 40.5167 62.9973 42.1155 62.9973 42.1155L61.4822 106.882L66.8379 117.488C66.8379 117.488 66.7029 119.064 66.0024 119.403C65.3783 119.704 63.8514 119.335 63.8514 119.335L56.8685 108.023L1.03366 75.0798C1.03366 75.0798 -0.141199 74.7714 -0.162009 73.8622C-0.176873 73.2128 1.46813 72.5755 1.46813 72.5755L10.981 23.427Z" fill="#FD5723"/>
<path d="M0.169922 74.9564C24.7942 71.2802 47.0292 62.286 63.6893 40.8838C65.2159 62.0041 64.4075 84.2265 61.6084 107.388C61.6084 107.388 61.5962 109.374 60.5675 109.909C59.7798 110.319 57.2518 109.762 57.2518 109.762C26.1668 99.1957 13.8277 88.7551 0.169922 74.9564Z" fill="#14A5C0"/>
<path d="M0.855469 72.7346L10.6066 23.4272L23.6746 17.5103L62.0556 40.0564C41.6899 60.168 21.1292 70.6452 0.855469 72.7346Z" fill="#FBB517"/>
</g>
<defs>
<clipPath id="clip0_562_3002">
<rect width="67" height="119" fill="white" transform="translate(0.046875 0.520996)"/>
</clipPath>
</defs>
</svg>
