<svg width="596" height="159" viewBox="0 0 596 159" fill="none" xmlns="http://www.w3.org/2000/svg">
<mask id="path-1-outside-1_1774_7771" maskUnits="userSpaceOnUse" x="0" y="0" width="596" height="159" fill="black">
<rect fill="white" width="596" height="159"/>
<path d="M12.6998 148.702C12.0896 141.728 11.6538 134.711 11.3923 127.65C11.1308 120.59 11 112.439 11 103.2C11 91.9548 11.1743 80.7537 11.523 69.5961C11.8717 58.4386 12.3947 48.2399 13.092 39L35.5815 39.6538C35.32 41.6586 35.1021 43.7943 34.9277 46.0606C38.0658 43.9686 41.4218 42.4432 44.9957 41.4843C48.6568 40.5254 52.3614 40.046 56.1097 40.046C60.9039 40.046 65.5675 40.8305 70.1002 42.3996C74.633 43.8814 78.7299 46.2786 82.391 49.591C86.052 52.8162 88.9286 57.0003 91.0206 62.1432C93.1999 67.2862 94.2895 73.4751 94.2895 80.7101C94.2895 87.8579 93.1999 94.0905 91.0206 99.4077C88.8414 104.725 85.9213 109.083 82.2602 112.483C78.5991 115.97 74.5022 118.541 69.9695 120.197C65.4367 121.941 60.7732 122.812 55.9789 122.812C47.1749 122.812 39.4169 120.197 32.7049 114.967C32.8793 120.546 33.1408 125.907 33.4895 131.05C33.8381 136.28 34.274 141.597 34.797 147.002L12.6998 148.702ZM52.5794 61.751C43.9497 61.751 37.4556 65.9786 33.0972 74.434C32.8357 79.6641 32.6614 84.9814 32.5742 90.3858C34.6662 93.1752 37.3685 95.6159 40.6809 97.708C43.9933 99.7128 48.2209 100.715 53.3639 100.715C65.6546 100.715 71.8 93.6982 71.8 79.6641C71.8 75.9158 71.1027 72.8649 69.708 70.5114C68.3133 68.1578 66.5699 66.3709 64.4779 65.1505C62.3858 63.843 60.2502 62.9713 58.071 62.5355C55.8918 62.0125 54.0612 61.751 52.5794 61.751Z"/>
<path d="M149.187 122.159C142.214 122.159 136.112 121.026 130.882 118.759C125.739 116.493 121.468 113.398 118.068 109.476C114.668 105.466 112.141 100.89 110.484 95.7467C108.828 90.6037 108 85.1993 108 79.5333C108 73.7802 109.002 68.4629 111.007 63.5815C113.099 58.6129 115.932 54.2981 119.506 50.637C123.167 46.9759 127.439 44.1429 132.32 42.1381C137.201 40.046 142.519 39 148.272 39C154.286 39 159.865 40.046 165.008 42.1381C170.151 44.2301 174.64 47.1502 178.476 50.8985C182.311 54.6467 185.275 59.0487 187.367 64.1045C189.546 69.1603 190.636 74.6519 190.636 80.5794C190.636 93.7418 187.018 103.984 179.783 111.306C172.548 118.541 162.35 122.159 149.187 122.159ZM149.056 100.977C155.42 100.977 160.257 99.1898 163.57 95.6159C166.969 92.042 168.669 86.8991 168.669 80.1871C168.669 74.1725 166.839 69.3346 163.178 65.6735C159.517 62.0125 154.722 60.1819 148.795 60.1819C145.221 60.1819 141.952 61.1408 138.988 63.0585C136.025 64.889 133.628 67.3733 131.797 70.5114C130.054 73.5623 129.182 76.9619 129.182 80.7101C129.182 84.0225 129.836 87.2477 131.143 90.3858C132.538 93.5239 134.717 96.0953 137.681 98.1002C140.645 100.018 144.436 100.977 149.056 100.977Z"/>
<path d="M205.785 121.59C205.523 113.919 205.305 106.815 205.131 100.277C205.044 93.7394 205 87.2889 205 80.9256C205 74.5623 205.044 68.199 205.131 61.8357C205.305 55.3852 205.567 48.4989 205.915 41.1768H228.012C227.664 45.0994 227.359 49.0655 227.097 53.0753C230.061 49.327 233.591 46.2325 237.688 43.7918C241.785 41.2639 246.623 40 252.202 40C257.693 40 262.183 40.9153 265.669 42.7458C269.243 44.5763 272.033 47.1042 274.037 50.3295C276.129 53.5547 277.611 57.2594 278.483 61.4434C279.442 65.5404 280.052 69.986 280.314 74.7802C280.575 79.4873 280.706 84.238 280.706 89.0323C280.706 94.2624 280.619 99.2746 280.444 104.069C280.27 108.863 280.096 112.873 279.921 116.098C279.747 119.323 279.616 121.241 279.529 121.851H257.563C257.737 118.277 257.911 114.485 258.086 110.476C258.26 106.379 258.434 102.369 258.609 98.4465C258.783 94.4367 258.87 90.8192 258.87 87.594C258.87 69.0271 255.863 59.7437 249.848 59.7437C244.88 59.7437 240.347 61.9229 236.25 66.2813C232.24 70.5526 228.884 75.957 226.182 82.4946C226.182 83.3663 226.182 84.238 226.182 85.1097C226.182 89.2938 226.182 93.6522 226.182 98.185C226.269 102.631 226.356 106.902 226.443 110.999C226.618 115.008 226.749 118.495 226.836 121.459L205.785 121.59Z"/>
<path d="M332.625 122.271C327.395 122.271 323.255 121.137 320.204 118.871C317.153 116.692 314.93 113.641 313.535 109.718C312.141 105.796 311.226 101.307 310.79 96.2508C310.441 91.195 310.267 85.8777 310.267 80.2989C310.267 74.5458 310.485 68.5748 310.92 62.3858C305.08 63.1703 299.458 64.1728 294.053 65.3931L290 44.8649C297.235 42.9472 304.949 41.5525 313.143 40.6809C313.753 36.2353 314.407 31.5718 315.105 26.6903C315.802 21.7217 316.586 16.4916 317.458 11L339.948 12.9613C338.902 17.494 337.986 22.0268 337.202 26.5596C336.417 31.0052 335.72 35.32 335.11 39.5041C339.991 39.5041 344.567 39.6348 348.839 39.8963C353.197 40.0707 357.207 40.4194 360.868 40.9424L358.253 61.4705C355.202 61.1219 352.02 60.9039 348.708 60.8168C345.483 60.6424 342.214 60.5553 338.902 60.5553C336.897 60.5553 334.892 60.5989 332.887 60.686C332.364 67.0493 332.015 72.4973 331.841 77.0301C331.754 81.5629 331.71 84.7881 331.71 86.7058C331.71 91.5001 331.972 94.9432 332.495 97.0353C333.105 99.1273 334.064 100.173 335.371 100.173C336.853 100.173 338.509 99.6939 340.34 98.7351C342.17 97.689 343.957 96.2943 345.701 94.551C347.531 92.8076 349.057 90.9335 350.277 88.9286L360.345 109.98C351.715 118.174 342.475 122.271 332.625 122.271Z"/>
<path d="M408.102 121.766C399.734 121.766 392.368 120.11 386.005 116.798C379.729 113.573 374.804 109.04 371.23 103.2C367.743 97.3593 366 90.6037 366 82.9329C366 78.313 366.785 73.4751 368.354 68.4194C369.923 63.2764 372.45 58.4822 375.937 54.0366C379.424 49.591 384 45.9735 389.666 43.1841C395.419 40.3947 402.393 39 410.587 39C416.514 39 421.483 39.6538 425.492 40.9613C429.589 42.2688 432.902 43.9686 435.43 46.0606C438.045 48.1527 440.006 50.3755 441.314 52.729C442.708 55.0826 443.624 57.349 444.059 59.5282C444.582 61.6202 444.844 63.3636 444.844 64.7583C444.844 73.2136 441.27 79.7513 434.122 84.3712C427.062 88.9039 417.037 91.1703 404.049 91.1703C401.085 91.1703 398.252 91.0396 395.55 90.7781C392.935 90.5166 390.494 90.2115 388.228 89.8628C389.884 94.2212 392.63 97.4465 396.465 99.5385C400.301 101.543 404.267 102.546 408.364 102.546C414.291 102.546 419.521 101.5 424.054 99.4077C428.587 97.2285 432.858 93.9161 436.868 89.4705L448.505 106.207C445.716 108.473 442.578 110.827 439.091 113.268C435.691 115.708 431.507 117.713 426.539 119.282C421.57 120.938 415.424 121.766 408.102 121.766ZM410.979 58.6129C405.836 58.6129 401.303 59.9204 397.381 62.5355C393.458 65.1505 390.582 68.5937 388.751 72.8649C390.93 73.2136 393.066 73.5187 395.158 73.7802C397.337 73.9546 399.473 74.0417 401.565 74.0417C403.482 74.0417 405.662 73.8674 408.102 73.5187C410.63 73.17 413.071 72.647 415.425 71.9497C417.865 71.2523 419.87 70.3806 421.439 69.3346C423.008 68.2014 423.793 66.8939 423.793 65.412C423.793 64.7147 423.444 63.843 422.747 62.797C422.049 61.751 420.785 60.7921 418.955 59.9204C417.124 59.0487 414.466 58.6129 410.979 58.6129Z"/>
<path d="M489.042 121.858C482.504 121.858 476.577 120.159 471.259 116.759C465.942 113.447 461.714 108.958 458.576 103.292C455.525 97.5385 454 91.1316 454 84.071C454 77.4462 455.22 71.4751 457.661 66.1579C460.102 60.7534 463.414 56.1335 467.598 52.2981C471.87 48.4627 476.707 45.5425 482.112 43.5376C487.516 41.4456 493.182 40.3996 499.11 40.3996C504.078 40.3996 508.96 41.0969 513.754 42.4916C514.103 40.6611 514.408 38.8305 514.669 37L537.028 40.7918C536.418 42.448 535.808 44.9323 535.197 48.2447C534.587 51.5571 534.064 55.2618 533.628 59.3587C533.28 63.4556 532.975 67.5525 532.713 71.6495C532.452 75.7464 532.321 79.451 532.321 82.7634C532.321 85.4657 532.495 88.1243 532.844 90.7394C533.28 93.2673 534.151 95.3593 535.459 97.0155C536.766 98.5845 538.771 99.369 541.474 99.369H543.304L540.035 122.12C534.282 122.12 529.531 121.118 525.783 119.113C522.035 117.195 519.028 114.58 516.761 111.268C513.013 115.452 508.742 118.241 503.948 119.636C499.153 121.118 494.185 121.858 489.042 121.858ZM475.443 86.686C475.879 90.8701 477.579 94.2261 480.543 96.754C483.594 99.1947 487.429 100.415 492.049 100.415C496.495 100.415 500.199 99.2383 503.163 96.8847C506.127 94.444 508.567 91.1316 510.485 86.9475C510.398 85.5528 510.354 84.1146 510.354 82.6327C510.354 79.5818 510.442 76.4437 510.616 73.2185C510.79 69.9933 511.008 66.8116 511.27 63.6736C507.609 62.2789 503.773 61.5815 499.763 61.5815C495.056 61.5815 490.829 62.5404 487.08 64.4581C483.419 66.2886 480.543 68.8601 478.451 72.1725C476.359 75.4849 475.313 79.3203 475.313 83.6787C475.313 84.2017 475.313 84.7247 475.313 85.2477C475.313 85.7708 475.356 86.2502 475.443 86.686Z"/>
<path d="M570.644 122.204C567.332 122.204 564.586 121.463 562.407 119.981C560.228 118.499 558.615 116.582 557.569 114.228C556.523 111.874 556 109.434 556 106.906C556 102.112 557.525 98.4505 560.576 95.9226C563.627 93.3075 567.288 92 571.56 92C575.918 92 579.361 93.3075 581.889 95.9226C584.417 98.5376 585.681 102.024 585.681 106.383C585.681 111.962 584.155 115.971 581.104 118.412C578.141 120.94 574.654 122.204 570.644 122.204Z"/>
</mask>
<path d="M12.6998 148.702C12.0896 141.728 11.6538 134.711 11.3923 127.65C11.1308 120.59 11 112.439 11 103.2C11 91.9548 11.1743 80.7537 11.523 69.5961C11.8717 58.4386 12.3947 48.2399 13.092 39L35.5815 39.6538C35.32 41.6586 35.1021 43.7943 34.9277 46.0606C38.0658 43.9686 41.4218 42.4432 44.9957 41.4843C48.6568 40.5254 52.3614 40.046 56.1097 40.046C60.9039 40.046 65.5675 40.8305 70.1002 42.3996C74.633 43.8814 78.7299 46.2786 82.391 49.591C86.052 52.8162 88.9286 57.0003 91.0206 62.1432C93.1999 67.2862 94.2895 73.4751 94.2895 80.7101C94.2895 87.8579 93.1999 94.0905 91.0206 99.4077C88.8414 104.725 85.9213 109.083 82.2602 112.483C78.5991 115.97 74.5022 118.541 69.9695 120.197C65.4367 121.941 60.7732 122.812 55.9789 122.812C47.1749 122.812 39.4169 120.197 32.7049 114.967C32.8793 120.546 33.1408 125.907 33.4895 131.05C33.8381 136.28 34.274 141.597 34.797 147.002L12.6998 148.702ZM52.5794 61.751C43.9497 61.751 37.4556 65.9786 33.0972 74.434C32.8357 79.6641 32.6614 84.9814 32.5742 90.3858C34.6662 93.1752 37.3685 95.6159 40.6809 97.708C43.9933 99.7128 48.2209 100.715 53.3639 100.715C65.6546 100.715 71.8 93.6982 71.8 79.6641C71.8 75.9158 71.1027 72.8649 69.708 70.5114C68.3133 68.1578 66.5699 66.3709 64.4779 65.1505C62.3858 63.843 60.2502 62.9713 58.071 62.5355C55.8918 62.0125 54.0612 61.751 52.5794 61.751Z" fill="#144EC0"/>
<path d="M149.187 122.159C142.214 122.159 136.112 121.026 130.882 118.759C125.739 116.493 121.468 113.398 118.068 109.476C114.668 105.466 112.141 100.89 110.484 95.7467C108.828 90.6037 108 85.1993 108 79.5333C108 73.7802 109.002 68.4629 111.007 63.5815C113.099 58.6129 115.932 54.2981 119.506 50.637C123.167 46.9759 127.439 44.1429 132.32 42.1381C137.201 40.046 142.519 39 148.272 39C154.286 39 159.865 40.046 165.008 42.1381C170.151 44.2301 174.64 47.1502 178.476 50.8985C182.311 54.6467 185.275 59.0487 187.367 64.1045C189.546 69.1603 190.636 74.6519 190.636 80.5794C190.636 93.7418 187.018 103.984 179.783 111.306C172.548 118.541 162.35 122.159 149.187 122.159ZM149.056 100.977C155.42 100.977 160.257 99.1898 163.57 95.6159C166.969 92.042 168.669 86.8991 168.669 80.1871C168.669 74.1725 166.839 69.3346 163.178 65.6735C159.517 62.0125 154.722 60.1819 148.795 60.1819C145.221 60.1819 141.952 61.1408 138.988 63.0585C136.025 64.889 133.628 67.3733 131.797 70.5114C130.054 73.5623 129.182 76.9619 129.182 80.7101C129.182 84.0225 129.836 87.2477 131.143 90.3858C132.538 93.5239 134.717 96.0953 137.681 98.1002C140.645 100.018 144.436 100.977 149.056 100.977Z" fill="#144EC0"/>
<path d="M205.785 121.59C205.523 113.919 205.305 106.815 205.131 100.277C205.044 93.7394 205 87.2889 205 80.9256C205 74.5623 205.044 68.199 205.131 61.8357C205.305 55.3852 205.567 48.4989 205.915 41.1768H228.012C227.664 45.0994 227.359 49.0655 227.097 53.0753C230.061 49.327 233.591 46.2325 237.688 43.7918C241.785 41.2639 246.623 40 252.202 40C257.693 40 262.183 40.9153 265.669 42.7458C269.243 44.5763 272.033 47.1042 274.037 50.3295C276.129 53.5547 277.611 57.2594 278.483 61.4434C279.442 65.5404 280.052 69.986 280.314 74.7802C280.575 79.4873 280.706 84.238 280.706 89.0323C280.706 94.2624 280.619 99.2746 280.444 104.069C280.27 108.863 280.096 112.873 279.921 116.098C279.747 119.323 279.616 121.241 279.529 121.851H257.563C257.737 118.277 257.911 114.485 258.086 110.476C258.26 106.379 258.434 102.369 258.609 98.4465C258.783 94.4367 258.87 90.8192 258.87 87.594C258.87 69.0271 255.863 59.7437 249.848 59.7437C244.88 59.7437 240.347 61.9229 236.25 66.2813C232.24 70.5526 228.884 75.957 226.182 82.4946C226.182 83.3663 226.182 84.238 226.182 85.1097C226.182 89.2938 226.182 93.6522 226.182 98.185C226.269 102.631 226.356 106.902 226.443 110.999C226.618 115.008 226.749 118.495 226.836 121.459L205.785 121.59Z" fill="#144EC0"/>
<path d="M332.625 122.271C327.395 122.271 323.255 121.137 320.204 118.871C317.153 116.692 314.93 113.641 313.535 109.718C312.141 105.796 311.226 101.307 310.79 96.2508C310.441 91.195 310.267 85.8777 310.267 80.2989C310.267 74.5458 310.485 68.5748 310.92 62.3858C305.08 63.1703 299.458 64.1728 294.053 65.3931L290 44.8649C297.235 42.9472 304.949 41.5525 313.143 40.6809C313.753 36.2353 314.407 31.5718 315.105 26.6903C315.802 21.7217 316.586 16.4916 317.458 11L339.948 12.9613C338.902 17.494 337.986 22.0268 337.202 26.5596C336.417 31.0052 335.72 35.32 335.11 39.5041C339.991 39.5041 344.567 39.6348 348.839 39.8963C353.197 40.0707 357.207 40.4194 360.868 40.9424L358.253 61.4705C355.202 61.1219 352.02 60.9039 348.708 60.8168C345.483 60.6424 342.214 60.5553 338.902 60.5553C336.897 60.5553 334.892 60.5989 332.887 60.686C332.364 67.0493 332.015 72.4973 331.841 77.0301C331.754 81.5629 331.71 84.7881 331.71 86.7058C331.71 91.5001 331.972 94.9432 332.495 97.0353C333.105 99.1273 334.064 100.173 335.371 100.173C336.853 100.173 338.509 99.6939 340.34 98.7351C342.17 97.689 343.957 96.2943 345.701 94.551C347.531 92.8076 349.057 90.9335 350.277 88.9286L360.345 109.98C351.715 118.174 342.475 122.271 332.625 122.271Z" fill="#FD5723"/>
<path d="M408.102 121.766C399.734 121.766 392.368 120.11 386.005 116.798C379.729 113.573 374.804 109.04 371.23 103.2C367.743 97.3593 366 90.6037 366 82.9329C366 78.313 366.785 73.4751 368.354 68.4194C369.923 63.2764 372.45 58.4822 375.937 54.0366C379.424 49.591 384 45.9735 389.666 43.1841C395.419 40.3947 402.393 39 410.587 39C416.514 39 421.483 39.6538 425.492 40.9613C429.589 42.2688 432.902 43.9686 435.43 46.0606C438.045 48.1527 440.006 50.3755 441.314 52.729C442.708 55.0826 443.624 57.349 444.059 59.5282C444.582 61.6202 444.844 63.3636 444.844 64.7583C444.844 73.2136 441.27 79.7513 434.122 84.3712C427.062 88.9039 417.037 91.1703 404.049 91.1703C401.085 91.1703 398.252 91.0396 395.55 90.7781C392.935 90.5166 390.494 90.2115 388.228 89.8628C389.884 94.2212 392.63 97.4465 396.465 99.5385C400.301 101.543 404.267 102.546 408.364 102.546C414.291 102.546 419.521 101.5 424.054 99.4077C428.587 97.2285 432.858 93.9161 436.868 89.4705L448.505 106.207C445.716 108.473 442.578 110.827 439.091 113.268C435.691 115.708 431.507 117.713 426.539 119.282C421.57 120.938 415.424 121.766 408.102 121.766ZM410.979 58.6129C405.836 58.6129 401.303 59.9204 397.381 62.5355C393.458 65.1505 390.582 68.5937 388.751 72.8649C390.93 73.2136 393.066 73.5187 395.158 73.7802C397.337 73.9546 399.473 74.0417 401.565 74.0417C403.482 74.0417 405.662 73.8674 408.102 73.5187C410.63 73.17 413.071 72.647 415.425 71.9497C417.865 71.2523 419.87 70.3806 421.439 69.3346C423.008 68.2014 423.793 66.8939 423.793 65.412C423.793 64.7147 423.444 63.843 422.747 62.797C422.049 61.751 420.785 60.7921 418.955 59.9204C417.124 59.0487 414.466 58.6129 410.979 58.6129Z" fill="#65A115"/>
<path d="M489.042 121.858C482.504 121.858 476.577 120.159 471.259 116.759C465.942 113.447 461.714 108.958 458.576 103.292C455.525 97.5385 454 91.1316 454 84.071C454 77.4462 455.22 71.4751 457.661 66.1579C460.102 60.7534 463.414 56.1335 467.598 52.2981C471.87 48.4627 476.707 45.5425 482.112 43.5376C487.516 41.4456 493.182 40.3996 499.11 40.3996C504.078 40.3996 508.96 41.0969 513.754 42.4916C514.103 40.6611 514.408 38.8305 514.669 37L537.028 40.7918C536.418 42.448 535.808 44.9323 535.197 48.2447C534.587 51.5571 534.064 55.2618 533.628 59.3587C533.28 63.4556 532.975 67.5525 532.713 71.6495C532.452 75.7464 532.321 79.451 532.321 82.7634C532.321 85.4657 532.495 88.1243 532.844 90.7394C533.28 93.2673 534.151 95.3593 535.459 97.0155C536.766 98.5845 538.771 99.369 541.474 99.369H543.304L540.035 122.12C534.282 122.12 529.531 121.118 525.783 119.113C522.035 117.195 519.028 114.58 516.761 111.268C513.013 115.452 508.742 118.241 503.948 119.636C499.153 121.118 494.185 121.858 489.042 121.858ZM475.443 86.686C475.879 90.8701 477.579 94.2261 480.543 96.754C483.594 99.1947 487.429 100.415 492.049 100.415C496.495 100.415 500.199 99.2383 503.163 96.8847C506.127 94.444 508.567 91.1316 510.485 86.9475C510.398 85.5528 510.354 84.1146 510.354 82.6327C510.354 79.5818 510.442 76.4437 510.616 73.2185C510.79 69.9933 511.008 66.8116 511.27 63.6736C507.609 62.2789 503.773 61.5815 499.763 61.5815C495.056 61.5815 490.829 62.5404 487.08 64.4581C483.419 66.2886 480.543 68.8601 478.451 72.1725C476.359 75.4849 475.313 79.3203 475.313 83.6787C475.313 84.2017 475.313 84.7247 475.313 85.2477C475.313 85.7708 475.356 86.2502 475.443 86.686Z" fill="#FBB516"/>
<path d="M570.644 122.204C567.332 122.204 564.586 121.463 562.407 119.981C560.228 118.499 558.615 116.582 557.569 114.228C556.523 111.874 556 109.434 556 106.906C556 102.112 557.525 98.4505 560.576 95.9226C563.627 93.3075 567.288 92 571.56 92C575.918 92 579.361 93.3075 581.889 95.9226C584.417 98.5376 585.681 102.024 585.681 106.383C585.681 111.962 584.155 115.971 581.104 118.412C578.141 120.94 574.654 122.204 570.644 122.204Z" fill="#14A5C0"/>
<path d="M12.6998 148.702C12.0896 141.728 11.6538 134.711 11.3923 127.65C11.1308 120.59 11 112.439 11 103.2C11 91.9548 11.1743 80.7537 11.523 69.5961C11.8717 58.4386 12.3947 48.2399 13.092 39L35.5815 39.6538C35.32 41.6586 35.1021 43.7943 34.9277 46.0606C38.0658 43.9686 41.4218 42.4432 44.9957 41.4843C48.6568 40.5254 52.3614 40.046 56.1097 40.046C60.9039 40.046 65.5675 40.8305 70.1002 42.3996C74.633 43.8814 78.7299 46.2786 82.391 49.591C86.052 52.8162 88.9286 57.0003 91.0206 62.1432C93.1999 67.2862 94.2895 73.4751 94.2895 80.7101C94.2895 87.8579 93.1999 94.0905 91.0206 99.4077C88.8414 104.725 85.9213 109.083 82.2602 112.483C78.5991 115.97 74.5022 118.541 69.9695 120.197C65.4367 121.941 60.7732 122.812 55.9789 122.812C47.1749 122.812 39.4169 120.197 32.7049 114.967C32.8793 120.546 33.1408 125.907 33.4895 131.05C33.8381 136.28 34.274 141.597 34.797 147.002L12.6998 148.702ZM52.5794 61.751C43.9497 61.751 37.4556 65.9786 33.0972 74.434C32.8357 79.6641 32.6614 84.9814 32.5742 90.3858C34.6662 93.1752 37.3685 95.6159 40.6809 97.708C43.9933 99.7128 48.2209 100.715 53.3639 100.715C65.6546 100.715 71.8 93.6982 71.8 79.6641C71.8 75.9158 71.1027 72.8649 69.708 70.5114C68.3133 68.1578 66.5699 66.3709 64.4779 65.1505C62.3858 63.843 60.2502 62.9713 58.071 62.5355C55.8918 62.0125 54.0612 61.751 52.5794 61.751Z" stroke="white" stroke-width="20.4301" stroke-linejoin="round" mask="url(#path-1-outside-1_1774_7771)"/>
<path d="M149.187 122.159C142.214 122.159 136.112 121.026 130.882 118.759C125.739 116.493 121.468 113.398 118.068 109.476C114.668 105.466 112.141 100.89 110.484 95.7467C108.828 90.6037 108 85.1993 108 79.5333C108 73.7802 109.002 68.4629 111.007 63.5815C113.099 58.6129 115.932 54.2981 119.506 50.637C123.167 46.9759 127.439 44.1429 132.32 42.1381C137.201 40.046 142.519 39 148.272 39C154.286 39 159.865 40.046 165.008 42.1381C170.151 44.2301 174.64 47.1502 178.476 50.8985C182.311 54.6467 185.275 59.0487 187.367 64.1045C189.546 69.1603 190.636 74.6519 190.636 80.5794C190.636 93.7418 187.018 103.984 179.783 111.306C172.548 118.541 162.35 122.159 149.187 122.159ZM149.056 100.977C155.42 100.977 160.257 99.1898 163.57 95.6159C166.969 92.042 168.669 86.8991 168.669 80.1871C168.669 74.1725 166.839 69.3346 163.178 65.6735C159.517 62.0125 154.722 60.1819 148.795 60.1819C145.221 60.1819 141.952 61.1408 138.988 63.0585C136.025 64.889 133.628 67.3733 131.797 70.5114C130.054 73.5623 129.182 76.9619 129.182 80.7101C129.182 84.0225 129.836 87.2477 131.143 90.3858C132.538 93.5239 134.717 96.0953 137.681 98.1002C140.645 100.018 144.436 100.977 149.056 100.977Z" stroke="white" stroke-width="20.4301" stroke-linejoin="round" mask="url(#path-1-outside-1_1774_7771)"/>
<path d="M205.785 121.59C205.523 113.919 205.305 106.815 205.131 100.277C205.044 93.7394 205 87.2889 205 80.9256C205 74.5623 205.044 68.199 205.131 61.8357C205.305 55.3852 205.567 48.4989 205.915 41.1768H228.012C227.664 45.0994 227.359 49.0655 227.097 53.0753C230.061 49.327 233.591 46.2325 237.688 43.7918C241.785 41.2639 246.623 40 252.202 40C257.693 40 262.183 40.9153 265.669 42.7458C269.243 44.5763 272.033 47.1042 274.037 50.3295C276.129 53.5547 277.611 57.2594 278.483 61.4434C279.442 65.5404 280.052 69.986 280.314 74.7802C280.575 79.4873 280.706 84.238 280.706 89.0323C280.706 94.2624 280.619 99.2746 280.444 104.069C280.27 108.863 280.096 112.873 279.921 116.098C279.747 119.323 279.616 121.241 279.529 121.851H257.563C257.737 118.277 257.911 114.485 258.086 110.476C258.26 106.379 258.434 102.369 258.609 98.4465C258.783 94.4367 258.87 90.8192 258.87 87.594C258.87 69.0271 255.863 59.7437 249.848 59.7437C244.88 59.7437 240.347 61.9229 236.25 66.2813C232.24 70.5526 228.884 75.957 226.182 82.4946C226.182 83.3663 226.182 84.238 226.182 85.1097C226.182 89.2938 226.182 93.6522 226.182 98.185C226.269 102.631 226.356 106.902 226.443 110.999C226.618 115.008 226.749 118.495 226.836 121.459L205.785 121.59Z" stroke="white" stroke-width="20.4301" stroke-linejoin="round" mask="url(#path-1-outside-1_1774_7771)"/>
<path d="M332.625 122.271C327.395 122.271 323.255 121.137 320.204 118.871C317.153 116.692 314.93 113.641 313.535 109.718C312.141 105.796 311.226 101.307 310.79 96.2508C310.441 91.195 310.267 85.8777 310.267 80.2989C310.267 74.5458 310.485 68.5748 310.92 62.3858C305.08 63.1703 299.458 64.1728 294.053 65.3931L290 44.8649C297.235 42.9472 304.949 41.5525 313.143 40.6809C313.753 36.2353 314.407 31.5718 315.105 26.6903C315.802 21.7217 316.586 16.4916 317.458 11L339.948 12.9613C338.902 17.494 337.986 22.0268 337.202 26.5596C336.417 31.0052 335.72 35.32 335.11 39.5041C339.991 39.5041 344.567 39.6348 348.839 39.8963C353.197 40.0707 357.207 40.4194 360.868 40.9424L358.253 61.4705C355.202 61.1219 352.02 60.9039 348.708 60.8168C345.483 60.6424 342.214 60.5553 338.902 60.5553C336.897 60.5553 334.892 60.5989 332.887 60.686C332.364 67.0493 332.015 72.4973 331.841 77.0301C331.754 81.5629 331.71 84.7881 331.71 86.7058C331.71 91.5001 331.972 94.9432 332.495 97.0353C333.105 99.1273 334.064 100.173 335.371 100.173C336.853 100.173 338.509 99.6939 340.34 98.7351C342.17 97.689 343.957 96.2943 345.701 94.551C347.531 92.8076 349.057 90.9335 350.277 88.9286L360.345 109.98C351.715 118.174 342.475 122.271 332.625 122.271Z" stroke="white" stroke-width="20.4301" stroke-linejoin="round" mask="url(#path-1-outside-1_1774_7771)"/>
<path d="M408.102 121.766C399.734 121.766 392.368 120.11 386.005 116.798C379.729 113.573 374.804 109.04 371.23 103.2C367.743 97.3593 366 90.6037 366 82.9329C366 78.313 366.785 73.4751 368.354 68.4194C369.923 63.2764 372.45 58.4822 375.937 54.0366C379.424 49.591 384 45.9735 389.666 43.1841C395.419 40.3947 402.393 39 410.587 39C416.514 39 421.483 39.6538 425.492 40.9613C429.589 42.2688 432.902 43.9686 435.43 46.0606C438.045 48.1527 440.006 50.3755 441.314 52.729C442.708 55.0826 443.624 57.349 444.059 59.5282C444.582 61.6202 444.844 63.3636 444.844 64.7583C444.844 73.2136 441.27 79.7513 434.122 84.3712C427.062 88.9039 417.037 91.1703 404.049 91.1703C401.085 91.1703 398.252 91.0396 395.55 90.7781C392.935 90.5166 390.494 90.2115 388.228 89.8628C389.884 94.2212 392.63 97.4465 396.465 99.5385C400.301 101.543 404.267 102.546 408.364 102.546C414.291 102.546 419.521 101.5 424.054 99.4077C428.587 97.2285 432.858 93.9161 436.868 89.4705L448.505 106.207C445.716 108.473 442.578 110.827 439.091 113.268C435.691 115.708 431.507 117.713 426.539 119.282C421.57 120.938 415.424 121.766 408.102 121.766ZM410.979 58.6129C405.836 58.6129 401.303 59.9204 397.381 62.5355C393.458 65.1505 390.582 68.5937 388.751 72.8649C390.93 73.2136 393.066 73.5187 395.158 73.7802C397.337 73.9546 399.473 74.0417 401.565 74.0417C403.482 74.0417 405.662 73.8674 408.102 73.5187C410.63 73.17 413.071 72.647 415.425 71.9497C417.865 71.2523 419.87 70.3806 421.439 69.3346C423.008 68.2014 423.793 66.8939 423.793 65.412C423.793 64.7147 423.444 63.843 422.747 62.797C422.049 61.751 420.785 60.7921 418.955 59.9204C417.124 59.0487 414.466 58.6129 410.979 58.6129Z" stroke="white" stroke-width="20.4301" stroke-linejoin="round" mask="url(#path-1-outside-1_1774_7771)"/>
<path d="M489.042 121.858C482.504 121.858 476.577 120.159 471.259 116.759C465.942 113.447 461.714 108.958 458.576 103.292C455.525 97.5385 454 91.1316 454 84.071C454 77.4462 455.22 71.4751 457.661 66.1579C460.102 60.7534 463.414 56.1335 467.598 52.2981C471.87 48.4627 476.707 45.5425 482.112 43.5376C487.516 41.4456 493.182 40.3996 499.11 40.3996C504.078 40.3996 508.96 41.0969 513.754 42.4916C514.103 40.6611 514.408 38.8305 514.669 37L537.028 40.7918C536.418 42.448 535.808 44.9323 535.197 48.2447C534.587 51.5571 534.064 55.2618 533.628 59.3587C533.28 63.4556 532.975 67.5525 532.713 71.6495C532.452 75.7464 532.321 79.451 532.321 82.7634C532.321 85.4657 532.495 88.1243 532.844 90.7394C533.28 93.2673 534.151 95.3593 535.459 97.0155C536.766 98.5845 538.771 99.369 541.474 99.369H543.304L540.035 122.12C534.282 122.12 529.531 121.118 525.783 119.113C522.035 117.195 519.028 114.58 516.761 111.268C513.013 115.452 508.742 118.241 503.948 119.636C499.153 121.118 494.185 121.858 489.042 121.858ZM475.443 86.686C475.879 90.8701 477.579 94.2261 480.543 96.754C483.594 99.1947 487.429 100.415 492.049 100.415C496.495 100.415 500.199 99.2383 503.163 96.8847C506.127 94.444 508.567 91.1316 510.485 86.9475C510.398 85.5528 510.354 84.1146 510.354 82.6327C510.354 79.5818 510.442 76.4437 510.616 73.2185C510.79 69.9933 511.008 66.8116 511.27 63.6736C507.609 62.2789 503.773 61.5815 499.763 61.5815C495.056 61.5815 490.829 62.5404 487.08 64.4581C483.419 66.2886 480.543 68.8601 478.451 72.1725C476.359 75.4849 475.313 79.3203 475.313 83.6787C475.313 84.2017 475.313 84.7247 475.313 85.2477C475.313 85.7708 475.356 86.2502 475.443 86.686Z" stroke="white" stroke-width="20.4301" stroke-linejoin="round" mask="url(#path-1-outside-1_1774_7771)"/>
<path d="M570.644 122.204C567.332 122.204 564.586 121.463 562.407 119.981C560.228 118.499 558.615 116.582 557.569 114.228C556.523 111.874 556 109.434 556 106.906C556 102.112 557.525 98.4505 560.576 95.9226C563.627 93.3075 567.288 92 571.56 92C575.918 92 579.361 93.3075 581.889 95.9226C584.417 98.5376 585.681 102.024 585.681 106.383C585.681 111.962 584.155 115.971 581.104 118.412C578.141 120.94 574.654 122.204 570.644 122.204Z" stroke="white" stroke-width="20.4301" stroke-linejoin="round" mask="url(#path-1-outside-1_1774_7771)"/>
</svg>
