<svg width="539" height="135" viewBox="0 0 539 135" fill="none" xmlns="http://www.w3.org/2000/svg">
<g filter="url(#filter0_d_1246_7048)">
<mask id="path-1-outside-1_1246_7048" maskUnits="userSpaceOnUse" x="3" y="0" width="532" height="127" fill="black">
<rect fill="white" x="3" width="532" height="127"/>
<path d="M24.3426 114.614C24.2633 112.078 24.2237 109.503 24.2237 106.887C24.2237 104.351 24.2237 101.815 24.2237 99.2789C24.2237 87.6286 24.4614 76.335 24.937 65.3981C25.4125 54.3819 25.9673 43.8808 26.6013 33.8949C23.4311 34.6874 20.7762 35.4403 18.6363 36.1536L14 17.1328C17.8834 15.944 21.965 14.9137 26.2446 14.0419C30.6036 13.0909 34.8436 12.338 38.9648 11.7832C43.1652 11.1492 47.009 10.7133 50.4962 10.4755C54.0626 10.1585 56.9949 10 59.2933 10C61.7501 10 64.7618 10.1981 68.3282 10.5944C71.9738 10.9907 75.6987 11.8228 79.5029 13.0909C83.3863 14.2797 86.9923 16.1025 90.321 18.5594C93.6496 21.0162 96.3442 24.3449 98.4048 28.5453C100.545 32.6665 101.615 37.8575 101.615 44.1186C101.615 50.6173 100.188 56.0462 97.3349 60.4051C94.4818 64.6848 90.7172 68.1323 86.0413 70.7477C81.3653 73.2838 76.2139 75.1066 70.5869 76.2162C64.9599 77.3257 59.4122 77.8805 53.9437 77.8805C50.4565 77.8805 47.1279 77.722 43.9578 77.405C43.8785 81.2091 43.8389 84.9737 43.8389 88.6986C43.8389 93.7708 43.8785 98.4863 43.9578 102.845C44.037 107.125 44.1955 110.889 44.4333 114.139L24.3426 114.614ZM58.6989 29.4963C56.6383 29.4963 54.4985 29.5756 52.2794 29.7341C50.1395 29.8926 47.9997 30.0907 45.8598 30.3285C45.4636 34.5289 45.1466 39.086 44.9088 43.9997C44.671 48.9134 44.4729 53.946 44.3144 59.0974C47.2468 59.3352 50.298 59.4541 53.4682 59.4541C72.489 59.4541 81.9994 53.8271 81.9994 42.5731C81.9994 38.1349 80.0973 34.8459 76.2931 32.7061C72.489 30.5662 66.6242 29.4963 58.6989 29.4963Z"/>
<path d="M145.394 116.398C139.054 116.398 133.506 115.367 128.751 113.307C124.075 111.246 120.191 108.433 117.101 104.866C114.01 101.221 111.711 97.0598 110.205 92.3838C108.7 87.7079 107.947 82.7942 107.947 77.6427C107.947 72.412 108.858 67.5776 110.681 63.1394C112.583 58.6219 115.159 54.6989 118.408 51.3702C121.737 48.0416 125.62 45.4659 130.058 43.643C134.497 41.741 139.331 40.7899 144.562 40.7899C150.03 40.7899 155.103 41.741 159.778 43.643C164.454 45.5451 168.536 48.2001 172.023 51.608C175.51 55.0159 178.205 59.0182 180.107 63.6149C182.088 68.2116 183.079 73.2045 183.079 78.5938C183.079 90.561 179.79 99.8733 173.212 106.531C166.634 113.109 157.361 116.398 145.394 116.398ZM145.275 97.139C151.061 97.139 155.459 95.5143 158.471 92.265C161.562 89.0156 163.107 84.3396 163.107 78.2371C163.107 72.7686 161.443 68.3701 158.114 65.0414C154.785 61.7128 150.427 60.0485 145.037 60.0485C141.788 60.0485 138.816 60.9203 136.121 62.6638C133.427 64.3282 131.247 66.5869 129.583 69.44C127.998 72.2139 127.205 75.3047 127.205 78.7126C127.205 81.7243 127.8 84.6566 128.989 87.5098C130.257 90.3629 132.238 92.7009 134.933 94.5237C137.627 96.2673 141.075 97.139 145.275 97.139Z"/>
<path d="M190.971 115.209C190.733 108.235 190.535 101.775 190.376 95.8314C190.297 89.8874 190.257 84.0226 190.257 78.2371C190.257 72.4516 190.297 66.6661 190.376 60.8806C190.535 55.0159 190.772 48.7549 191.089 42.0976H211.18C210.863 45.664 210.586 49.27 210.348 52.9157C213.043 49.5078 216.252 46.6943 219.977 44.4752C223.702 42.1768 228.101 41.0277 233.173 41.0277C238.166 41.0277 242.247 41.8598 245.418 43.5242C248.667 45.1885 251.203 47.4868 253.026 50.4192C254.928 53.3516 256.275 56.7198 257.068 60.524C257.94 64.2489 258.494 68.2908 258.732 72.6498C258.97 76.9294 259.089 81.2487 259.089 85.6077C259.089 90.3629 259.01 94.92 258.851 99.2789C258.693 103.638 258.534 107.283 258.375 110.216C258.217 113.148 258.098 114.892 258.019 115.447H238.047C238.206 112.197 238.364 108.75 238.523 105.104C238.681 101.379 238.84 97.7334 238.998 94.167C239.157 90.5214 239.236 87.2324 239.236 84.3C239.236 67.419 236.502 58.9786 231.033 58.9786C226.516 58.9786 222.394 60.9599 218.67 64.9226C215.024 68.806 211.973 73.7197 209.516 79.6637C209.516 80.4562 209.516 81.2487 209.516 82.0413C209.516 85.8454 209.516 89.8081 209.516 93.9293C209.595 97.9712 209.674 101.855 209.754 105.58C209.912 109.225 210.031 112.395 210.11 115.09L190.971 115.209Z"/>
<path d="M303.991 116.041C299.236 116.041 295.471 115.011 292.697 112.95C289.924 110.969 287.903 108.195 286.635 104.628C285.367 101.062 284.534 96.9805 284.138 92.3838C283.821 87.7871 283.663 82.9527 283.663 77.8805C283.663 72.6498 283.861 67.2209 284.257 61.5939C278.947 62.3072 273.835 63.2186 268.921 64.3282L265.236 45.664C271.814 43.9204 278.828 42.6524 286.278 41.8598C286.833 37.8179 287.427 33.5779 288.061 29.1397C288.695 24.6222 289.408 19.867 290.201 14.8741L310.648 16.6573C309.697 20.7785 308.865 24.8996 308.152 29.0208C307.439 33.0627 306.805 36.9858 306.25 40.7899C310.688 40.7899 314.849 40.9088 318.732 41.1466C322.695 41.3051 326.34 41.6221 329.669 42.0976L327.292 60.7618C324.518 60.4447 321.625 60.2466 318.613 60.1674C315.681 60.0089 312.709 59.9296 309.697 59.9296C307.874 59.9296 306.052 59.9692 304.229 60.0485C303.753 65.834 303.436 70.7873 303.278 74.9085C303.199 79.0297 303.159 81.962 303.159 83.7056C303.159 88.0645 303.397 91.195 303.872 93.0971C304.427 94.9992 305.299 95.9502 306.488 95.9502C307.835 95.9502 309.341 95.5144 311.005 94.6426C312.669 93.6915 314.294 92.4235 315.879 90.8384C317.543 89.2533 318.93 87.5494 320.04 85.7266L329.194 104.866C321.348 112.316 312.947 116.041 303.991 116.041Z"/>
<path d="M371.624 116.16C364.015 116.16 357.318 114.654 351.533 111.642C345.827 108.71 341.349 104.589 338.099 99.2789C334.929 93.9689 333.344 87.8268 333.344 80.8525C333.344 76.6521 334.057 72.2535 335.484 67.6568C336.911 62.9809 339.209 58.6219 342.379 54.58C345.549 50.5381 349.71 47.2491 354.861 44.713C360.092 42.1768 366.432 40.9088 373.882 40.9088C379.272 40.9088 383.789 41.5032 387.435 42.692C391.16 43.8808 394.171 45.4262 396.469 47.3283C398.847 49.2304 400.63 51.2514 401.819 53.3912C403.087 55.531 403.919 57.5916 404.316 59.573C404.791 61.475 405.029 63.0601 405.029 64.3282C405.029 72.0157 401.779 77.9597 395.281 82.1602C388.861 86.2813 379.747 88.3419 367.938 88.3419C365.244 88.3419 362.668 88.223 360.211 87.9853C357.833 87.7475 355.614 87.4701 353.554 87.1531C355.06 91.1158 357.556 94.0482 361.043 95.9502C364.53 97.7731 368.136 98.6845 371.861 98.6845C377.251 98.6845 382.006 97.7334 386.127 95.8314C390.248 93.85 394.132 90.8384 397.777 86.7965L408.357 102.013C405.821 104.074 402.968 106.214 399.798 108.433C396.707 110.652 392.903 112.475 388.386 113.901C383.868 115.407 378.281 116.16 371.624 116.16ZM374.239 58.7408C369.563 58.7408 365.442 59.9296 361.875 62.3072C358.309 64.6848 355.694 67.8153 354.029 71.6987C356.011 72.0157 357.952 72.2931 359.854 72.5309C361.836 72.6894 363.777 72.7686 365.68 72.7686C367.423 72.7686 369.404 72.6101 371.624 72.2931C373.922 71.9761 376.141 71.5006 378.281 70.8666C380.5 70.2325 382.323 69.44 383.749 68.489C385.176 67.4587 385.889 66.2699 385.889 64.9226C385.889 64.2885 385.572 63.496 384.938 62.545C384.304 61.5939 383.155 60.7221 381.491 59.9296C379.826 59.1371 377.409 58.7408 374.239 58.7408Z"/>
<path d="M445.029 116.041C439.085 116.041 433.696 114.496 428.861 111.405C424.027 108.393 420.183 104.311 417.33 99.16C414.556 93.9293 413.169 88.1042 413.169 81.6846C413.169 75.6614 414.279 70.2325 416.498 65.3981C418.717 60.4844 421.729 56.284 425.533 52.7968C429.416 49.3097 433.815 46.6547 438.729 44.8318C443.642 42.9298 448.794 41.9787 454.183 41.9787C458.7 41.9787 463.139 42.6127 467.497 43.8808C467.814 42.2165 468.092 40.5522 468.33 38.8878L488.658 42.3354C488.103 43.8412 487.549 46.0999 486.994 49.1115C486.439 52.1231 485.964 55.4914 485.567 59.2163C485.25 62.9412 484.973 66.6661 484.735 70.391C484.497 74.1159 484.378 77.4842 484.378 80.4958C484.378 82.9527 484.537 85.3699 484.854 87.7475C485.25 90.0459 486.043 91.948 487.232 93.4538C488.42 94.8803 490.243 95.5936 492.7 95.5936H494.364L491.392 116.279C486.162 116.279 481.842 115.367 478.434 113.544C475.027 111.801 472.292 109.423 470.232 106.412C466.824 110.216 462.94 112.752 458.581 114.02C454.223 115.367 449.705 116.041 445.029 116.041ZM432.666 84.0622C433.062 87.8664 434.607 90.9177 437.302 93.216C440.076 95.4351 443.563 96.5446 447.763 96.5446C451.805 96.5446 455.174 95.4747 457.868 93.3349C460.563 91.1158 462.782 88.1042 464.525 84.3C464.446 83.032 464.407 81.7243 464.407 80.377C464.407 77.6031 464.486 74.75 464.644 71.8176C464.803 68.8852 465.001 65.9925 465.239 63.1394C461.91 61.8713 458.423 61.2373 454.777 61.2373C450.498 61.2373 446.654 62.1091 443.246 63.8526C439.917 65.517 437.302 67.8549 435.4 70.8666C433.498 73.8782 432.547 77.3653 432.547 81.328C432.547 81.8035 432.547 82.279 432.547 82.7546C432.547 83.2301 432.586 83.666 432.666 84.0622Z"/>
<path d="M510.831 116.279C507.819 116.279 505.323 115.605 503.342 114.258C501.36 112.91 499.894 111.167 498.943 109.027C497.992 106.887 497.517 104.668 497.517 102.37C497.517 98.0108 498.903 94.6822 501.677 92.3838C504.451 90.0062 507.78 88.8174 511.663 88.8174C515.626 88.8174 518.756 90.0062 521.055 92.3838C523.353 94.7614 524.502 97.9316 524.502 101.894C524.502 106.966 523.115 110.612 520.341 112.831C517.647 115.13 514.477 116.279 510.831 116.279Z"/>
</mask>
<path d="M24.3426 114.614C24.2633 112.078 24.2237 109.503 24.2237 106.887C24.2237 104.351 24.2237 101.815 24.2237 99.2789C24.2237 87.6286 24.4614 76.335 24.937 65.3981C25.4125 54.3819 25.9673 43.8808 26.6013 33.8949C23.4311 34.6874 20.7762 35.4403 18.6363 36.1536L14 17.1328C17.8834 15.944 21.965 14.9137 26.2446 14.0419C30.6036 13.0909 34.8436 12.338 38.9648 11.7832C43.1652 11.1492 47.009 10.7133 50.4962 10.4755C54.0626 10.1585 56.9949 10 59.2933 10C61.7501 10 64.7618 10.1981 68.3282 10.5944C71.9738 10.9907 75.6987 11.8228 79.5029 13.0909C83.3863 14.2797 86.9923 16.1025 90.321 18.5594C93.6496 21.0162 96.3442 24.3449 98.4048 28.5453C100.545 32.6665 101.615 37.8575 101.615 44.1186C101.615 50.6173 100.188 56.0462 97.3349 60.4051C94.4818 64.6848 90.7172 68.1323 86.0413 70.7477C81.3653 73.2838 76.2139 75.1066 70.5869 76.2162C64.9599 77.3257 59.4122 77.8805 53.9437 77.8805C50.4565 77.8805 47.1279 77.722 43.9578 77.405C43.8785 81.2091 43.8389 84.9737 43.8389 88.6986C43.8389 93.7708 43.8785 98.4863 43.9578 102.845C44.037 107.125 44.1955 110.889 44.4333 114.139L24.3426 114.614ZM58.6989 29.4963C56.6383 29.4963 54.4985 29.5756 52.2794 29.7341C50.1395 29.8926 47.9997 30.0907 45.8598 30.3285C45.4636 34.5289 45.1466 39.086 44.9088 43.9997C44.671 48.9134 44.4729 53.946 44.3144 59.0974C47.2468 59.3352 50.298 59.4541 53.4682 59.4541C72.489 59.4541 81.9994 53.8271 81.9994 42.5731C81.9994 38.1349 80.0973 34.8459 76.2931 32.7061C72.489 30.5662 66.6242 29.4963 58.6989 29.4963Z" fill="#144EC0"/>
<path d="M145.394 116.398C139.054 116.398 133.506 115.367 128.751 113.307C124.075 111.246 120.191 108.433 117.101 104.866C114.01 101.221 111.711 97.0598 110.205 92.3838C108.7 87.7079 107.947 82.7942 107.947 77.6427C107.947 72.412 108.858 67.5776 110.681 63.1394C112.583 58.6219 115.159 54.6989 118.408 51.3702C121.737 48.0416 125.62 45.4659 130.058 43.643C134.497 41.741 139.331 40.7899 144.562 40.7899C150.03 40.7899 155.103 41.741 159.778 43.643C164.454 45.5451 168.536 48.2001 172.023 51.608C175.51 55.0159 178.205 59.0182 180.107 63.6149C182.088 68.2116 183.079 73.2045 183.079 78.5938C183.079 90.561 179.79 99.8733 173.212 106.531C166.634 113.109 157.361 116.398 145.394 116.398ZM145.275 97.139C151.061 97.139 155.459 95.5143 158.471 92.265C161.562 89.0156 163.107 84.3396 163.107 78.2371C163.107 72.7686 161.443 68.3701 158.114 65.0414C154.785 61.7128 150.427 60.0485 145.037 60.0485C141.788 60.0485 138.816 60.9203 136.121 62.6638C133.427 64.3282 131.247 66.5869 129.583 69.44C127.998 72.2139 127.205 75.3047 127.205 78.7126C127.205 81.7243 127.8 84.6566 128.989 87.5098C130.257 90.3629 132.238 92.7009 134.933 94.5237C137.627 96.2673 141.075 97.139 145.275 97.139Z" fill="#144EC0"/>
<path d="M190.971 115.209C190.733 108.235 190.535 101.775 190.376 95.8314C190.297 89.8874 190.257 84.0226 190.257 78.2371C190.257 72.4516 190.297 66.6661 190.376 60.8806C190.535 55.0159 190.772 48.7549 191.089 42.0976H211.18C210.863 45.664 210.586 49.27 210.348 52.9157C213.043 49.5078 216.252 46.6943 219.977 44.4752C223.702 42.1768 228.101 41.0277 233.173 41.0277C238.166 41.0277 242.247 41.8598 245.418 43.5242C248.667 45.1885 251.203 47.4868 253.026 50.4192C254.928 53.3516 256.275 56.7198 257.068 60.524C257.94 64.2489 258.494 68.2908 258.732 72.6498C258.97 76.9294 259.089 81.2487 259.089 85.6077C259.089 90.3629 259.01 94.92 258.851 99.2789C258.693 103.638 258.534 107.283 258.375 110.216C258.217 113.148 258.098 114.892 258.019 115.447H238.047C238.206 112.197 238.364 108.75 238.523 105.104C238.681 101.379 238.84 97.7334 238.998 94.167C239.157 90.5214 239.236 87.2324 239.236 84.3C239.236 67.419 236.502 58.9786 231.033 58.9786C226.516 58.9786 222.394 60.9599 218.67 64.9226C215.024 68.806 211.973 73.7197 209.516 79.6637C209.516 80.4562 209.516 81.2487 209.516 82.0413C209.516 85.8454 209.516 89.8081 209.516 93.9293C209.595 97.9712 209.674 101.855 209.754 105.58C209.912 109.225 210.031 112.395 210.11 115.09L190.971 115.209Z" fill="#144EC0"/>
<path d="M303.991 116.041C299.236 116.041 295.471 115.011 292.697 112.95C289.924 110.969 287.903 108.195 286.635 104.628C285.367 101.062 284.534 96.9805 284.138 92.3838C283.821 87.7871 283.663 82.9527 283.663 77.8805C283.663 72.6498 283.861 67.2209 284.257 61.5939C278.947 62.3072 273.835 63.2186 268.921 64.3282L265.236 45.664C271.814 43.9204 278.828 42.6524 286.278 41.8598C286.833 37.8179 287.427 33.5779 288.061 29.1397C288.695 24.6222 289.408 19.867 290.201 14.8741L310.648 16.6573C309.697 20.7785 308.865 24.8996 308.152 29.0208C307.439 33.0627 306.805 36.9858 306.25 40.7899C310.688 40.7899 314.849 40.9088 318.732 41.1466C322.695 41.3051 326.34 41.6221 329.669 42.0976L327.292 60.7618C324.518 60.4447 321.625 60.2466 318.613 60.1674C315.681 60.0089 312.709 59.9296 309.697 59.9296C307.874 59.9296 306.052 59.9692 304.229 60.0485C303.753 65.834 303.436 70.7873 303.278 74.9085C303.199 79.0297 303.159 81.962 303.159 83.7056C303.159 88.0645 303.397 91.195 303.872 93.0971C304.427 94.9992 305.299 95.9502 306.488 95.9502C307.835 95.9502 309.341 95.5144 311.005 94.6426C312.669 93.6915 314.294 92.4235 315.879 90.8384C317.543 89.2533 318.93 87.5494 320.04 85.7266L329.194 104.866C321.348 112.316 312.947 116.041 303.991 116.041Z" fill="#FD5723"/>
<path d="M371.624 116.16C364.015 116.16 357.318 114.654 351.533 111.642C345.827 108.71 341.349 104.589 338.099 99.2789C334.929 93.9689 333.344 87.8268 333.344 80.8525C333.344 76.6521 334.057 72.2535 335.484 67.6568C336.911 62.9809 339.209 58.6219 342.379 54.58C345.549 50.5381 349.71 47.2491 354.861 44.713C360.092 42.1768 366.432 40.9088 373.882 40.9088C379.272 40.9088 383.789 41.5032 387.435 42.692C391.16 43.8808 394.171 45.4262 396.469 47.3283C398.847 49.2304 400.63 51.2514 401.819 53.3912C403.087 55.531 403.919 57.5916 404.316 59.573C404.791 61.475 405.029 63.0601 405.029 64.3282C405.029 72.0157 401.779 77.9597 395.281 82.1602C388.861 86.2813 379.747 88.3419 367.938 88.3419C365.244 88.3419 362.668 88.223 360.211 87.9853C357.833 87.7475 355.614 87.4701 353.554 87.1531C355.06 91.1158 357.556 94.0482 361.043 95.9502C364.53 97.7731 368.136 98.6845 371.861 98.6845C377.251 98.6845 382.006 97.7334 386.127 95.8314C390.248 93.85 394.132 90.8384 397.777 86.7965L408.357 102.013C405.821 104.074 402.968 106.214 399.798 108.433C396.707 110.652 392.903 112.475 388.386 113.901C383.868 115.407 378.281 116.16 371.624 116.16ZM374.239 58.7408C369.563 58.7408 365.442 59.9296 361.875 62.3072C358.309 64.6848 355.694 67.8153 354.029 71.6987C356.011 72.0157 357.952 72.2931 359.854 72.5309C361.836 72.6894 363.777 72.7686 365.68 72.7686C367.423 72.7686 369.404 72.6101 371.624 72.2931C373.922 71.9761 376.141 71.5006 378.281 70.8666C380.5 70.2325 382.323 69.44 383.749 68.489C385.176 67.4587 385.889 66.2699 385.889 64.9226C385.889 64.2885 385.572 63.496 384.938 62.545C384.304 61.5939 383.155 60.7221 381.491 59.9296C379.826 59.1371 377.409 58.7408 374.239 58.7408Z" fill="#8CC640"/>
<path d="M445.029 116.041C439.085 116.041 433.696 114.496 428.861 111.405C424.027 108.393 420.183 104.311 417.33 99.16C414.556 93.9293 413.169 88.1042 413.169 81.6846C413.169 75.6614 414.279 70.2325 416.498 65.3981C418.717 60.4844 421.729 56.284 425.533 52.7968C429.416 49.3097 433.815 46.6547 438.729 44.8318C443.642 42.9298 448.794 41.9787 454.183 41.9787C458.7 41.9787 463.139 42.6127 467.497 43.8808C467.814 42.2165 468.092 40.5522 468.33 38.8878L488.658 42.3354C488.103 43.8412 487.549 46.0999 486.994 49.1115C486.439 52.1231 485.964 55.4914 485.567 59.2163C485.25 62.9412 484.973 66.6661 484.735 70.391C484.497 74.1159 484.378 77.4842 484.378 80.4958C484.378 82.9527 484.537 85.3699 484.854 87.7475C485.25 90.0459 486.043 91.948 487.232 93.4538C488.42 94.8803 490.243 95.5936 492.7 95.5936H494.364L491.392 116.279C486.162 116.279 481.842 115.367 478.434 113.544C475.027 111.801 472.292 109.423 470.232 106.412C466.824 110.216 462.94 112.752 458.581 114.02C454.223 115.367 449.705 116.041 445.029 116.041ZM432.666 84.0622C433.062 87.8664 434.607 90.9177 437.302 93.216C440.076 95.4351 443.563 96.5446 447.763 96.5446C451.805 96.5446 455.174 95.4747 457.868 93.3349C460.563 91.1158 462.782 88.1042 464.525 84.3C464.446 83.032 464.407 81.7243 464.407 80.377C464.407 77.6031 464.486 74.75 464.644 71.8176C464.803 68.8852 465.001 65.9925 465.239 63.1394C461.91 61.8713 458.423 61.2373 454.777 61.2373C450.498 61.2373 446.654 62.1091 443.246 63.8526C439.917 65.517 437.302 67.8549 435.4 70.8666C433.498 73.8782 432.547 77.3653 432.547 81.328C432.547 81.8035 432.547 82.279 432.547 82.7546C432.547 83.2301 432.586 83.666 432.666 84.0622Z" fill="#FECE25"/>
<path d="M510.831 116.279C507.819 116.279 505.323 115.605 503.342 114.258C501.36 112.91 499.894 111.167 498.943 109.027C497.992 106.887 497.517 104.668 497.517 102.37C497.517 98.0108 498.903 94.6822 501.677 92.3838C504.451 90.0062 507.78 88.8174 511.663 88.8174C515.626 88.8174 518.756 90.0062 521.055 92.3838C523.353 94.7614 524.502 97.9316 524.502 101.894C524.502 106.966 523.115 110.612 520.341 112.831C517.647 115.13 514.477 116.279 510.831 116.279Z" fill="#14A5C0"/>
<path d="M24.3426 114.614C24.2633 112.078 24.2237 109.503 24.2237 106.887C24.2237 104.351 24.2237 101.815 24.2237 99.2789C24.2237 87.6286 24.4614 76.335 24.937 65.3981C25.4125 54.3819 25.9673 43.8808 26.6013 33.8949C23.4311 34.6874 20.7762 35.4403 18.6363 36.1536L14 17.1328C17.8834 15.944 21.965 14.9137 26.2446 14.0419C30.6036 13.0909 34.8436 12.338 38.9648 11.7832C43.1652 11.1492 47.009 10.7133 50.4962 10.4755C54.0626 10.1585 56.9949 10 59.2933 10C61.7501 10 64.7618 10.1981 68.3282 10.5944C71.9738 10.9907 75.6987 11.8228 79.5029 13.0909C83.3863 14.2797 86.9923 16.1025 90.321 18.5594C93.6496 21.0162 96.3442 24.3449 98.4048 28.5453C100.545 32.6665 101.615 37.8575 101.615 44.1186C101.615 50.6173 100.188 56.0462 97.3349 60.4051C94.4818 64.6848 90.7172 68.1323 86.0413 70.7477C81.3653 73.2838 76.2139 75.1066 70.5869 76.2162C64.9599 77.3257 59.4122 77.8805 53.9437 77.8805C50.4565 77.8805 47.1279 77.722 43.9578 77.405C43.8785 81.2091 43.8389 84.9737 43.8389 88.6986C43.8389 93.7708 43.8785 98.4863 43.9578 102.845C44.037 107.125 44.1955 110.889 44.4333 114.139L24.3426 114.614ZM58.6989 29.4963C56.6383 29.4963 54.4985 29.5756 52.2794 29.7341C50.1395 29.8926 47.9997 30.0907 45.8598 30.3285C45.4636 34.5289 45.1466 39.086 44.9088 43.9997C44.671 48.9134 44.4729 53.946 44.3144 59.0974C47.2468 59.3352 50.298 59.4541 53.4682 59.4541C72.489 59.4541 81.9994 53.8271 81.9994 42.5731C81.9994 38.1349 80.0973 34.8459 76.2931 32.7061C72.489 30.5662 66.6242 29.4963 58.6989 29.4963Z" stroke="white" stroke-width="20" stroke-linejoin="round" mask="url(#path-1-outside-1_1246_7048)"/>
<path d="M145.394 116.398C139.054 116.398 133.506 115.367 128.751 113.307C124.075 111.246 120.191 108.433 117.101 104.866C114.01 101.221 111.711 97.0598 110.205 92.3838C108.7 87.7079 107.947 82.7942 107.947 77.6427C107.947 72.412 108.858 67.5776 110.681 63.1394C112.583 58.6219 115.159 54.6989 118.408 51.3702C121.737 48.0416 125.62 45.4659 130.058 43.643C134.497 41.741 139.331 40.7899 144.562 40.7899C150.03 40.7899 155.103 41.741 159.778 43.643C164.454 45.5451 168.536 48.2001 172.023 51.608C175.51 55.0159 178.205 59.0182 180.107 63.6149C182.088 68.2116 183.079 73.2045 183.079 78.5938C183.079 90.561 179.79 99.8733 173.212 106.531C166.634 113.109 157.361 116.398 145.394 116.398ZM145.275 97.139C151.061 97.139 155.459 95.5143 158.471 92.265C161.562 89.0156 163.107 84.3396 163.107 78.2371C163.107 72.7686 161.443 68.3701 158.114 65.0414C154.785 61.7128 150.427 60.0485 145.037 60.0485C141.788 60.0485 138.816 60.9203 136.121 62.6638C133.427 64.3282 131.247 66.5869 129.583 69.44C127.998 72.2139 127.205 75.3047 127.205 78.7126C127.205 81.7243 127.8 84.6566 128.989 87.5098C130.257 90.3629 132.238 92.7009 134.933 94.5237C137.627 96.2673 141.075 97.139 145.275 97.139Z" stroke="white" stroke-width="20" stroke-linejoin="round" mask="url(#path-1-outside-1_1246_7048)"/>
<path d="M190.971 115.209C190.733 108.235 190.535 101.775 190.376 95.8314C190.297 89.8874 190.257 84.0226 190.257 78.2371C190.257 72.4516 190.297 66.6661 190.376 60.8806C190.535 55.0159 190.772 48.7549 191.089 42.0976H211.18C210.863 45.664 210.586 49.27 210.348 52.9157C213.043 49.5078 216.252 46.6943 219.977 44.4752C223.702 42.1768 228.101 41.0277 233.173 41.0277C238.166 41.0277 242.247 41.8598 245.418 43.5242C248.667 45.1885 251.203 47.4868 253.026 50.4192C254.928 53.3516 256.275 56.7198 257.068 60.524C257.94 64.2489 258.494 68.2908 258.732 72.6498C258.97 76.9294 259.089 81.2487 259.089 85.6077C259.089 90.3629 259.01 94.92 258.851 99.2789C258.693 103.638 258.534 107.283 258.375 110.216C258.217 113.148 258.098 114.892 258.019 115.447H238.047C238.206 112.197 238.364 108.75 238.523 105.104C238.681 101.379 238.84 97.7334 238.998 94.167C239.157 90.5214 239.236 87.2324 239.236 84.3C239.236 67.419 236.502 58.9786 231.033 58.9786C226.516 58.9786 222.394 60.9599 218.67 64.9226C215.024 68.806 211.973 73.7197 209.516 79.6637C209.516 80.4562 209.516 81.2487 209.516 82.0413C209.516 85.8454 209.516 89.8081 209.516 93.9293C209.595 97.9712 209.674 101.855 209.754 105.58C209.912 109.225 210.031 112.395 210.11 115.09L190.971 115.209Z" stroke="white" stroke-width="20" stroke-linejoin="round" mask="url(#path-1-outside-1_1246_7048)"/>
<path d="M303.991 116.041C299.236 116.041 295.471 115.011 292.697 112.95C289.924 110.969 287.903 108.195 286.635 104.628C285.367 101.062 284.534 96.9805 284.138 92.3838C283.821 87.7871 283.663 82.9527 283.663 77.8805C283.663 72.6498 283.861 67.2209 284.257 61.5939C278.947 62.3072 273.835 63.2186 268.921 64.3282L265.236 45.664C271.814 43.9204 278.828 42.6524 286.278 41.8598C286.833 37.8179 287.427 33.5779 288.061 29.1397C288.695 24.6222 289.408 19.867 290.201 14.8741L310.648 16.6573C309.697 20.7785 308.865 24.8996 308.152 29.0208C307.439 33.0627 306.805 36.9858 306.25 40.7899C310.688 40.7899 314.849 40.9088 318.732 41.1466C322.695 41.3051 326.34 41.6221 329.669 42.0976L327.292 60.7618C324.518 60.4447 321.625 60.2466 318.613 60.1674C315.681 60.0089 312.709 59.9296 309.697 59.9296C307.874 59.9296 306.052 59.9692 304.229 60.0485C303.753 65.834 303.436 70.7873 303.278 74.9085C303.199 79.0297 303.159 81.962 303.159 83.7056C303.159 88.0645 303.397 91.195 303.872 93.0971C304.427 94.9992 305.299 95.9502 306.488 95.9502C307.835 95.9502 309.341 95.5144 311.005 94.6426C312.669 93.6915 314.294 92.4235 315.879 90.8384C317.543 89.2533 318.93 87.5494 320.04 85.7266L329.194 104.866C321.348 112.316 312.947 116.041 303.991 116.041Z" stroke="white" stroke-width="20" stroke-linejoin="round" mask="url(#path-1-outside-1_1246_7048)"/>
<path d="M371.624 116.16C364.015 116.16 357.318 114.654 351.533 111.642C345.827 108.71 341.349 104.589 338.099 99.2789C334.929 93.9689 333.344 87.8268 333.344 80.8525C333.344 76.6521 334.057 72.2535 335.484 67.6568C336.911 62.9809 339.209 58.6219 342.379 54.58C345.549 50.5381 349.71 47.2491 354.861 44.713C360.092 42.1768 366.432 40.9088 373.882 40.9088C379.272 40.9088 383.789 41.5032 387.435 42.692C391.16 43.8808 394.171 45.4262 396.469 47.3283C398.847 49.2304 400.63 51.2514 401.819 53.3912C403.087 55.531 403.919 57.5916 404.316 59.573C404.791 61.475 405.029 63.0601 405.029 64.3282C405.029 72.0157 401.779 77.9597 395.281 82.1602C388.861 86.2813 379.747 88.3419 367.938 88.3419C365.244 88.3419 362.668 88.223 360.211 87.9853C357.833 87.7475 355.614 87.4701 353.554 87.1531C355.06 91.1158 357.556 94.0482 361.043 95.9502C364.53 97.7731 368.136 98.6845 371.861 98.6845C377.251 98.6845 382.006 97.7334 386.127 95.8314C390.248 93.85 394.132 90.8384 397.777 86.7965L408.357 102.013C405.821 104.074 402.968 106.214 399.798 108.433C396.707 110.652 392.903 112.475 388.386 113.901C383.868 115.407 378.281 116.16 371.624 116.16ZM374.239 58.7408C369.563 58.7408 365.442 59.9296 361.875 62.3072C358.309 64.6848 355.694 67.8153 354.029 71.6987C356.011 72.0157 357.952 72.2931 359.854 72.5309C361.836 72.6894 363.777 72.7686 365.68 72.7686C367.423 72.7686 369.404 72.6101 371.624 72.2931C373.922 71.9761 376.141 71.5006 378.281 70.8666C380.5 70.2325 382.323 69.44 383.749 68.489C385.176 67.4587 385.889 66.2699 385.889 64.9226C385.889 64.2885 385.572 63.496 384.938 62.545C384.304 61.5939 383.155 60.7221 381.491 59.9296C379.826 59.1371 377.409 58.7408 374.239 58.7408Z" stroke="white" stroke-width="20" stroke-linejoin="round" mask="url(#path-1-outside-1_1246_7048)"/>
<path d="M445.029 116.041C439.085 116.041 433.696 114.496 428.861 111.405C424.027 108.393 420.183 104.311 417.33 99.16C414.556 93.9293 413.169 88.1042 413.169 81.6846C413.169 75.6614 414.279 70.2325 416.498 65.3981C418.717 60.4844 421.729 56.284 425.533 52.7968C429.416 49.3097 433.815 46.6547 438.729 44.8318C443.642 42.9298 448.794 41.9787 454.183 41.9787C458.7 41.9787 463.139 42.6127 467.497 43.8808C467.814 42.2165 468.092 40.5522 468.33 38.8878L488.658 42.3354C488.103 43.8412 487.549 46.0999 486.994 49.1115C486.439 52.1231 485.964 55.4914 485.567 59.2163C485.25 62.9412 484.973 66.6661 484.735 70.391C484.497 74.1159 484.378 77.4842 484.378 80.4958C484.378 82.9527 484.537 85.3699 484.854 87.7475C485.25 90.0459 486.043 91.948 487.232 93.4538C488.42 94.8803 490.243 95.5936 492.7 95.5936H494.364L491.392 116.279C486.162 116.279 481.842 115.367 478.434 113.544C475.027 111.801 472.292 109.423 470.232 106.412C466.824 110.216 462.94 112.752 458.581 114.02C454.223 115.367 449.705 116.041 445.029 116.041ZM432.666 84.0622C433.062 87.8664 434.607 90.9177 437.302 93.216C440.076 95.4351 443.563 96.5446 447.763 96.5446C451.805 96.5446 455.174 95.4747 457.868 93.3349C460.563 91.1158 462.782 88.1042 464.525 84.3C464.446 83.032 464.407 81.7243 464.407 80.377C464.407 77.6031 464.486 74.75 464.644 71.8176C464.803 68.8852 465.001 65.9925 465.239 63.1394C461.91 61.8713 458.423 61.2373 454.777 61.2373C450.498 61.2373 446.654 62.1091 443.246 63.8526C439.917 65.517 437.302 67.8549 435.4 70.8666C433.498 73.8782 432.547 77.3653 432.547 81.328C432.547 81.8035 432.547 82.279 432.547 82.7546C432.547 83.2301 432.586 83.666 432.666 84.0622Z" stroke="white" stroke-width="20" stroke-linejoin="round" mask="url(#path-1-outside-1_1246_7048)"/>
<path d="M510.831 116.279C507.819 116.279 505.323 115.605 503.342 114.258C501.36 112.91 499.894 111.167 498.943 109.027C497.992 106.887 497.517 104.668 497.517 102.37C497.517 98.0108 498.903 94.6822 501.677 92.3838C504.451 90.0062 507.78 88.8174 511.663 88.8174C515.626 88.8174 518.756 90.0062 521.055 92.3838C523.353 94.7614 524.502 97.9316 524.502 101.894C524.502 106.966 523.115 110.612 520.341 112.831C517.647 115.13 514.477 116.279 510.831 116.279Z" stroke="white" stroke-width="20" stroke-linejoin="round" mask="url(#path-1-outside-1_1246_7048)"/>
</g>
<defs>
<filter id="filter0_d_1246_7048" x="0" y="0" width="538.504" height="134.398" filterUnits="userSpaceOnUse" color-interpolation-filters="sRGB">
<feFlood flood-opacity="0" result="BackgroundImageFix"/>
<feColorMatrix in="SourceAlpha" type="matrix" values="0 0 0 0 0 0 0 0 0 0 0 0 0 0 0 0 0 0 127 0" result="hardAlpha"/>
<feOffset dy="4"/>
<feGaussianBlur stdDeviation="2"/>
<feComposite in2="hardAlpha" operator="out"/>
<feColorMatrix type="matrix" values="0 0 0 0 0 0 0 0 0 0 0 0 0 0 0 0 0 0 0.25 0"/>
<feBlend mode="normal" in2="BackgroundImageFix" result="effect1_dropShadow_1246_7048"/>
<feBlend mode="normal" in="SourceGraphic" in2="effect1_dropShadow_1246_7048" result="shape"/>
</filter>
</defs>
</svg>
