<svg width="104" height="195" viewBox="0 0 104 195" fill="none" xmlns="http://www.w3.org/2000/svg">
<g clip-path="url(#clip0_562_3129)">
<path d="M92.1438 132.969C92.1438 132.969 94.3789 143.486 95.9157 148.535C98.057 155.571 103.63 163.328 102.976 170.653C102.624 174.597 99.2877 176.381 97.6251 179.351C96.9358 180.583 95.0513 184.535 93.4259 185.646C90.4637 187.671 83.6711 187.134 83.6711 187.134L15.3876 180.496C15.3876 180.496 7.92229 181.199 5.61427 179.895C2.91887 178.372 0.0252228 174.899 0.0772705 172.255C0.265068 162.718 -0.495216 153.643 1.0063 146.074C2.46794 138.707 7.76164 128.431 10.3432 123.458C11.4042 121.413 11.8202 120.637 11.8202 120.637L31.2926 124.157L82.4448 135.001L92.1438 132.969Z" fill="#D23402"/>
<path d="M66.481 101.453C66.481 101.453 77.9534 106.098 82.4417 110.724C92.1085 120.687 92.7539 135.589 92.7539 135.589C92.7539 135.589 84.9669 138.155 83.4079 142.685C81.1088 149.364 82.4193 155.467 82.516 161.483C82.6574 170.271 84.8943 186.892 84.8943 186.892C61.1313 204.224 10.0144 185.436 13.6194 178.794L22.6495 154.015C22.6495 154.015 26.3378 134.167 22.2965 126.948C19.5876 122.108 11.5541 121.315 11.5541 121.315C11.5541 121.315 15.8901 108.897 17.1868 105.459C18.9618 100.754 31.2152 99.9082 31.2152 99.9082L48.0677 110.295L66.481 101.453Z" fill="#FD5723"/>
<path d="M68.3574 101.682L62.8576 98.9356C62.8576 98.9356 56.2886 106.273 51.3562 106.432C44.6189 106.65 33.6118 96.7324 33.6118 96.7324L28.1491 98.7926C28.1491 98.7926 41.7252 112.533 50.4829 112.584C56.8045 112.621 68.3574 101.682 68.3574 101.682Z" fill="#D23402"/>
<path d="M44.1675 0.0437376C28.0148 -0.789917 6.25163 10.3809 5.08598 26.0912C3.23343 51.0591 10.0518 97.3437 10.0518 97.3437C10.0518 97.3437 17.7886 99.448 22.1677 98.288C29.6675 96.3014 39.5455 99.9417 39.5455 99.9417L37.7729 96.9761L89.252 95.6179C89.252 95.6179 83.4067 85.8307 82.4315 80.8529C79.4049 65.4029 82.3143 35.1959 82.3143 35.1959C82.3143 35.1959 84.9819 31.0563 84.2854 25.9865C83.7165 21.8465 82.6556 18.4837 80.0638 15.7869C68.5761 3.83405 61.8316 0.955403 44.1675 0.0437376Z" fill="#784421"/>
<path d="M24.638 67.4694C24.638 67.4694 24.6496 77.8097 26.1162 82.6925C29.4017 93.6315 34.499 98.0079 34.499 98.0079C34.499 98.0079 59.2739 100.118 71.4395 99.4594C77.6687 99.1221 89.6504 96.0253 89.6504 96.0253C89.6504 96.0253 82.0531 82.5054 81.5511 75.8287C80.2427 58.4253 82.2507 35.4041 82.2507 35.4041C82.2507 35.4041 82.3139 29.6428 70.3222 26.3072C49.572 20.5355 24.638 67.4694 24.638 67.4694Z" fill="#552200"/>
<path d="M63.6971 83.878C61.465 86.6153 60.0481 92.0995 60.0497 94.5561C60.0519 98.0243 62.9726 100.629 62.9726 100.629C62.9726 100.629 54.2715 108.337 49.0099 107.671C40.6492 106.611 33.7542 97.2116 33.7542 97.2116C33.7542 97.2116 36.9105 98.6334 39.5839 89.9734C40.617 86.6267 39.1937 78.2529 39.1937 78.2529C34.2407 71.493 68.9931 77.3833 63.6971 83.878Z" fill="#FFB380"/>
<path d="M63.0801 84.2729L42.806 80.3477L60.335 92.3348L63.0801 84.2729Z" fill="#2B1100"/>
<path d="M71.514 26.392C71.514 26.392 79.2547 38.9696 82.5001 45.9021C85.8852 53.133 89.666 62.7113 86.8439 70.5685C84.6823 76.5867 78.1616 80.793 72.256 83.0271C62.5842 86.6858 51.1841 85.2754 41.4152 81.8843C33.8496 79.2581 24.6193 67.5026 24.6193 67.5026C24.6193 67.5026 15.1488 66.4586 12.8204 59.1292C11.5594 55.1598 11.3658 54.4756 12.0411 51.2251C14.1175 41.2295 26.3985 46.8852 26.4477 50.2206C26.4477 50.2206 19.9162 46.4569 42.8402 33.1135C51.1034 28.3037 55.4393 17.561 55.4393 17.561C55.4393 17.561 59.3436 20.8773 62.4766 22.6395C66.4727 24.8873 71.514 26.392 71.514 26.392Z" fill="#FFB380"/>
<path d="M61.0631 47.3364C61.1492 46.4047 59.542 45.7243 58.6112 45.8188C57.6423 45.9172 55.1766 46.5333 55.4671 47.4628C55.7457 48.3543 57.1516 47.7488 58.5021 47.6895C59.7001 47.637 60.9868 48.1614 61.0631 47.3364Z" fill="#E05000" stroke="#FD5723" stroke-width="1.17482" stroke-linejoin="round"/>
<path d="M31.8947 47.8468C31.8947 51.0094 33.1511 54.0425 35.3874 56.2788C37.6237 58.5151 40.6568 59.7714 43.8194 59.7714C45.3853 59.7714 46.936 59.463 48.3828 58.8637C49.8295 58.2644 51.1441 57.3861 52.2514 56.2788C53.3587 55.1715 54.2371 53.8569 54.8363 52.4101C55.4356 50.9634 55.7441 49.4127 55.7441 47.8468C55.7441 46.2808 55.4356 44.7301 54.8363 43.2834C54.2371 41.8366 53.3587 40.522 52.2514 39.4147C51.1441 38.3074 49.8295 37.4291 48.3828 36.8298C46.936 36.2305 45.3853 35.9221 43.8194 35.9221C40.6568 35.9221 37.6237 37.1784 35.3874 39.4147C33.1511 41.651 31.8947 44.6841 31.8947 47.8468ZM61.0667 45.3085C61.0667 48.4711 62.323 51.5042 64.5593 53.7405C66.7956 55.9768 69.8287 57.2331 72.9913 57.2331C76.154 57.2331 79.1871 55.9768 81.4234 53.7405C83.6597 51.5042 84.916 48.4711 84.916 45.3085C84.916 43.7425 84.6076 42.1919 84.0083 40.7451C83.409 39.2983 82.5307 37.9838 81.4234 36.8764C80.3161 35.7691 79.0015 34.8908 77.5547 34.2915C76.1079 33.6922 74.5573 33.3838 72.9913 33.3838C69.8287 33.3838 66.7956 34.6401 64.5593 36.8765C62.323 39.1128 61.0667 42.1458 61.0667 45.3085Z" stroke="#FD5723" stroke-width="2.29851" stroke-linejoin="round"/>
<path d="M71.9019 61.3646C69.6727 61.5359 64.1909 63.5062 58.0424 64.1968C51.9122 64.8853 45.115 64.2936 43.0998 64.7257C41.5359 65.061 42.5414 67.3695 43.9237 69.0477C46.1521 71.7531 50.6461 74.3012 57.2778 74.5823C64.1477 74.8734 68.0521 72.7317 70.6085 70.1802C74.1094 66.6861 74.4906 61.1657 71.9019 61.3646Z" fill="#552200"/>
<path d="M69.8008 62.3867C69.8008 62.3867 69.6845 64.462 67.1349 66.2615C63.2675 68.9911 54.3494 69.1074 50.7607 68.0354C48.6525 67.4057 48.699 65.6164 48.699 65.6164C48.699 65.6164 54.0762 65.8484 60.0463 65.0906C63.7997 64.6141 69.8008 62.3867 69.8008 62.3867Z" fill="white"/>
<path d="M64.4844 73.2026C64.4844 73.2026 59.9432 70.6565 57.2023 70.7154C52.539 70.8155 50.5998 72.6815 50.5998 72.6815C50.5998 72.6815 53.173 73.8291 57.1085 73.9458C61.7146 74.0823 64.4844 73.2026 64.4844 73.2026Z" fill="#D40000"/>
<path d="M58.4648 49.2202L64.8259 53.488C64.8259 53.488 65.127 53.6306 65.127 54.1722C65.127 54.682 64.9271 54.8176 64.9271 54.8176L61.6183 57.3612C61.6183 57.3612 61.0498 57.3845 60.865 57.1362C60.668 56.8715 60.7546 56.2914 60.7546 56.2914L63.6552 54.1484L57.7028 50.0854C57.7028 50.0854 57.3645 49.3898 57.6135 49.1242C57.8356 48.8872 58.4648 49.2202 58.4648 49.2202Z" fill="#552200"/>
<path d="M65.7617 41.9163C67.2817 41.6001 68.7583 43.6586 69.0888 45.1755C69.4232 46.7103 68.9406 49.2723 67.3991 49.5747C65.816 49.8854 64.3808 47.6333 64.0851 46.0473C63.8127 44.5864 64.3068 42.2189 65.7617 41.9163ZM45.5783 43.9099C47.0982 43.5937 48.5749 45.6522 48.9053 47.1691C49.2397 48.7039 48.7571 51.2659 47.2157 51.5683C45.6325 51.879 44.1973 49.6269 43.9016 48.0409C43.6293 46.58 44.1233 44.2125 45.5783 43.9099Z" fill="#552200"/>
<path d="M48.8228 33.273C48.4024 32.508 45.7705 31.2426 43.5797 31.638C41.4489 32.0226 38.3556 33.5831 38.8049 35.7009C38.9536 36.402 41.2095 34.9622 41.8842 34.7201C44.2826 33.8596 44.4537 33.9672 46.3805 33.9457C49.3448 33.9125 49.9962 35.408 49.3798 34.2865L48.8228 33.273ZM62.1598 32.901C62.3679 32.0532 64.5825 30.1494 66.8009 29.9643C68.9586 29.7843 72.3503 30.4912 72.4644 32.6533C72.5022 33.3691 69.9507 32.5622 69.2363 32.503C66.697 32.2925 66.5596 32.4408 64.6929 32.9187C61.8212 33.654 61.579 35.2673 61.8841 34.0244L62.1598 32.901Z" fill="#552200"/>
<path d="M61.064 21.6032C60.1494 21.0824 59.8386 19.7981 60.2594 18.8334C60.9877 17.164 65.7383 15.8271 65.7383 15.8271C65.7383 15.8271 65.1252 18.688 64.2906 19.8989C63.4336 21.1425 62.3765 22.3504 61.064 21.6032Z" stroke="#FBB516" stroke-width="2.15873" stroke-linejoin="round"/>
<path d="M69.6376 18.917L65.8644 24.0106L66.8134 24.5631L69.7266 19.044L69.6376 18.917Z" stroke="#FD5723" stroke-width="2.15873" stroke-linejoin="round"/>
<path d="M19.4162 54.9807C21.0692 54.4579 21.3226 53.3672 21.553 51.9478M22.0547 58.6146C21.3012 56.2782 19.191 54.5435 17.0751 53.4356C16.743 53.2618 16.1089 53.0649 16.1089 52.892" stroke="#552200" stroke-width="0.964175" stroke-linecap="round" stroke-linejoin="round"/>
<path d="M92.7832 135.819C90.5558 136.236 88.8513 137.086 87.0515 138.291C84.6788 139.879 82.8597 142.357 82.2832 145.168C82.0352 146.378 81.8497 147.763 81.9631 149.041M11.5394 121.077C15.4733 122.522 19.9874 123.575 21.6936 126.827C22.2313 127.851 23.0072 129.51 23.3039 130.626C23.5404 131.516 24.0907 134.321 24.039 135.667" stroke="#832102" stroke-width="0.964175" stroke-linejoin="round"/>
</g>
<defs>
<clipPath id="clip0_562_3129">
<rect width="102.982" height="194.042" fill="white" transform="matrix(-1 0 0 1 103.029 0)"/>
</clipPath>
</defs>
</svg>
