<svg width="234" height="299" viewBox="0 0 234 299" fill="none" xmlns="http://www.w3.org/2000/svg">
<g clip-path="url(#clip0_558_5531)">
<path d="M5.25077 238.284L1.06445 283.022L25.9576 291.329L34.246 237.159L5.25077 238.284Z" fill="#FFB380"/>
<path d="M156.548 220.977L162.477 283.021L126.57 292.54L119.518 229.154L156.548 220.977Z" fill="#FFB380"/>
<path d="M56.9199 153.481L82.4311 174.466L109.122 152.27C109.122 152.27 124.943 154.16 129.998 159.798C144.96 176.487 162.084 220.631 162.084 220.631L121.822 230.539L125.39 278.565L28.3742 273.459L31.6896 242.437C31.6896 242.437 20.2376 244.355 15.0005 243.476C9.34492 242.526 0.25 236.813 0.25 236.813C0.25 236.813 9.38514 202.704 14.27 190.431C16.6076 184.558 21.142 176.818 25.8456 172.562C29.7397 169.038 56.9199 153.481 56.9199 153.481Z" fill="#FBB516"/>
<path d="M44.6982 217.17L117.889 215.439C117.889 215.439 114.709 243.496 116.624 259.052C117.355 264.991 127.666 278.695 127.666 278.695L129.845 292.167C129.845 292.167 97.7847 299.275 75.4839 298.977C50.2127 298.64 25.7051 291.588 25.7051 291.588L27.7561 269.479L32.982 269.263C32.982 269.263 40.538 263.252 41.6637 259.268C46.4111 242.466 44.6982 217.17 44.6982 217.17Z" fill="#512000"/>
<path d="M113.084 152.486L128.284 155.948L120.67 190.82L112.719 223.487C110.331 233.295 93.6124 232.286 95.7489 223.53L113.084 152.486ZM33.5723 166.332L48.8846 155.904L53.8296 189.522C53.8296 189.522 59.6058 212.678 65.6018 227.034C67.996 232.767 54.0671 234.662 52.1438 230.452C46.5624 218.235 39.641 189.609 39.641 189.609L33.5723 166.332Z" fill="#321400"/>
<path d="M61.7987 223.499C61.7987 224.766 61.2955 225.981 60.3998 226.877C59.5041 227.772 58.2892 228.276 57.0224 228.276C56.3952 228.276 55.7741 228.152 55.1946 227.912C54.6151 227.672 54.0885 227.32 53.645 226.877C53.2015 226.433 52.8497 225.907 52.6096 225.327C52.3696 224.748 52.2461 224.126 52.2461 223.499C52.2461 222.872 52.3696 222.251 52.6096 221.671C52.8497 221.092 53.2015 220.565 53.645 220.122C54.0885 219.678 54.6151 219.326 55.1946 219.086C55.7741 218.846 56.3952 218.723 57.0224 218.723C58.2892 218.723 59.5041 219.226 60.3998 220.122C61.2955 221.018 61.7987 222.232 61.7987 223.499ZM110.163 221.643C110.163 222.27 110.039 222.891 109.799 223.471C109.559 224.05 109.207 224.577 108.764 225.02C108.32 225.464 107.794 225.816 107.214 226.056C106.635 226.296 106.014 226.419 105.386 226.419C104.759 226.419 104.138 226.296 103.558 226.056C102.979 225.816 102.452 225.464 102.009 225.02C101.565 224.577 101.214 224.05 100.974 223.471C100.733 222.891 100.61 222.27 100.61 221.643C100.61 221.016 100.733 220.395 100.974 219.815C101.214 219.236 101.565 218.709 102.009 218.266C102.452 217.822 102.979 217.47 103.558 217.23C104.138 216.99 104.759 216.867 105.386 216.867C106.014 216.867 106.635 216.99 107.214 217.23C107.794 217.47 108.32 217.822 108.764 218.266C109.207 218.709 109.559 219.236 109.799 219.815C110.039 220.395 110.163 221.016 110.163 221.643Z" fill="#FD5723"/>
<path d="M57.0608 129.41C57.0608 129.41 61.4415 135.641 61.8641 140.103C62.0889 142.478 63.6952 147.257 62.8039 149.47C61.5376 152.613 56.1992 157.108 56.1992 157.108C56.1992 157.108 65.7437 174.937 82.0436 174.274C106.411 173.282 110.342 155.018 110.342 155.018C110.342 155.018 105.053 153.506 103.137 151.56C100.367 148.749 99.6485 143.082 99.0643 139.178C98.2093 133.466 101.727 122.375 101.727 122.375L57.0608 129.41Z" fill="#FFB380"/>
<path d="M56.1722 129.611C47.1708 124.15 94.025 128.043 94.025 128.043L63.1945 149.37C63.1945 149.37 62.5106 133.456 56.1722 129.611Z" fill="#803300"/>
<path d="M31.4771 78.2949C28.3862 78.0635 24.7457 81.4695 24.6114 84.5662C24.4733 87.7501 27.9512 90.4448 31.1377 90.3953C34.0779 90.3497 36.8083 87.8681 36.8548 84.928C36.8999 82.0819 34.3156 78.5072 31.4771 78.2949Z" fill="#FFE6D5" stroke="#FFE6D5" stroke-width="1.8968" stroke-linecap="round"/>
<path d="M106.806 112.458C106.806 112.458 105.637 131.744 118.341 141.082C132.515 151.5 151.147 141.259 151.147 141.259C151.147 141.259 147.334 156.276 160.384 167.994C170.233 176.839 187.403 170.119 187.403 170.119C187.403 170.119 169.717 182.819 174.027 196.5C179.374 213.466 198.604 205.785 204.994 198.271C211.426 190.708 202.963 184.46 202.963 184.46C202.963 184.46 223.046 197.105 232.09 172.834C235.418 163.901 231.422 156.431 227.106 153.108C218.854 146.755 204.649 150.23 204.649 150.23C204.649 150.23 235.516 125.865 209.363 105.081C191.5 90.8852 169.658 117.239 169.658 117.239C169.658 117.239 173.034 105.576 161.15 96.9364C150.51 89.2007 123.477 92.0969 123.477 92.0969L106.806 112.458Z" fill="#FF6600"/>
<path d="M42.0368 33.7283C42.0368 33.7283 40.0722 49.1024 36.1241 63.1334C32.9239 74.5063 23.0251 89.7138 27.0421 108.284C31.8192 130.367 50.0323 133.462 64.2619 135.752C79.1076 138.141 93.7446 131.981 104.039 126.511C114.819 120.783 124.78 103.075 124.78 103.075C124.78 103.075 142.438 97.8803 146.557 90.5226C153.445 78.2185 150.684 69.6949 145.169 63.1194C138.643 55.339 128.613 62.234 128.613 62.234L121.944 28.2986L71.445 15.3447L42.0368 33.7283Z" fill="#FFB380"/>
<path d="M70.0021 18.7396C69.9188 18.7079 79.8675 32.4989 95.4925 43.8866C104.18 50.2179 118.394 54.045 118.394 54.045L120.137 77.237C120.137 77.237 124.448 66.0519 128.202 62.7851C133.05 58.5665 141.047 60.2934 141.047 60.2934C141.047 60.2934 146.652 53.8322 146.424 43.9249C146.214 34.8084 148.386 17.8487 117.538 4.96911C87.6687 -7.50161 72.7154 7.43112 72.7154 7.43112C72.7154 7.43112 62.6844 2.97534 46.1546 14.9829C36.4847 22.0073 33.5043 29.3643 33.8326 38.0215C34.176 47.0771 39.2095 50.6716 39.2095 50.6716L41.4748 38.9032C41.4748 38.9032 45.7769 40.2745 57.8792 30.8914C63.9346 26.1966 70.0021 18.7396 70.0021 18.7396Z" fill="#FF6600"/>
<path d="M61.7296 50.2428C59.1407 50.0231 58.0398 54.344 57.7106 56.9213C57.3288 59.9114 57.2909 65.1764 60.2764 65.5929C63.1191 65.9894 64.6101 61.1768 64.8858 58.3199C65.1633 55.4427 64.6099 50.487 61.7296 50.2428ZM89.4145 50.1877C86.8256 49.9681 85.7247 54.289 85.3955 56.8662C85.0136 59.8564 84.9758 65.1214 87.9613 65.5378C90.804 65.9344 92.295 61.1218 92.5706 58.2649C92.8482 55.3876 92.2948 50.432 89.4145 50.1877Z" fill="#803300"/>
<path d="M66.6498 67.5128C66.6498 67.5128 58.9797 71.8044 56.1494 75.0539C55.6293 75.651 55.5283 76.0118 55.4714 76.7951C55.4272 77.4028 55.9523 78.3499 56.1655 78.6637C58.1185 81.5375 62.7804 85.6608 62.7804 85.6608C62.7804 85.6608 64.5977 85.9632 65.0924 85.3641C65.4184 84.9693 64.996 83.8311 64.996 83.8311C64.996 83.8311 60.1697 80.2733 59.2642 77.6005C59.1501 77.2635 59.1786 76.8432 59.3606 76.5373C61.2347 73.385 68.5123 70.4304 68.5123 70.4304C68.5123 70.4304 69.4558 68.5628 68.9458 67.859C68.4916 67.2323 66.6498 67.5128 66.6498 67.5128Z" fill="#803300"/>
<path d="M65.2818 45.9737C65.2818 45.9737 64.6653 42.4826 63.0591 40.9756C61.071 39.1103 57.6965 37.6038 55.5572 37.9492C51.8067 38.5549 49.9706 40.6326 49.5467 41.4213C47.4828 45.2606 47.5059 48.1126 47.5059 48.1126C47.5059 48.1126 50.4744 43.827 55.2683 43.2033C58.0611 42.8401 60.1555 42.7879 61.3409 43.5246L65.2818 45.9737ZM83.0359 44.3568C83.0359 44.3568 83.0947 40.7706 85.1681 38.956C87.2816 37.1063 91.4981 35.387 93.7842 35.7326C97.792 36.3382 99.1573 38.1596 99.6104 38.9482C101.816 42.7876 99.896 44.619 99.3329 45.4723C98.8521 46.2006 97.6175 42.0468 92.4946 41.4232C89.5102 41.0599 85.2825 42.7886 83.0359 44.3568Z" fill="#803300"/>
<path d="M75.5177 91.0344C81.1825 89.1617 83.6792 87.9158 92.1615 83.8058C96.0008 81.9455 102.481 77.6215 103.696 78.3623C105.222 79.2921 105.328 83.4311 105.328 83.4311C105.328 83.4311 104.435 108.927 89.4138 113.425C78.4917 116.696 72.3768 115.644 66.9626 114.795C57.3472 113.287 53.9174 108.331 53.0349 106.836C51.395 104.058 49.9837 98.465 51.4178 97.0068C53.0011 95.3967 59.1205 95.5611 62.9239 94.6266C67.1632 93.585 69.3533 93.0722 75.5177 91.0344Z" fill="#552200"/>
<path d="M54.5664 97.2932C54.5664 97.2932 56.8852 101.354 61.2211 101.172C68.8596 100.852 77.9206 99.3117 83.847 96.5439C87.8102 94.6929 94.983 90.5166 97.2994 87.7286C99.6865 84.8554 99.3745 81.0068 99.3745 81.0068C99.3745 81.0068 89.2587 86.7894 84.1189 88.9407C78.1293 91.4475 74.7533 92.4121 68.0761 94.6265C63.9545 95.9935 54.5664 97.2932 54.5664 97.2932Z" fill="white"/>
<path d="M75.3887 114.505C75.3887 114.505 76.9183 106.236 84.2473 101.767C93.0304 96.411 101.521 98.7035 101.521 98.7035C101.521 98.7035 98.7208 106.188 92.3044 110.758C85.8026 115.39 75.3887 114.505 75.3887 114.505Z" fill="#AA0000"/>
<path d="M131.657 83.0937C131.022 81.3908 131.099 79.6137 131.485 77.8589C131.554 77.5439 131.645 77.2324 131.76 76.9312C131.76 76.9312 131.973 76.546 131.847 76.6927M128.051 87.7451C128.191 87.4455 131.82 81.0836 137.579 78.5296C138.172 78.2667 138.927 77.7541 139.585 77.7059" stroke="#803300" stroke-width="1.8968" stroke-linecap="round"/>
<path d="M135.569 88.9496C132.478 88.7183 128.838 92.1243 128.703 95.221C128.565 98.4049 132.043 101.1 135.229 101.05C138.17 101.004 140.9 98.5229 140.947 95.5828C140.992 92.7367 138.407 89.162 135.569 88.9496Z" fill="#FFE6D5" stroke="#FFE6D5" stroke-width="1.8968" stroke-linecap="round"/>
</g>
<defs>
<clipPath id="clip0_558_5531">
<rect width="233.073" height="298.986" fill="white" transform="translate(0.25)"/>
</clipPath>
</defs>
</svg>
