<svg width="24" height="16" viewBox="0 0 24 16" fill="none" xmlns="http://www.w3.org/2000/svg">
<g clip-path="url(#clip0_558_6586)">
<path d="M22.8797 2.49842C22.6185 1.515 21.8491 0.740518 20.8718 0.477678C19.101 0 11.9994 0 11.9994 0C11.9994 0 4.89786 0 3.12689 0.477678C2.14966 0.740518 1.38002 1.515 1.11902 2.49842C0.644531 4.28091 0.644531 8.00005 0.644531 8.00005C0.644531 8.00005 0.644531 11.719 1.11902 13.5017C1.38002 14.4852 2.14966 15.2595 3.12679 15.5226C4.89777 16.0001 11.9993 16.0001 11.9993 16.0001C11.9993 16.0001 19.1009 16.0001 20.8717 15.5226C21.849 15.2596 22.6184 14.4852 22.8796 13.5018C23.3542 11.7191 23.3542 8.00014 23.3542 8.00014C23.3542 8.00014 23.3542 4.28101 22.8796 2.49852" fill="#FF0000"/>
<path d="M9.64453 12L16.2976 8.00023L9.64453 4V12Z" fill="white"/>
</g>
<defs>
<clipPath id="clip0_558_6586">
<rect width="22.7097" height="16.0001" fill="white" transform="translate(0.644531)"/>
</clipPath>
</defs>
</svg>
