<svg width="160" height="206" viewBox="0 0 160 206" fill="none" xmlns="http://www.w3.org/2000/svg">
<g filter="url(#filter0_d_562_3818)">
<path d="M2 8.89654C2 5.08768 5.08769 2 8.89655 2H149.103C152.912 2 156 5.08769 156 8.89655V195.103C156 198.912 152.912 202 149.103 202H8.89654C5.08768 202 2 198.912 2 195.103V8.89654Z" fill="#FBFDFF" shape-rendering="crispEdges"/>
<path d="M2 2H69.7931C117.404 2 156 40.5961 156 88.2069V202H88.2069C40.5961 202 2 163.404 2 115.793V2Z" fill="#144EC0"/>
<g clip-path="url(#clip0_562_3818)">
<path d="M64.9143 58.0082C64.4575 57.3874 65.4837 55.8566 65.4837 55.8566L79.9402 35.7006C79.9402 35.7006 80.893 34.1752 81.8395 34.2793C82.9809 34.4044 83.544 36.1232 83.544 36.1232L91.9075 58.7664C91.9075 58.7664 92.6089 60.3142 91.6095 61.069C90.9356 61.5781 89.3268 61.4862 89.3268 61.4862L66.6908 58.9578C66.6908 58.9578 65.533 58.8483 64.9143 58.0082Z" fill="#FECE25"/>
<path fill-rule="evenodd" clip-rule="evenodd" d="M81.5374 37.7867L67.3359 57.5871L89.4243 60.0543C89.451 60.0551 89.4878 60.0558 89.5326 60.056C89.5982 60.0562 89.6764 60.0553 89.7613 60.052L81.5374 37.7867ZM93.8418 58.6865C93.8509 58.7085 93.8611 58.7334 93.872 58.7612C93.904 58.8426 93.9438 58.9505 93.9849 59.0794C94.065 59.3298 94.1622 59.696 94.207 60.1245C94.2903 60.9197 94.2239 62.4541 92.8406 63.4988C92.3494 63.8698 91.8127 64.0497 91.4376 64.1458C91.0369 64.2486 90.6449 64.2989 90.3296 64.3253C90.0077 64.3522 89.7203 64.3577 89.5149 64.3568C89.4108 64.3564 89.3241 64.3543 89.2602 64.3522C89.2282 64.3511 89.2017 64.35 89.1814 64.3491L89.1555 64.3478L89.1461 64.3473L89.1423 64.3471L89.1407 64.347L89.1399 64.347C89.1396 64.3469 89.1392 64.3469 89.2618 62.2L89.1392 64.3469C89.1004 64.3447 89.0617 64.3414 89.0231 64.3371L66.3634 61.8061C66.3385 61.8032 66.3087 61.7994 66.2745 61.7946C66.2063 61.785 66.1194 61.771 66.0178 61.7509C65.817 61.7112 65.5452 61.6449 65.2395 61.5345C64.6586 61.3249 63.7759 60.8908 63.1178 59.9973L63.1172 59.9964C62.5173 59.1812 62.5516 58.29 62.6155 57.8289C62.6854 57.3241 62.8536 56.8721 62.9895 56.5585C63.1333 56.2266 63.2907 55.9376 63.4064 55.7386C63.4657 55.6365 63.5176 55.552 63.5566 55.4902C63.5762 55.4591 63.5928 55.4335 63.6056 55.4138L63.622 55.3888L63.628 55.3797L63.6304 55.3761L63.632 55.3737C63.6322 55.3734 63.6325 55.373 65.4187 56.5704L63.6325 55.373C63.6451 55.3542 63.658 55.3355 63.6712 55.3171L78.0975 35.2033C78.1079 35.1874 78.1199 35.1694 78.1333 35.1494C78.1761 35.0858 78.2347 35.0012 78.3073 34.9026C78.4492 34.7099 78.6601 34.4426 78.9247 34.1692C79.1802 33.9052 79.5451 33.5734 80.0035 33.3088C80.4546 33.0484 81.1572 32.762 82.0088 32.8555M93.8418 58.6865L85.505 36.1156L85.5028 36.1092C85.4937 36.083 85.4818 36.05 85.4674 36.0112C85.4385 35.9338 85.3983 35.8315 85.3465 35.7119C85.2452 35.4779 85.0883 35.1519 84.8689 34.8073C84.5102 34.2438 83.6061 33.0309 82.0088 32.8555" fill="#8CC640"/>
<path d="M63.9149 91.8474C71.8771 91.8474 78.3318 85.3928 78.3318 77.4305C78.3318 69.4683 71.8771 63.0137 63.9149 63.0137C55.9527 63.0137 49.498 69.4683 49.498 77.4305C49.498 85.3928 55.9527 91.8474 63.9149 91.8474Z" fill="#FBB516"/>
<path fill-rule="evenodd" clip-rule="evenodd" d="M63.9139 65.4071C57.2735 65.4071 51.8905 70.7901 51.8905 77.4305C51.8905 84.0708 57.2735 89.4539 63.9139 89.4539C70.5542 89.4539 75.9373 84.0708 75.9373 77.4305C75.9373 70.7901 70.5542 65.4071 63.9139 65.4071ZM47.1035 77.4305C47.1035 68.1464 54.6298 60.6201 63.9139 60.6201C73.198 60.6201 80.7242 68.1464 80.7242 77.4305C80.7242 86.7146 73.198 94.2408 63.9139 94.2408C54.6298 94.2408 47.1035 86.7146 47.1035 77.4305Z" fill="#65A115"/>
<path d="M105.7 66.4575H85.9204C84.3701 66.4575 83.1133 67.7143 83.1133 69.2647V89.0443C83.1133 90.5946 84.3701 91.8514 85.9204 91.8514H105.7C107.25 91.8514 108.507 90.5946 108.507 89.0443V69.2647C108.507 67.7143 107.25 66.4575 105.7 66.4575Z" fill="#65A115"/>
<path fill-rule="evenodd" clip-rule="evenodd" d="M85.921 68.8469C85.6902 68.8469 85.5031 69.034 85.5031 69.2648V89.0444C85.5031 89.2752 85.6902 89.4623 85.921 89.4623H105.701C105.931 89.4623 106.119 89.2752 106.119 89.0444V69.2648C106.119 69.034 105.931 68.8469 105.701 68.8469H85.921ZM80.7246 69.2648C80.7246 66.3949 83.0511 64.0684 85.921 64.0684H105.701C108.571 64.0684 110.897 66.3949 110.897 69.2648V89.0444C110.897 91.9143 108.571 94.2408 105.701 94.2408H85.921C83.0511 94.2408 80.7246 91.9143 80.7246 89.0444V69.2648Z" fill="#FBB516"/>
</g>
<path d="M18.7378 122.759V114.759H15.9792V113.104H23.3723V114.759H20.5309V122.759H18.7378ZM24.006 122.759V115.49H25.675L25.7026 117.807L25.4681 117.283C25.5693 116.915 25.744 116.584 25.9922 116.29C26.2405 115.996 26.5256 115.766 26.8474 115.6C27.1784 115.425 27.5233 115.338 27.8819 115.338C28.0382 115.338 28.1853 115.352 28.3233 115.379C28.4704 115.407 28.5899 115.439 28.6819 115.476L28.2267 117.338C28.1256 117.283 28.0014 117.237 27.8543 117.2C27.7072 117.163 27.5601 117.145 27.4129 117.145C27.183 117.145 26.9624 117.191 26.7509 117.283C26.5486 117.366 26.3693 117.485 26.2129 117.642C26.0566 117.798 25.9325 117.982 25.8405 118.193C25.7578 118.396 25.7164 118.625 25.7164 118.883V122.759H24.006ZM32.2466 122.897C31.6489 122.897 31.1063 122.731 30.619 122.4C30.1316 122.069 29.7408 121.619 29.4466 121.048C29.1523 120.478 29.0052 119.83 29.0052 119.104C29.0052 118.377 29.1523 117.729 29.4466 117.159C29.7408 116.589 30.1408 116.143 30.6466 115.821C31.1523 115.499 31.7224 115.338 32.3569 115.338C32.7247 115.338 33.0603 115.393 33.3638 115.504C33.6672 115.605 33.9339 115.752 34.1638 115.945C34.3937 116.138 34.5822 116.359 34.7293 116.607C34.8856 116.855 34.9914 117.122 35.0466 117.407L34.6741 117.311V115.49H36.3845V122.759H34.6603V121.021L35.0603 120.952C34.996 121.2 34.8764 121.444 34.7017 121.683C34.5362 121.913 34.3247 122.12 34.0672 122.304C33.819 122.478 33.5385 122.621 33.2259 122.731C32.9224 122.842 32.596 122.897 32.2466 122.897ZM32.7155 121.393C33.1109 121.393 33.4603 121.297 33.7638 121.104C34.0672 120.911 34.3017 120.644 34.4672 120.304C34.642 119.954 34.7293 119.554 34.7293 119.104C34.7293 118.662 34.642 118.271 34.4672 117.931C34.3017 117.591 34.0672 117.324 33.7638 117.131C33.4603 116.938 33.1109 116.842 32.7155 116.842C32.3201 116.842 31.9707 116.938 31.6672 117.131C31.373 117.324 31.1431 117.591 30.9776 117.931C30.8121 118.271 30.7293 118.662 30.7293 119.104C30.7293 119.554 30.8121 119.954 30.9776 120.304C31.1431 120.644 31.373 120.911 31.6672 121.104C31.9707 121.297 32.3201 121.393 32.7155 121.393ZM41.4686 122.897C40.7882 122.897 40.1767 122.731 39.6342 122.4C39.0916 122.069 38.664 121.619 38.3514 121.048C38.0388 120.478 37.8824 119.835 37.8824 119.117C37.8824 118.4 38.0388 117.756 38.3514 117.186C38.664 116.616 39.0916 116.166 39.6342 115.835C40.1767 115.504 40.7882 115.338 41.4686 115.338C42.1215 115.338 42.7146 115.462 43.248 115.711C43.7813 115.959 44.1951 116.304 44.4893 116.745L43.5514 117.876C43.4135 117.683 43.2388 117.508 43.0273 117.352C42.8158 117.196 42.5905 117.071 42.3514 116.979C42.1123 116.888 41.8732 116.842 41.6342 116.842C41.2296 116.842 40.8663 116.943 40.5445 117.145C40.2319 117.338 39.9836 117.609 39.7997 117.959C39.6158 118.299 39.5238 118.685 39.5238 119.117C39.5238 119.55 39.6158 119.936 39.7997 120.276C39.9928 120.616 40.2503 120.888 40.5721 121.09C40.8939 121.292 41.2526 121.393 41.648 121.393C41.887 121.393 42.1169 121.356 42.3376 121.283C42.5675 121.2 42.7836 121.085 42.9859 120.938C43.1882 120.791 43.3767 120.607 43.5514 120.386L44.4893 121.531C44.1767 121.936 43.7445 122.267 43.1928 122.524C42.6503 122.773 42.0755 122.897 41.4686 122.897ZM40.1721 126.138L40.0755 125.297C40.2778 125.297 40.4939 125.265 40.7238 125.2C40.9537 125.136 41.1468 125.048 41.3031 124.938C41.4594 124.837 41.5376 124.731 41.5376 124.621C41.5376 124.501 41.4686 124.405 41.3307 124.331C41.1928 124.267 41.0365 124.216 40.8617 124.179C40.687 124.143 40.5307 124.124 40.3928 124.124L40.1859 123.973L41.1652 122.428H42.0893L41.4824 123.379C41.9514 123.462 42.3008 123.614 42.5307 123.835C42.7606 124.065 42.8755 124.345 42.8755 124.676C42.8755 124.934 42.7928 125.154 42.6273 125.338C42.4617 125.522 42.2457 125.674 41.979 125.793C41.7123 125.922 41.4181 126.014 41.0962 126.069C40.7836 126.124 40.4755 126.147 40.1721 126.138ZM49.1109 122.897C48.3844 122.897 47.7362 122.736 47.1661 122.414C46.5959 122.083 46.1454 121.632 45.8143 121.062C45.4833 120.492 45.3178 119.844 45.3178 119.117C45.3178 118.391 45.4833 117.743 45.8143 117.173C46.1454 116.602 46.5959 116.156 47.1661 115.835C47.7362 115.504 48.3844 115.338 49.1109 115.338C49.8281 115.338 50.4718 115.504 51.0419 115.835C51.612 116.156 52.058 116.602 52.3799 117.173C52.7109 117.743 52.8764 118.391 52.8764 119.117C52.8764 119.844 52.7109 120.492 52.3799 121.062C52.058 121.632 51.612 122.083 51.0419 122.414C50.4718 122.736 49.8281 122.897 49.1109 122.897ZM49.1109 121.393C49.5063 121.393 49.8557 121.292 50.1592 121.09C50.4718 120.888 50.7155 120.616 50.8902 120.276C51.0741 119.936 51.1615 119.55 51.1523 119.117C51.1615 118.676 51.0741 118.285 50.8902 117.945C50.7155 117.605 50.4718 117.338 50.1592 117.145C49.8557 116.943 49.5063 116.842 49.1109 116.842C48.7155 116.842 48.3569 116.943 48.035 117.145C47.7224 117.338 47.4787 117.609 47.304 117.959C47.1293 118.299 47.0419 118.685 47.0419 119.117C47.0419 119.55 47.1293 119.936 47.304 120.276C47.4787 120.616 47.7224 120.888 48.035 121.09C48.3569 121.292 48.7155 121.393 49.1109 121.393ZM56.8216 122.897C56.1779 122.897 55.5986 122.791 55.0836 122.579C54.5779 122.359 54.1641 122.046 53.8422 121.642L54.9457 120.69C55.2216 121.002 55.5296 121.228 55.8698 121.366C56.2101 121.504 56.5687 121.573 56.9457 121.573C57.102 121.573 57.2399 121.554 57.3595 121.517C57.4882 121.481 57.5986 121.425 57.6905 121.352C57.7825 121.278 57.8514 121.196 57.8974 121.104C57.9526 121.002 57.9802 120.892 57.9802 120.773C57.9802 120.552 57.8974 120.377 57.7319 120.248C57.6399 120.184 57.4928 120.115 57.2905 120.042C57.0974 119.968 56.8445 119.894 56.5319 119.821C56.0353 119.692 55.6216 119.545 55.2905 119.379C54.9595 119.205 54.702 119.012 54.5181 118.8C54.3618 118.625 54.2422 118.428 54.1595 118.207C54.0859 117.986 54.0491 117.747 54.0491 117.49C54.0491 117.168 54.1181 116.878 54.256 116.621C54.4032 116.354 54.6009 116.124 54.8491 115.931C55.0974 115.738 55.3871 115.591 55.7181 115.49C56.0491 115.389 56.394 115.338 56.7526 115.338C57.1204 115.338 57.4744 115.384 57.8147 115.476C58.1641 115.568 58.4859 115.701 58.7802 115.876C59.0836 116.042 59.3411 116.244 59.5526 116.483L58.6147 117.517C58.4399 117.352 58.2468 117.205 58.0353 117.076C57.833 116.947 57.6262 116.846 57.4147 116.773C57.2032 116.69 57.0055 116.648 56.8216 116.648C56.6468 116.648 56.4905 116.667 56.3526 116.704C56.2147 116.731 56.0997 116.777 56.0078 116.842C55.9158 116.906 55.8422 116.989 55.7871 117.09C55.7411 117.182 55.7181 117.292 55.7181 117.421C55.7273 117.531 55.7549 117.637 55.8009 117.738C55.856 117.83 55.9296 117.908 56.0216 117.973C56.1227 118.037 56.2744 118.111 56.4767 118.193C56.679 118.276 56.9411 118.354 57.2629 118.428C57.7135 118.547 58.0905 118.681 58.394 118.828C58.6974 118.975 58.9365 119.145 59.1112 119.338C59.2859 119.504 59.4101 119.697 59.4836 119.917C59.5572 120.138 59.594 120.382 59.594 120.648C59.594 121.081 59.4698 121.467 59.2216 121.807C58.9825 122.147 58.6514 122.414 58.2285 122.607C57.8147 122.8 57.3457 122.897 56.8216 122.897ZM61.2954 125.324L60.7299 124.648C61.0701 124.465 61.3413 124.248 61.5436 124C61.7551 123.761 61.8609 123.554 61.8609 123.379C61.8609 123.288 61.8379 123.196 61.7919 123.104C61.7551 123.021 61.6586 122.906 61.5023 122.759C61.3092 122.584 61.1804 122.432 61.1161 122.304C61.0517 122.175 61.0195 122.032 61.0195 121.876C61.0195 121.637 61.1069 121.444 61.2816 121.297C61.4563 121.15 61.6816 121.076 61.9574 121.076C62.2057 121.076 62.4264 121.145 62.6195 121.283C62.8218 121.421 62.9781 121.614 63.0885 121.862C63.1988 122.101 63.254 122.382 63.254 122.704C63.254 122.989 63.2034 123.265 63.1023 123.531C63.0103 123.807 62.8724 124.06 62.6885 124.29C62.5138 124.52 62.3069 124.722 62.0678 124.897C61.8379 125.081 61.5804 125.223 61.2954 125.324ZM71.3555 122.897C70.7118 122.897 70.1325 122.791 69.6176 122.579C69.1118 122.359 68.698 122.046 68.3762 121.642L69.4796 120.69C69.7555 121.002 70.0636 121.228 70.4038 121.366C70.744 121.504 71.1026 121.573 71.4796 121.573C71.636 121.573 71.7739 121.554 71.8934 121.517C72.0222 121.481 72.1325 121.425 72.2245 121.352C72.3164 121.278 72.3854 121.196 72.4314 121.104C72.4865 121.002 72.5141 120.892 72.5141 120.773C72.5141 120.552 72.4314 120.377 72.2658 120.248C72.1739 120.184 72.0268 120.115 71.8245 120.042C71.6314 119.968 71.3785 119.894 71.0658 119.821C70.5693 119.692 70.1555 119.545 69.8245 119.379C69.4934 119.205 69.236 119.012 69.0521 118.8C68.8957 118.625 68.7762 118.428 68.6934 118.207C68.6199 117.986 68.5831 117.747 68.5831 117.49C68.5831 117.168 68.6521 116.878 68.79 116.621C68.9371 116.354 69.1348 116.124 69.3831 115.931C69.6314 115.738 69.921 115.591 70.2521 115.49C70.5831 115.389 70.9279 115.338 71.2865 115.338C71.6544 115.338 72.0084 115.384 72.3486 115.476C72.698 115.568 73.0199 115.701 73.3141 115.876C73.6176 116.042 73.875 116.244 74.0865 116.483L73.1486 117.517C72.9739 117.352 72.7808 117.205 72.5693 117.076C72.367 116.947 72.1601 116.846 71.9486 116.773C71.7371 116.69 71.5394 116.648 71.3555 116.648C71.1808 116.648 71.0245 116.667 70.8865 116.704C70.7486 116.731 70.6337 116.777 70.5417 116.842C70.4498 116.906 70.3762 116.989 70.321 117.09C70.275 117.182 70.2521 117.292 70.2521 117.421C70.2613 117.531 70.2888 117.637 70.3348 117.738C70.39 117.83 70.4636 117.908 70.5555 117.973C70.6567 118.037 70.8084 118.111 71.0107 118.193C71.213 118.276 71.475 118.354 71.7969 118.428C72.2475 118.547 72.6245 118.681 72.9279 118.828C73.2314 118.975 73.4704 119.145 73.6452 119.338C73.8199 119.504 73.944 119.697 74.0176 119.917C74.0911 120.138 74.1279 120.382 74.1279 120.648C74.1279 121.081 74.0038 121.467 73.7555 121.807C73.5164 122.147 73.1854 122.414 72.7624 122.607C72.3486 122.8 71.8796 122.897 71.3555 122.897ZM78.9466 122.897C78.2201 122.897 77.5718 122.736 77.0017 122.414C76.4316 122.083 75.981 121.632 75.65 121.062C75.319 120.492 75.1535 119.844 75.1535 119.117C75.1535 118.391 75.319 117.743 75.65 117.173C75.981 116.602 76.4316 116.156 77.0017 115.835C77.5718 115.504 78.2201 115.338 78.9466 115.338C79.6638 115.338 80.3075 115.504 80.8776 115.835C81.4477 116.156 81.8937 116.602 82.2155 117.173C82.5466 117.743 82.7121 118.391 82.7121 119.117C82.7121 119.844 82.5466 120.492 82.2155 121.062C81.8937 121.632 81.4477 122.083 80.8776 122.414C80.3075 122.736 79.6638 122.897 78.9466 122.897ZM78.9466 121.393C79.342 121.393 79.6914 121.292 79.9948 121.09C80.3075 120.888 80.5512 120.616 80.7259 120.276C80.9098 119.936 80.9971 119.55 80.9879 119.117C80.9971 118.676 80.9098 118.285 80.7259 117.945C80.5512 117.605 80.3075 117.338 79.9948 117.145C79.6914 116.943 79.342 116.842 78.9466 116.842C78.5512 116.842 78.1925 116.943 77.8707 117.145C77.5581 117.338 77.3144 117.609 77.1397 117.959C76.965 118.299 76.8776 118.685 76.8776 119.117C76.8776 119.55 76.965 119.936 77.1397 120.276C77.3144 120.616 77.5581 120.888 77.8707 121.09C78.1925 121.292 78.5512 121.393 78.9466 121.393ZM84.2296 122.759V115.49H85.8848L85.9124 116.979L85.5952 117.145C85.6871 116.814 85.8664 116.515 86.1331 116.248C86.3998 115.973 86.717 115.752 87.0848 115.586C87.4526 115.421 87.8296 115.338 88.2158 115.338C88.7676 115.338 89.2273 115.448 89.5952 115.669C89.9722 115.89 90.2526 116.221 90.4365 116.662C90.6296 117.104 90.7262 117.655 90.7262 118.317V122.759H89.0296V118.442C89.0296 118.074 88.9791 117.77 88.8779 117.531C88.7768 117.283 88.6204 117.104 88.4089 116.993C88.1975 116.874 87.94 116.819 87.6365 116.828C87.3883 116.828 87.1584 116.869 86.9469 116.952C86.7446 117.025 86.5653 117.136 86.4089 117.283C86.2618 117.421 86.1423 117.582 86.0503 117.766C85.9676 117.95 85.9262 118.152 85.9262 118.373V122.759H85.0848C84.9193 122.759 84.763 122.759 84.6158 122.759C84.4779 122.759 84.3492 122.759 84.2296 122.759ZM95.0624 122.897C94.4187 122.897 93.8394 122.791 93.3245 122.579C92.8187 122.359 92.4049 122.046 92.0831 121.642L93.1865 120.69C93.4624 121.002 93.7704 121.228 94.1107 121.366C94.4509 121.504 94.8095 121.573 95.1865 121.573C95.3429 121.573 95.4808 121.554 95.6003 121.517C95.7291 121.481 95.8394 121.425 95.9314 121.352C96.0233 121.278 96.0923 121.196 96.1383 121.104C96.1934 121.002 96.221 120.892 96.221 120.773C96.221 120.552 96.1383 120.377 95.9727 120.248C95.8808 120.184 95.7337 120.115 95.5314 120.042C95.3383 119.968 95.0854 119.894 94.7727 119.821C94.2762 119.692 93.8624 119.545 93.5314 119.379C93.2003 119.205 92.9429 119.012 92.7589 118.8C92.6026 118.625 92.4831 118.428 92.4003 118.207C92.3268 117.986 92.29 117.747 92.29 117.49C92.29 117.168 92.3589 116.878 92.4969 116.621C92.644 116.354 92.8417 116.124 93.09 115.931C93.3383 115.738 93.6279 115.591 93.959 115.49C94.29 115.389 94.6348 115.338 94.9934 115.338C95.3612 115.338 95.7153 115.384 96.0555 115.476C96.4049 115.568 96.7268 115.701 97.021 115.876C97.3245 116.042 97.5819 116.244 97.7934 116.483L96.8555 117.517C96.6808 117.352 96.4877 117.205 96.2762 117.076C96.0739 116.947 95.867 116.846 95.6555 116.773C95.444 116.69 95.2463 116.648 95.0624 116.648C94.8877 116.648 94.7314 116.667 94.5934 116.704C94.4555 116.731 94.3406 116.777 94.2486 116.842C94.1567 116.906 94.0831 116.989 94.0279 117.09C93.9819 117.182 93.959 117.292 93.959 117.421C93.9681 117.531 93.9957 117.637 94.0417 117.738C94.0969 117.83 94.1704 117.908 94.2624 117.973C94.3635 118.037 94.5153 118.111 94.7176 118.193C94.9199 118.276 95.1819 118.354 95.5038 118.428C95.9544 118.547 96.3314 118.681 96.6348 118.828C96.9383 118.975 97.1773 119.145 97.3521 119.338C97.5268 119.504 97.6509 119.697 97.7245 119.917C97.798 120.138 97.8348 120.382 97.8348 120.648C97.8348 121.081 97.7107 121.467 97.4624 121.807C97.2233 122.147 96.8923 122.414 96.4693 122.607C96.0555 122.8 95.5865 122.897 95.0624 122.897ZM99.5362 125.324L98.9707 124.648C99.3109 124.465 99.5822 124.248 99.7845 124C99.996 123.761 100.102 123.554 100.102 123.379C100.102 123.288 100.079 123.196 100.033 123.104C99.996 123.021 99.8994 122.906 99.7431 122.759C99.55 122.584 99.4213 122.432 99.3569 122.304C99.2925 122.175 99.2604 122.032 99.2604 121.876C99.2604 121.637 99.3477 121.444 99.5224 121.297C99.6971 121.15 99.9224 121.076 100.198 121.076C100.447 121.076 100.667 121.145 100.86 121.283C101.063 121.421 101.219 121.614 101.329 121.862C101.44 122.101 101.495 122.382 101.495 122.704C101.495 122.989 101.444 123.265 101.343 123.531C101.251 123.807 101.113 124.06 100.929 124.29C100.755 124.52 100.548 124.722 100.309 124.897C100.079 125.081 99.8213 125.223 99.5362 125.324ZM110.286 122.897C109.606 122.897 108.994 122.731 108.452 122.4C107.909 122.069 107.481 121.619 107.169 121.048C106.856 120.478 106.7 119.835 106.7 119.117C106.7 118.4 106.856 117.756 107.169 117.186C107.481 116.616 107.909 116.166 108.452 115.835C108.994 115.504 109.606 115.338 110.286 115.338C110.939 115.338 111.532 115.462 112.065 115.711C112.599 115.959 113.012 116.304 113.307 116.745L112.369 117.876C112.231 117.683 112.056 117.508 111.845 117.352C111.633 117.196 111.408 117.071 111.169 116.979C110.93 116.888 110.691 116.842 110.452 116.842C110.047 116.842 109.684 116.943 109.362 117.145C109.049 117.338 108.801 117.609 108.617 117.959C108.433 118.299 108.341 118.685 108.341 119.117C108.341 119.55 108.433 119.936 108.617 120.276C108.81 120.616 109.068 120.888 109.389 121.09C109.711 121.292 110.07 121.393 110.465 121.393C110.704 121.393 110.934 121.356 111.155 121.283C111.385 121.2 111.601 121.085 111.803 120.938C112.006 120.791 112.194 120.607 112.369 120.386L113.307 121.531C112.994 121.936 112.562 122.267 112.01 122.524C111.468 122.773 110.893 122.897 110.286 122.897ZM117.928 122.897C117.202 122.897 116.554 122.736 115.983 122.414C115.413 122.083 114.963 121.632 114.632 121.062C114.301 120.492 114.135 119.844 114.135 119.117C114.135 118.391 114.301 117.743 114.632 117.173C114.963 116.602 115.413 116.156 115.983 115.835C116.554 115.504 117.202 115.338 117.928 115.338C118.645 115.338 119.289 115.504 119.859 115.835C120.429 116.156 120.875 116.602 121.197 117.173C121.528 117.743 121.694 118.391 121.694 119.117C121.694 119.844 121.528 120.492 121.197 121.062C120.875 121.632 120.429 122.083 119.859 122.414C119.289 122.736 118.645 122.897 117.928 122.897ZM117.928 121.393C118.324 121.393 118.673 121.292 118.977 121.09C119.289 120.888 119.533 120.616 119.708 120.276C119.891 119.936 119.979 119.55 119.97 119.117C119.979 118.676 119.891 118.285 119.708 117.945C119.533 117.605 119.289 117.338 118.977 117.145C118.673 116.943 118.324 116.842 117.928 116.842C117.533 116.842 117.174 116.943 116.852 117.145C116.54 117.338 116.296 117.609 116.121 117.959C115.947 118.299 115.859 118.685 115.859 119.117C115.859 119.55 115.947 119.936 116.121 120.276C116.296 120.616 116.54 120.888 116.852 121.09C117.174 121.292 117.533 121.393 117.928 121.393ZM123.211 122.759V115.49H124.88L124.908 117.807L124.673 117.283C124.775 116.915 124.949 116.584 125.198 116.29C125.446 115.996 125.731 115.766 126.053 115.6C126.384 115.425 126.729 115.338 127.087 115.338C127.244 115.338 127.391 115.352 127.529 115.379C127.676 115.407 127.795 115.439 127.887 115.476L127.432 117.338C127.331 117.283 127.207 117.237 127.06 117.2C126.912 117.163 126.765 117.145 126.618 117.145C126.388 117.145 126.168 117.191 125.956 117.283C125.754 117.366 125.575 117.485 125.418 117.642C125.262 117.798 125.138 117.982 125.046 118.193C124.963 118.396 124.922 118.625 124.922 118.883V122.759H123.211ZM132.114 122.897C131.351 122.897 130.675 122.736 130.086 122.414C129.507 122.092 129.052 121.655 128.721 121.104C128.399 120.543 128.238 119.904 128.238 119.186C128.238 118.616 128.33 118.097 128.514 117.628C128.698 117.159 128.951 116.754 129.273 116.414C129.604 116.065 129.994 115.798 130.445 115.614C130.905 115.421 131.406 115.324 131.948 115.324C132.427 115.324 132.873 115.416 133.286 115.6C133.7 115.784 134.059 116.037 134.362 116.359C134.666 116.671 134.896 117.048 135.052 117.49C135.217 117.922 135.296 118.396 135.286 118.911L135.273 119.504H129.383L129.066 118.345H133.852L133.631 118.579V118.276C133.604 117.991 133.512 117.743 133.355 117.531C133.199 117.311 132.997 117.14 132.748 117.021C132.509 116.892 132.243 116.828 131.948 116.828C131.498 116.828 131.116 116.915 130.804 117.09C130.5 117.265 130.27 117.517 130.114 117.848C129.958 118.17 129.879 118.575 129.879 119.062C129.879 119.531 129.976 119.94 130.169 120.29C130.371 120.639 130.652 120.911 131.01 121.104C131.378 121.288 131.806 121.379 132.293 121.379C132.633 121.379 132.946 121.324 133.231 121.214C133.516 121.104 133.824 120.906 134.155 120.621L134.997 121.793C134.748 122.023 134.463 122.221 134.141 122.386C133.829 122.543 133.498 122.667 133.148 122.759C132.799 122.851 132.454 122.897 132.114 122.897ZM139.216 122.897C138.573 122.897 137.994 122.791 137.479 122.579C136.973 122.359 136.559 122.046 136.237 121.642L137.341 120.69C137.616 121.002 137.925 121.228 138.265 121.366C138.605 121.504 138.964 121.573 139.341 121.573C139.497 121.573 139.635 121.554 139.754 121.517C139.883 121.481 139.994 121.425 140.085 121.352C140.177 121.278 140.246 121.196 140.292 121.104C140.348 121.002 140.375 120.892 140.375 120.773C140.375 120.552 140.292 120.377 140.127 120.248C140.035 120.184 139.888 120.115 139.685 120.042C139.492 119.968 139.239 119.894 138.927 119.821C138.43 119.692 138.016 119.545 137.685 119.379C137.354 119.205 137.097 119.012 136.913 118.8C136.757 118.625 136.637 118.428 136.554 118.207C136.481 117.986 136.444 117.747 136.444 117.49C136.444 117.168 136.513 116.878 136.651 116.621C136.798 116.354 136.996 116.124 137.244 115.931C137.492 115.738 137.782 115.591 138.113 115.49C138.444 115.389 138.789 115.338 139.148 115.338C139.515 115.338 139.869 115.384 140.21 115.476C140.559 115.568 140.881 115.701 141.175 115.876C141.479 116.042 141.736 116.244 141.948 116.483L141.01 117.517C140.835 117.352 140.642 117.205 140.43 117.076C140.228 116.947 140.021 116.846 139.81 116.773C139.598 116.69 139.4 116.648 139.216 116.648C139.042 116.648 138.885 116.667 138.748 116.704C138.61 116.731 138.495 116.777 138.403 116.842C138.311 116.906 138.237 116.989 138.182 117.09C138.136 117.182 138.113 117.292 138.113 117.421C138.122 117.531 138.15 117.637 138.196 117.738C138.251 117.83 138.325 117.908 138.416 117.973C138.518 118.037 138.669 118.111 138.872 118.193C139.074 118.276 139.336 118.354 139.658 118.428C140.108 118.547 140.485 118.681 140.789 118.828C141.092 118.975 141.331 119.145 141.506 119.338C141.681 119.504 141.805 119.697 141.879 119.917C141.952 120.138 141.989 120.382 141.989 120.648C141.989 121.081 141.865 121.467 141.616 121.807C141.377 122.147 141.046 122.414 140.623 122.607C140.21 122.8 139.741 122.897 139.216 122.897ZM53.3289 143.897C52.5657 143.897 51.8898 143.736 51.3013 143.414C50.722 143.092 50.2668 142.655 49.9358 142.104C49.6139 141.543 49.453 140.904 49.453 140.186C49.453 139.616 49.545 139.097 49.7289 138.628C49.9128 138.159 50.1657 137.754 50.4875 137.414C50.8185 137.065 51.2093 136.798 51.6599 136.614C52.1197 136.421 52.6208 136.324 53.1634 136.324C53.6415 136.324 54.0875 136.416 54.5013 136.6C54.9151 136.784 55.2737 137.037 55.5772 137.359C55.8806 137.671 56.1105 138.048 56.2668 138.49C56.4323 138.922 56.5105 139.396 56.5013 139.911L56.4875 140.504H50.5978L50.2806 139.345H55.0668L54.8461 139.579V139.276C54.8185 138.991 54.7266 138.743 54.5703 138.531C54.4139 138.311 54.2116 138.14 53.9634 138.021C53.7243 137.892 53.4576 137.828 53.1634 137.828C52.7128 137.828 52.3312 137.915 52.0185 138.09C51.7151 138.265 51.4852 138.517 51.3289 138.848C51.1726 139.17 51.0944 139.575 51.0944 140.062C51.0944 140.531 51.191 140.94 51.3841 141.29C51.5864 141.639 51.8668 141.911 52.2254 142.104C52.5933 142.288 53.0208 142.379 53.5082 142.379C53.8484 142.379 54.1611 142.324 54.4461 142.214C54.7312 142.104 55.0392 141.906 55.3703 141.621L56.2116 142.793C55.9634 143.023 55.6783 143.221 55.3565 143.386C55.0438 143.543 54.7128 143.667 54.3634 143.759C54.0139 143.851 53.6691 143.897 53.3289 143.897ZM62.7204 143.759V135.842C62.7204 135.4 62.8169 135.009 63.01 134.669C63.2031 134.32 63.4698 134.048 63.81 133.855C64.1503 133.653 64.5457 133.552 64.9962 133.552C65.3089 133.552 65.5985 133.607 65.8652 133.717C66.1319 133.819 66.3572 133.961 66.5411 134.145L66.0169 135.428C65.8974 135.327 65.7686 135.248 65.6307 135.193C65.502 135.138 65.3778 135.111 65.2583 135.111C65.0744 135.111 64.9181 135.143 64.7893 135.207C64.6698 135.262 64.5778 135.35 64.5135 135.469C64.4583 135.589 64.4307 135.731 64.4307 135.897V143.759H63.5755C63.41 143.759 63.2537 143.759 63.1066 143.759C62.9686 143.759 62.8399 143.759 62.7204 143.759ZM61.5893 138.131V136.642H66.0721V138.131H61.5893ZM70.5279 143.897C69.8015 143.897 69.1532 143.736 68.5831 143.414C68.013 143.083 67.5624 142.632 67.2314 142.062C66.9003 141.492 66.7348 140.844 66.7348 140.117C66.7348 139.391 66.9003 138.743 67.2314 138.173C67.5624 137.602 68.013 137.156 68.5831 136.835C69.1532 136.504 69.8015 136.338 70.5279 136.338C71.2452 136.338 71.8888 136.504 72.4589 136.835C73.0291 137.156 73.475 137.602 73.7969 138.173C74.1279 138.743 74.2934 139.391 74.2934 140.117C74.2934 140.844 74.1279 141.492 73.7969 142.062C73.475 142.632 73.0291 143.083 72.4589 143.414C71.8888 143.736 71.2452 143.897 70.5279 143.897ZM70.5279 142.393C70.9233 142.393 71.2727 142.292 71.5762 142.09C71.8888 141.888 72.1325 141.616 72.3072 141.276C72.4911 140.936 72.5785 140.55 72.5693 140.117C72.5785 139.676 72.4911 139.285 72.3072 138.945C72.1325 138.605 71.8888 138.338 71.5762 138.145C71.2727 137.943 70.9233 137.842 70.5279 137.842C70.1325 137.842 69.7739 137.943 69.4521 138.145C69.1394 138.338 68.8957 138.609 68.721 138.959C68.5463 139.299 68.4589 139.685 68.4589 140.117C68.4589 140.55 68.5463 140.936 68.721 141.276C68.8957 141.616 69.1394 141.888 69.4521 142.09C69.7739 142.292 70.1325 142.393 70.5279 142.393ZM75.811 143.759V136.49H77.48L77.5075 138.807L77.2731 138.283C77.3742 137.915 77.5489 137.584 77.7972 137.29C78.0455 136.996 78.3305 136.766 78.6524 136.6C78.9834 136.425 79.3282 136.338 79.6869 136.338C79.8432 136.338 79.9903 136.352 80.1282 136.379C80.2754 136.407 80.3949 136.439 80.4869 136.476L80.0317 138.338C79.9305 138.283 79.8064 138.237 79.6593 138.2C79.5121 138.163 79.365 138.145 79.2179 138.145C78.988 138.145 78.7673 138.191 78.5558 138.283C78.3535 138.366 78.1742 138.485 78.0179 138.642C77.8616 138.798 77.7374 138.982 77.6455 139.193C77.5627 139.396 77.5213 139.625 77.5213 139.883V143.759H75.811ZM81.5889 143.759V136.49H83.2579L83.2855 137.952L83.0096 138.062C83.0924 137.823 83.2165 137.602 83.382 137.4C83.5475 137.189 83.7452 137.009 83.9751 136.862C84.205 136.706 84.4487 136.586 84.7061 136.504C84.9636 136.412 85.2257 136.366 85.4924 136.366C85.8878 136.366 86.2372 136.43 86.5406 136.559C86.8533 136.678 87.1107 136.871 87.313 137.138C87.5245 137.405 87.6809 137.745 87.782 138.159L87.5199 138.104L87.6303 137.883C87.7314 137.662 87.874 137.465 88.0579 137.29C88.2418 137.106 88.4487 136.945 88.6786 136.807C88.9084 136.66 89.1475 136.55 89.3958 136.476C89.6533 136.402 89.9061 136.366 90.1544 136.366C90.7061 136.366 91.1659 136.476 91.5337 136.697C91.9016 136.917 92.1774 137.253 92.3613 137.704C92.5452 138.154 92.6372 138.711 92.6372 139.373V143.759H90.9268V139.483C90.9268 139.115 90.8763 138.812 90.7751 138.573C90.6832 138.334 90.536 138.159 90.3337 138.048C90.1406 137.929 89.897 137.869 89.6027 137.869C89.3728 137.869 89.1521 137.911 88.9406 137.993C88.7383 138.067 88.5636 138.177 88.4165 138.324C88.2694 138.462 88.1544 138.623 88.0717 138.807C87.9889 138.991 87.9475 139.193 87.9475 139.414V143.759H86.2372V139.469C86.2372 139.12 86.1866 138.83 86.0855 138.6C85.9843 138.361 85.8372 138.182 85.6441 138.062C85.451 137.934 85.2165 137.869 84.9406 137.869C84.7107 137.869 84.4947 137.911 84.2924 137.993C84.0901 138.067 83.9153 138.173 83.7682 138.311C83.6211 138.448 83.5061 138.609 83.4234 138.793C83.3406 138.977 83.2993 139.179 83.2993 139.4V143.759H81.5889ZM97.2654 143.897C96.6677 143.897 96.1252 143.731 95.6378 143.4C95.1505 143.069 94.7597 142.619 94.4654 142.048C94.1712 141.478 94.024 140.83 94.024 140.104C94.024 139.377 94.1712 138.729 94.4654 138.159C94.7597 137.589 95.1597 137.143 95.6654 136.821C96.1712 136.499 96.7413 136.338 97.3758 136.338C97.7436 136.338 98.0792 136.393 98.3827 136.504C98.6861 136.605 98.9528 136.752 99.1827 136.945C99.4125 137.138 99.601 137.359 99.7482 137.607C99.9045 137.855 100.01 138.122 100.065 138.407L99.693 138.311V136.49H101.403V143.759H99.6792V142.021L100.079 141.952C100.015 142.2 99.8953 142.444 99.7206 142.683C99.5551 142.913 99.3436 143.12 99.0861 143.304C98.8378 143.478 98.5574 143.621 98.2447 143.731C97.9413 143.842 97.6148 143.897 97.2654 143.897ZM97.7344 142.393C98.1298 142.393 98.4792 142.297 98.7827 142.104C99.0861 141.911 99.3206 141.644 99.4861 141.304C99.6608 140.954 99.7482 140.554 99.7482 140.104C99.7482 139.662 99.6608 139.271 99.4861 138.931C99.3206 138.591 99.0861 138.324 98.7827 138.131C98.4792 137.938 98.1298 137.842 97.7344 137.842C97.339 137.842 96.9896 137.938 96.6861 138.131C96.3918 138.324 96.162 138.591 95.9964 138.931C95.8309 139.271 95.7482 139.662 95.7482 140.104C95.7482 140.554 95.8309 140.954 95.9964 141.304C96.162 141.644 96.3918 141.911 96.6861 142.104C96.9896 142.297 97.339 142.393 97.7344 142.393ZM105.798 143.897C105.154 143.897 104.575 143.791 104.06 143.579C103.554 143.359 103.14 143.046 102.819 142.642L103.922 141.69C104.198 142.002 104.506 142.228 104.846 142.366C105.186 142.504 105.545 142.573 105.922 142.573C106.078 142.573 106.216 142.554 106.336 142.517C106.465 142.481 106.575 142.425 106.667 142.352C106.759 142.278 106.828 142.196 106.874 142.104C106.929 142.002 106.956 141.892 106.956 141.773C106.956 141.552 106.874 141.377 106.708 141.248C106.616 141.184 106.469 141.115 106.267 141.042C106.074 140.968 105.821 140.894 105.508 140.821C105.012 140.692 104.598 140.545 104.267 140.379C103.936 140.205 103.678 140.012 103.494 139.8C103.338 139.625 103.219 139.428 103.136 139.207C103.062 138.986 103.025 138.747 103.025 138.49C103.025 138.168 103.094 137.878 103.232 137.621C103.379 137.354 103.577 137.124 103.825 136.931C104.074 136.738 104.363 136.591 104.694 136.49C105.025 136.389 105.37 136.338 105.729 136.338C106.097 136.338 106.451 136.384 106.791 136.476C107.14 136.568 107.462 136.701 107.756 136.876C108.06 137.042 108.317 137.244 108.529 137.483L107.591 138.517C107.416 138.352 107.223 138.205 107.012 138.076C106.809 137.947 106.602 137.846 106.391 137.773C106.179 137.69 105.982 137.648 105.798 137.648C105.623 137.648 105.467 137.667 105.329 137.704C105.191 137.731 105.076 137.777 104.984 137.842C104.892 137.906 104.819 137.989 104.763 138.09C104.717 138.182 104.694 138.292 104.694 138.421C104.704 138.531 104.731 138.637 104.777 138.738C104.832 138.83 104.906 138.908 104.998 138.973C105.099 139.037 105.251 139.111 105.453 139.193C105.655 139.276 105.917 139.354 106.239 139.428C106.69 139.547 107.067 139.681 107.37 139.828C107.674 139.975 107.913 140.145 108.088 140.338C108.262 140.504 108.386 140.697 108.46 140.917C108.533 141.138 108.57 141.382 108.57 141.648C108.57 142.081 108.446 142.467 108.198 142.807C107.959 143.147 107.628 143.414 107.205 143.607C106.791 143.8 106.322 143.897 105.798 143.897Z" fill="#FBFDFF"/>
<path d="M65.9822 182.835C65.7442 182.835 65.5512 183.028 65.5512 183.266C65.5512 183.504 65.7442 183.697 65.9822 183.697H68.4218C68.6599 183.697 68.8528 183.504 68.8528 183.266C68.8528 183.028 68.6599 182.835 68.4218 182.835H65.9822Z" fill="#FBFDFF"/>
<path d="M65.5242 185.406C65.5242 185.168 65.7172 184.975 65.9553 184.975H71.2848C71.5229 184.975 71.7159 185.168 71.7159 185.406C71.7159 185.644 71.5229 185.837 71.2848 185.837H65.9553C65.7172 185.837 65.5242 185.644 65.5242 185.406Z" fill="#FBFDFF"/>
<path d="M65.9334 187.154C65.6953 187.154 65.5024 187.347 65.5024 187.585C65.5024 187.823 65.6953 188.016 65.9334 188.016H71.2734C71.5115 188.016 71.7045 187.823 71.7045 187.585C71.7045 187.347 71.5115 187.154 71.2734 187.154H65.9334Z" fill="#FBFDFF"/>
<path fill-rule="evenodd" clip-rule="evenodd" d="M63.3809 178.814C63.3809 178.296 63.7935 177.863 64.322 177.863H70.3613C70.4686 177.863 70.572 177.903 70.6513 177.975L74.0346 181.052C74.1244 181.134 74.1756 181.249 74.1756 181.371V190.703C74.1756 191.221 73.763 191.655 73.2345 191.655H64.322C63.7935 191.655 63.3809 191.221 63.3809 190.703V178.814ZM64.322 178.725C64.2859 178.725 64.2429 178.756 64.2429 178.814V190.703C64.2429 190.762 64.2858 190.793 64.322 190.793H73.2345C73.2706 190.793 73.3136 190.762 73.3136 190.703V182.474H70.3565C70.1185 182.474 69.9255 182.281 69.9255 182.043V178.725H64.322ZM73.3136 181.561V181.612H70.7876V179.264L73.3136 181.561Z" fill="#FBFDFF"/>
<path d="M83.5664 190.397C82.8124 190.397 82.1687 190.199 81.6354 189.804C81.1112 189.408 80.7066 188.843 80.4216 188.107C80.1457 187.362 80.0078 186.47 80.0078 185.431C80.0078 184.392 80.1457 183.505 80.4216 182.769C80.7066 182.024 81.1112 181.454 81.6354 181.059C82.1687 180.663 82.8124 180.466 83.5664 180.466C84.3112 180.466 84.9503 180.663 85.4836 181.059C86.017 181.454 86.4216 182.024 86.6974 182.769C86.9825 183.505 87.125 184.392 87.125 185.431C87.125 186.47 86.9825 187.362 86.6974 188.107C86.4216 188.843 86.017 189.408 85.4836 189.804C84.9503 190.199 84.3112 190.397 83.5664 190.397ZM83.5664 189.39C84.3572 189.39 84.9641 189.045 85.3871 188.355C85.8193 187.666 86.0354 186.691 86.0354 185.431C86.0354 184.171 85.8193 183.197 85.3871 182.507C84.9641 181.817 84.3572 181.473 83.5664 181.473C82.7664 181.473 82.1503 181.817 81.7181 182.507C81.2951 183.197 81.0836 184.171 81.0836 185.431C81.0836 186.691 81.2951 187.666 81.7181 188.355C82.1503 189.045 82.7664 189.39 83.5664 189.39ZM89.074 190.259L88.743 189.459L91.9982 185.804C92.1545 185.629 92.3154 185.431 92.4809 185.211C92.6557 184.99 92.8166 184.76 92.9637 184.521C93.12 184.273 93.2442 184.029 93.3361 183.79C93.4281 183.551 93.474 183.316 93.474 183.086C93.474 182.746 93.4005 182.461 93.2534 182.231C93.1062 181.992 92.8947 181.808 92.6189 181.679C92.3522 181.551 92.0396 181.486 91.6809 181.486C91.3683 181.486 91.0603 181.56 90.7568 181.707C90.4534 181.854 90.1775 182.079 89.9292 182.383C89.6809 182.686 89.4878 183.073 89.3499 183.542L88.4947 183.031C88.6603 182.47 88.9039 182.001 89.2258 181.624C89.5476 181.238 89.9292 180.948 90.3706 180.755C90.812 180.562 91.2855 180.466 91.7913 180.466C92.3246 180.466 92.8028 180.576 93.2258 180.797C93.6488 181.008 93.9844 181.312 94.2327 181.707C94.4809 182.093 94.6051 182.539 94.6051 183.045C94.6051 183.266 94.5775 183.486 94.5223 183.707C94.4763 183.928 94.4028 184.148 94.3016 184.369C94.2005 184.59 94.0763 184.815 93.9292 185.045C93.7913 185.275 93.6258 185.509 93.4327 185.748C93.2488 185.988 93.0419 186.236 92.812 186.493L90.0396 189.583L89.874 189.224H94.9085V190.259H89.074Z" fill="#FBFDFF"/>
</g>
<defs>
<filter id="filter0_d_562_3818" x="0.275862" y="0.275862" width="159.172" height="205.172" filterUnits="userSpaceOnUse" color-interpolation-filters="sRGB">
<feFlood flood-opacity="0" result="BackgroundImageFix"/>
<feColorMatrix in="SourceAlpha" type="matrix" values="0 0 0 0 0 0 0 0 0 0 0 0 0 0 0 0 0 0 127 0" result="hardAlpha"/>
<feOffset dx="0.862069" dy="0.862069"/>
<feGaussianBlur stdDeviation="1.2931"/>
<feComposite in2="hardAlpha" operator="out"/>
<feColorMatrix type="matrix" values="0 0 0 0 0 0 0 0 0 0 0 0 0 0 0 0 0 0 0.15 0"/>
<feBlend mode="normal" in2="BackgroundImageFix" result="effect1_dropShadow_562_3818"/>
<feBlend mode="normal" in="SourceGraphic" in2="effect1_dropShadow_562_3818" result="shape"/>
</filter>
<clipPath id="clip0_562_3818">
<rect width="63.7931" height="62.931" fill="white" transform="translate(47.1035 31.3101)"/>
</clipPath>
</defs>
</svg>
