<svg width="160" height="206" viewBox="0 0 160 206" fill="none" xmlns="http://www.w3.org/2000/svg">
<g filter="url(#filter0_d_562_3821)">
<g clip-path="url(#clip0_562_3821)">
<path d="M2 8.89654C2 5.08768 5.08769 2 8.89655 2H149.103C152.912 2 156 5.08769 156 8.89655V195.103C156 198.912 152.912 202 149.103 202H8.89654C5.08768 202 2 198.912 2 195.103V8.89654Z" fill="#FBFDFF"/>
<path d="M2 2H69.7931C117.404 2 156 40.5961 156 88.2069V202H88.2069C40.5961 202 2 163.404 2 115.793V2Z" fill="#144EC0"/>
<path d="M105.697 78.7442L110.801 90.1957L91.3508 78.6362L105.697 78.7442Z" fill="#B5B5B5"/>
<path fill-rule="evenodd" clip-rule="evenodd" d="M87.0272 77.4304C86.4826 79.384 87.3151 81.4601 89.0585 82.4963L108.508 94.0557C110.19 95.055 112.325 94.8509 113.787 93.551C115.248 92.251 115.7 90.1545 114.904 88.3678L109.8 76.9164C109.084 75.3083 107.493 74.2674 105.733 74.2541L91.3864 74.1461C89.3584 74.1309 87.5718 75.4769 87.0272 77.4304Z" fill="#65A115"/>
<path d="M74.5799 51.1904H111.899C114.105 51.1904 115.895 52.9795 115.895 55.1864V77.4683C115.895 79.6753 114.105 81.4643 111.899 81.4643H74.5799C72.373 81.4643 70.5839 79.6753 70.5839 77.4683V55.1864C70.5839 52.9795 72.373 51.1904 74.5799 51.1904Z" fill="#8CC640"/>
<path fill-rule="evenodd" clip-rule="evenodd" d="M111.899 53.6841C112.729 53.6841 113.402 54.3569 113.402 55.1867V77.4686C113.402 78.2984 112.729 78.9712 111.899 78.9712H74.5806C73.7507 78.9712 73.078 78.2985 73.078 77.4686V55.1867C73.078 54.3569 73.7507 53.6841 74.5806 53.6841H111.899ZM118.389 55.1867C118.389 51.6027 115.483 48.6973 111.899 48.6973H74.5806C70.9966 48.6973 68.0912 51.6027 68.0912 55.1867V77.4686C68.0912 81.0526 70.9966 83.958 74.5806 83.958H111.899C115.483 83.958 118.389 81.0527 118.389 77.4686V55.1867Z" fill="#65A115"/>
<path fill-rule="evenodd" clip-rule="evenodd" d="M104.08 65.9432C104.08 65.6426 103.836 65.3989 103.536 65.3989H92.6675C92.3669 65.3989 92.1233 65.6426 92.1233 65.9432V66.744C92.1233 67.0445 92.3669 67.2882 92.6675 67.2882H103.536C103.836 67.2882 104.08 67.0445 104.08 66.744V65.9432Z" fill="#65A115"/>
<path fill-rule="evenodd" clip-rule="evenodd" d="M103.965 61.2767C103.965 60.9818 103.726 60.7427 103.431 60.7427H93.2296C92.9346 60.7427 92.6955 60.9818 92.6955 61.2767V62.098C92.6955 62.3929 92.9346 62.632 93.2296 62.632H103.431C103.726 62.632 103.965 62.3929 103.965 62.098V61.2767Z" fill="#65A115"/>
<path fill-rule="evenodd" clip-rule="evenodd" d="M90.4316 61.2544C90.4316 60.9944 90.2209 60.7837 89.9609 60.7837H83.0941C82.8342 60.7837 82.6234 60.9944 82.6234 61.2544V62.2023C82.6234 62.4623 82.8342 62.673 83.0941 62.673H89.9609C90.2209 62.673 90.4316 62.4623 90.4316 62.2023V61.2544ZM89.4902 61.7251V61.7316H83.5648V61.7251H89.4902Z" fill="#65A115"/>
<path fill-rule="evenodd" clip-rule="evenodd" d="M103.957 70.5559C103.957 70.274 103.728 70.0454 103.447 70.0454H94.6303C94.3483 70.0454 94.1198 70.274 94.1198 70.5559V71.4242C94.1198 71.7062 94.3483 71.9347 94.6303 71.9347H103.447C103.728 71.9347 103.957 71.7062 103.957 71.4242V70.5559Z" fill="#65A115"/>
<path d="M105.698 78.7442L110.994 90.0606L91.3513 78.6362L105.698 78.7442Z" fill="#8CC640"/>
<path d="M52.3009 94.6783L47.1973 106.13L66.6472 94.5703L52.3009 94.6783Z" fill="#B5B5B5"/>
<path fill-rule="evenodd" clip-rule="evenodd" d="M70.9708 93.3645C71.5154 95.3181 70.683 97.3942 68.9396 98.4304L49.4896 109.99C47.8081 110.989 45.6731 110.785 44.2115 109.485C42.7498 108.185 42.2979 106.089 43.0942 104.302L48.1978 92.8505C48.9145 91.2424 50.5048 90.2015 52.2654 90.1882L66.6117 90.0802C68.6397 90.0649 70.4262 91.411 70.9708 93.3645Z" fill="#FF8616"/>
<path d="M83.4162 67.125H46.0976C43.8906 67.125 42.1016 68.9141 42.1016 71.121V93.4029C42.1016 95.6098 43.8906 97.3989 46.0976 97.3989H83.4162C85.6231 97.3989 87.4122 95.6098 87.4122 93.4029V71.121C87.4122 68.9141 85.6231 67.125 83.4162 67.125Z" fill="#FBB516"/>
<path fill-rule="evenodd" clip-rule="evenodd" d="M46.0984 69.6178C45.2682 69.6178 44.5953 70.2907 44.5953 71.1208V93.4027C44.5953 94.2328 45.2682 94.9057 46.0984 94.9057H83.417C84.2471 94.9057 84.92 94.2328 84.92 93.4027V71.1208C84.92 70.2907 84.2471 69.6178 83.417 69.6178H46.0984ZM39.6094 71.1208C39.6094 67.537 42.5146 64.6318 46.0984 64.6318H83.417C87.0007 64.6318 89.906 67.537 89.906 71.1208V93.4027C89.906 96.9865 87.0007 99.8917 83.417 99.8917H46.0984C42.5146 99.8917 39.6094 96.9865 39.6094 93.4027V71.1208Z" fill="#FF8616"/>
<path fill-rule="evenodd" clip-rule="evenodd" d="M53.916 81.9558C53.916 81.6119 54.1949 81.333 54.5388 81.333H72.2444C72.5884 81.333 72.8673 81.6119 72.8673 81.9558V82.5995C72.8673 82.9434 72.5884 83.2223 72.2444 83.2223H54.5388C54.1949 83.2223 53.916 82.9434 53.916 82.5995V81.9558Z" fill="#FF8616"/>
<path fill-rule="evenodd" clip-rule="evenodd" d="M54.0332 77.2108C54.0332 76.9158 54.2723 76.6768 54.5672 76.6768H64.7685C65.0634 76.6768 65.3025 76.9158 65.3025 77.2108V78.032C65.3025 78.327 65.0634 78.5661 64.7685 78.5661H54.5672C54.2723 78.5661 54.0332 78.327 54.0332 78.032V77.2108Z" fill="#FF8616"/>
<path fill-rule="evenodd" clip-rule="evenodd" d="M67.5664 77.1885C67.5664 76.9285 67.7771 76.7178 68.0371 76.7178H74.9039C75.1639 76.7178 75.3746 76.9285 75.3746 77.1885V78.1364C75.3746 78.3963 75.1639 78.6071 74.9039 78.6071H68.0371C67.7771 78.6071 67.5664 78.3963 67.5664 78.1364V77.1885ZM68.5078 77.6592V77.6657H74.4332V77.6592H68.5078Z" fill="#FF8616"/>
<path fill-rule="evenodd" clip-rule="evenodd" d="M54.0391 86.5655C54.0391 86.2421 54.3012 85.98 54.6246 85.98H68.6482C68.9716 85.98 69.2338 86.2421 69.2338 86.5655V87.2838C69.2338 87.6071 68.9716 87.8693 68.6482 87.8693H54.6246C54.3012 87.8693 54.0391 87.6071 54.0391 87.2838V86.5655Z" fill="#FF8616"/>
<path d="M52.3005 94.6783L47.0039 105.995L66.6468 94.5703L52.3005 94.6783Z" fill="#FBB516"/>
<path d="M38.5607 123.621V113.965H44.8779V115.593H40.3262V121.993H44.9331V123.621H38.5607ZM39.3883 119.483V117.883H44.1745V119.483H39.3883ZM49.3055 123.759C48.6618 123.759 48.0825 123.653 47.5676 123.441C47.0618 123.221 46.648 122.908 46.3262 122.503L47.4297 121.552C47.7055 121.864 48.0136 122.09 48.3538 122.228C48.694 122.365 49.0526 122.434 49.4297 122.434C49.586 122.434 49.7239 122.416 49.8435 122.379C49.9722 122.342 50.0825 122.287 50.1745 122.214C50.2664 122.14 50.3354 122.057 50.3814 121.965C50.4366 121.864 50.4641 121.754 50.4641 121.634C50.4641 121.414 50.3814 121.239 50.2159 121.11C50.1239 121.046 49.9768 120.977 49.7745 120.903C49.5814 120.83 49.3285 120.756 49.0159 120.683C48.5193 120.554 48.1055 120.407 47.7745 120.241C47.4435 120.067 47.186 119.873 47.0021 119.662C46.8458 119.487 46.7262 119.29 46.6435 119.069C46.5699 118.848 46.5331 118.609 46.5331 118.352C46.5331 118.03 46.6021 117.74 46.74 117.483C46.8871 117.216 47.0848 116.986 47.3331 116.793C47.5814 116.6 47.871 116.453 48.2021 116.352C48.5331 116.25 48.8779 116.2 49.2366 116.2C49.6044 116.2 49.9584 116.246 50.2986 116.338C50.648 116.43 50.9699 116.563 51.2641 116.738C51.5676 116.903 51.8251 117.106 52.0366 117.345L51.0986 118.379C50.9239 118.214 50.7308 118.067 50.5193 117.938C50.317 117.809 50.1101 117.708 49.8986 117.634C49.6871 117.552 49.4894 117.51 49.3055 117.51C49.1308 117.51 48.9745 117.529 48.8366 117.565C48.6986 117.593 48.5837 117.639 48.4917 117.703C48.3998 117.768 48.3262 117.85 48.271 117.952C48.2251 118.044 48.2021 118.154 48.2021 118.283C48.2113 118.393 48.2389 118.499 48.2848 118.6C48.34 118.692 48.4136 118.77 48.5055 118.834C48.6067 118.899 48.7584 118.972 48.9607 119.055C49.163 119.138 49.4251 119.216 49.7469 119.29C50.1975 119.409 50.5745 119.542 50.8779 119.69C51.1814 119.837 51.4205 120.007 51.5952 120.2C51.7699 120.365 51.894 120.559 51.9676 120.779C52.0412 121 52.0779 121.244 52.0779 121.51C52.0779 121.942 51.9538 122.329 51.7055 122.669C51.4664 123.009 51.1354 123.276 50.7124 123.469C50.2986 123.662 49.8297 123.759 49.3055 123.759ZM56.6897 123.759C56.0092 123.759 55.3977 123.593 54.8552 123.262C54.3127 122.931 53.8851 122.48 53.5724 121.91C53.2598 121.34 53.1035 120.696 53.1035 119.979C53.1035 119.262 53.2598 118.618 53.5724 118.048C53.8851 117.478 54.3127 117.028 54.8552 116.696C55.3977 116.365 56.0092 116.2 56.6897 116.2C57.3426 116.2 57.9357 116.324 58.469 116.572C59.0023 116.821 59.4161 117.165 59.7104 117.607L58.7724 118.738C58.6345 118.545 58.4598 118.37 58.2483 118.214C58.0368 118.057 57.8115 117.933 57.5724 117.841C57.3334 117.749 57.0943 117.703 56.8552 117.703C56.4506 117.703 56.0874 117.805 55.7655 118.007C55.4529 118.2 55.2046 118.471 55.0207 118.821C54.8368 119.161 54.7449 119.547 54.7449 119.979C54.7449 120.411 54.8368 120.798 55.0207 121.138C55.2138 121.478 55.4713 121.749 55.7931 121.952C56.115 122.154 56.4736 122.255 56.869 122.255C57.1081 122.255 57.338 122.218 57.5586 122.145C57.7885 122.062 58.0046 121.947 58.2069 121.8C58.4092 121.653 58.5977 121.469 58.7724 121.248L59.7104 122.393C59.3977 122.798 58.9655 123.129 58.4138 123.386C57.8713 123.634 57.2966 123.759 56.6897 123.759ZM63.5319 123.759C63.0078 123.759 62.5526 123.644 62.1664 123.414C61.7802 123.175 61.4859 122.839 61.2836 122.407C61.0813 121.965 60.9802 121.441 60.9802 120.834V116.352H62.6767V120.476C62.6767 120.862 62.7365 121.193 62.8561 121.469C62.9756 121.736 63.1503 121.942 63.3802 122.09C63.6101 122.237 63.8859 122.31 64.2078 122.31C64.4469 122.31 64.663 122.273 64.8561 122.2C65.0584 122.117 65.2331 122.007 65.3802 121.869C65.5273 121.722 65.6423 121.552 65.725 121.359C65.8078 121.156 65.8492 120.94 65.8492 120.71V116.352H67.5457V123.621H65.8905L65.863 122.103L66.1664 121.938C66.0561 122.287 65.8676 122.6 65.6009 122.876C65.3434 123.142 65.0354 123.359 64.6767 123.524C64.3181 123.68 63.9365 123.759 63.5319 123.759ZM70.3204 123.621V114.503H72.0169V123.621H70.3204ZM68.8859 117.924V116.352H73.6032V117.924H68.8859ZM77.5727 123.759C76.975 123.759 76.4324 123.593 75.9451 123.262C75.4577 122.931 75.0669 122.48 74.7727 121.91C74.4784 121.34 74.3313 120.692 74.3313 119.965C74.3313 119.239 74.4784 118.591 74.7727 118.021C75.0669 117.45 75.4669 117.005 75.9727 116.683C76.4784 116.361 77.0485 116.2 77.683 116.2C78.0508 116.2 78.3864 116.255 78.6899 116.365C78.9933 116.467 79.26 116.614 79.4899 116.807C79.7198 117 79.9083 117.221 80.0554 117.469C80.2117 117.717 80.3175 117.984 80.3727 118.269L80.0002 118.172V116.352H81.7106V123.621H79.9864V121.883L80.3864 121.814C80.3221 122.062 80.2025 122.306 80.0278 122.545C79.8623 122.775 79.6508 122.982 79.3933 123.165C79.1451 123.34 78.8646 123.483 78.552 123.593C78.2485 123.703 77.9221 123.759 77.5727 123.759ZM78.0416 122.255C78.437 122.255 78.7864 122.159 79.0899 121.965C79.3933 121.772 79.6278 121.506 79.7933 121.165C79.9681 120.816 80.0554 120.416 80.0554 119.965C80.0554 119.524 79.9681 119.133 79.7933 118.793C79.6278 118.453 79.3933 118.186 79.0899 117.993C78.7864 117.8 78.437 117.703 78.0416 117.703C77.6462 117.703 77.2968 117.8 76.9933 117.993C76.6991 118.186 76.4692 118.453 76.3037 118.793C76.1382 119.133 76.0554 119.524 76.0554 119.965C76.0554 120.416 76.1382 120.816 76.3037 121.165C76.4692 121.506 76.6991 121.772 76.9933 121.965C77.2968 122.159 77.6462 122.255 78.0416 122.255ZM83.8844 126.186L83.3189 125.51C83.6591 125.326 83.9304 125.11 84.1327 124.862C84.3442 124.623 84.4499 124.416 84.4499 124.241C84.4499 124.149 84.4269 124.057 84.381 123.965C84.3442 123.883 84.2476 123.768 84.0913 123.621C83.8982 123.446 83.7695 123.294 83.7051 123.165C83.6407 123.037 83.6085 122.894 83.6085 122.738C83.6085 122.499 83.6959 122.306 83.8706 122.159C84.0453 122.011 84.2706 121.938 84.5465 121.938C84.7947 121.938 85.0154 122.007 85.2085 122.145C85.4108 122.283 85.5672 122.476 85.6775 122.724C85.7879 122.963 85.843 123.244 85.843 123.565C85.843 123.85 85.7924 124.126 85.6913 124.393C85.5993 124.669 85.4614 124.922 85.2775 125.152C85.1028 125.382 84.8959 125.584 84.6568 125.759C84.4269 125.942 84.1695 126.085 83.8844 126.186ZM92.179 123.621V115.703C92.179 115.262 92.2756 114.871 92.4687 114.531C92.6618 114.182 92.9284 113.91 93.2687 113.717C93.6089 113.515 94.0043 113.414 94.4549 113.414C94.7675 113.414 95.0572 113.469 95.3238 113.579C95.5905 113.68 95.8158 113.823 95.9997 114.007L95.4756 115.29C95.356 115.188 95.2273 115.11 95.0894 115.055C94.9606 115 94.8365 114.972 94.7169 114.972C94.533 114.972 94.3767 115.005 94.248 115.069C94.1284 115.124 94.0365 115.211 93.9721 115.331C93.9169 115.45 93.8894 115.593 93.8894 115.759V123.621H93.0342C92.8687 123.621 92.7123 123.621 92.5652 123.621C92.4273 123.621 92.2986 123.621 92.179 123.621ZM91.048 117.993V116.503H95.5307V117.993H91.048ZM99.4072 123.759C98.8095 123.759 98.267 123.593 97.7797 123.262C97.2923 122.931 96.9015 122.48 96.6072 121.91C96.313 121.34 96.1659 120.692 96.1659 119.965C96.1659 119.239 96.313 118.591 96.6072 118.021C96.9015 117.45 97.3015 117.005 97.8072 116.683C98.313 116.361 98.8831 116.2 99.5176 116.2C99.8854 116.2 100.221 116.255 100.524 116.365C100.828 116.467 101.095 116.614 101.324 116.807C101.554 117 101.743 117.221 101.89 117.469C102.046 117.717 102.152 117.984 102.207 118.269L101.835 118.172V116.352H103.545V123.621H101.821V121.883L102.221 121.814C102.157 122.062 102.037 122.306 101.862 122.545C101.697 122.775 101.485 122.982 101.228 123.165C100.98 123.34 100.699 123.483 100.387 123.593C100.083 123.703 99.7567 123.759 99.4072 123.759ZM99.8762 122.255C100.272 122.255 100.621 122.159 100.924 121.965C101.228 121.772 101.462 121.506 101.628 121.165C101.803 120.816 101.89 120.416 101.89 119.965C101.89 119.524 101.803 119.133 101.628 118.793C101.462 118.453 101.228 118.186 100.924 117.993C100.621 117.8 100.272 117.703 99.8762 117.703C99.4808 117.703 99.1314 117.8 98.8279 117.993C98.5337 118.186 98.3038 118.453 98.1383 118.793C97.9728 119.133 97.89 119.524 97.89 119.965C97.89 120.416 97.9728 120.816 98.1383 121.165C98.3038 121.506 98.5337 121.772 98.8279 121.965C99.1314 122.159 99.4808 122.255 99.8762 122.255ZM105.526 123.621V113.414H107.236V123.621H105.526ZM111.84 123.759C111.242 123.759 110.7 123.593 110.212 123.262C109.725 122.931 109.334 122.48 109.04 121.91C108.746 121.34 108.599 120.692 108.599 119.965C108.599 119.239 108.746 118.591 109.04 118.021C109.334 117.45 109.734 117.005 110.24 116.683C110.746 116.361 111.316 116.2 111.95 116.2C112.318 116.2 112.654 116.255 112.957 116.365C113.261 116.467 113.527 116.614 113.757 116.807C113.987 117 114.176 117.221 114.323 117.469C114.479 117.717 114.585 117.984 114.64 118.269L114.267 118.172V116.352H115.978V123.621H114.254V121.883L114.654 121.814C114.589 122.062 114.47 122.306 114.295 122.545C114.13 122.775 113.918 122.982 113.661 123.165C113.412 123.34 113.132 123.483 112.819 123.593C112.516 123.703 112.189 123.759 111.84 123.759ZM112.309 122.255C112.704 122.255 113.054 122.159 113.357 121.965C113.661 121.772 113.895 121.506 114.061 121.165C114.235 120.816 114.323 120.416 114.323 119.965C114.323 119.524 114.235 119.133 114.061 118.793C113.895 118.453 113.661 118.186 113.357 117.993C113.054 117.8 112.704 117.703 112.309 117.703C111.913 117.703 111.564 117.8 111.261 117.993C110.966 118.186 110.736 118.453 110.571 118.793C110.405 119.133 110.323 119.524 110.323 119.965C110.323 120.416 110.405 120.816 110.571 121.165C110.736 121.506 110.966 121.772 111.261 121.965C111.564 122.159 111.913 122.255 112.309 122.255ZM118.152 126.186L117.586 125.51C117.926 125.326 118.198 125.11 118.4 124.862C118.611 124.623 118.717 124.416 118.717 124.241C118.717 124.149 118.694 124.057 118.648 123.965C118.611 123.883 118.515 123.768 118.359 123.621C118.165 123.446 118.037 123.294 117.972 123.165C117.908 123.037 117.876 122.894 117.876 122.738C117.876 122.499 117.963 122.306 118.138 122.159C118.313 122.011 118.538 121.938 118.814 121.938C119.062 121.938 119.283 122.007 119.476 122.145C119.678 122.283 119.834 122.476 119.945 122.724C120.055 122.963 120.11 123.244 120.11 123.565C120.11 123.85 120.06 124.126 119.959 124.393C119.867 124.669 119.729 124.922 119.545 125.152C119.37 125.382 119.163 125.584 118.924 125.759C118.694 125.942 118.437 126.085 118.152 126.186ZM31.8456 147.655V137.352H33.5146L33.5422 139.007L33.2525 138.883C33.3077 138.598 33.464 138.331 33.7215 138.083C33.9789 137.825 34.2916 137.618 34.6594 137.462C35.0364 137.306 35.4272 137.228 35.8318 137.228C36.4755 137.228 37.0456 137.388 37.5422 137.71C38.0479 138.032 38.4433 138.473 38.7284 139.034C39.0226 139.595 39.1697 140.244 39.1697 140.979C39.1697 141.706 39.0226 142.354 38.7284 142.924C38.4433 143.485 38.0479 143.931 37.5422 144.262C37.0456 144.584 36.4847 144.745 35.8594 144.745C35.4364 144.745 35.0272 144.662 34.6318 144.496C34.2456 144.331 33.9146 144.115 33.6387 143.848C33.372 143.582 33.2065 143.301 33.1422 143.007L33.5559 142.814V147.655H31.8456ZM35.5146 143.241C35.9008 143.241 36.2456 143.145 36.5491 142.952C36.8525 142.759 37.087 142.492 37.2525 142.152C37.4272 141.811 37.5146 141.421 37.5146 140.979C37.5146 140.538 37.4318 140.152 37.2663 139.821C37.1008 139.48 36.8663 139.214 36.5628 139.021C36.2594 138.828 35.91 138.731 35.5146 138.731C35.11 138.731 34.7559 138.828 34.4525 139.021C34.1582 139.205 33.9238 139.467 33.7491 139.807C33.5743 140.147 33.487 140.538 33.487 140.979C33.487 141.421 33.5743 141.811 33.7491 142.152C33.9238 142.492 34.1582 142.759 34.4525 142.952C34.7559 143.145 35.11 143.241 35.5146 143.241ZM44.0887 144.759C43.3255 144.759 42.6496 144.598 42.0611 144.276C41.4818 143.954 41.0266 143.517 40.6956 142.965C40.3738 142.405 40.2128 141.765 40.2128 141.048C40.2128 140.478 40.3048 139.959 40.4887 139.49C40.6726 139.021 40.9255 138.616 41.2473 138.276C41.5784 137.926 41.9692 137.66 42.4197 137.476C42.8795 137.283 43.3807 137.186 43.9232 137.186C44.4014 137.186 44.8473 137.278 45.2611 137.462C45.6749 137.646 46.0335 137.899 46.337 138.221C46.6404 138.533 46.8703 138.91 47.0266 139.352C47.1922 139.784 47.2703 140.257 47.2611 140.772L47.2473 141.365H41.3577L41.0404 140.207H45.8266L45.606 140.441V140.138C45.5784 139.853 45.4864 139.605 45.3301 139.393C45.1738 139.172 44.9715 139.002 44.7232 138.883C44.4841 138.754 44.2174 138.69 43.9232 138.69C43.4726 138.69 43.091 138.777 42.7784 138.952C42.4749 139.126 42.245 139.379 42.0887 139.71C41.9324 140.032 41.8542 140.437 41.8542 140.924C41.8542 141.393 41.9508 141.802 42.1439 142.152C42.3462 142.501 42.6266 142.772 42.9853 142.965C43.3531 143.149 43.7807 143.241 44.268 143.241C44.6082 143.241 44.9209 143.186 45.206 143.076C45.491 142.965 45.7991 142.768 46.1301 142.483L46.9715 143.655C46.7232 143.885 46.4381 144.083 46.1163 144.248C45.8037 144.405 45.4726 144.529 45.1232 144.621C44.7738 144.713 44.4289 144.759 44.0887 144.759ZM48.7637 144.621V137.352H50.4189L50.4465 138.841L50.1292 139.007C50.2212 138.676 50.4005 138.377 50.6672 138.11C50.9338 137.834 51.2511 137.614 51.6189 137.448C51.9867 137.283 52.3637 137.2 52.7499 137.2C53.3016 137.2 53.7614 137.31 54.1292 137.531C54.5062 137.752 54.7867 138.083 54.9706 138.524C55.1637 138.965 55.2603 139.517 55.2603 140.179V144.621H53.5637V140.303C53.5637 139.936 53.5131 139.632 53.412 139.393C53.3108 139.145 53.1545 138.965 52.943 138.855C52.7315 138.736 52.4741 138.68 52.1706 138.69C51.9223 138.69 51.6924 138.731 51.481 138.814C51.2787 138.887 51.0993 138.998 50.943 139.145C50.7959 139.283 50.6764 139.444 50.5844 139.628C50.5016 139.811 50.4603 140.014 50.4603 140.234V144.621H49.6189C49.4534 144.621 49.297 144.621 49.1499 144.621C49.012 144.621 48.8833 144.621 48.7637 144.621ZM59.5965 144.759C58.9528 144.759 58.3735 144.653 57.8585 144.441C57.3528 144.221 56.939 143.908 56.6172 143.503L57.7206 142.552C57.9965 142.864 58.3045 143.09 58.6447 143.228C58.985 143.365 59.3436 143.434 59.7206 143.434C59.8769 143.434 60.0149 143.416 60.1344 143.379C60.2631 143.342 60.3735 143.287 60.4654 143.214C60.5574 143.14 60.6264 143.057 60.6723 142.965C60.7275 142.864 60.7551 142.754 60.7551 142.634C60.7551 142.414 60.6723 142.239 60.5068 142.11C60.4149 142.046 60.2677 141.977 60.0654 141.903C59.8723 141.83 59.6195 141.756 59.3068 141.683C58.8103 141.554 58.3965 141.407 58.0654 141.241C57.7344 141.067 57.4769 140.873 57.293 140.662C57.1367 140.487 57.0172 140.29 56.9344 140.069C56.8608 139.848 56.8241 139.609 56.8241 139.352C56.8241 139.03 56.893 138.74 57.0309 138.483C57.1781 138.216 57.3758 137.986 57.6241 137.793C57.8723 137.6 58.162 137.453 58.493 137.352C58.8241 137.25 59.1689 137.2 59.5275 137.2C59.8953 137.2 60.2493 137.246 60.5896 137.338C60.939 137.43 61.2608 137.563 61.5551 137.738C61.8585 137.903 62.116 138.106 62.3275 138.345L61.3896 139.379C61.2149 139.214 61.0218 139.067 60.8103 138.938C60.608 138.809 60.4011 138.708 60.1896 138.634C59.9781 138.552 59.7804 138.51 59.5965 138.51C59.4218 138.51 59.2654 138.529 59.1275 138.565C58.9896 138.593 58.8746 138.639 58.7827 138.703C58.6907 138.768 58.6172 138.85 58.562 138.952C58.516 139.044 58.493 139.154 58.493 139.283C58.5022 139.393 58.5298 139.499 58.5758 139.6C58.631 139.692 58.7045 139.77 58.7965 139.834C58.8976 139.899 59.0493 139.972 59.2516 140.055C59.4539 140.138 59.716 140.216 60.0378 140.29C60.4884 140.409 60.8654 140.542 61.1689 140.69C61.4723 140.837 61.7114 141.007 61.8861 141.2C62.0608 141.365 62.185 141.559 62.2585 141.779C62.3321 142 62.3689 142.244 62.3689 142.51C62.3689 142.942 62.2447 143.329 61.9965 143.669C61.7574 144.009 61.4264 144.276 61.0034 144.469C60.5896 144.662 60.1206 144.759 59.5965 144.759ZM66.6082 144.759C66.0105 144.759 65.468 144.593 64.9806 144.262C64.4933 143.931 64.1025 143.48 63.8082 142.91C63.514 142.34 63.3668 141.692 63.3668 140.965C63.3668 140.239 63.514 139.591 63.8082 139.021C64.1025 138.45 64.5025 138.005 65.0082 137.683C65.514 137.361 66.0841 137.2 66.7186 137.2C67.0864 137.2 67.422 137.255 67.7255 137.365C68.0289 137.467 68.2956 137.614 68.5255 137.807C68.7553 138 68.9438 138.221 69.091 138.469C69.2473 138.717 69.353 138.984 69.4082 139.269L69.0358 139.172V137.352H70.7461V144.621H69.022V142.883L69.422 142.814C69.3576 143.062 69.2381 143.306 69.0634 143.545C68.8979 143.775 68.6864 143.982 68.4289 144.165C68.1806 144.34 67.9002 144.483 67.5875 144.593C67.2841 144.703 66.9576 144.759 66.6082 144.759ZM67.0772 143.255C67.4726 143.255 67.822 143.159 68.1255 142.965C68.4289 142.772 68.6634 142.506 68.8289 142.165C69.0036 141.816 69.091 141.416 69.091 140.965C69.091 140.524 69.0036 140.133 68.8289 139.793C68.6634 139.453 68.4289 139.186 68.1255 138.993C67.822 138.8 67.4726 138.703 67.0772 138.703C66.6818 138.703 66.3324 138.8 66.0289 138.993C65.7347 139.186 65.5048 139.453 65.3393 139.793C65.1737 140.133 65.091 140.524 65.091 140.965C65.091 141.416 65.1737 141.816 65.3393 142.165C65.5048 142.506 65.7347 142.772 66.0289 142.965C66.3324 143.159 66.6818 143.255 67.0772 143.255ZM72.6855 144.621V137.352H74.3544L74.382 138.814L74.1062 138.924C74.1889 138.685 74.3131 138.464 74.4786 138.262C74.6441 138.05 74.8418 137.871 75.0717 137.724C75.3016 137.568 75.5452 137.448 75.8027 137.365C76.0602 137.273 76.3223 137.228 76.5889 137.228C76.9843 137.228 77.3338 137.292 77.6372 137.421C77.9498 137.54 78.2073 137.733 78.4096 138C78.6211 138.267 78.7774 138.607 78.8786 139.021L78.6165 138.965L78.7269 138.745C78.828 138.524 78.9705 138.326 79.1544 138.152C79.3384 137.968 79.5452 137.807 79.7751 137.669C80.005 137.522 80.2441 137.411 80.4924 137.338C80.7498 137.264 81.0027 137.228 81.251 137.228C81.8027 137.228 82.2625 137.338 82.6303 137.559C82.9981 137.779 83.274 138.115 83.4579 138.565C83.6418 139.016 83.7338 139.572 83.7338 140.234V144.621H82.0234V140.345C82.0234 139.977 81.9728 139.673 81.8717 139.434C81.7797 139.195 81.6326 139.021 81.4303 138.91C81.2372 138.791 80.9935 138.731 80.6993 138.731C80.4694 138.731 80.2487 138.772 80.0372 138.855C79.8349 138.929 79.6602 139.039 79.5131 139.186C79.3659 139.324 79.251 139.485 79.1682 139.669C79.0855 139.853 79.0441 140.055 79.0441 140.276V144.621H77.3338V140.331C77.3338 139.982 77.2832 139.692 77.182 139.462C77.0809 139.223 76.9338 139.044 76.7406 138.924C76.5475 138.795 76.3131 138.731 76.0372 138.731C75.8073 138.731 75.5912 138.772 75.3889 138.855C75.1866 138.929 75.0119 139.034 74.8648 139.172C74.7177 139.31 74.6027 139.471 74.52 139.655C74.4372 139.839 74.3958 140.041 74.3958 140.262V144.621H72.6855ZM89.0241 144.759C88.2608 144.759 87.585 144.598 86.9965 144.276C86.4172 143.954 85.962 143.517 85.631 142.965C85.3091 142.405 85.1482 141.765 85.1482 141.048C85.1482 140.478 85.2401 139.959 85.4241 139.49C85.608 139.021 85.8608 138.616 86.1827 138.276C86.5137 137.926 86.9045 137.66 87.3551 137.476C87.8149 137.283 88.316 137.186 88.8585 137.186C89.3367 137.186 89.7827 137.278 90.1965 137.462C90.6103 137.646 90.9689 137.899 91.2723 138.221C91.5758 138.533 91.8057 138.91 91.962 139.352C92.1275 139.784 92.2057 140.257 92.1965 140.772L92.1827 141.365H86.293L85.9758 140.207H90.762L90.5413 140.441V140.138C90.5137 139.853 90.4218 139.605 90.2654 139.393C90.1091 139.172 89.9068 139.002 89.6585 138.883C89.4195 138.754 89.1528 138.69 88.8585 138.69C88.408 138.69 88.0264 138.777 87.7137 138.952C87.4103 139.126 87.1804 139.379 87.0241 139.71C86.8677 140.032 86.7896 140.437 86.7896 140.924C86.7896 141.393 86.8861 141.802 87.0792 142.152C87.2815 142.501 87.562 142.772 87.9206 142.965C88.2884 143.149 88.716 143.241 89.2034 143.241C89.5436 143.241 89.8562 143.186 90.1413 143.076C90.4264 142.965 90.7344 142.768 91.0654 142.483L91.9068 143.655C91.6585 143.885 91.3735 144.083 91.0516 144.248C90.739 144.405 90.408 144.529 90.0585 144.621C89.7091 144.713 89.3643 144.759 89.0241 144.759ZM93.6991 144.621V137.352H95.3542L95.3818 138.841L95.0646 139.007C95.1565 138.676 95.3358 138.377 95.6025 138.11C95.8692 137.834 96.1864 137.614 96.5542 137.448C96.922 137.283 97.2991 137.2 97.6853 137.2C98.237 137.2 98.6968 137.31 99.0646 137.531C99.4416 137.752 99.722 138.083 99.9059 138.524C100.099 138.965 100.196 139.517 100.196 140.179V144.621H98.4991V140.303C98.4991 139.936 98.4485 139.632 98.3473 139.393C98.2462 139.145 98.0899 138.965 97.8784 138.855C97.6669 138.736 97.4094 138.68 97.1059 138.69C96.8577 138.69 96.6278 138.731 96.4163 138.814C96.214 138.887 96.0347 138.998 95.8784 139.145C95.7312 139.283 95.6117 139.444 95.5197 139.628C95.437 139.811 95.3956 140.014 95.3956 140.234V144.621H94.5542C94.3887 144.621 94.2324 144.621 94.0853 144.621C93.9473 144.621 93.8186 144.621 93.6991 144.621ZM102.89 144.621V135.503H104.587V144.621H102.89ZM101.456 138.924V137.352H106.173V138.924H101.456ZM110.722 144.759C109.996 144.759 109.347 144.598 108.777 144.276C108.207 143.945 107.756 143.494 107.425 142.924C107.094 142.354 106.929 141.706 106.929 140.979C106.929 140.253 107.094 139.605 107.425 139.034C107.756 138.464 108.207 138.018 108.777 137.696C109.347 137.365 109.996 137.2 110.722 137.2C111.439 137.2 112.083 137.365 112.653 137.696C113.223 138.018 113.669 138.464 113.991 139.034C114.322 139.605 114.488 140.253 114.488 140.979C114.488 141.706 114.322 142.354 113.991 142.924C113.669 143.494 113.223 143.945 112.653 144.276C112.083 144.598 111.439 144.759 110.722 144.759ZM110.722 143.255C111.117 143.255 111.467 143.154 111.77 142.952C112.083 142.749 112.327 142.478 112.501 142.138C112.685 141.798 112.773 141.411 112.763 140.979C112.773 140.538 112.685 140.147 112.501 139.807C112.327 139.467 112.083 139.2 111.77 139.007C111.467 138.805 111.117 138.703 110.722 138.703C110.327 138.703 109.968 138.805 109.646 139.007C109.334 139.2 109.09 139.471 108.915 139.821C108.74 140.161 108.653 140.547 108.653 140.979C108.653 141.411 108.74 141.798 108.915 142.138C109.09 142.478 109.334 142.749 109.646 142.952C109.968 143.154 110.327 143.255 110.722 143.255ZM123.466 144.759C122.703 144.759 122.027 144.598 121.439 144.276C120.86 143.954 120.404 143.517 120.073 142.965C119.751 142.405 119.591 141.765 119.591 141.048C119.591 140.478 119.682 139.959 119.866 139.49C120.05 139.021 120.303 138.616 120.625 138.276C120.956 137.926 121.347 137.66 121.797 137.476C122.257 137.283 122.758 137.186 123.301 137.186C123.779 137.186 124.225 137.278 124.639 137.462C125.053 137.646 125.411 137.899 125.715 138.221C126.018 138.533 126.248 138.91 126.404 139.352C126.57 139.784 126.648 140.257 126.639 140.772L126.625 141.365H120.735L120.418 140.207H125.204L124.984 140.441V140.138C124.956 139.853 124.864 139.605 124.708 139.393C124.551 139.172 124.349 139.002 124.101 138.883C123.862 138.754 123.595 138.69 123.301 138.69C122.85 138.69 122.469 138.777 122.156 138.952C121.853 139.126 121.623 139.379 121.466 139.71C121.31 140.032 121.232 140.437 121.232 140.924C121.232 141.393 121.328 141.802 121.522 142.152C121.724 142.501 122.004 142.772 122.363 142.965C122.731 143.149 123.158 143.241 123.646 143.241C123.986 143.241 124.299 143.186 124.584 143.076C124.869 142.965 125.177 142.768 125.508 142.483L126.349 143.655C126.101 143.885 125.816 144.083 125.494 144.248C125.181 144.405 124.85 144.529 124.501 144.621C124.151 144.713 123.807 144.759 123.466 144.759ZM39.6694 164.621V157.352H41.3659V164.621H39.6694ZM40.497 155.807C40.1567 155.807 39.8901 155.724 39.697 155.559C39.513 155.384 39.4211 155.14 39.4211 154.828C39.4211 154.533 39.5176 154.294 39.7107 154.11C39.9039 153.926 40.1659 153.834 40.497 153.834C40.8464 153.834 41.113 153.922 41.297 154.096C41.4901 154.262 41.5866 154.506 41.5866 154.828C41.5866 155.113 41.4901 155.347 41.297 155.531C41.1039 155.715 40.8372 155.807 40.497 155.807ZM43.4896 164.621V157.352H45.1586L45.1862 158.814L44.9103 158.924C44.9931 158.685 45.1172 158.464 45.2827 158.262C45.4482 158.05 45.646 157.871 45.8758 157.724C46.1057 157.568 46.3494 157.448 46.6069 157.365C46.8643 157.273 47.1264 157.228 47.3931 157.228C47.7885 157.228 48.1379 157.292 48.4414 157.421C48.754 157.54 49.0115 157.733 49.2138 158C49.4253 158.267 49.5816 158.607 49.6827 159.021L49.4207 158.965L49.531 158.745C49.6322 158.524 49.7747 158.326 49.9586 158.152C50.1425 157.968 50.3494 157.807 50.5793 157.669C50.8092 157.522 51.0482 157.411 51.2965 157.338C51.554 157.264 51.8069 157.228 52.0551 157.228C52.6069 157.228 53.0666 157.338 53.4345 157.559C53.8023 157.779 54.0781 158.115 54.262 158.565C54.446 159.016 54.5379 159.572 54.5379 160.234V164.621H52.8276V160.345C52.8276 159.977 52.777 159.673 52.6758 159.434C52.5839 159.195 52.4368 159.021 52.2345 158.91C52.0414 158.791 51.7977 158.731 51.5034 158.731C51.2735 158.731 51.0528 158.772 50.8414 158.855C50.6391 158.929 50.4643 159.039 50.3172 159.186C50.1701 159.324 50.0551 159.485 49.9724 159.669C49.8896 159.853 49.8482 160.055 49.8482 160.276V164.621H48.1379V160.331C48.1379 159.982 48.0873 159.692 47.9862 159.462C47.885 159.223 47.7379 159.044 47.5448 158.924C47.3517 158.795 47.1172 158.731 46.8414 158.731C46.6115 158.731 46.3954 158.772 46.1931 158.855C45.9908 158.929 45.8161 159.034 45.6689 159.172C45.5218 159.31 45.4069 159.471 45.3241 159.655C45.2414 159.839 45.2 160.041 45.2 160.262V164.621H43.4896ZM59.1661 164.759C58.5684 164.759 58.0259 164.593 57.5386 164.262C57.0512 163.931 56.6604 163.48 56.3661 162.91C56.0719 162.34 55.9248 161.692 55.9248 160.965C55.9248 160.239 56.0719 159.591 56.3661 159.021C56.6604 158.45 57.0604 158.005 57.5661 157.683C58.0719 157.361 58.642 157.2 59.2765 157.2C59.6443 157.2 59.9799 157.255 60.2834 157.365C60.5868 157.467 60.8535 157.614 61.0834 157.807C61.3133 158 61.5018 158.221 61.6489 158.469C61.8052 158.717 61.911 158.984 61.9661 159.269L61.5937 159.172V157.352H63.3041V164.621H61.5799V162.883L61.9799 162.814C61.9156 163.062 61.796 163.306 61.6213 163.545C61.4558 163.775 61.2443 163.982 60.9868 164.165C60.7386 164.34 60.4581 164.483 60.1454 164.593C59.842 164.703 59.5156 164.759 59.1661 164.759ZM59.6351 163.255C60.0305 163.255 60.3799 163.159 60.6834 162.965C60.9868 162.772 61.2213 162.506 61.3868 162.165C61.5615 161.816 61.6489 161.416 61.6489 160.965C61.6489 160.524 61.5615 160.133 61.3868 159.793C61.2213 159.453 60.9868 159.186 60.6834 158.993C60.3799 158.8 60.0305 158.703 59.6351 158.703C59.2397 158.703 58.8903 158.8 58.5868 158.993C58.2926 159.186 58.0627 159.453 57.8972 159.793C57.7317 160.133 57.6489 160.524 57.6489 160.965C57.6489 161.416 57.7317 161.816 57.8972 162.165C58.0627 162.506 58.2926 162.772 58.5868 162.965C58.8903 163.159 59.2397 163.255 59.6351 163.255ZM68.54 167.793C67.9974 167.793 67.4549 167.71 66.9124 167.545C66.379 167.379 65.9469 167.163 65.6158 166.896L66.2227 165.641C66.4158 165.779 66.6319 165.899 66.871 166C67.1101 166.101 67.3629 166.179 67.6296 166.234C67.9055 166.29 68.1767 166.317 68.4434 166.317C68.9308 166.317 69.3354 166.239 69.6572 166.083C69.9882 165.936 70.2365 165.706 70.402 165.393C70.5675 165.09 70.6503 164.708 70.6503 164.248V162.91L70.8986 163.007C70.8434 163.292 70.6917 163.563 70.4434 163.821C70.1951 164.078 69.8825 164.29 69.5055 164.455C69.1285 164.611 68.7423 164.69 68.3469 164.69C67.6572 164.69 67.0457 164.529 66.5124 164.207C65.9882 163.885 65.5698 163.448 65.2572 162.896C64.9537 162.336 64.802 161.692 64.802 160.965C64.802 160.239 64.9537 159.595 65.2572 159.034C65.5606 158.464 65.9744 158.018 66.4986 157.696C67.0319 157.365 67.6296 157.2 68.2917 157.2C68.5675 157.2 68.8342 157.232 69.0917 157.296C69.3492 157.361 69.5836 157.453 69.7951 157.572C70.0158 157.692 70.2135 157.825 70.3882 157.972C70.5629 158.119 70.7055 158.276 70.8158 158.441C70.9262 158.607 70.9951 158.768 71.0227 158.924L70.6641 159.034L70.6917 157.352H72.3606V164.124C72.3606 164.713 72.2733 165.232 72.0986 165.683C71.9239 166.133 71.671 166.515 71.34 166.828C71.0089 167.149 70.6089 167.388 70.14 167.545C69.671 167.71 69.1377 167.793 68.54 167.793ZM68.6089 163.241C69.0227 163.241 69.3859 163.145 69.6986 162.952C70.0204 162.759 70.2687 162.492 70.4434 162.152C70.6181 161.811 70.7055 161.421 70.7055 160.979C70.7055 160.529 70.6135 160.133 70.4296 159.793C70.2549 159.444 70.0112 159.172 69.6986 158.979C69.3859 158.786 69.0227 158.69 68.6089 158.69C68.1951 158.69 67.8319 158.791 67.5193 158.993C67.2066 159.186 66.9583 159.457 66.7744 159.807C66.5997 160.147 66.5124 160.538 66.5124 160.979C66.5124 161.411 66.5997 161.802 66.7744 162.152C66.9583 162.492 67.2066 162.759 67.5193 162.952C67.8319 163.145 68.1951 163.241 68.6089 163.241ZM74.5158 164.621V157.352H76.2124V164.621H74.5158ZM75.3434 155.807C75.0032 155.807 74.7365 155.724 74.5434 155.559C74.3595 155.384 74.2675 155.14 74.2675 154.828C74.2675 154.533 74.3641 154.294 74.5572 154.11C74.7503 153.926 75.0124 153.834 75.3434 153.834C75.6928 153.834 75.9595 153.922 76.1434 154.096C76.3365 154.262 76.4331 154.506 76.4331 154.828C76.4331 155.113 76.3365 155.347 76.1434 155.531C75.9503 155.715 75.6836 155.807 75.3434 155.807ZM78.3637 164.621V157.352H80.0188L80.0464 158.841L79.7292 159.007C79.8211 158.676 80.0004 158.377 80.2671 158.11C80.5338 157.834 80.851 157.614 81.2188 157.448C81.5867 157.283 81.9637 157.2 82.3499 157.2C82.9016 157.2 83.3614 157.31 83.7292 157.531C84.1062 157.752 84.3867 158.083 84.5706 158.524C84.7637 158.965 84.8602 159.517 84.8602 160.179V164.621H83.1637V160.303C83.1637 159.936 83.1131 159.632 83.0119 159.393C82.9108 159.145 82.7545 158.965 82.543 158.855C82.3315 158.736 82.074 158.68 81.7706 158.69C81.5223 158.69 81.2924 158.731 81.0809 158.814C80.8786 158.887 80.6993 158.998 80.543 159.145C80.3958 159.283 80.2763 159.444 80.1844 159.628C80.1016 159.811 80.0602 160.014 80.0602 160.234V164.621H79.2188C79.0533 164.621 78.897 164.621 78.7499 164.621C78.6119 164.621 78.4832 164.621 78.3637 164.621ZM89.5137 164.759C88.916 164.759 88.3734 164.593 87.8861 164.262C87.3987 163.931 87.0079 163.48 86.7137 162.91C86.4194 162.34 86.2723 161.692 86.2723 160.965C86.2723 160.239 86.4194 159.591 86.7137 159.021C87.0079 158.45 87.4079 158.005 87.9137 157.683C88.4194 157.361 88.9895 157.2 89.624 157.2C89.9918 157.2 90.3275 157.255 90.6309 157.365C90.9343 157.467 91.201 157.614 91.4309 157.807C91.6608 158 91.8493 158.221 91.9964 158.469C92.1527 158.717 92.2585 158.984 92.3137 159.269L91.9412 159.172V157.352H93.6516V164.621H91.9275V162.883L92.3275 162.814C92.2631 163.062 92.1435 163.306 91.9688 163.545C91.8033 163.775 91.5918 163.982 91.3343 164.165C91.0861 164.34 90.8056 164.483 90.493 164.593C90.1895 164.703 89.8631 164.759 89.5137 164.759ZM89.9826 163.255C90.378 163.255 90.7275 163.159 91.0309 162.965C91.3343 162.772 91.5688 162.506 91.7343 162.165C91.9091 161.816 91.9964 161.416 91.9964 160.965C91.9964 160.524 91.9091 160.133 91.7343 159.793C91.5688 159.453 91.3343 159.186 91.0309 158.993C90.7275 158.8 90.378 158.703 89.9826 158.703C89.5872 158.703 89.2378 158.8 88.9343 158.993C88.6401 159.186 88.4102 159.453 88.2447 159.793C88.0792 160.133 87.9964 160.524 87.9964 160.965C87.9964 161.416 88.0792 161.816 88.2447 162.165C88.4102 162.506 88.6401 162.772 88.9343 162.965C89.2378 163.159 89.5872 163.255 89.9826 163.255ZM98.7357 164.759C98.0553 164.759 97.4438 164.593 96.9013 164.262C96.3587 163.931 95.9312 163.48 95.6185 162.91C95.3059 162.34 95.1495 161.696 95.1495 160.979C95.1495 160.262 95.3059 159.618 95.6185 159.048C95.9312 158.478 96.3587 158.028 96.9013 157.696C97.4438 157.365 98.0553 157.2 98.7357 157.2C99.3886 157.2 99.9817 157.324 100.515 157.572C101.048 157.821 101.462 158.165 101.756 158.607L100.819 159.738C100.681 159.545 100.506 159.37 100.294 159.214C100.083 159.057 99.8576 158.933 99.6185 158.841C99.3794 158.749 99.1403 158.703 98.9013 158.703C98.4967 158.703 98.1335 158.805 97.8116 159.007C97.499 159.2 97.2507 159.471 97.0668 159.821C96.8829 160.161 96.7909 160.547 96.7909 160.979C96.7909 161.411 96.8829 161.798 97.0668 162.138C97.2599 162.478 97.5174 162.749 97.8392 162.952C98.161 163.154 98.5197 163.255 98.9151 163.255C99.1541 163.255 99.384 163.218 99.6047 163.145C99.8346 163.062 100.051 162.947 100.253 162.8C100.455 162.653 100.644 162.469 100.819 162.248L101.756 163.393C101.444 163.798 101.012 164.129 100.46 164.386C99.9174 164.634 99.3426 164.759 98.7357 164.759ZM97.4392 168L97.3426 167.159C97.5449 167.159 97.761 167.126 97.9909 167.062C98.2208 166.998 98.4139 166.91 98.5702 166.8C98.7266 166.699 98.8047 166.593 98.8047 166.483C98.8047 166.363 98.7357 166.267 98.5978 166.193C98.4599 166.129 98.3036 166.078 98.1289 166.041C97.9541 166.005 97.7978 165.986 97.6599 165.986L97.453 165.834L98.4323 164.29H99.3564L98.7495 165.241C99.2185 165.324 99.5679 165.476 99.7978 165.696C100.028 165.926 100.143 166.207 100.143 166.538C100.143 166.795 100.06 167.016 99.8944 167.2C99.7289 167.384 99.5128 167.536 99.2461 167.655C98.9794 167.784 98.6852 167.876 98.3633 167.931C98.0507 167.986 97.7426 168.009 97.4392 168ZM105.799 164.759C105.201 164.759 104.658 164.593 104.171 164.262C103.684 163.931 103.293 163.48 102.999 162.91C102.704 162.34 102.557 161.692 102.557 160.965C102.557 160.239 102.704 159.591 102.999 159.021C103.293 158.45 103.693 158.005 104.199 157.683C104.704 157.361 105.275 157.2 105.909 157.2C106.277 157.2 106.612 157.255 106.916 157.365C107.219 157.467 107.486 157.614 107.716 157.807C107.946 158 108.134 158.221 108.281 158.469C108.438 158.717 108.544 158.984 108.599 159.269L108.226 159.172V157.352H109.937V164.621H108.212V162.883L108.612 162.814C108.548 163.062 108.429 163.306 108.254 163.545C108.088 163.775 107.877 163.982 107.619 164.165C107.371 164.34 107.091 164.483 106.778 164.593C106.475 164.703 106.148 164.759 105.799 164.759ZM106.268 163.255C106.663 163.255 107.012 163.159 107.316 162.965C107.619 162.772 107.854 162.506 108.019 162.165C108.194 161.816 108.281 161.416 108.281 160.965C108.281 160.524 108.194 160.133 108.019 159.793C107.854 159.453 107.619 159.186 107.316 158.993C107.012 158.8 106.663 158.703 106.268 158.703C105.872 158.703 105.523 158.8 105.219 158.993C104.925 159.186 104.695 159.453 104.53 159.793C104.364 160.133 104.281 160.524 104.281 160.965C104.281 161.416 104.364 161.816 104.53 162.165C104.695 162.506 104.925 162.772 105.219 162.965C105.523 163.159 105.872 163.255 106.268 163.255ZM107.288 156.138C107.114 156.138 106.957 156.106 106.819 156.041C106.681 155.977 106.53 155.88 106.364 155.752C106.199 155.605 106.07 155.503 105.978 155.448C105.886 155.393 105.803 155.365 105.73 155.365C105.61 155.365 105.5 155.43 105.399 155.559C105.307 155.678 105.242 155.867 105.206 156.124L104.171 155.972C104.18 155.494 104.323 155.085 104.599 154.745C104.875 154.405 105.247 154.234 105.716 154.234C105.891 154.234 106.042 154.267 106.171 154.331C106.309 154.395 106.461 154.487 106.626 154.607C106.792 154.736 106.916 154.832 106.999 154.896C107.091 154.961 107.178 154.993 107.261 154.993C107.389 154.993 107.5 154.933 107.592 154.814C107.684 154.685 107.744 154.496 107.771 154.248L108.819 154.4C108.81 154.703 108.741 154.993 108.612 155.269C108.484 155.536 108.304 155.747 108.075 155.903C107.854 156.06 107.592 156.138 107.288 156.138ZM115.228 164.759C114.501 164.759 113.853 164.598 113.283 164.276C112.713 163.945 112.262 163.494 111.931 162.924C111.6 162.354 111.435 161.706 111.435 160.979C111.435 160.253 111.6 159.605 111.931 159.034C112.262 158.464 112.713 158.018 113.283 157.696C113.853 157.365 114.501 157.2 115.228 157.2C115.945 157.2 116.589 157.365 117.159 157.696C117.729 158.018 118.175 158.464 118.497 159.034C118.828 159.605 118.993 160.253 118.993 160.979C118.993 161.706 118.828 162.354 118.497 162.924C118.175 163.494 117.729 163.945 117.159 164.276C116.589 164.598 115.945 164.759 115.228 164.759ZM115.228 163.255C115.623 163.255 115.973 163.154 116.276 162.952C116.589 162.749 116.832 162.478 117.007 162.138C117.191 161.798 117.278 161.411 117.269 160.979C117.278 160.538 117.191 160.147 117.007 159.807C116.832 159.467 116.589 159.2 116.276 159.007C115.973 158.805 115.623 158.703 115.228 158.703C114.832 158.703 114.474 158.805 114.152 159.007C113.839 159.2 113.595 159.471 113.421 159.821C113.246 160.161 113.159 160.547 113.159 160.979C113.159 161.411 113.246 161.798 113.421 162.138C113.595 162.478 113.839 162.749 114.152 162.952C114.474 163.154 114.832 163.255 115.228 163.255Z" fill="#FBFDFF"/>
<path d="M65.9822 182.835C65.7442 182.835 65.5512 183.028 65.5512 183.266C65.5512 183.504 65.7442 183.697 65.9822 183.697H68.4218C68.6599 183.697 68.8528 183.504 68.8528 183.266C68.8528 183.028 68.6599 182.835 68.4218 182.835H65.9822Z" fill="#FBFDFF"/>
<path d="M65.5242 185.406C65.5242 185.168 65.7172 184.975 65.9553 184.975H71.2848C71.5229 184.975 71.7159 185.168 71.7159 185.406C71.7159 185.644 71.5229 185.837 71.2848 185.837H65.9553C65.7172 185.837 65.5242 185.644 65.5242 185.406Z" fill="#FBFDFF"/>
<path d="M65.9334 187.154C65.6953 187.154 65.5024 187.347 65.5024 187.585C65.5024 187.823 65.6953 188.016 65.9334 188.016H71.2734C71.5115 188.016 71.7045 187.823 71.7045 187.585C71.7045 187.347 71.5115 187.154 71.2734 187.154H65.9334Z" fill="#FBFDFF"/>
<path fill-rule="evenodd" clip-rule="evenodd" d="M63.3809 178.814C63.3809 178.296 63.7935 177.863 64.322 177.863H70.3613C70.4686 177.863 70.572 177.903 70.6513 177.975L74.0346 181.052C74.1244 181.134 74.1756 181.249 74.1756 181.371V190.703C74.1756 191.221 73.763 191.655 73.2345 191.655H64.322C63.7935 191.655 63.3809 191.221 63.3809 190.703V178.814ZM64.322 178.725C64.2859 178.725 64.2429 178.756 64.2429 178.814V190.703C64.2429 190.762 64.2858 190.793 64.322 190.793H73.2345C73.2706 190.793 73.3136 190.762 73.3136 190.703V182.474H70.3565C70.1185 182.474 69.9255 182.281 69.9255 182.043V178.725H64.322ZM73.3136 181.561V181.612H70.7876V179.264L73.3136 181.561Z" fill="#FBFDFF"/>
<path d="M83.5664 190.397C82.8124 190.397 82.1687 190.199 81.6354 189.804C81.1112 189.408 80.7066 188.843 80.4216 188.107C80.1457 187.362 80.0078 186.47 80.0078 185.431C80.0078 184.392 80.1457 183.505 80.4216 182.769C80.7066 182.024 81.1112 181.454 81.6354 181.059C82.1687 180.663 82.8124 180.466 83.5664 180.466C84.3112 180.466 84.9503 180.663 85.4836 181.059C86.017 181.454 86.4216 182.024 86.6974 182.769C86.9825 183.505 87.125 184.392 87.125 185.431C87.125 186.47 86.9825 187.362 86.6974 188.107C86.4216 188.843 86.017 189.408 85.4836 189.804C84.9503 190.199 84.3112 190.397 83.5664 190.397ZM83.5664 189.39C84.3572 189.39 84.9641 189.045 85.3871 188.355C85.8193 187.666 86.0354 186.691 86.0354 185.431C86.0354 184.171 85.8193 183.197 85.3871 182.507C84.9641 181.817 84.3572 181.473 83.5664 181.473C82.7664 181.473 82.1503 181.817 81.7181 182.507C81.2951 183.197 81.0836 184.171 81.0836 185.431C81.0836 186.691 81.2951 187.666 81.7181 188.355C82.1503 189.045 82.7664 189.39 83.5664 189.39ZM89.074 190.259L88.743 189.459L91.9982 185.804C92.1545 185.629 92.3154 185.431 92.4809 185.211C92.6557 184.99 92.8166 184.76 92.9637 184.521C93.12 184.273 93.2442 184.029 93.3361 183.79C93.4281 183.551 93.474 183.316 93.474 183.086C93.474 182.746 93.4005 182.461 93.2534 182.231C93.1062 181.992 92.8947 181.808 92.6189 181.679C92.3522 181.551 92.0396 181.486 91.6809 181.486C91.3683 181.486 91.0603 181.56 90.7568 181.707C90.4534 181.854 90.1775 182.079 89.9292 182.383C89.6809 182.686 89.4878 183.073 89.3499 183.542L88.4947 183.031C88.6603 182.47 88.9039 182.001 89.2258 181.624C89.5476 181.238 89.9292 180.948 90.3706 180.755C90.812 180.562 91.2855 180.466 91.7913 180.466C92.3246 180.466 92.8028 180.576 93.2258 180.797C93.6488 181.008 93.9844 181.312 94.2327 181.707C94.4809 182.093 94.6051 182.539 94.6051 183.045C94.6051 183.266 94.5775 183.486 94.5223 183.707C94.4763 183.928 94.4028 184.148 94.3016 184.369C94.2005 184.59 94.0763 184.815 93.9292 185.045C93.7913 185.275 93.6258 185.509 93.4327 185.748C93.2488 185.988 93.0419 186.236 92.812 186.493L90.0396 189.583L89.874 189.224H94.9085V190.259H89.074Z" fill="#FBFDFF"/>
</g>
</g>
<defs>
<filter id="filter0_d_562_3821" x="0.275862" y="0.275862" width="159.172" height="205.172" filterUnits="userSpaceOnUse" color-interpolation-filters="sRGB">
<feFlood flood-opacity="0" result="BackgroundImageFix"/>
<feColorMatrix in="SourceAlpha" type="matrix" values="0 0 0 0 0 0 0 0 0 0 0 0 0 0 0 0 0 0 127 0" result="hardAlpha"/>
<feOffset dx="0.862069" dy="0.862069"/>
<feGaussianBlur stdDeviation="1.2931"/>
<feComposite in2="hardAlpha" operator="out"/>
<feColorMatrix type="matrix" values="0 0 0 0 0 0 0 0 0 0 0 0 0 0 0 0 0 0 0.15 0"/>
<feBlend mode="normal" in2="BackgroundImageFix" result="effect1_dropShadow_562_3821"/>
<feBlend mode="normal" in="SourceGraphic" in2="effect1_dropShadow_562_3821" result="shape"/>
</filter>
<clipPath id="clip0_562_3821">
<path d="M2 8.89654C2 5.08768 5.08769 2 8.89655 2H149.103C152.912 2 156 5.08769 156 8.89655V195.103C156 198.912 152.912 202 149.103 202H8.89654C5.08768 202 2 198.912 2 195.103V8.89654Z" fill="white"/>
</clipPath>
</defs>
</svg>
