<svg width="160" height="206" viewBox="0 0 160 206" fill="none" xmlns="http://www.w3.org/2000/svg">
<g filter="url(#filter0_d_592_7569)">
<g clip-path="url(#clip0_592_7569)">
<path d="M2 8.89654C2 5.08768 5.08769 2 8.89655 2H149.103C152.912 2 156 5.08769 156 8.89655V195.103C156 198.912 152.912 202 149.103 202H8.89654C5.08768 202 2 198.912 2 195.103V8.89654Z" fill="#FBFDFF"/>
<path d="M2 2H69.7931C117.404 2 156 40.5961 156 88.2069V202H88.2069C40.5961 202 2 163.404 2 115.793V2Z" fill="#144EC0"/>
<g clip-path="url(#clip1_592_7569)">
<path d="M53.4866 37.3452C50.4293 37.3452 47.9688 39.8318 47.9688 42.9217V60.4921C47.9688 63.5819 50.4293 66.0685 53.4866 66.0685H70.872C73.9293 66.0685 76.3898 63.5819 76.3898 60.4921V42.9217C76.3898 39.8318 73.9293 37.3452 70.872 37.3452H53.4866ZM62.1844 42.0498C62.4292 42.051 62.6729 42.0846 62.9092 42.1497C63.145 42.2141 63.3716 42.3095 63.583 42.4332C63.7937 42.557 63.9876 42.708 64.1597 42.8824C64.3325 43.058 64.4818 43.2556 64.6038 43.4704C64.7263 43.684 64.8207 43.9129 64.8845 44.1512C64.9479 44.3885 64.9804 44.6331 64.9813 44.8789V48.8769H68.9372C69.1803 48.8785 69.4223 48.912 69.6569 48.9767C69.8945 49.0407 70.1227 49.136 70.3357 49.2602C70.5465 49.384 70.7403 49.535 70.9124 49.7095C71.0849 49.8835 71.2342 50.0794 71.3565 50.2924C71.479 50.506 71.5735 50.7349 71.6373 50.9732C71.7011 51.2121 71.7336 51.4585 71.7341 51.706C71.7348 51.7936 71.7315 51.8812 71.7242 51.9685C71.7163 52.0548 71.7044 52.1408 71.6886 52.2261C71.6722 52.3128 71.6517 52.3988 71.6274 52.4836C71.6054 52.5673 71.5798 52.6499 71.5503 52.7312C71.5184 52.8137 71.4826 52.8946 71.4432 52.9737C71.4058 53.0511 71.3649 53.1268 71.3207 53.2004C71.2747 53.2749 71.2253 53.3471 71.1726 53.417C71.1213 53.4867 71.0668 53.5539 71.0093 53.6186C70.9509 53.6833 70.8896 53.7453 70.8255 53.8043C70.7618 53.8639 70.6954 53.9206 70.6265 53.974C70.5574 54.0273 70.4859 54.0772 70.4122 54.1238C70.3393 54.1702 70.2643 54.2131 70.1875 54.2526C70.1092 54.2906 70.0291 54.3249 69.9476 54.3554C69.8673 54.3892 69.7856 54.4191 69.7025 54.4452C69.6201 54.469 69.5367 54.489 69.4525 54.5051C69.3681 54.5224 69.2829 54.5357 69.1972 54.545C69.1108 54.5558 69.024 54.5624 68.937 54.565H64.9811V58.5629C64.9802 58.8087 64.9476 59.0533 64.8843 59.2906C64.8209 59.5307 64.7265 59.7613 64.6035 59.9765C64.4812 60.1895 64.3319 60.3855 64.1595 60.5595C63.9873 60.7339 63.7935 60.8849 63.5827 61.0087C63.3713 61.1324 63.1449 61.2277 62.909 61.2922C62.6728 61.3573 62.429 61.3909 62.1841 61.392C61.938 61.3946 61.6926 61.3643 61.4542 61.3021C61.2184 61.2377 60.9919 61.1424 60.7805 61.0187C60.5661 60.8957 60.3687 60.7446 60.1934 60.5695C60.021 60.3955 59.8717 60.1995 59.7493 59.9864C59.6246 59.7715 59.5285 59.5409 59.4635 59.3006C59.3997 59.0617 59.3671 58.8154 59.3667 58.5679V54.57H55.4108C55.1659 54.5689 54.9223 54.5353 54.686 54.4702C54.4484 54.4062 54.2202 54.3108 54.0072 54.1866C53.7961 54.0613 53.6021 53.9087 53.4303 53.7325C53.2571 53.5554 53.1078 53.356 52.9862 53.1395C52.8637 52.9259 52.7693 52.697 52.7055 52.4587C52.6429 52.2179 52.612 51.9699 52.6136 51.721C52.6141 51.4735 52.6466 51.2271 52.7104 50.9882C52.7742 50.7499 52.8686 50.521 52.9911 50.3074C53.1134 50.0944 53.2627 49.8984 53.4352 49.7244C53.6089 49.5496 53.8045 49.3986 54.0171 49.2752C54.2285 49.1514 54.455 49.0561 54.6908 48.9917C54.9254 48.927 55.1673 48.8935 55.4105 48.8919H59.3664V44.8939C59.3669 44.6465 59.3994 44.4001 59.4632 44.1612C59.5282 43.9209 59.6243 43.6903 59.749 43.4754C59.8714 43.2624 60.0207 43.0664 60.1931 42.8924C60.3684 42.7172 60.5658 42.5662 60.7802 42.4432C60.9916 42.3195 61.218 42.2241 61.4539 42.1597C61.6923 42.0975 61.9377 42.0673 62.1839 42.0699L62.1844 42.0498Z" fill="#8CC640"/>
<path d="M87.135 37.3452C84.0777 37.3452 81.6172 39.8318 81.6172 42.9217V60.4921C81.6172 63.5819 84.0777 66.0685 87.135 66.0685H104.52C107.578 66.0685 110.038 63.5819 110.038 60.4921V42.9217C110.038 39.8318 107.578 37.3452 104.52 37.3452H87.135ZM89.4677 48.88H102.178C102.387 48.8797 102.596 48.9031 102.8 48.9498C103.005 48.9977 103.203 49.0688 103.392 49.1615C103.581 49.2529 103.759 49.3654 103.923 49.4969C104.087 49.6275 104.236 49.7762 104.367 49.9402C104.499 50.1055 104.612 50.2853 104.704 50.4762C104.796 50.667 104.866 50.8676 104.913 51.0742C104.96 51.2808 104.984 51.4921 104.985 51.7041C104.986 51.7746 104.984 51.8453 104.979 51.9157C104.974 51.9866 104.965 52.0572 104.954 52.1274C104.943 52.1967 104.929 52.2656 104.913 52.334C104.899 52.4035 104.882 52.4724 104.862 52.5406C104.841 52.6087 104.817 52.676 104.791 52.7423C104.766 52.8085 104.739 52.8738 104.709 52.9379C104.679 53.001 104.647 53.063 104.612 53.1236C104.577 53.1853 104.539 53.2455 104.5 53.3043C104.459 53.3628 104.417 53.4197 104.372 53.475C104.328 53.5316 104.282 53.5866 104.234 53.6397C104.187 53.6915 104.137 53.7414 104.086 53.7894C104.035 53.836 103.982 53.8806 103.928 53.9232C103.874 53.9682 103.817 54.0112 103.76 54.052C103.702 54.0921 103.642 54.1302 103.581 54.1658C103.521 54.2014 103.46 54.2346 103.397 54.2656C103.334 54.2946 103.269 54.3213 103.203 54.3455C103.138 54.3713 103.071 54.3946 103.004 54.4153C102.937 54.4379 102.869 54.4579 102.8 54.4753C102.732 54.4911 102.664 54.5044 102.596 54.5152C102.526 54.5278 102.457 54.5378 102.387 54.5451C102.317 54.5495 102.247 54.5512 102.177 54.5503H89.4674C89.2579 54.5506 89.049 54.5272 88.8447 54.4804C88.6401 54.4325 88.4416 54.3615 88.2527 54.2688C88.0654 54.1755 87.8891 54.0613 87.7269 53.9284C87.5627 53.796 87.4137 53.6452 87.2828 53.4791C87.1528 53.3135 87.0414 53.1338 86.951 52.9431C86.861 52.7518 86.7925 52.5509 86.7468 52.3441C86.7 52.1378 86.6761 51.9269 86.6757 51.7152C86.676 51.5033 86.6999 51.2919 86.7468 51.0853C86.7946 50.8804 86.8648 50.6816 86.9561 50.4924C87.0466 50.3018 87.1579 50.1219 87.2879 49.9563C87.4192 49.7923 87.5681 49.6436 87.732 49.513C87.8944 49.3819 88.0708 49.2694 88.2578 49.1776C88.4467 49.0849 88.6453 49.014 88.8499 48.9661C89.0526 48.9197 89.2597 48.8962 89.4675 48.8961L89.4677 48.88Z" fill="#FD5723"/>
<path d="M53.4866 70.6904C50.4293 70.6904 47.9688 73.1771 47.9688 76.267V93.8374C47.9688 96.9273 50.4293 99.4139 53.4866 99.4139H70.872C73.9293 99.4139 76.3898 96.9273 76.3898 93.8374V76.267C76.3898 73.1771 73.9293 70.6904 70.872 70.6904H53.4866ZM57.0851 77.407C57.2937 77.3833 57.5043 77.3833 57.7129 77.407C57.9198 77.4303 58.1236 77.4769 58.3203 77.5458C58.5187 77.6152 58.7087 77.707 58.8868 77.8194C59.0641 77.9313 59.2286 78.0628 59.3769 78.2117L62.174 81.0385L64.9662 78.2117C65.1161 78.0625 65.2822 77.9309 65.4613 77.8194C65.6394 77.707 65.8295 77.6152 66.0279 77.5458C66.2263 77.4765 66.4317 77.4299 66.6404 77.407C66.849 77.3833 67.0596 77.3833 67.2682 77.407C67.4771 77.4319 67.6826 77.4805 67.8807 77.5518C68.0793 77.6228 68.2694 77.7163 68.4473 77.8303C68.6248 77.9438 68.7892 78.077 68.9373 78.2276C68.9888 78.2805 69.0382 78.3355 69.0854 78.3923C69.1336 78.449 69.1795 78.5076 69.2232 78.568C69.2663 78.6266 69.3071 78.6869 69.3456 78.7487C69.3839 78.8124 69.4197 78.8777 69.4529 78.9443C69.4861 79.0103 69.5167 79.0776 69.5447 79.146C69.5711 79.2139 69.5947 79.2829 69.6158 79.3526C69.639 79.424 69.6595 79.4963 69.6771 79.5693C69.6933 79.641 69.7068 79.7132 69.7175 79.7859C69.7306 79.8593 69.7409 79.9333 69.7482 80.0075C69.7528 80.0813 69.7544 80.1552 69.7532 80.2291C69.7544 80.303 69.7528 80.377 69.7482 80.4507C69.7408 80.5233 69.7305 80.5955 69.7175 80.6673C69.7069 80.7417 69.6935 80.8157 69.6771 80.889C69.6594 80.9603 69.6389 81.0309 69.6158 81.1006C69.5947 81.1704 69.5711 81.2393 69.5447 81.3072C69.5167 81.3756 69.4861 81.4429 69.4529 81.5089C69.4197 81.5755 69.3839 81.6408 69.3456 81.7046C69.3072 81.7681 69.2664 81.83 69.2232 81.8903C69.1795 81.9506 69.1336 82.0093 69.0854 82.066C69.0381 82.1211 68.9887 82.1744 68.9373 82.2257L66.1401 85.0526L68.9373 87.8795C68.9888 87.9324 69.0382 87.9874 69.0854 88.0442C69.1335 88.0993 69.1794 88.1562 69.2232 88.2149C69.2664 88.2752 69.3072 88.3371 69.3456 88.4006C69.3839 88.4644 69.4197 88.5296 69.4529 88.5963C69.4861 88.6622 69.5167 88.7295 69.5447 88.7979C69.5711 88.8659 69.5947 88.9348 69.6158 89.0046C69.639 89.0759 69.6595 89.1482 69.6771 89.2212C69.6933 89.2928 69.7068 89.365 69.7175 89.4378C69.7305 89.5095 69.7408 89.5819 69.7482 89.6544C69.7528 89.7282 69.7544 89.8021 69.7532 89.876C69.7544 89.9499 69.7528 90.0238 69.7482 90.0976C69.7409 90.1719 69.7306 90.2458 69.7175 90.3192C69.7068 90.392 69.6933 90.4642 69.6771 90.5359C69.6595 90.6089 69.639 90.6812 69.6158 90.7525C69.5947 90.8223 69.5711 90.8912 69.5447 90.9592C69.5167 91.0276 69.4861 91.0948 69.4529 91.1608C69.4197 91.2274 69.3839 91.2926 69.3456 91.3564C69.3071 91.4182 69.2663 91.4785 69.2232 91.5371C69.1795 91.5975 69.1336 91.6561 69.0854 91.7128C69.0382 91.7697 68.9888 91.8246 68.9373 91.8775C68.7892 92.0281 68.6248 92.1614 68.4473 92.2748C68.2694 92.3889 68.0793 92.4823 67.8807 92.5534C67.6826 92.6247 67.4771 92.6733 67.2682 92.6981C67.0596 92.7219 66.849 92.7219 66.6404 92.6981C66.4317 92.6752 66.2263 92.6287 66.0279 92.5594C65.8295 92.4899 65.6394 92.3981 65.4613 92.2858C65.2822 92.1742 65.1161 92.0426 64.9662 91.8935L62.174 89.0665L59.3769 91.8935C59.2286 92.0423 59.0641 92.1739 58.8868 92.2858C58.7087 92.3981 58.5187 92.4899 58.3203 92.5594C58.1236 92.6283 57.9198 92.6748 57.7129 92.6981C57.5043 92.7219 57.2937 92.7219 57.0851 92.6981C56.8764 92.6752 56.671 92.6287 56.4726 92.5594C56.276 92.4896 56.0876 92.3978 55.9111 92.2858C55.7338 92.1739 55.5695 92.0423 55.4211 91.8935C55.2704 91.7441 55.1368 91.578 55.0229 91.3984C54.9118 91.2182 54.821 91.026 54.7524 90.8253C54.6819 90.6251 54.634 90.4175 54.6095 90.2065C54.5843 89.9957 54.5825 89.7827 54.6044 89.5716C54.6272 89.3607 54.6735 89.1531 54.7422 88.9526C54.8105 88.7502 54.9013 88.5564 55.0128 88.3746C55.125 88.1952 55.2568 88.0291 55.4058 87.8795L58.203 85.0526L55.4058 82.2257C55.2568 82.076 55.125 81.9099 55.0128 81.7305C54.9016 81.5504 54.8109 81.3581 54.7422 81.1575C54.6731 80.9555 54.6269 80.7461 54.6044 80.5336C54.5825 80.3224 54.5843 80.1095 54.6095 79.8987C54.634 79.6876 54.6819 79.48 54.7524 79.2797C54.821 79.0791 54.9118 78.8869 55.0229 78.7068C55.1368 78.5271 55.2704 78.361 55.4211 78.2117C55.5695 78.0628 55.7338 77.9313 55.9111 77.8194C56.0876 77.7074 56.276 77.6156 56.4726 77.5458C56.671 77.4765 56.8764 77.4299 57.0851 77.407Z" fill="#FF8616"/>
<path d="M87.135 70.6904C84.0777 70.6904 81.6172 73.1771 81.6172 76.267V93.8374C81.6172 96.9273 84.0777 99.4139 87.135 99.4139H104.52C107.578 99.4139 110.038 96.9273 110.038 93.8374V76.267C110.038 73.1771 107.578 70.6904 104.52 70.6904H87.135ZM95.8277 75.4983C95.9112 75.498 95.9946 75.5013 96.0778 75.5083C96.16 75.518 96.2418 75.5314 96.3229 75.5483C96.4052 75.5613 96.487 75.5779 96.5679 75.5982C96.649 75.6212 96.7289 75.6479 96.8077 75.6781C96.8857 75.708 96.9623 75.7412 97.0374 75.7779C97.1122 75.8126 97.1854 75.8506 97.2569 75.8917C97.3285 75.9332 97.3984 75.9778 97.4662 76.0255C97.5348 76.0741 97.6012 76.1257 97.6652 76.1802C97.7289 76.2341 97.7902 76.2907 97.849 76.3499C97.9077 76.4093 97.964 76.4712 98.0174 76.5356C98.0713 76.6005 98.1224 76.6677 98.1704 76.7372C98.2177 76.8057 98.262 76.8764 98.3032 76.9488C98.3455 77.0209 98.3847 77.0949 98.4206 77.1705C98.4547 77.2483 98.4854 77.3275 98.5125 77.408C98.5416 77.486 98.5673 77.5653 98.5896 77.6456C98.6119 77.7273 98.6307 77.8099 98.6459 77.8932C98.6596 77.9753 98.6698 78.0578 98.6765 78.1408C98.6834 78.2248 98.6867 78.309 98.6864 78.3933C98.6867 78.4776 98.6834 78.5619 98.6765 78.6459C98.6698 78.7288 98.6596 78.8114 98.6459 78.8935C98.6307 78.9768 98.6119 79.0594 98.5896 79.1411C98.5675 79.223 98.5417 79.304 98.5125 79.3836C98.4852 79.4621 98.4545 79.5393 98.4206 79.6152C98.3847 79.6907 98.3455 79.7647 98.3032 79.8368C98.262 79.9092 98.2177 79.9799 98.1704 80.0484C98.1224 80.1179 98.0713 80.1852 98.0174 80.2501C97.964 80.3145 97.9077 80.3764 97.849 80.4358C97.7902 80.495 97.7289 80.5516 97.6652 80.6055C97.6012 80.66 97.5348 80.7116 97.4662 80.7602C97.3984 80.8078 97.3285 80.8525 97.2569 80.894C97.1854 80.9368 97.1122 80.9764 97.0374 81.0128C96.9623 81.0494 96.8857 81.0827 96.8077 81.1126C96.7288 81.1394 96.6488 81.1627 96.5679 81.1825C96.4871 81.2061 96.4053 81.226 96.3229 81.2423C96.2416 81.2559 96.1599 81.2659 96.0778 81.2723C95.9946 81.2793 95.9112 81.2826 95.8277 81.2823C95.5778 81.2818 95.3289 81.2483 95.0876 81.1825C94.8464 81.1171 94.6148 81.0201 94.3985 80.894C94.1822 80.7677 93.9831 80.6133 93.8064 80.4347C93.6298 80.256 93.477 80.0547 93.3522 79.8358C93.2272 79.6172 93.1311 79.3829 93.0663 79.139C93.0019 78.8951 92.9694 78.6438 92.9696 78.3913C92.9694 78.1389 93.0019 77.8875 93.0663 77.6436C93.1311 77.3998 93.2272 77.1655 93.3522 76.9469C93.4771 76.7283 93.6298 76.5273 93.8064 76.3489C93.9831 76.1704 94.1822 76.0159 94.3985 75.8897C94.6148 75.7635 94.8464 75.6665 95.0876 75.6012C95.3289 75.5353 95.5778 75.4988 95.8277 75.4983ZM89.2431 82.2562H102.417C102.667 82.2533 102.916 82.2836 103.158 82.3461C103.399 82.4114 103.63 82.5084 103.847 82.6346C104.063 82.7593 104.262 82.9119 104.439 83.0887C104.617 83.2668 104.772 83.4679 104.898 83.6867C105.023 83.9038 105.119 84.1363 105.184 84.3785C105.248 84.6224 105.281 84.8738 105.281 85.1262C105.281 85.2105 105.278 85.2947 105.271 85.3787C105.264 85.4633 105.254 85.5476 105.24 85.6313C105.227 85.7129 105.209 85.7938 105.189 85.8739C105.167 85.9558 105.141 86.0368 105.112 86.1164C105.083 86.197 105.051 86.2764 105.015 86.3541C104.981 86.4295 104.943 86.5035 104.903 86.5757C104.86 86.6482 104.814 86.7188 104.765 86.7873C104.719 86.8566 104.669 86.9239 104.617 86.9889C104.563 87.0533 104.507 87.1152 104.448 87.1746C104.388 87.2343 104.325 87.2913 104.26 87.3453C104.197 87.3997 104.132 87.4513 104.066 87.5001C103.996 87.5499 103.925 87.5965 103.851 87.6398C103.78 87.6809 103.707 87.7189 103.632 87.7536C103.555 87.7904 103.477 87.8237 103.397 87.8535C103.32 87.8801 103.241 87.9034 103.162 87.9233C103.081 87.9469 103 87.9669 102.917 87.9832C102.834 87.9969 102.751 88.0069 102.667 88.0132C102.584 88.0202 102.5 88.0235 102.417 88.0231H89.2426C88.9909 88.0232 88.7403 87.9896 88.4974 87.9233C88.2564 87.8596 88.0248 87.7643 87.8083 87.6398C87.5898 87.5124 87.389 87.3563 87.2111 87.1756C87.0344 86.9972 86.8817 86.7962 86.7568 86.5777C86.6314 86.3575 86.5353 86.1215 86.4709 85.8759C86.4065 85.632 86.374 85.3806 86.3742 85.1282C86.3757 84.8755 86.41 84.6241 86.4762 84.3805C86.5413 84.1383 86.6374 83.9058 86.7621 83.6887C86.8886 83.4699 87.043 83.2689 87.2215 83.0908C87.3984 82.914 87.5974 82.7612 87.8135 82.6366C88.0297 82.5104 88.2614 82.4134 88.5026 82.3481C88.7443 82.2856 88.9936 82.2533 89.2431 82.2562ZM95.8277 88.8283C95.9112 88.8279 95.9946 88.8314 96.0778 88.8384C96.1599 88.8448 96.2416 88.8548 96.3229 88.8683C96.4053 88.8846 96.4871 88.9046 96.5679 88.9282C96.6488 88.9479 96.7288 88.9713 96.8077 88.9981C96.8857 89.028 96.9623 89.0612 97.0374 89.0978C97.1122 89.1342 97.1854 89.1739 97.2569 89.2167C97.3285 89.2582 97.3984 89.3029 97.4662 89.3505C97.5348 89.3991 97.6012 89.4507 97.6652 89.5052C97.7289 89.5593 97.7902 89.6163 97.849 89.6758C97.9077 89.7352 97.964 89.7972 98.0174 89.8615C98.0713 89.9261 98.1223 89.9931 98.1704 90.0622C98.2177 90.1308 98.262 90.2014 98.3032 90.2739C98.3455 90.346 98.3847 90.4198 98.4206 90.4954C98.4546 90.5716 98.4852 90.6492 98.5125 90.728C98.5417 90.8077 98.5675 90.8886 98.5896 90.9706C98.6119 91.0522 98.6307 91.1349 98.6459 91.2182C98.6596 91.3002 98.6698 91.3828 98.6765 91.4658C98.6834 91.5498 98.6867 91.634 98.6864 91.7183C98.6867 91.8026 98.6834 91.8869 98.6765 91.9709C98.6698 92.0538 98.6596 92.1364 98.6459 92.2184C98.6307 92.3017 98.6119 92.3844 98.5896 92.466C98.5673 92.5463 98.5416 92.6256 98.5125 92.7036C98.4854 92.7842 98.4547 92.8634 98.4206 92.9412C98.3847 93.0167 98.3455 93.0907 98.3032 93.1628C98.262 93.2353 98.2177 93.3059 98.1704 93.3745C98.1224 93.4439 98.0713 93.5111 98.0174 93.5761C97.964 93.6404 97.9077 93.7023 97.849 93.7617C97.7902 93.8213 97.7289 93.8783 97.6652 93.9325C97.6012 93.987 97.5348 94.0386 97.4662 94.0872C97.3984 94.1348 97.3285 94.1795 97.2569 94.221C97.1854 94.2621 97.1122 94.3001 97.0374 94.3348C96.9623 94.3714 96.8857 94.4047 96.8077 94.4345C96.7289 94.4647 96.649 94.4914 96.5679 94.5144C96.487 94.5347 96.4052 94.5513 96.3229 94.5643C96.2418 94.5812 96.16 94.5946 96.0778 94.6043C95.9946 94.6113 95.9112 94.6146 95.8277 94.6143C95.5778 94.6138 95.3289 94.5803 95.0876 94.5144C94.8464 94.4491 94.6148 94.3521 94.3985 94.2259C94.1822 94.0997 93.9831 93.9453 93.8064 93.7668C93.6298 93.5883 93.4771 93.3873 93.3522 93.1688C93.2272 92.9502 93.1311 92.7159 93.0663 92.472C93.0019 92.2281 92.9694 91.9767 92.9696 91.7243C92.9694 91.4718 93.0019 91.2205 93.0663 90.9766C93.1311 90.7327 93.2272 90.4984 93.3522 90.2798C93.4771 90.0613 93.6298 89.8603 93.8064 89.6819C93.9831 89.5033 94.1822 89.3489 94.3985 89.2227C94.6148 89.0965 94.8464 88.9995 95.0876 88.9342C95.3289 88.8683 95.5778 88.8287 95.8277 88.8283Z" fill="#14A5C0"/>
</g>
<path d="M24.754 123.31V113.655H31.0712V115.282H26.5195V121.682H31.1264V123.31H24.754ZM25.5816 119.172V117.572H30.3678V119.172H25.5816ZM35.4988 123.448C34.8551 123.448 34.2758 123.342 33.7609 123.131C33.2551 122.91 32.8413 122.597 32.5195 122.193L33.623 121.241C33.8988 121.554 34.2069 121.779 34.5471 121.917C34.8873 122.055 35.2459 122.124 35.623 122.124C35.7793 122.124 35.9172 122.105 36.0367 122.069C36.1655 122.032 36.2758 121.977 36.3678 121.903C36.4597 121.83 36.5287 121.747 36.5747 121.655C36.6298 121.554 36.6574 121.443 36.6574 121.324C36.6574 121.103 36.5747 120.928 36.4092 120.8C36.3172 120.735 36.1701 120.666 35.9678 120.593C35.7747 120.519 35.5218 120.446 35.2092 120.372C34.7126 120.243 34.2988 120.096 33.9678 119.931C33.6367 119.756 33.3793 119.563 33.1954 119.351C33.039 119.177 32.9195 118.979 32.8367 118.758C32.7632 118.538 32.7264 118.299 32.7264 118.041C32.7264 117.719 32.7954 117.43 32.9333 117.172C33.0804 116.905 33.2781 116.676 33.5264 116.482C33.7747 116.289 34.0643 116.142 34.3954 116.041C34.7264 115.94 35.0712 115.889 35.4298 115.889C35.7977 115.889 36.1517 115.935 36.4919 116.027C36.8413 116.119 37.1632 116.253 37.4574 116.427C37.7609 116.593 38.0184 116.795 38.2298 117.034L37.2919 118.069C37.1172 117.903 36.9241 117.756 36.7126 117.627C36.5103 117.499 36.3034 117.397 36.0919 117.324C35.8804 117.241 35.6827 117.2 35.4988 117.2C35.3241 117.2 35.1678 117.218 35.0298 117.255C34.8919 117.282 34.777 117.328 34.685 117.393C34.5931 117.457 34.5195 117.54 34.4643 117.641C34.4184 117.733 34.3954 117.843 34.3954 117.972C34.4046 118.082 34.4321 118.188 34.4781 118.289C34.5333 118.381 34.6069 118.459 34.6988 118.524C34.8 118.588 34.9517 118.662 35.154 118.745C35.3563 118.827 35.6184 118.905 35.9402 118.979C36.3908 119.099 36.7678 119.232 37.0712 119.379C37.3747 119.526 37.6138 119.696 37.7885 119.889C37.9632 120.055 38.0873 120.248 38.1609 120.469C38.2344 120.689 38.2712 120.933 38.2712 121.2C38.2712 121.632 38.1471 122.018 37.8988 122.358C37.6597 122.699 37.3287 122.965 36.9057 123.158C36.4919 123.351 36.023 123.448 35.4988 123.448ZM39.7657 126.345V116.041H41.4347L41.4623 117.696L41.1726 117.572C41.2278 117.287 41.3841 117.02 41.6416 116.772C41.8991 116.515 42.2117 116.308 42.5795 116.151C42.9565 115.995 43.3473 115.917 43.7519 115.917C44.3956 115.917 44.9657 116.078 45.4623 116.4C45.968 116.722 46.3634 117.163 46.6485 117.724C46.9427 118.285 47.0899 118.933 47.0899 119.669C47.0899 120.395 46.9427 121.043 46.6485 121.614C46.3634 122.174 45.968 122.62 45.4623 122.951C44.9657 123.273 44.4048 123.434 43.7795 123.434C43.3565 123.434 42.9473 123.351 42.5519 123.186C42.1657 123.02 41.8347 122.804 41.5588 122.538C41.2922 122.271 41.1267 121.991 41.0623 121.696L41.4761 121.503V126.345H39.7657ZM43.4347 121.931C43.8209 121.931 44.1657 121.834 44.4692 121.641C44.7726 121.448 45.0071 121.181 45.1726 120.841C45.3473 120.501 45.4347 120.11 45.4347 119.669C45.4347 119.227 45.3519 118.841 45.1864 118.51C45.0209 118.17 44.7864 117.903 44.483 117.71C44.1795 117.517 43.8301 117.42 43.4347 117.42C43.0301 117.42 42.6761 117.517 42.3726 117.71C42.0784 117.894 41.8439 118.156 41.6692 118.496C41.4945 118.836 41.4071 119.227 41.4071 119.669C41.4071 120.11 41.4945 120.501 41.6692 120.841C41.8439 121.181 42.0784 121.448 42.3726 121.641C42.6761 121.834 43.0301 121.931 43.4347 121.931ZM51.3468 123.448C50.7491 123.448 50.2065 123.282 49.7192 122.951C49.2318 122.62 48.841 122.17 48.5468 121.6C48.2525 121.03 48.1054 120.381 48.1054 119.655C48.1054 118.928 48.2525 118.28 48.5468 117.71C48.841 117.14 49.241 116.694 49.7468 116.372C50.2525 116.05 50.8226 115.889 51.4571 115.889C51.8249 115.889 52.1606 115.945 52.464 116.055C52.7675 116.156 53.0341 116.303 53.264 116.496C53.4939 116.689 53.6824 116.91 53.8295 117.158C53.9858 117.407 54.0916 117.673 54.1468 117.958L53.7744 117.862V116.041H55.4847V123.31H53.7606V121.572L54.1606 121.503C54.0962 121.751 53.9767 121.995 53.8019 122.234C53.6364 122.464 53.4249 122.671 53.1675 122.855C52.9192 123.03 52.6387 123.172 52.3261 123.282C52.0226 123.393 51.6962 123.448 51.3468 123.448ZM51.8157 121.945C52.2111 121.945 52.5606 121.848 52.864 121.655C53.1675 121.462 53.4019 121.195 53.5675 120.855C53.7422 120.505 53.8295 120.105 53.8295 119.655C53.8295 119.214 53.7422 118.823 53.5675 118.482C53.4019 118.142 53.1675 117.876 52.864 117.682C52.5606 117.489 52.2111 117.393 51.8157 117.393C51.4203 117.393 51.0709 117.489 50.7675 117.682C50.4732 117.876 50.2433 118.142 50.0778 118.482C49.9123 118.823 49.8295 119.214 49.8295 119.655C49.8295 120.105 49.9123 120.505 50.0778 120.855C50.2433 121.195 50.4732 121.462 50.7675 121.655C51.0709 121.848 51.4203 121.945 51.8157 121.945ZM60.5689 123.448C59.8884 123.448 59.2769 123.282 58.7344 122.951C58.1918 122.62 57.7643 122.17 57.4516 121.6C57.139 121.03 56.9827 120.386 56.9827 119.669C56.9827 118.951 57.139 118.308 57.4516 117.738C57.7643 117.168 58.1918 116.717 58.7344 116.386C59.2769 116.055 59.8884 115.889 60.5689 115.889C61.2217 115.889 61.8148 116.014 62.3482 116.262C62.8815 116.51 63.2953 116.855 63.5896 117.296L62.6516 118.427C62.5137 118.234 62.339 118.059 62.1275 117.903C61.916 117.747 61.6907 117.623 61.4516 117.531C61.2125 117.439 60.9735 117.393 60.7344 117.393C60.3298 117.393 59.9666 117.494 59.6447 117.696C59.3321 117.889 59.0838 118.161 58.8999 118.51C58.716 118.85 58.624 119.236 58.624 119.669C58.624 120.101 58.716 120.487 58.8999 120.827C59.093 121.168 59.3505 121.439 59.6723 121.641C59.9941 121.843 60.3528 121.945 60.7482 121.945C60.9873 121.945 61.2171 121.908 61.4378 121.834C61.6677 121.751 61.8838 121.636 62.0861 121.489C62.2884 121.342 62.4769 121.158 62.6516 120.938L63.5896 122.082C63.2769 122.487 62.8447 122.818 62.293 123.076C61.7505 123.324 61.1758 123.448 60.5689 123.448ZM59.2723 126.689L59.1758 125.848C59.3781 125.848 59.5941 125.816 59.824 125.751C60.0539 125.687 60.247 125.6 60.4033 125.489C60.5597 125.388 60.6378 125.282 60.6378 125.172C60.6378 125.053 60.5689 124.956 60.4309 124.882C60.293 124.818 60.1367 124.768 59.962 124.731C59.7873 124.694 59.6309 124.676 59.493 124.676L59.2861 124.524L60.2654 122.979H61.1896L60.5827 123.931C61.0516 124.014 61.401 124.165 61.6309 124.386C61.8608 124.616 61.9758 124.896 61.9758 125.227C61.9758 125.485 61.893 125.705 61.7275 125.889C61.562 126.073 61.3459 126.225 61.0792 126.345C60.8125 126.473 60.5183 126.565 60.1964 126.62C59.8838 126.676 59.5758 126.699 59.2723 126.689ZM68.2111 123.448C67.4847 123.448 66.8364 123.287 66.2663 122.965C65.6962 122.634 65.2456 122.184 64.9145 121.614C64.5835 121.043 64.418 120.395 64.418 119.669C64.418 118.942 64.5835 118.294 64.9145 117.724C65.2456 117.154 65.6962 116.708 66.2663 116.386C66.8364 116.055 67.4847 115.889 68.2111 115.889C68.9283 115.889 69.572 116.055 70.1421 116.386C70.7123 116.708 71.1582 117.154 71.4801 117.724C71.8111 118.294 71.9766 118.942 71.9766 119.669C71.9766 120.395 71.8111 121.043 71.4801 121.614C71.1582 122.184 70.7123 122.634 70.1421 122.965C69.572 123.287 68.9283 123.448 68.2111 123.448ZM68.2111 121.945C68.6065 121.945 68.9559 121.843 69.2594 121.641C69.572 121.439 69.8157 121.168 69.9904 120.827C70.1743 120.487 70.2617 120.101 70.2525 119.669C70.2617 119.227 70.1743 118.836 69.9904 118.496C69.8157 118.156 69.572 117.889 69.2594 117.696C68.9559 117.494 68.6065 117.393 68.2111 117.393C67.8157 117.393 67.4571 117.494 67.1352 117.696C66.8226 117.889 66.5789 118.161 66.4042 118.51C66.2295 118.85 66.1421 119.236 66.1421 119.669C66.1421 120.101 66.2295 120.487 66.4042 120.827C66.5789 121.168 66.8226 121.439 67.1352 121.641C67.4571 121.843 67.8157 121.945 68.2111 121.945ZM75.9218 123.448C75.2781 123.448 74.6988 123.342 74.1838 123.131C73.6781 122.91 73.2643 122.597 72.9425 122.193L74.0459 121.241C74.3218 121.554 74.6298 121.779 74.97 121.917C75.3103 122.055 75.6689 122.124 76.0459 122.124C76.2022 122.124 76.3402 122.105 76.4597 122.069C76.5884 122.032 76.6988 121.977 76.7907 121.903C76.8827 121.83 76.9517 121.747 76.9976 121.655C77.0528 121.554 77.0804 121.443 77.0804 121.324C77.0804 121.103 76.9976 120.928 76.8321 120.8C76.7402 120.735 76.593 120.666 76.3907 120.593C76.1976 120.519 75.9448 120.446 75.6321 120.372C75.1356 120.243 74.7218 120.096 74.3907 119.931C74.0597 119.756 73.8022 119.563 73.6183 119.351C73.462 119.177 73.3425 118.979 73.2597 118.758C73.1861 118.538 73.1494 118.299 73.1494 118.041C73.1494 117.719 73.2183 117.43 73.3563 117.172C73.5034 116.905 73.7011 116.676 73.9494 116.482C74.1976 116.289 74.4873 116.142 74.8183 116.041C75.1494 115.94 75.4942 115.889 75.8528 115.889C76.2206 115.889 76.5746 115.935 76.9149 116.027C77.2643 116.119 77.5861 116.253 77.8804 116.427C78.1838 116.593 78.4413 116.795 78.6528 117.034L77.7149 118.069C77.5402 117.903 77.3471 117.756 77.1356 117.627C76.9333 117.499 76.7264 117.397 76.5149 117.324C76.3034 117.241 76.1057 117.2 75.9218 117.2C75.7471 117.2 75.5907 117.218 75.4528 117.255C75.3149 117.282 75.1999 117.328 75.108 117.393C75.016 117.457 74.9425 117.54 74.8873 117.641C74.8413 117.733 74.8183 117.843 74.8183 117.972C74.8275 118.082 74.8551 118.188 74.9011 118.289C74.9563 118.381 75.0298 118.459 75.1218 118.524C75.2229 118.588 75.3746 118.662 75.5769 118.745C75.7792 118.827 76.0413 118.905 76.3632 118.979C76.8137 119.099 77.1907 119.232 77.4942 119.379C77.7976 119.526 78.0367 119.696 78.2114 119.889C78.3861 120.055 78.5103 120.248 78.5838 120.469C78.6574 120.689 78.6942 120.933 78.6942 121.2C78.6942 121.632 78.57 122.018 78.3218 122.358C78.0827 122.699 77.7517 122.965 77.3287 123.158C76.9149 123.351 76.4459 123.448 75.9218 123.448ZM80.3956 125.876L79.8301 125.2C80.1703 125.016 80.4416 124.8 80.6439 124.551C80.8554 124.312 80.9611 124.105 80.9611 123.931C80.9611 123.839 80.9381 123.747 80.8921 123.655C80.8554 123.572 80.7588 123.457 80.6025 123.31C80.4094 123.135 80.2806 122.984 80.2163 122.855C80.1519 122.726 80.1197 122.584 80.1197 122.427C80.1197 122.188 80.2071 121.995 80.3818 121.848C80.5565 121.701 80.7818 121.627 81.0577 121.627C81.3059 121.627 81.5266 121.696 81.7197 121.834C81.922 121.972 82.0783 122.165 82.1887 122.414C82.299 122.653 82.3542 122.933 82.3542 123.255C82.3542 123.54 82.3036 123.816 82.2025 124.082C82.1105 124.358 81.9726 124.611 81.7887 124.841C81.614 125.071 81.4071 125.273 81.168 125.448C80.9381 125.632 80.6806 125.774 80.3956 125.876ZM88.8143 123.31V114.193H90.5109V123.31H88.8143ZM87.3799 117.614V116.041H92.0971V117.614H87.3799ZM96.7287 123.448C95.9654 123.448 95.2896 123.287 94.7011 122.965C94.1218 122.643 93.6666 122.207 93.3356 121.655C93.0137 121.094 92.8528 120.455 92.8528 119.738C92.8528 119.168 92.9448 118.648 93.1287 118.179C93.3126 117.71 93.5654 117.305 93.8873 116.965C94.2183 116.616 94.6091 116.349 95.0597 116.165C95.5195 115.972 96.0206 115.876 96.5631 115.876C97.0413 115.876 97.4873 115.968 97.9011 116.151C98.3149 116.335 98.6735 116.588 98.9769 116.91C99.2804 117.223 99.5103 117.6 99.6666 118.041C99.8321 118.473 99.9103 118.947 99.9011 119.462L99.8873 120.055H93.9976L93.6804 118.896H98.4666L98.2459 119.131V118.827C98.2183 118.542 98.1264 118.294 97.97 118.082C97.8137 117.862 97.6114 117.692 97.3631 117.572C97.1241 117.443 96.8574 117.379 96.5631 117.379C96.1126 117.379 95.731 117.466 95.4183 117.641C95.1149 117.816 94.885 118.069 94.7287 118.4C94.5723 118.722 94.4942 119.126 94.4942 119.614C94.4942 120.082 94.5907 120.492 94.7838 120.841C94.9861 121.191 95.2666 121.462 95.6252 121.655C95.993 121.839 96.4206 121.931 96.908 121.931C97.2482 121.931 97.5609 121.876 97.8459 121.765C98.131 121.655 98.439 121.457 98.77 121.172L99.6114 122.345C99.3632 122.574 99.0781 122.772 98.7563 122.938C98.4436 123.094 98.1126 123.218 97.7632 123.31C97.4137 123.402 97.0689 123.448 96.7287 123.448ZM101.376 123.31V116.041H103.045L103.073 117.503L102.797 117.614C102.88 117.374 103.004 117.154 103.169 116.951C103.335 116.74 103.532 116.561 103.762 116.414C103.992 116.257 104.236 116.138 104.493 116.055C104.751 115.963 105.013 115.917 105.28 115.917C105.675 115.917 106.024 115.981 106.328 116.11C106.64 116.23 106.898 116.423 107.1 116.689C107.312 116.956 107.468 117.296 107.569 117.71L107.307 117.655L107.417 117.434C107.519 117.214 107.661 117.016 107.845 116.841C108.029 116.657 108.236 116.496 108.466 116.358C108.696 116.211 108.935 116.101 109.183 116.027C109.44 115.954 109.693 115.917 109.942 115.917C110.493 115.917 110.953 116.027 111.321 116.248C111.689 116.469 111.965 116.804 112.149 117.255C112.332 117.705 112.424 118.262 112.424 118.924V123.31H110.714V119.034C110.714 118.666 110.663 118.363 110.562 118.124C110.47 117.885 110.323 117.71 110.121 117.6C109.928 117.48 109.684 117.42 109.39 117.42C109.16 117.42 108.939 117.462 108.728 117.545C108.526 117.618 108.351 117.728 108.204 117.876C108.057 118.014 107.942 118.174 107.859 118.358C107.776 118.542 107.735 118.745 107.735 118.965V123.31H106.024V119.02C106.024 118.671 105.974 118.381 105.873 118.151C105.771 117.912 105.624 117.733 105.431 117.614C105.238 117.485 105.004 117.42 104.728 117.42C104.498 117.42 104.282 117.462 104.08 117.545C103.877 117.618 103.703 117.724 103.555 117.862C103.408 118 103.293 118.161 103.211 118.345C103.128 118.528 103.086 118.731 103.086 118.951V123.31H101.376ZM114.308 126.345V116.041H115.977L116.004 117.696L115.715 117.572C115.77 117.287 115.926 117.02 116.184 116.772C116.441 116.515 116.754 116.308 117.122 116.151C117.499 115.995 117.889 115.917 118.294 115.917C118.938 115.917 119.508 116.078 120.004 116.4C120.51 116.722 120.905 117.163 121.191 117.724C121.485 118.285 121.632 118.933 121.632 119.669C121.632 120.395 121.485 121.043 121.191 121.614C120.905 122.174 120.51 122.62 120.004 122.951C119.508 123.273 118.947 123.434 118.322 123.434C117.899 123.434 117.489 123.351 117.094 123.186C116.708 123.02 116.377 122.804 116.101 122.538C115.834 122.271 115.669 121.991 115.604 121.696L116.018 121.503V126.345H114.308ZM117.977 121.931C118.363 121.931 118.708 121.834 119.011 121.641C119.315 121.448 119.549 121.181 119.715 120.841C119.889 120.501 119.977 120.11 119.977 119.669C119.977 119.227 119.894 118.841 119.728 118.51C119.563 118.17 119.328 117.903 119.025 117.71C118.722 117.517 118.372 117.42 117.977 117.42C117.572 117.42 117.218 117.517 116.915 117.71C116.62 117.894 116.386 118.156 116.211 118.496C116.036 118.836 115.949 119.227 115.949 119.669C115.949 120.11 116.036 120.501 116.211 120.841C116.386 121.181 116.62 121.448 116.915 121.641C117.218 121.834 117.572 121.931 117.977 121.931ZM126.468 123.448C125.742 123.448 125.093 123.287 124.523 122.965C123.953 122.634 123.503 122.184 123.172 121.614C122.841 121.043 122.675 120.395 122.675 119.669C122.675 118.942 122.841 118.294 123.172 117.724C123.503 117.154 123.953 116.708 124.523 116.386C125.093 116.055 125.742 115.889 126.468 115.889C127.185 115.889 127.829 116.055 128.399 116.386C128.969 116.708 129.415 117.154 129.737 117.724C130.068 118.294 130.234 118.942 130.234 119.669C130.234 120.395 130.068 121.043 129.737 121.614C129.415 122.184 128.969 122.634 128.399 122.965C127.829 123.287 127.185 123.448 126.468 123.448ZM126.468 121.945C126.864 121.945 127.213 121.843 127.516 121.641C127.829 121.439 128.073 121.168 128.247 120.827C128.431 120.487 128.519 120.101 128.509 119.669C128.519 119.227 128.431 118.836 128.247 118.496C128.073 118.156 127.829 117.889 127.516 117.696C127.213 117.494 126.864 117.393 126.468 117.393C126.073 117.393 125.714 117.494 125.392 117.696C125.08 117.889 124.836 118.161 124.661 118.51C124.487 118.85 124.399 119.236 124.399 119.669C124.399 120.101 124.487 120.487 124.661 120.827C124.836 121.168 125.08 121.439 125.392 121.641C125.714 121.843 126.073 121.945 126.468 121.945ZM131.958 125.876L131.393 125.2C131.733 125.016 132.004 124.8 132.206 124.551C132.418 124.312 132.524 124.105 132.524 123.931C132.524 123.839 132.501 123.747 132.455 123.655C132.418 123.572 132.321 123.457 132.165 123.31C131.972 123.135 131.843 122.984 131.779 122.855C131.714 122.726 131.682 122.584 131.682 122.427C131.682 122.188 131.77 121.995 131.944 121.848C132.119 121.701 132.344 121.627 132.62 121.627C132.868 121.627 133.089 121.696 133.282 121.834C133.485 121.972 133.641 122.165 133.751 122.414C133.862 122.653 133.917 122.933 133.917 123.255C133.917 123.54 133.866 123.816 133.765 124.082C133.673 124.358 133.535 124.611 133.351 124.841C133.176 125.071 132.97 125.273 132.731 125.448C132.501 125.632 132.243 125.774 131.958 125.876ZM40.5935 147.345V142.572L40.9383 142.614C40.9291 142.834 40.8464 143.055 40.69 143.276C40.5429 143.487 40.3452 143.685 40.0969 143.869C39.8579 144.043 39.5866 144.186 39.2831 144.296C38.9889 144.397 38.6808 144.448 38.359 144.448C37.7153 144.448 37.136 144.287 36.6211 143.965C36.1153 143.634 35.7153 143.184 35.4211 142.614C35.1268 142.043 34.9797 141.395 34.9797 140.669C34.9797 139.933 35.1222 139.285 35.4073 138.724C35.7015 138.154 36.0969 137.708 36.5935 137.386C37.0992 137.055 37.6739 136.889 38.3176 136.889C38.667 136.889 39.0027 136.945 39.3245 137.055C39.6464 137.165 39.936 137.312 40.1935 137.496C40.451 137.68 40.6533 137.887 40.8004 138.117C40.9567 138.347 41.0395 138.581 41.0487 138.82L40.6073 138.862L40.6349 137.027H42.29V147.345H40.5935ZM38.6349 142.945C39.0303 142.945 39.3797 142.848 39.6831 142.655C39.9866 142.462 40.2211 142.195 40.3866 141.855C40.5613 141.515 40.6487 141.119 40.6487 140.669C40.6487 140.218 40.5613 139.823 40.3866 139.482C40.2211 139.133 39.9866 138.862 39.6831 138.669C39.3797 138.476 39.0303 138.379 38.6349 138.379C38.2395 138.379 37.89 138.48 37.5866 138.682C37.2831 138.876 37.0441 139.147 36.8693 139.496C36.7038 139.836 36.6211 140.227 36.6211 140.669C36.6211 141.11 36.7038 141.505 36.8693 141.855C37.0441 142.195 37.2831 142.462 37.5866 142.655C37.89 142.848 38.2395 142.945 38.6349 142.945ZM46.7955 144.448C46.2714 144.448 45.8162 144.333 45.43 144.103C45.0438 143.864 44.7496 143.528 44.5473 143.096C44.345 142.655 44.2438 142.131 44.2438 141.524V137.041H45.9404V141.165C45.9404 141.551 46.0001 141.882 46.1197 142.158C46.2392 142.425 46.4139 142.632 46.6438 142.779C46.8737 142.926 47.1496 143 47.4714 143C47.7105 143 47.9266 142.963 48.1197 142.889C48.322 142.807 48.4967 142.696 48.6438 142.558C48.7909 142.411 48.9059 142.241 48.9886 142.048C49.0714 141.846 49.1128 141.63 49.1128 141.4V137.041H50.8093V144.31H49.1542L49.1266 142.793L49.43 142.627C49.3197 142.977 49.1312 143.289 48.8645 143.565C48.607 143.832 48.299 144.048 47.9404 144.214C47.5817 144.37 47.2001 144.448 46.7955 144.448ZM55.5426 144.448C54.9449 144.448 54.4024 144.282 53.915 143.951C53.4277 143.62 53.0369 143.17 52.7426 142.6C52.4484 142.03 52.3012 141.381 52.3012 140.655C52.3012 139.928 52.4484 139.28 52.7426 138.71C53.0369 138.14 53.4369 137.694 53.9426 137.372C54.4484 137.05 55.0185 136.889 55.653 136.889C56.0208 136.889 56.3564 136.945 56.6599 137.055C56.9633 137.156 57.23 137.303 57.4599 137.496C57.6897 137.689 57.8783 137.91 58.0254 138.158C58.1817 138.407 58.2875 138.673 58.3426 138.958L57.9702 138.862V137.041H59.6806V144.31H57.9564V142.572L58.3564 142.503C58.292 142.751 58.1725 142.995 57.9978 143.234C57.8323 143.464 57.6208 143.671 57.3633 143.855C57.115 144.03 56.8346 144.172 56.5219 144.282C56.2185 144.393 55.892 144.448 55.5426 144.448ZM56.0116 142.945C56.407 142.945 56.7564 142.848 57.0599 142.655C57.3633 142.462 57.5978 142.195 57.7633 141.855C57.938 141.505 58.0254 141.105 58.0254 140.655C58.0254 140.214 57.938 139.823 57.7633 139.482C57.5978 139.142 57.3633 138.876 57.0599 138.682C56.7564 138.489 56.407 138.393 56.0116 138.393C55.6162 138.393 55.2668 138.489 54.9633 138.682C54.6691 138.876 54.4392 139.142 54.2737 139.482C54.1081 139.823 54.0254 140.214 54.0254 140.655C54.0254 141.105 54.1081 141.505 54.2737 141.855C54.4392 142.195 54.6691 142.462 54.9633 142.655C55.2668 142.848 55.6162 142.945 56.0116 142.945ZM61.6475 144.31V137.041H63.3026L63.3302 138.531L63.013 138.696C63.1049 138.365 63.2843 138.066 63.5509 137.8C63.8176 137.524 64.1348 137.303 64.5026 137.138C64.8705 136.972 65.2475 136.889 65.6337 136.889C66.1854 136.889 66.6452 137 67.013 137.22C67.39 137.441 67.6705 137.772 67.8544 138.214C68.0475 138.655 68.144 139.207 68.144 139.869V144.31H66.4475V139.993C66.4475 139.625 66.3969 139.322 66.2957 139.082C66.1946 138.834 66.0383 138.655 65.8268 138.545C65.6153 138.425 65.3578 138.37 65.0544 138.379C64.8061 138.379 64.5762 138.42 64.3647 138.503C64.1624 138.577 63.9831 138.687 63.8268 138.834C63.6797 138.972 63.5601 139.133 63.4682 139.317C63.3854 139.501 63.344 139.703 63.344 139.924V144.31H62.5026C62.3371 144.31 62.1808 144.31 62.0337 144.31C61.8957 144.31 61.767 144.31 61.6475 144.31ZM70.8389 144.31V135.193H72.5354V144.31H70.8389ZM69.4044 138.614V137.041H74.1216V138.614H69.4044ZM75.6067 144.31V137.041H77.3033V144.31H75.6067ZM76.4343 135.496C76.0941 135.496 75.8274 135.414 75.6343 135.248C75.4504 135.073 75.3585 134.83 75.3585 134.517C75.3585 134.223 75.455 133.984 75.6481 133.8C75.8412 133.616 76.1033 133.524 76.4343 133.524C76.7838 133.524 77.0504 133.611 77.2343 133.786C77.4274 133.951 77.524 134.195 77.524 134.517C77.524 134.802 77.4274 135.036 77.2343 135.22C77.0412 135.404 76.7746 135.496 76.4343 135.496ZM82.3787 144.448C81.735 144.448 81.1557 144.287 80.6408 143.965C80.135 143.634 79.7304 143.188 79.427 142.627C79.1327 142.057 78.9856 141.404 78.9856 140.669C78.9856 139.942 79.1327 139.294 79.427 138.724C79.7212 138.154 80.1212 137.708 80.627 137.386C81.1419 137.055 81.7212 136.889 82.3649 136.889C82.7144 136.889 83.05 136.945 83.3718 137.055C83.7029 137.165 83.9971 137.317 84.2546 137.51C84.5121 137.694 84.7144 137.901 84.8615 138.131C85.0178 138.361 85.1052 138.6 85.1235 138.848L84.6684 138.903V134.103H86.3649V144.31H84.7235L84.6822 142.6L85.0132 142.627C85.004 142.857 84.9213 143.078 84.7649 143.289C84.6178 143.501 84.4247 143.694 84.1856 143.869C83.9465 144.043 83.6661 144.186 83.3442 144.296C83.0316 144.397 82.7098 144.448 82.3787 144.448ZM82.7098 143.014C83.1052 143.014 83.4546 142.912 83.758 142.71C84.0615 142.508 84.296 142.232 84.4615 141.882C84.6362 141.533 84.7235 141.128 84.7235 140.669C84.7235 140.218 84.6362 139.818 84.4615 139.469C84.296 139.11 84.0615 138.834 83.758 138.641C83.4546 138.439 83.1052 138.338 82.7098 138.338C82.3144 138.338 81.9649 138.439 81.6615 138.641C81.358 138.834 81.119 139.11 80.9442 139.469C80.7787 139.818 80.696 140.218 80.696 140.669C80.696 141.128 80.7787 141.533 80.9442 141.882C81.119 142.232 81.358 142.508 81.6615 142.71C81.9649 142.912 82.3144 143.014 82.7098 143.014ZM91.0356 144.448C90.4379 144.448 89.8954 144.282 89.408 143.951C88.9207 143.62 88.5299 143.17 88.2356 142.6C87.9414 142.03 87.7942 141.381 87.7942 140.655C87.7942 139.928 87.9414 139.28 88.2356 138.71C88.5299 138.14 88.9299 137.694 89.4356 137.372C89.9414 137.05 90.5115 136.889 91.146 136.889C91.5138 136.889 91.8494 136.945 92.1529 137.055C92.4563 137.156 92.723 137.303 92.9529 137.496C93.1827 137.689 93.3712 137.91 93.5184 138.158C93.6747 138.407 93.7804 138.673 93.8356 138.958L93.4632 138.862V137.041H95.1735V144.31H93.4494V142.572L93.8494 142.503C93.785 142.751 93.6655 142.995 93.4908 143.234C93.3253 143.464 93.1138 143.671 92.8563 143.855C92.608 144.03 92.3276 144.172 92.0149 144.282C91.7115 144.393 91.385 144.448 91.0356 144.448ZM91.5046 142.945C91.9 142.945 92.2494 142.848 92.5529 142.655C92.8563 142.462 93.0908 142.195 93.2563 141.855C93.431 141.505 93.5184 141.105 93.5184 140.655C93.5184 140.214 93.431 139.823 93.2563 139.482C93.0908 139.142 92.8563 138.876 92.5529 138.682C92.2494 138.489 91.9 138.393 91.5046 138.393C91.1092 138.393 90.7598 138.489 90.4563 138.682C90.1621 138.876 89.9322 139.142 89.7666 139.482C89.6011 139.823 89.5184 140.214 89.5184 140.655C89.5184 141.105 89.6011 141.505 89.7666 141.855C89.9322 142.195 90.1621 142.462 90.4563 142.655C90.7598 142.848 91.1092 142.945 91.5046 142.945ZM100.065 144.448C99.4209 144.448 98.8416 144.287 98.3267 143.965C97.8209 143.634 97.4163 143.188 97.1129 142.627C96.8186 142.057 96.6715 141.404 96.6715 140.669C96.6715 139.942 96.8186 139.294 97.1129 138.724C97.4071 138.154 97.8071 137.708 98.3129 137.386C98.8278 137.055 99.4071 136.889 100.051 136.889C100.4 136.889 100.736 136.945 101.058 137.055C101.389 137.165 101.683 137.317 101.94 137.51C102.198 137.694 102.4 137.901 102.547 138.131C102.704 138.361 102.791 138.6 102.809 138.848L102.354 138.903V134.103H104.051V144.31H102.409L102.368 142.6L102.699 142.627C102.69 142.857 102.607 143.078 102.451 143.289C102.304 143.501 102.111 143.694 101.872 143.869C101.632 144.043 101.352 144.186 101.03 144.296C100.717 144.397 100.396 144.448 100.065 144.448ZM100.396 143.014C100.791 143.014 101.14 142.912 101.444 142.71C101.747 142.508 101.982 142.232 102.147 141.882C102.322 141.533 102.409 141.128 102.409 140.669C102.409 140.218 102.322 139.818 102.147 139.469C101.982 139.11 101.747 138.834 101.444 138.641C101.14 138.439 100.791 138.338 100.396 138.338C100 138.338 99.6508 138.439 99.3474 138.641C99.0439 138.834 98.8048 139.11 98.6301 139.469C98.4646 139.818 98.3819 140.218 98.3819 140.669C98.3819 141.128 98.4646 141.533 98.6301 141.882C98.8048 142.232 99.0439 142.508 99.3474 142.71C99.6508 142.912 100 143.014 100.396 143.014ZM109.384 144.448C108.62 144.448 107.944 144.287 107.356 143.965C106.777 143.643 106.322 143.207 105.99 142.655C105.669 142.094 105.508 141.455 105.508 140.738C105.508 140.168 105.6 139.648 105.784 139.179C105.967 138.71 106.22 138.305 106.542 137.965C106.873 137.616 107.264 137.349 107.715 137.165C108.174 136.972 108.676 136.876 109.218 136.876C109.696 136.876 110.142 136.968 110.556 137.151C110.97 137.335 111.328 137.588 111.632 137.91C111.935 138.223 112.165 138.6 112.322 139.041C112.487 139.473 112.565 139.947 112.556 140.462L112.542 141.055H106.653L106.335 139.896H111.122L110.901 140.131V139.827C110.873 139.542 110.781 139.294 110.625 139.082C110.469 138.862 110.266 138.692 110.018 138.572C109.779 138.443 109.512 138.379 109.218 138.379C108.767 138.379 108.386 138.466 108.073 138.641C107.77 138.816 107.54 139.069 107.384 139.4C107.227 139.722 107.149 140.126 107.149 140.614C107.149 141.082 107.246 141.492 107.439 141.841C107.641 142.191 107.922 142.462 108.28 142.655C108.648 142.839 109.076 142.931 109.563 142.931C109.903 142.931 110.216 142.876 110.501 142.765C110.786 142.655 111.094 142.457 111.425 142.172L112.266 143.345C112.018 143.574 111.733 143.772 111.411 143.938C111.099 144.094 110.767 144.218 110.418 144.31C110.069 144.402 109.724 144.448 109.384 144.448ZM116.486 144.448C115.842 144.448 115.263 144.342 114.748 144.131C114.242 143.91 113.829 143.597 113.507 143.193L114.61 142.241C114.886 142.554 115.194 142.779 115.534 142.917C115.875 143.055 116.233 143.124 116.61 143.124C116.767 143.124 116.905 143.105 117.024 143.069C117.153 143.032 117.263 142.977 117.355 142.903C117.447 142.83 117.516 142.747 117.562 142.655C117.617 142.554 117.645 142.443 117.645 142.324C117.645 142.103 117.562 141.928 117.397 141.8C117.305 141.735 117.157 141.666 116.955 141.593C116.762 141.519 116.509 141.446 116.197 141.372C115.7 141.243 115.286 141.096 114.955 140.931C114.624 140.756 114.367 140.563 114.183 140.351C114.026 140.177 113.907 139.979 113.824 139.758C113.751 139.538 113.714 139.299 113.714 139.041C113.714 138.719 113.783 138.43 113.921 138.172C114.068 137.905 114.265 137.676 114.514 137.482C114.762 137.289 115.052 137.142 115.383 137.041C115.714 136.94 116.059 136.889 116.417 136.889C116.785 136.889 117.139 136.935 117.479 137.027C117.829 137.119 118.151 137.253 118.445 137.427C118.748 137.593 119.006 137.795 119.217 138.034L118.279 139.069C118.105 138.903 117.911 138.756 117.7 138.627C117.498 138.499 117.291 138.397 117.079 138.324C116.868 138.241 116.67 138.2 116.486 138.2C116.311 138.2 116.155 138.218 116.017 138.255C115.879 138.282 115.764 138.328 115.672 138.393C115.58 138.457 115.507 138.54 115.452 138.641C115.406 138.733 115.383 138.843 115.383 138.972C115.392 139.082 115.419 139.188 115.465 139.289C115.521 139.381 115.594 139.459 115.686 139.524C115.787 139.588 115.939 139.662 116.141 139.745C116.344 139.827 116.606 139.905 116.928 139.979C117.378 140.099 117.755 140.232 118.059 140.379C118.362 140.526 118.601 140.696 118.776 140.889C118.951 141.055 119.075 141.248 119.148 141.469C119.222 141.689 119.259 141.933 119.259 142.2C119.259 142.632 119.134 143.018 118.886 143.358C118.647 143.699 118.316 143.965 117.893 144.158C117.479 144.351 117.01 144.448 116.486 144.448ZM120.96 146.876L120.394 146.2C120.735 146.016 121.006 145.8 121.208 145.551C121.42 145.312 121.525 145.105 121.525 144.931C121.525 144.839 121.503 144.747 121.457 144.655C121.42 144.572 121.323 144.457 121.167 144.31C120.974 144.135 120.845 143.984 120.781 143.855C120.716 143.726 120.684 143.584 120.684 143.427C120.684 143.188 120.771 142.995 120.946 142.848C121.121 142.701 121.346 142.627 121.622 142.627C121.87 142.627 122.091 142.696 122.284 142.834C122.486 142.972 122.643 143.165 122.753 143.414C122.863 143.653 122.919 143.933 122.919 144.255C122.919 144.54 122.868 144.816 122.767 145.082C122.675 145.358 122.537 145.611 122.353 145.841C122.178 146.071 121.971 146.273 121.732 146.448C121.503 146.632 121.245 146.774 120.96 146.876ZM125.186 144.462C124.855 144.462 124.598 144.365 124.414 144.172C124.239 143.979 124.152 143.708 124.152 143.358C124.152 143.036 124.244 142.774 124.428 142.572C124.621 142.361 124.874 142.255 125.186 142.255C125.517 142.255 125.77 142.351 125.945 142.545C126.129 142.728 126.221 143 126.221 143.358C126.221 143.68 126.124 143.947 125.931 144.158C125.747 144.361 125.499 144.462 125.186 144.462ZM128.028 144.462C127.697 144.462 127.439 144.365 127.255 144.172C127.081 143.979 126.993 143.708 126.993 143.358C126.993 143.036 127.085 142.774 127.269 142.572C127.462 142.361 127.715 142.255 128.028 142.255C128.359 142.255 128.612 142.351 128.786 142.545C128.97 142.728 129.062 143 129.062 143.358C129.062 143.68 128.966 143.947 128.773 144.158C128.589 144.361 128.34 144.462 128.028 144.462ZM130.883 144.462C130.552 144.462 130.294 144.365 130.111 144.172C129.936 143.979 129.848 143.708 129.848 143.358C129.848 143.036 129.94 142.774 130.124 142.572C130.317 142.361 130.57 142.255 130.883 142.255C131.214 142.255 131.467 142.351 131.642 142.545C131.825 142.728 131.917 143 131.917 143.358C131.917 143.68 131.821 143.947 131.628 144.158C131.444 144.361 131.196 144.462 130.883 144.462Z" fill="#FBFDFF"/>
<path d="M65.9822 182.835C65.7442 182.835 65.5512 183.028 65.5512 183.266C65.5512 183.504 65.7442 183.697 65.9822 183.697H68.4218C68.6599 183.697 68.8528 183.504 68.8528 183.266C68.8528 183.028 68.6599 182.835 68.4218 182.835H65.9822Z" fill="#FBFDFF"/>
<path d="M65.5242 185.406C65.5242 185.168 65.7172 184.975 65.9553 184.975H71.2848C71.5229 184.975 71.7159 185.168 71.7159 185.406C71.7159 185.644 71.5229 185.837 71.2848 185.837H65.9553C65.7172 185.837 65.5242 185.644 65.5242 185.406Z" fill="#FBFDFF"/>
<path d="M65.9334 187.154C65.6953 187.154 65.5024 187.347 65.5024 187.585C65.5024 187.823 65.6953 188.016 65.9334 188.016H71.2734C71.5115 188.016 71.7045 187.823 71.7045 187.585C71.7045 187.347 71.5115 187.154 71.2734 187.154H65.9334Z" fill="#FBFDFF"/>
<path fill-rule="evenodd" clip-rule="evenodd" d="M63.3809 178.814C63.3809 178.296 63.7935 177.863 64.322 177.863H70.3613C70.4686 177.863 70.572 177.903 70.6513 177.975L74.0346 181.052C74.1244 181.134 74.1756 181.249 74.1756 181.371V190.703C74.1756 191.221 73.763 191.655 73.2345 191.655H64.322C63.7935 191.655 63.3809 191.221 63.3809 190.703V178.814ZM64.322 178.725C64.2859 178.725 64.2429 178.756 64.2429 178.814V190.703C64.2429 190.762 64.2858 190.793 64.322 190.793H73.2345C73.2706 190.793 73.3136 190.762 73.3136 190.703V182.474H70.3565C70.1185 182.474 69.9255 182.281 69.9255 182.043V178.725H64.322ZM73.3136 181.561V181.612H70.7876V179.264L73.3136 181.561Z" fill="#FBFDFF"/>
<path d="M83.5664 190.397C82.8124 190.397 82.1687 190.199 81.6354 189.804C81.1112 189.408 80.7066 188.843 80.4216 188.107C80.1457 187.362 80.0078 186.47 80.0078 185.431C80.0078 184.392 80.1457 183.505 80.4216 182.769C80.7066 182.024 81.1112 181.454 81.6354 181.059C82.1687 180.663 82.8124 180.466 83.5664 180.466C84.3112 180.466 84.9503 180.663 85.4836 181.059C86.017 181.454 86.4216 182.024 86.6974 182.769C86.9825 183.505 87.125 184.392 87.125 185.431C87.125 186.47 86.9825 187.362 86.6974 188.107C86.4216 188.843 86.017 189.408 85.4836 189.804C84.9503 190.199 84.3112 190.397 83.5664 190.397ZM83.5664 189.39C84.3572 189.39 84.9641 189.045 85.3871 188.355C85.8193 187.666 86.0354 186.691 86.0354 185.431C86.0354 184.171 85.8193 183.197 85.3871 182.507C84.9641 181.817 84.3572 181.473 83.5664 181.473C82.7664 181.473 82.1503 181.817 81.7181 182.507C81.2951 183.197 81.0836 184.171 81.0836 185.431C81.0836 186.691 81.2951 187.666 81.7181 188.355C82.1503 189.045 82.7664 189.39 83.5664 189.39ZM89.074 190.259L88.743 189.459L91.9982 185.804C92.1545 185.629 92.3154 185.431 92.4809 185.211C92.6557 184.99 92.8166 184.76 92.9637 184.521C93.12 184.273 93.2442 184.029 93.3361 183.79C93.4281 183.551 93.474 183.316 93.474 183.086C93.474 182.746 93.4005 182.461 93.2534 182.231C93.1062 181.992 92.8947 181.808 92.6189 181.679C92.3522 181.551 92.0396 181.486 91.6809 181.486C91.3683 181.486 91.0603 181.56 90.7568 181.707C90.4534 181.854 90.1775 182.079 89.9292 182.383C89.6809 182.686 89.4878 183.073 89.3499 183.542L88.4947 183.031C88.6603 182.47 88.9039 182.001 89.2258 181.624C89.5476 181.238 89.9292 180.948 90.3706 180.755C90.812 180.562 91.2855 180.466 91.7913 180.466C92.3246 180.466 92.8028 180.576 93.2258 180.797C93.6488 181.008 93.9844 181.312 94.2327 181.707C94.4809 182.093 94.6051 182.539 94.6051 183.045C94.6051 183.266 94.5775 183.486 94.5223 183.707C94.4763 183.928 94.4028 184.148 94.3016 184.369C94.2005 184.59 94.0763 184.815 93.9292 185.045C93.7913 185.275 93.6258 185.509 93.4327 185.748C93.2488 185.988 93.0419 186.236 92.812 186.493L90.0396 189.583L89.874 189.224H94.9085V190.259H89.074Z" fill="#FBFDFF"/>
</g>
</g>
<defs>
<filter id="filter0_d_592_7569" x="0.275862" y="0.275862" width="159.172" height="205.172" filterUnits="userSpaceOnUse" color-interpolation-filters="sRGB">
<feFlood flood-opacity="0" result="BackgroundImageFix"/>
<feColorMatrix in="SourceAlpha" type="matrix" values="0 0 0 0 0 0 0 0 0 0 0 0 0 0 0 0 0 0 127 0" result="hardAlpha"/>
<feOffset dx="0.862069" dy="0.862069"/>
<feGaussianBlur stdDeviation="1.2931"/>
<feComposite in2="hardAlpha" operator="out"/>
<feColorMatrix type="matrix" values="0 0 0 0 0 0 0 0 0 0 0 0 0 0 0 0 0 0 0.15 0"/>
<feBlend mode="normal" in2="BackgroundImageFix" result="effect1_dropShadow_592_7569"/>
<feBlend mode="normal" in="SourceGraphic" in2="effect1_dropShadow_592_7569" result="shape"/>
</filter>
<clipPath id="clip0_592_7569">
<path d="M2 8.89654C2 5.08768 5.08769 2 8.89655 2H149.103C152.912 2 156 5.08769 156 8.89655V195.103C156 198.912 152.912 202 149.103 202H8.89654C5.08768 202 2 198.912 2 195.103V8.89654Z" fill="white"/>
</clipPath>
<clipPath id="clip1_592_7569">
<rect width="62.069" height="62.069" fill="white" transform="translate(47.9668 37.3447)"/>
</clipPath>
</defs>
</svg>
