<svg width="160" height="206" viewBox="0 0 160 206" fill="none" xmlns="http://www.w3.org/2000/svg">
<g filter="url(#filter0_d_562_3817)">
<path d="M2 8.89654C2 5.08768 5.08769 2 8.89655 2H149.103C152.912 2 156 5.08769 156 8.89655V195.103C156 198.912 152.912 202 149.103 202H8.89654C5.08768 202 2 198.912 2 195.103V8.89654Z" fill="#FBFDFF" shape-rendering="crispEdges"/>
<path d="M2 2H69.7931C117.404 2 156 40.5961 156 88.2069V202H88.2069C40.5961 202 2 163.404 2 115.793V2Z" fill="#144EC0"/>
<g clip-path="url(#clip0_562_3817)">
<path d="M50.3454 57.2227C39.5803 57.2051 32.4551 83.0173 32.4551 83.0173L39.0314 77.093C39.0314 77.093 38.2883 84.3757 38.7367 87.1101C39.6492 92.6745 45.1058 101.569 45.1058 101.569C45.1058 101.569 46.2517 86.9778 49.2356 86.5174C51.2158 86.2119 55.6738 101.165 55.6738 101.165C55.6738 101.165 56.9837 91.2157 56.9933 85.6974C57.0004 81.2583 56.1412 72.4087 56.1412 72.4087C59.3207 76.0239 61.7586 77.7343 63.8779 78.1143C57.6453 75.3066 59.2125 58.5766 50.3454 57.2227Z" fill="#FD5723"/>
<path d="M48.6074 41.2307C46.1488 41.3349 44.6375 43.0069 43.1765 44.5514C41.6284 46.1879 39.6868 51.2474 38.1139 51.5678C33.9634 52.4131 31.9121 48.1935 31.9121 48.1935C31.9121 48.1935 34.9325 55.9807 39.0689 56.2097C41.0776 56.3209 44.6263 52.639 44.6263 52.639C44.6263 52.639 46.1688 56.2716 49.712 56.0311C53.432 55.7786 54.7171 51.7106 54.7171 51.7106C54.7171 51.7106 58.2794 54.9794 60.6772 54.6743C63.3012 54.3404 65.5328 48.0685 65.5328 48.0685C65.5328 48.0685 60.849 51.2635 59.6072 50.2645C56.848 48.045 56.3188 45.453 54.0267 43.3731C52.7319 42.1981 50.9732 41.1304 48.6074 41.2307Z" fill="#FD5723"/>
<path d="M81.354 60.7527C81.1166 60.7482 80.8758 60.7558 80.6296 60.7774C74.1129 62.0623 71.9461 69.2122 69.2677 74.4401C68.2819 76.2752 67.1526 78.1705 65.5332 78.6864C68.8285 78.3551 71.5202 74.7529 75.5324 70.4414C75.5324 70.4414 74.3054 77.1421 74.5994 80.6919C75.1896 87.8177 80.3694 101.569 80.3694 101.569C80.3694 101.569 81.4984 84.3512 84.0155 84.5366C87.4561 84.7901 86.8833 101.194 86.8833 101.194C86.8833 101.194 90.8619 88.5632 91.978 82.0211C92.4341 79.3481 92.6004 73.8316 92.6004 73.8316C94.4875 74.8019 96.3774 75.7028 98.2918 76.0034C93.4354 74.0807 90.1007 61.7842 81.354 60.7527Z" fill="#14A5C0"/>
<path d="M74.7775 40.3618C74.7775 40.3618 76.5706 43.9114 78.2099 43.9001C86.1844 43.8449 89.2077 46.2224 89.4192 52.576C89.5219 55.6596 85.687 58.7824 82.6126 58.8227C79.7309 58.8604 76.842 56.7771 76.3243 54.0309C75.7999 51.2489 76.3242 50.04 76.3242 50.04C76.3242 50.04 75.5176 49.3956 75.1738 48.9779C74.0514 47.6146 74.4247 46.2744 74.4247 46.2744C75.5006 46.852 75.612 46.9346 76.7085 47.3222C76.7085 47.3222 74.9426 45.9799 74.4178 44.6149C73.8409 43.4789 74.3824 41.5918 74.7775 40.3618Z" fill="#14A5C0"/>
<path d="M112.252 60.5463C104.951 60.9077 103.055 73.3909 98.291 75.8282C100.304 75.6528 102.351 74.6707 104.456 72.306C104.456 72.306 102.659 78.846 102.748 82.185C102.917 88.5832 107.02 100.925 107.02 100.925C107.02 100.925 106.169 84.1054 112.02 84.4138C117.946 84.7262 115.224 101.569 115.224 101.569C115.224 101.569 120.718 90.7159 121.452 84.8165C121.674 83.0366 121.457 80.5172 121.137 78.1809C121.579 77.8683 127.242 73.8069 126.703 70.963C125.612 65.2027 118.225 60.2506 112.252 60.5463Z" fill="#FECE25"/>
<path d="M103.134 39.5C103.134 39.5 104.981 43.0699 106.67 43.0584C114.885 43.0029 117.999 45.394 118.217 51.7839C118.323 54.8851 114.372 58.0257 111.205 58.0662C108.237 58.1042 105.261 56.009 104.727 53.2471C104.187 50.4492 104.727 49.2334 104.727 49.2334C104.727 49.2334 103.896 48.5853 103.542 48.1653C102.386 46.7941 102.77 45.4463 102.77 45.4463C103.879 46.0272 103.994 46.1103 105.123 46.5001C105.123 46.5001 103.304 45.1501 102.763 43.7774C102.169 42.6348 102.727 40.737 103.134 39.5Z" fill="#FECE25"/>
</g>
<path d="M13.6313 125.707C12.9416 125.707 12.3025 125.583 11.714 125.334C11.1255 125.086 10.6106 124.741 10.1692 124.3C9.737 123.849 9.40137 123.321 9.16229 122.714C8.9232 122.107 8.80366 121.445 8.80366 120.727C8.80366 120.01 8.9232 119.348 9.16229 118.741C9.40137 118.134 9.737 117.61 10.1692 117.169C10.6106 116.718 11.1255 116.369 11.714 116.121C12.3025 115.872 12.9416 115.748 13.6313 115.748C14.3301 115.748 14.9738 115.872 15.5623 116.121C16.1508 116.369 16.6611 116.718 17.0933 117.169C17.5255 117.619 17.8611 118.148 18.1002 118.755C18.3393 119.353 18.4588 120.01 18.4588 120.727C18.4588 121.436 18.3393 122.093 18.1002 122.7C17.8611 123.307 17.5255 123.836 17.0933 124.286C16.6611 124.737 16.1508 125.086 15.5623 125.334C14.9738 125.583 14.3301 125.707 13.6313 125.707ZM13.6313 123.996C14.0726 123.996 14.4726 123.918 14.8313 123.762C15.1991 123.596 15.5163 123.367 15.783 123.072C16.0496 122.769 16.2565 122.419 16.4037 122.024C16.56 121.629 16.6381 121.196 16.6381 120.727C16.6381 120.259 16.56 119.826 16.4037 119.431C16.2565 119.036 16.0496 118.691 15.783 118.396C15.5163 118.093 15.1991 117.863 14.8313 117.707C14.4726 117.541 14.0726 117.459 13.6313 117.459C13.1991 117.459 12.7991 117.541 12.4313 117.707C12.0634 117.863 11.7462 118.088 11.4795 118.383C11.2129 118.677 11.006 119.022 10.8588 119.417C10.7117 119.813 10.6381 120.249 10.6381 120.727C10.6381 121.196 10.7117 121.633 10.8588 122.038C11.006 122.433 11.2129 122.778 11.4795 123.072C11.7462 123.367 12.0634 123.596 12.4313 123.762C12.7991 123.918 13.1991 123.996 13.6313 123.996ZM24.4577 125.569V115.914H30.7749V117.541H26.2232V123.941H30.8301V125.569H24.4577ZM25.2852 121.431V119.831H30.0714V121.431H25.2852ZM35.1643 125.707C34.6402 125.707 34.185 125.592 33.7988 125.362C33.4126 125.123 33.1184 124.787 32.9161 124.355C32.7138 123.914 32.6126 123.39 32.6126 122.783V118.3H34.3092V122.424C34.3092 122.81 34.3689 123.141 34.4885 123.417C34.608 123.684 34.7827 123.891 35.0126 124.038C35.2425 124.185 35.5184 124.259 35.8402 124.259C36.0793 124.259 36.2954 124.222 36.4885 124.148C36.6908 124.065 36.8655 123.955 37.0126 123.817C37.1597 123.67 37.2747 123.5 37.3574 123.307C37.4402 123.104 37.4816 122.888 37.4816 122.659V118.3H39.1781V125.569H37.523L37.4954 124.052L37.7988 123.886C37.6885 124.236 37.5 124.548 37.2333 124.824C36.9758 125.091 36.6678 125.307 36.3092 125.472C35.9505 125.629 35.5689 125.707 35.1643 125.707ZM41.3735 128.134L40.808 127.459C41.1482 127.275 41.4195 127.059 41.6218 126.81C41.8333 126.571 41.939 126.364 41.939 126.19C41.939 126.098 41.916 126.006 41.87 125.914C41.8333 125.831 41.7367 125.716 41.5804 125.569C41.3873 125.394 41.2585 125.242 41.1942 125.114C41.1298 124.985 41.0976 124.842 41.0976 124.686C41.0976 124.447 41.185 124.254 41.3597 124.107C41.5344 123.96 41.7597 123.886 42.0356 123.886C42.2838 123.886 42.5045 123.955 42.6976 124.093C42.8999 124.231 43.0563 124.424 43.1666 124.672C43.2769 124.911 43.3321 125.192 43.3321 125.514C43.3321 125.799 43.2815 126.075 43.1804 126.341C43.0884 126.617 42.9505 126.87 42.7666 127.1C42.5919 127.33 42.385 127.532 42.1459 127.707C41.916 127.891 41.6586 128.033 41.3735 128.134ZM52.3302 125.707C51.6037 125.707 50.9555 125.546 50.3853 125.224C49.8152 124.893 49.3647 124.442 49.0336 123.872C48.7026 123.302 48.5371 122.654 48.5371 121.927C48.5371 121.201 48.7026 120.553 49.0336 119.983C49.3647 119.413 49.8152 118.967 50.3853 118.645C50.9555 118.314 51.6037 118.148 52.3302 118.148C53.0474 118.148 53.6911 118.314 54.2612 118.645C54.8313 118.967 55.2773 119.413 55.5991 119.983C55.9302 120.553 56.0957 121.201 56.0957 121.927C56.0957 122.654 55.9302 123.302 55.5991 123.872C55.2773 124.442 54.8313 124.893 54.2612 125.224C53.6911 125.546 53.0474 125.707 52.3302 125.707ZM52.3302 124.203C52.7256 124.203 53.075 124.102 53.3784 123.9C53.6911 123.698 53.9348 123.426 54.1095 123.086C54.2934 122.746 54.3807 122.36 54.3716 121.927C54.3807 121.486 54.2934 121.095 54.1095 120.755C53.9348 120.415 53.6911 120.148 53.3784 119.955C53.075 119.753 52.7256 119.652 52.3302 119.652C51.9348 119.652 51.5762 119.753 51.2543 119.955C50.9417 120.148 50.698 120.419 50.5233 120.769C50.3486 121.109 50.2612 121.495 50.2612 121.927C50.2612 122.36 50.3486 122.746 50.5233 123.086C50.698 123.426 50.9417 123.698 51.2543 123.9C51.5762 124.102 51.9348 124.203 52.3302 124.203ZM64.9918 125.707C64.2654 125.707 63.6171 125.546 63.047 125.224C62.4769 124.893 62.0263 124.442 61.6953 123.872C61.3642 123.302 61.1987 122.654 61.1987 121.927C61.1987 121.201 61.3642 120.553 61.6953 119.983C62.0263 119.413 62.4769 118.967 63.047 118.645C63.6171 118.314 64.2654 118.148 64.9918 118.148C65.7091 118.148 66.3527 118.314 66.9228 118.645C67.493 118.967 67.9389 119.413 68.2608 119.983C68.5918 120.553 68.7573 121.201 68.7573 121.927C68.7573 122.654 68.5918 123.302 68.2608 123.872C67.9389 124.442 67.493 124.893 66.9228 125.224C66.3527 125.546 65.7091 125.707 64.9918 125.707ZM64.9918 124.203C65.3872 124.203 65.7366 124.102 66.0401 123.9C66.3527 123.698 66.5964 123.426 66.7711 123.086C66.955 122.746 67.0424 122.36 67.0332 121.927C67.0424 121.486 66.955 121.095 66.7711 120.755C66.5964 120.415 66.3527 120.148 66.0401 119.955C65.7366 119.753 65.3872 119.652 64.9918 119.652C64.5964 119.652 64.2378 119.753 63.916 119.955C63.6033 120.148 63.3596 120.419 63.1849 120.769C63.0102 121.109 62.9228 121.495 62.9228 121.927C62.9228 122.36 63.0102 122.746 63.1849 123.086C63.3596 123.426 63.6033 123.698 63.916 123.9C64.2378 124.102 64.5964 124.203 64.9918 124.203ZM72.799 125.707C72.2749 125.707 71.8197 125.592 71.4335 125.362C71.0473 125.123 70.7531 124.787 70.5508 124.355C70.3485 123.914 70.2473 123.39 70.2473 122.783V118.3H71.9439V122.424C71.9439 122.81 72.0036 123.141 72.1232 123.417C72.2427 123.684 72.4174 123.891 72.6473 124.038C72.8772 124.185 73.1531 124.259 73.4749 124.259C73.714 124.259 73.9301 124.222 74.1232 124.148C74.3255 124.065 74.5002 123.955 74.6473 123.817C74.7944 123.67 74.9094 123.5 74.9921 123.307C75.0749 123.104 75.1163 122.888 75.1163 122.659V118.3H76.8128V125.569H75.1577L75.1301 124.052L75.4335 123.886C75.3232 124.236 75.1347 124.548 74.868 124.824C74.6105 125.091 74.3025 125.307 73.9439 125.472C73.5852 125.629 73.2036 125.707 72.799 125.707ZM79.5875 125.569V116.452H81.2841V125.569H79.5875ZM78.153 119.872V118.3H82.8703V119.872H78.153ZM84.1623 125.569V118.3H85.8313L85.8588 120.617L85.6244 120.093C85.7255 119.725 85.9002 119.394 86.1485 119.1C86.3968 118.806 86.6818 118.576 87.0037 118.41C87.3347 118.236 87.6795 118.148 88.0382 118.148C88.1945 118.148 88.3416 118.162 88.4795 118.19C88.6267 118.217 88.7462 118.249 88.8382 118.286L88.383 120.148C88.2818 120.093 88.1577 120.047 88.0106 120.01C87.8634 119.973 87.7163 119.955 87.5692 119.955C87.3393 119.955 87.1186 120.001 86.9071 120.093C86.7048 120.176 86.5255 120.295 86.3692 120.452C86.2129 120.608 86.0887 120.792 85.9968 121.003C85.914 121.206 85.8726 121.436 85.8726 121.693V125.569H84.1623ZM92.9821 125.707C92.2557 125.707 91.6074 125.546 91.0373 125.224C90.4672 124.893 90.0166 124.442 89.6856 123.872C89.3545 123.302 89.189 122.654 89.189 121.927C89.189 121.201 89.3545 120.553 89.6856 119.983C90.0166 119.413 90.4672 118.967 91.0373 118.645C91.6074 118.314 92.2557 118.148 92.9821 118.148C93.6994 118.148 94.343 118.314 94.9132 118.645C95.4833 118.967 95.9292 119.413 96.2511 119.983C96.5821 120.553 96.7476 121.201 96.7476 121.927C96.7476 122.654 96.5821 123.302 96.2511 123.872C95.9292 124.442 95.4833 124.893 94.9132 125.224C94.343 125.546 93.6994 125.707 92.9821 125.707ZM92.9821 124.203C93.3775 124.203 93.7269 124.102 94.0304 123.9C94.343 123.698 94.5867 123.426 94.7614 123.086C94.9453 122.746 95.0327 122.36 95.0235 121.927C95.0327 121.486 94.9453 121.095 94.7614 120.755C94.5867 120.415 94.343 120.148 94.0304 119.955C93.7269 119.753 93.3775 119.652 92.9821 119.652C92.5867 119.652 92.2281 119.753 91.9063 119.955C91.5936 120.148 91.3499 120.419 91.1752 120.769C91.0005 121.109 90.9132 121.495 90.9132 121.927C90.9132 122.36 91.0005 122.746 91.1752 123.086C91.3499 123.426 91.5936 123.698 91.9063 123.9C92.2281 124.102 92.5867 124.203 92.9821 124.203ZM105.727 125.707C104.963 125.707 104.287 125.546 103.699 125.224C103.12 124.902 102.664 124.465 102.333 123.914C102.012 123.353 101.851 122.714 101.851 121.996C101.851 121.426 101.943 120.907 102.127 120.438C102.31 119.969 102.563 119.564 102.885 119.224C103.216 118.875 103.607 118.608 104.058 118.424C104.517 118.231 105.018 118.134 105.561 118.134C106.039 118.134 106.485 118.226 106.899 118.41C107.313 118.594 107.671 118.847 107.975 119.169C108.278 119.481 108.508 119.859 108.664 120.3C108.83 120.732 108.908 121.206 108.899 121.721L108.885 122.314H102.995L102.678 121.155H107.464L107.244 121.39V121.086C107.216 120.801 107.124 120.553 106.968 120.341C106.812 120.121 106.609 119.95 106.361 119.831C106.122 119.702 105.855 119.638 105.561 119.638C105.11 119.638 104.729 119.725 104.416 119.9C104.113 120.075 103.883 120.327 103.727 120.659C103.57 120.98 103.492 121.385 103.492 121.872C103.492 122.341 103.589 122.75 103.782 123.1C103.984 123.449 104.264 123.721 104.623 123.914C104.991 124.098 105.418 124.19 105.906 124.19C106.246 124.19 106.559 124.134 106.844 124.024C107.129 123.914 107.437 123.716 107.768 123.431L108.609 124.603C108.361 124.833 108.076 125.031 107.754 125.196C107.441 125.353 107.11 125.477 106.761 125.569C106.412 125.661 106.067 125.707 105.727 125.707ZM117.78 125.707C117.054 125.707 116.405 125.546 115.835 125.224C115.265 124.893 114.815 124.442 114.484 123.872C114.152 123.302 113.987 122.654 113.987 121.927C113.987 121.201 114.152 120.553 114.484 119.983C114.815 119.413 115.265 118.967 115.835 118.645C116.405 118.314 117.054 118.148 117.78 118.148C118.497 118.148 119.141 118.314 119.711 118.645C120.281 118.967 120.727 119.413 121.049 119.983C121.38 120.553 121.546 121.201 121.546 121.927C121.546 122.654 121.38 123.302 121.049 123.872C120.727 124.442 120.281 124.893 119.711 125.224C119.141 125.546 118.497 125.707 117.78 125.707ZM117.78 124.203C118.175 124.203 118.525 124.102 118.828 123.9C119.141 123.698 119.385 123.426 119.559 123.086C119.743 122.746 119.831 122.36 119.821 121.927C119.831 121.486 119.743 121.095 119.559 120.755C119.385 120.415 119.141 120.148 118.828 119.955C118.525 119.753 118.175 119.652 117.78 119.652C117.385 119.652 117.026 119.753 116.704 119.955C116.392 120.148 116.148 120.419 115.973 120.769C115.798 121.109 115.711 121.495 115.711 121.927C115.711 122.36 115.798 122.746 115.973 123.086C116.148 123.426 116.392 123.698 116.704 123.9C117.026 124.102 117.385 124.203 117.78 124.203ZM127.118 125.569V118.3H128.773L128.8 119.79L128.483 119.955C128.575 119.624 128.754 119.325 129.021 119.059C129.288 118.783 129.605 118.562 129.973 118.396C130.341 118.231 130.718 118.148 131.104 118.148C131.656 118.148 132.115 118.259 132.483 118.479C132.86 118.7 133.141 119.031 133.324 119.472C133.518 119.914 133.614 120.465 133.614 121.127V125.569H131.918V121.252C131.918 120.884 131.867 120.58 131.766 120.341C131.665 120.093 131.508 119.914 131.297 119.803C131.085 119.684 130.828 119.629 130.524 119.638C130.276 119.638 130.046 119.679 129.835 119.762C129.633 119.836 129.453 119.946 129.297 120.093C129.15 120.231 129.03 120.392 128.938 120.576C128.856 120.76 128.814 120.962 128.814 121.183V125.569H127.973C127.807 125.569 127.651 125.569 127.504 125.569C127.366 125.569 127.237 125.569 127.118 125.569ZM138.847 125.707C138.12 125.707 137.472 125.546 136.902 125.224C136.332 124.893 135.881 124.442 135.55 123.872C135.219 123.302 135.054 122.654 135.054 121.927C135.054 121.201 135.219 120.553 135.55 119.983C135.881 119.413 136.332 118.967 136.902 118.645C137.472 118.314 138.12 118.148 138.847 118.148C139.564 118.148 140.208 118.314 140.778 118.645C141.348 118.967 141.794 119.413 142.116 119.983C142.447 120.553 142.612 121.201 142.612 121.927C142.612 122.654 142.447 123.302 142.116 123.872C141.794 124.442 141.348 124.893 140.778 125.224C140.208 125.546 139.564 125.707 138.847 125.707ZM138.847 124.203C139.242 124.203 139.592 124.102 139.895 123.9C140.208 123.698 140.451 123.426 140.626 123.086C140.81 122.746 140.897 122.36 140.888 121.927C140.897 121.486 140.81 121.095 140.626 120.755C140.451 120.415 140.208 120.148 139.895 119.955C139.592 119.753 139.242 119.652 138.847 119.652C138.451 119.652 138.093 119.753 137.771 119.955C137.458 120.148 137.215 120.419 137.04 120.769C136.865 121.109 136.778 121.495 136.778 121.927C136.778 122.36 136.865 122.746 137.04 123.086C137.215 123.426 137.458 123.698 137.771 123.9C138.093 124.102 138.451 124.203 138.847 124.203ZM137.826 117.293L137.288 116.479L139.44 114.686L140.378 115.914L137.826 117.293ZM146.558 125.707C145.914 125.707 145.335 125.601 144.82 125.39C144.314 125.169 143.9 124.856 143.578 124.452L144.682 123.5C144.958 123.813 145.266 124.038 145.606 124.176C145.946 124.314 146.305 124.383 146.682 124.383C146.838 124.383 146.976 124.364 147.095 124.327C147.224 124.291 147.335 124.236 147.427 124.162C147.518 124.088 147.587 124.006 147.633 123.914C147.689 123.813 147.716 123.702 147.716 123.583C147.716 123.362 147.633 123.187 147.468 123.059C147.376 122.994 147.229 122.925 147.027 122.852C146.833 122.778 146.581 122.704 146.268 122.631C145.771 122.502 145.358 122.355 145.027 122.19C144.695 122.015 144.438 121.822 144.254 121.61C144.098 121.436 143.978 121.238 143.895 121.017C143.822 120.796 143.785 120.557 143.785 120.3C143.785 119.978 143.854 119.688 143.992 119.431C144.139 119.164 144.337 118.934 144.585 118.741C144.833 118.548 145.123 118.401 145.454 118.3C145.785 118.199 146.13 118.148 146.489 118.148C146.856 118.148 147.21 118.194 147.551 118.286C147.9 118.378 148.222 118.511 148.516 118.686C148.82 118.852 149.077 119.054 149.289 119.293L148.351 120.327C148.176 120.162 147.983 120.015 147.771 119.886C147.569 119.757 147.362 119.656 147.151 119.583C146.939 119.5 146.741 119.459 146.558 119.459C146.383 119.459 146.227 119.477 146.089 119.514C145.951 119.541 145.836 119.587 145.744 119.652C145.652 119.716 145.578 119.799 145.523 119.9C145.477 119.992 145.454 120.102 145.454 120.231C145.463 120.341 145.491 120.447 145.537 120.548C145.592 120.64 145.666 120.718 145.758 120.783C145.859 120.847 146.01 120.921 146.213 121.003C146.415 121.086 146.677 121.164 146.999 121.238C147.45 121.357 147.827 121.491 148.13 121.638C148.433 121.785 148.673 121.955 148.847 122.148C149.022 122.314 149.146 122.507 149.22 122.727C149.293 122.948 149.33 123.192 149.33 123.459C149.33 123.891 149.206 124.277 148.958 124.617C148.718 124.957 148.387 125.224 147.964 125.417C147.551 125.61 147.082 125.707 146.558 125.707Z" fill="#FBFDFF"/>
<g opacity="0.85">
<path d="M65.9822 182.835C65.7442 182.835 65.5512 183.028 65.5512 183.266C65.5512 183.504 65.7442 183.697 65.9822 183.697H68.4218C68.6599 183.697 68.8528 183.504 68.8528 183.266C68.8528 183.028 68.6599 182.835 68.4218 182.835H65.9822Z" fill="#FBFDFF"/>
<path d="M65.5242 185.406C65.5242 185.168 65.7172 184.975 65.9553 184.975H71.2848C71.5229 184.975 71.7159 185.168 71.7159 185.406C71.7159 185.644 71.5229 185.837 71.2848 185.837H65.9553C65.7172 185.837 65.5242 185.644 65.5242 185.406Z" fill="#FBFDFF"/>
<path d="M65.9334 187.154C65.6953 187.154 65.5024 187.347 65.5024 187.585C65.5024 187.823 65.6953 188.016 65.9334 188.016H71.2734C71.5115 188.016 71.7045 187.823 71.7045 187.585C71.7045 187.347 71.5115 187.154 71.2734 187.154H65.9334Z" fill="#FBFDFF"/>
<path fill-rule="evenodd" clip-rule="evenodd" d="M63.3809 178.814C63.3809 178.296 63.7935 177.863 64.322 177.863H70.3613C70.4686 177.863 70.572 177.903 70.6513 177.975L74.0346 181.052C74.1244 181.134 74.1756 181.249 74.1756 181.371V190.703C74.1756 191.221 73.763 191.655 73.2345 191.655H64.322C63.7935 191.655 63.3809 191.221 63.3809 190.703V178.814ZM64.322 178.725C64.2859 178.725 64.2429 178.756 64.2429 178.814V190.703C64.2429 190.762 64.2858 190.793 64.322 190.793H73.2345C73.2706 190.793 73.3136 190.762 73.3136 190.703V182.474H70.3565C70.1185 182.474 69.9255 182.281 69.9255 182.043V178.725H64.322ZM73.3136 181.561V181.612H70.7876V179.264L73.3136 181.561Z" fill="#FBFDFF"/>
<path d="M83.5664 190.397C82.8124 190.397 82.1687 190.199 81.6354 189.804C81.1112 189.408 80.7066 188.843 80.4216 188.107C80.1457 187.362 80.0078 186.47 80.0078 185.431C80.0078 184.392 80.1457 183.505 80.4216 182.769C80.7066 182.024 81.1112 181.454 81.6354 181.059C82.1687 180.663 82.8124 180.466 83.5664 180.466C84.3112 180.466 84.9503 180.663 85.4836 181.059C86.017 181.454 86.4216 182.024 86.6974 182.769C86.9825 183.505 87.125 184.392 87.125 185.431C87.125 186.47 86.9825 187.362 86.6974 188.107C86.4216 188.843 86.017 189.408 85.4836 189.804C84.9503 190.199 84.3112 190.397 83.5664 190.397ZM83.5664 189.39C84.3572 189.39 84.9641 189.045 85.3871 188.355C85.8193 187.666 86.0354 186.691 86.0354 185.431C86.0354 184.171 85.8193 183.197 85.3871 182.507C84.9641 181.817 84.3572 181.473 83.5664 181.473C82.7664 181.473 82.1503 181.817 81.7181 182.507C81.2951 183.197 81.0836 184.171 81.0836 185.431C81.0836 186.691 81.2951 187.666 81.7181 188.355C82.1503 189.045 82.7664 189.39 83.5664 189.39ZM89.074 190.259L88.743 189.459L91.9982 185.804C92.1545 185.629 92.3154 185.431 92.4809 185.211C92.6557 184.99 92.8166 184.76 92.9637 184.521C93.12 184.273 93.2442 184.029 93.3361 183.79C93.4281 183.551 93.474 183.316 93.474 183.086C93.474 182.746 93.4005 182.461 93.2534 182.231C93.1062 181.992 92.8947 181.808 92.6189 181.679C92.3522 181.551 92.0396 181.486 91.6809 181.486C91.3683 181.486 91.0603 181.56 90.7568 181.707C90.4534 181.854 90.1775 182.079 89.9292 182.383C89.6809 182.686 89.4878 183.073 89.3499 183.542L88.4947 183.031C88.6603 182.47 88.9039 182.001 89.2258 181.624C89.5476 181.238 89.9292 180.948 90.3706 180.755C90.812 180.562 91.2855 180.466 91.7913 180.466C92.3246 180.466 92.8028 180.576 93.2258 180.797C93.6488 181.008 93.9844 181.312 94.2327 181.707C94.4809 182.093 94.6051 182.539 94.6051 183.045C94.6051 183.266 94.5775 183.486 94.5223 183.707C94.4763 183.928 94.4028 184.148 94.3016 184.369C94.2005 184.59 94.0763 184.815 93.9292 185.045C93.7913 185.275 93.6258 185.509 93.4327 185.748C93.2488 185.988 93.0419 186.236 92.812 186.493L90.0396 189.583L89.874 189.224H94.9085V190.259H89.074Z" fill="#FBFDFF"/>
</g>
</g>
<defs>
<filter id="filter0_d_562_3817" x="0.275862" y="0.275862" width="159.172" height="205.172" filterUnits="userSpaceOnUse" color-interpolation-filters="sRGB">
<feFlood flood-opacity="0" result="BackgroundImageFix"/>
<feColorMatrix in="SourceAlpha" type="matrix" values="0 0 0 0 0 0 0 0 0 0 0 0 0 0 0 0 0 0 127 0" result="hardAlpha"/>
<feOffset dx="0.862069" dy="0.862069"/>
<feGaussianBlur stdDeviation="1.2931"/>
<feComposite in2="hardAlpha" operator="out"/>
<feColorMatrix type="matrix" values="0 0 0 0 0 0 0 0 0 0 0 0 0 0 0 0 0 0 0.15 0"/>
<feBlend mode="normal" in2="BackgroundImageFix" result="effect1_dropShadow_562_3817"/>
<feBlend mode="normal" in="SourceGraphic" in2="effect1_dropShadow_562_3817" result="shape"/>
</filter>
<clipPath id="clip0_562_3817">
<rect width="99.1379" height="62.069" fill="white" transform="translate(29.4316 39.5)"/>
</clipPath>
</defs>
</svg>
