<svg width="25" height="24" viewBox="0 0 25 24" fill="none" xmlns="http://www.w3.org/2000/svg">
<path d="M21.9779 0C22.6851 0 23.3634 0.280951 23.8635 0.781048C24.3636 1.28115 24.6445 1.95942 24.6445 2.66667V21.3333C24.6445 22.0406 24.3636 22.7189 23.8635 23.219C23.3634 23.719 22.6851 24 21.9779 24H3.3112C2.60395 24 1.92568 23.719 1.42558 23.219C0.925483 22.7189 0.644531 22.0406 0.644531 21.3333V2.66667C0.644531 1.95942 0.925483 1.28115 1.42558 0.781048C1.92568 0.280951 2.60395 0 3.3112 0H21.9779ZM21.3112 20.6667V13.6C21.3112 12.4472 20.8532 11.3416 20.0381 10.5264C19.2229 9.71128 18.1173 9.25333 16.9645 9.25333C15.8312 9.25333 14.5112 9.94667 13.8712 10.9867V9.50667H10.1512V20.6667H13.8712V14.0933C13.8712 13.0667 14.6979 12.2267 15.7245 12.2267C16.2196 12.2267 16.6944 12.4233 17.0445 12.7734C17.3945 13.1235 17.5912 13.5983 17.5912 14.0933V20.6667H21.3112ZM5.81786 7.41333C6.41195 7.41333 6.9817 7.17733 7.40178 6.75725C7.82187 6.33717 8.05787 5.76742 8.05787 5.17333C8.05787 3.93333 7.05787 2.92 5.81786 2.92C5.22024 2.92 4.6471 3.1574 4.22452 3.57999C3.80194 4.00257 3.56453 4.57571 3.56453 5.17333C3.56453 6.41333 4.57786 7.41333 5.81786 7.41333ZM7.6712 20.6667V9.50667H3.97786V20.6667H7.6712Z" fill="#0E76A8"/>
</svg>
