<svg width="90" height="24" viewBox="0 0 90 24" fill="none" xmlns="http://www.w3.org/2000/svg">
<path d="M2.58 22.34C2.56667 21.9133 2.56 21.48 2.56 21.04C2.56 20.6133 2.56 20.1867 2.56 19.76C2.56 17.8 2.6 15.9 2.68 14.06C2.76 12.2067 2.85333 10.44 2.96 8.76C2.42667 8.89333 1.98 9.02 1.62 9.14L0.84 5.94C1.49333 5.74 2.18 5.56667 2.9 5.42C3.63333 5.26 4.34667 5.13333 5.04 5.04C5.74667 4.93333 6.39333 4.86 6.98 4.82C7.58 4.76667 8.07333 4.74 8.46 4.74C8.87333 4.74 9.38 4.77333 9.98 4.84C10.5933 4.90667 11.22 5.04667 11.86 5.26C12.5133 5.46 13.12 5.76667 13.68 6.18C14.24 6.59333 14.6933 7.15333 15.04 7.86C15.4 8.55333 15.58 9.42667 15.58 10.48C15.58 11.5733 15.34 12.4867 14.86 13.22C14.38 13.94 13.7467 14.52 12.96 14.96C12.1733 15.3867 11.3067 15.6933 10.36 15.88C9.41333 16.0667 8.48 16.16 7.56 16.16C6.97333 16.16 6.41333 16.1333 5.88 16.08C5.86667 16.72 5.86 17.3533 5.86 17.98C5.86 18.8333 5.86667 19.6267 5.88 20.36C5.89333 21.08 5.92 21.7133 5.96 22.26L2.58 22.34ZM8.36 8.02C8.01333 8.02 7.65333 8.03333 7.28 8.06C6.92 8.08667 6.56 8.12 6.2 8.16C6.13333 8.86667 6.08 9.63333 6.04 10.46C6 11.2867 5.96667 12.1333 5.94 13C6.43333 13.04 6.94667 13.06 7.48 13.06C10.68 13.06 12.28 12.1133 12.28 10.22C12.28 9.47333 11.96 8.92 11.32 8.56C10.68 8.2 9.69333 8.02 8.36 8.02ZM23.3453 22.64C22.2786 22.64 21.3453 22.4667 20.5453 22.12C19.7586 21.7733 19.1053 21.3 18.5853 20.7C18.0653 20.0867 17.6786 19.3867 17.4253 18.6C17.172 17.8133 17.0453 16.9867 17.0453 16.12C17.0453 15.24 17.1986 14.4267 17.5053 13.68C17.8253 12.92 18.2586 12.26 18.8053 11.7C19.3653 11.14 20.0186 10.7067 20.7653 10.4C21.512 10.08 22.3253 9.92 23.2053 9.92C24.1253 9.92 24.9786 10.08 25.7653 10.4C26.552 10.72 27.2386 11.1667 27.8253 11.74C28.412 12.3133 28.8653 12.9867 29.1853 13.76C29.5186 14.5333 29.6853 15.3733 29.6853 16.28C29.6853 18.2933 29.132 19.86 28.0253 20.98C26.9186 22.0867 25.3586 22.64 23.3453 22.64ZM23.3253 19.4C24.2986 19.4 25.0386 19.1267 25.5453 18.58C26.0653 18.0333 26.3253 17.2467 26.3253 16.22C26.3253 15.3 26.0453 14.56 25.4853 14C24.9253 13.44 24.192 13.16 23.2853 13.16C22.7386 13.16 22.2386 13.3067 21.7853 13.6C21.332 13.88 20.9653 14.26 20.6853 14.74C20.4186 15.2067 20.2853 15.7267 20.2853 16.3C20.2853 16.8067 20.3853 17.3 20.5853 17.78C20.7986 18.26 21.132 18.6533 21.5853 18.96C22.0386 19.2533 22.6186 19.4 23.3253 19.4ZM31.413 22.44C31.373 21.2667 31.3396 20.18 31.313 19.18C31.2996 18.18 31.293 17.1933 31.293 16.22C31.293 15.2467 31.2996 14.2733 31.313 13.3C31.3396 12.3133 31.3796 11.26 31.433 10.14H34.813C34.7596 10.74 34.713 11.3467 34.673 11.96C35.1263 11.3867 35.6663 10.9133 36.293 10.54C36.9196 10.1533 37.6596 9.96 38.513 9.96C39.353 9.96 40.0396 10.1 40.573 10.38C41.1196 10.66 41.5463 11.0467 41.853 11.54C42.173 12.0333 42.3996 12.6 42.533 13.24C42.6796 13.8667 42.773 14.5467 42.813 15.28C42.853 16 42.873 16.7267 42.873 17.46C42.873 18.26 42.8596 19.0267 42.833 19.76C42.8063 20.4933 42.7796 21.1067 42.753 21.6C42.7263 22.0933 42.7063 22.3867 42.693 22.48H39.333C39.3596 21.9333 39.3863 21.3533 39.413 20.74C39.4396 20.1133 39.4663 19.5 39.493 18.9C39.5196 18.2867 39.533 17.7333 39.533 17.24C39.533 14.4 39.073 12.98 38.153 12.98C37.393 12.98 36.6996 13.3133 36.073 13.98C35.4596 14.6333 34.9463 15.46 34.533 16.46C34.533 16.5933 34.533 16.7267 34.533 16.86C34.533 17.5 34.533 18.1667 34.533 18.86C34.5463 19.54 34.5596 20.1933 34.573 20.82C34.5996 21.4333 34.6196 21.9667 34.633 22.42L31.413 22.44ZM50.8272 22.58C50.0272 22.58 49.3939 22.4067 48.9272 22.06C48.4605 21.7267 48.1205 21.26 47.9072 20.66C47.6939 20.06 47.5539 19.3733 47.4872 18.6C47.4339 17.8267 47.4072 17.0133 47.4072 16.16C47.4072 15.28 47.4405 14.3667 47.5072 13.42C46.6139 13.54 45.7539 13.6933 44.9272 13.88L44.3072 10.74C45.4139 10.4467 46.5939 10.2333 47.8472 10.1C47.9405 9.42 48.0405 8.70667 48.1472 7.96C48.2539 7.2 48.3739 6.4 48.5072 5.56L51.9472 5.86C51.7872 6.55333 51.6472 7.24667 51.5272 7.94C51.4072 8.62 51.3005 9.28 51.2072 9.92C51.9539 9.92 52.6539 9.94 53.3072 9.98C53.9739 10.0067 54.5872 10.06 55.1472 10.14L54.7472 13.28C54.2805 13.2267 53.7939 13.1933 53.2872 13.18C52.7939 13.1533 52.2939 13.14 51.7872 13.14C51.4805 13.14 51.1739 13.1467 50.8672 13.16C50.7872 14.1333 50.7339 14.9667 50.7072 15.66C50.6939 16.3533 50.6872 16.8467 50.6872 17.14C50.6872 17.8733 50.7272 18.4 50.8072 18.72C50.9005 19.04 51.0472 19.2 51.2472 19.2C51.4739 19.2 51.7272 19.1267 52.0072 18.98C52.2872 18.82 52.5605 18.6067 52.8272 18.34C53.1072 18.0733 53.3405 17.7867 53.5272 17.48L55.0672 20.7C53.7472 21.9533 52.3339 22.58 50.8272 22.58ZM62.6055 22.6C61.3255 22.6 60.1988 22.3467 59.2255 21.84C58.2655 21.3467 57.5121 20.6533 56.9655 19.76C56.4321 18.8667 56.1655 17.8333 56.1655 16.66C56.1655 15.9533 56.2855 15.2133 56.5255 14.44C56.7655 13.6533 57.1521 12.92 57.6855 12.24C58.2188 11.56 58.9188 11.0067 59.7855 10.58C60.6655 10.1533 61.7321 9.94 62.9855 9.94C63.8921 9.94 64.6521 10.04 65.2655 10.24C65.8921 10.44 66.3988 10.7 66.7855 11.02C67.1855 11.34 67.4855 11.68 67.6855 12.04C67.8988 12.4 68.0388 12.7467 68.1055 13.08C68.1855 13.4 68.2255 13.6667 68.2255 13.88C68.2255 15.1733 67.6788 16.1733 66.5855 16.88C65.5055 17.5733 63.9721 17.92 61.9855 17.92C61.5321 17.92 61.0988 17.9 60.6855 17.86C60.2855 17.82 59.9121 17.7733 59.5655 17.72C59.8188 18.3867 60.2388 18.88 60.8255 19.2C61.4121 19.5067 62.0188 19.66 62.6455 19.66C63.5521 19.66 64.3521 19.5 65.0455 19.18C65.7388 18.8467 66.3921 18.34 67.0055 17.66L68.7855 20.22C68.3588 20.5667 67.8788 20.9267 67.3455 21.3C66.8255 21.6733 66.1855 21.98 65.4255 22.22C64.6655 22.4733 63.7255 22.6 62.6055 22.6ZM63.0455 12.94C62.2588 12.94 61.5655 13.14 60.9655 13.54C60.3655 13.94 59.9255 14.4667 59.6455 15.12C59.9788 15.1733 60.3055 15.22 60.6255 15.26C60.9588 15.2867 61.2855 15.3 61.6055 15.3C61.8988 15.3 62.2321 15.2733 62.6055 15.22C62.9921 15.1667 63.3655 15.0867 63.7255 14.98C64.0988 14.8733 64.4055 14.74 64.6455 14.58C64.8855 14.4067 65.0055 14.2067 65.0055 13.98C65.0055 13.8733 64.9521 13.74 64.8455 13.58C64.7388 13.42 64.5455 13.2733 64.2655 13.14C63.9855 13.0067 63.5788 12.94 63.0455 12.94ZM75.355 22.58C74.355 22.58 73.4483 22.32 72.635 21.8C71.8217 21.2933 71.175 20.6067 70.695 19.74C70.2283 18.86 69.995 17.88 69.995 16.8C69.995 15.7867 70.1817 14.8733 70.555 14.06C70.9283 13.2333 71.435 12.5267 72.075 11.94C72.7283 11.3533 73.4683 10.9067 74.295 10.6C75.1217 10.28 75.9883 10.12 76.895 10.12C77.655 10.12 78.4017 10.2267 79.135 10.44C79.1883 10.16 79.235 9.88 79.275 9.6L82.695 10.18C82.6017 10.4333 82.5083 10.8133 82.415 11.32C82.3217 11.8267 82.2417 12.3933 82.175 13.02C82.1217 13.6467 82.075 14.2733 82.035 14.9C81.995 15.5267 81.975 16.0933 81.975 16.6C81.975 17.0133 82.0017 17.42 82.055 17.82C82.1217 18.2067 82.255 18.5267 82.455 18.78C82.655 19.02 82.9617 19.14 83.375 19.14H83.655L83.155 22.62C82.275 22.62 81.5483 22.4667 80.975 22.16C80.4017 21.8667 79.9417 21.4667 79.595 20.96C79.0217 21.6 78.3683 22.0267 77.635 22.24C76.9017 22.4667 76.1417 22.58 75.355 22.58ZM73.275 17.2C73.3417 17.84 73.6017 18.3533 74.055 18.74C74.5217 19.1133 75.1083 19.3 75.815 19.3C76.495 19.3 77.0617 19.12 77.515 18.76C77.9683 18.3867 78.3417 17.88 78.635 17.24C78.6217 17.0267 78.615 16.8067 78.615 16.58C78.615 16.1133 78.6283 15.6333 78.655 15.14C78.6817 14.6467 78.715 14.16 78.755 13.68C78.195 13.4667 77.6083 13.36 76.995 13.36C76.275 13.36 75.6283 13.5067 75.055 13.8C74.495 14.08 74.055 14.4733 73.735 14.98C73.415 15.4867 73.255 16.0733 73.255 16.74C73.255 16.82 73.255 16.9 73.255 16.98C73.255 17.06 73.2617 17.1333 73.275 17.2Z" fill="#144EC0"/>
<path d="M86.8253 22.62C86.3186 22.62 85.8986 22.5067 85.5653 22.28C85.232 22.0533 84.9853 21.76 84.8253 21.4C84.6653 21.04 84.5853 20.6667 84.5853 20.28C84.5853 19.5467 84.8186 18.9867 85.2853 18.6C85.752 18.2 86.312 18 86.9653 18C87.632 18 88.1586 18.2 88.5453 18.6C88.932 19 89.1253 19.5333 89.1253 20.2C89.1253 21.0533 88.892 21.6667 88.4253 22.04C87.972 22.4267 87.4386 22.62 86.8253 22.62Z" fill="#14A5C0"/>
</svg>
